<?xml version="1.0" encoding="UTF-8" standalone="no"?>
<svg width="30px" height="30px" viewBox="0 0 30 30" version="1.1" xmlns="http://www.w3.org/2000/svg" xmlns:xlink="http://www.w3.org/1999/xlink" xmlns:sketch="http://www.bohemiancoding.com/sketch/ns">
    <!-- Generator: Sketch 3.2.2 (9983) - http://www.bohemiancoding.com/sketch -->
    <title>ButtonLocationActive</title>
    <desc>Created with Sketch.</desc>
    <defs>
        <rect id="path-1" x="0" y="0" width="30" height="30"></rect>
    </defs>
    <g id="Contents" stroke="none" stroke-width="1" fill="none" fill-rule="evenodd" sketch:type="MSPage">
        <g id="StyleGuide" sketch:type="MSArtboardGroup" transform="translate(-217.000000, -5890.000000)">
            <g id="ButtonLocationActive" sketch:type="MSLayerGroup" transform="translate(217.000000, 5890.000000)">
                <g id="Rectangle-9">
                    <use fill="#163850" fill-rule="evenodd" sketch:type="MSShapeGroup" xlink:href="#path-1"></use>
                    <use fill="none" xlink:href="#path-1"></use>
                </g>
                <path d="M18.5,12.5305076 C18.5,10.5587647 16.9379586,8.96949237 15,8.96949237 C13.0615744,8.96949237 11.5,10.5587647 11.5,12.5305076 C11.5,14.5022506 13.0615744,16.0915229 15,16.0915229 C16.9379586,16.0915229 18.5,14.5022506 18.5,12.5305076 M22,13.1220305 C22,13.1220305 22,17.0659915 15,25 C8,17.0659915 8,13.1220305 8,13.1220305 C8,9.18994749 11.1352902,6 15,6 C18.8647098,6 22,9.18994749 22,13.1220305" id="IconLocation" fill="#FA5A60" sketch:type="MSShapeGroup"></path>
            </g>
        </g>
    </g>
</svg>