<?xml version="1.0" encoding="UTF-8"?>
<svg width="22px" height="23px" viewBox="0 0 22 23" version="1.1" xmlns="http://www.w3.org/2000/svg" xmlns:xlink="http://www.w3.org/1999/xlink">
    <!-- Generator: Sketch 40.3 (33839) - http://www.bohemiancoding.com/sketch -->
    <title>Kalender</title>
    <desc>Created with Sketch.</desc>
    <defs></defs>
    <g id="Page-1" stroke="none" stroke-width="1" fill="none" fill-rule="evenodd">
        <g id="Eventlokale-Styleguide" transform="translate(-568.000000, -8151.000000)">
            <g id="Kalender" transform="translate(569.000000, 8151.000000)">
                <g id="calendar">
                    <g id="Layer_1">
                        <rect id="Rectangle-path" stroke="#FF526E" stroke-width="2" x="0" y="2" width="20" height="20"></rect>
                        <path d="M0,6 L20,6" id="Shape" stroke="#FF526E" stroke-width="2"></path>
                        <path d="M16,4 L16,0" id="Shape" stroke="#FF526E" stroke-width="2"></path>
                        <path d="M4,4 L4,0" id="Shape" stroke="#FF526E" stroke-width="2"></path>
                        <rect id="Rectangle-path" fill="#FF526E" x="15" y="9" width="2" height="2"></rect>
                        <rect id="Rectangle-path" fill="#FF526E" x="15" y="13" width="2" height="2"></rect>
                        <rect id="Rectangle-path" fill="#FF526E" x="11" y="9" width="2" height="2"></rect>
                        <rect id="Rectangle-path" fill="#FF526E" x="11" y="13" width="2" height="2"></rect>
                        <rect id="Rectangle-path" fill="#FF526E" x="7" y="9" width="2" height="2"></rect>
                        <rect id="Rectangle-path" fill="#FF526E" x="7" y="13" width="2" height="2"></rect>
                        <rect id="Rectangle-path" fill="#FF526E" x="3" y="13" width="2" height="2"></rect>
                        <rect id="Rectangle-path" fill="#FF526E" x="11" y="17" width="2" height="2"></rect>
                        <rect id="Rectangle-path" fill="#FF526E" x="7" y="17" width="2" height="2"></rect>
                        <rect id="Rectangle-path" fill="#FF526E" x="3" y="17" width="2" height="2"></rect>
                    </g>
                </g>
            </g>
        </g>
    </g>
</svg>