<?xml version="1.0" encoding="UTF-8"?>
<svg width="51px" height="50px" viewBox="0 0 51 50" version="1.1" xmlns="http://www.w3.org/2000/svg" xmlns:xlink="http://www.w3.org/1999/xlink">
    <!-- Generator: Sketch 42 (36781) - http://www.bohemiancoding.com/sketch -->
    <title>Group 3</title>
    <desc>Created with Sketch.</desc>
    <defs></defs>
    <g id="Page-1" stroke="none" stroke-width="1" fill="none" fill-rule="evenodd">
        <g id="9---About-us" transform="translate(-719.000000, -318.000000)" fill="#00C7C7">
            <g id="Group-3" transform="translate(719.000000, 318.000000)">
                <path d="M48.4918033,49.5833333 L0.836065574,49.5833333 C0.374557377,49.5833333 0,49.2083333 0,48.75 L0,1.25 C0,0.79 0.374557377,0.416666667 0.836065574,0.416666667 C1.29757377,0.416666667 1.67213115,0.79 1.67213115,1.25 L1.67213115,47.9166667 L48.4918033,47.9166667 C48.9533115,47.9166667 49.3278689,48.2916667 49.3278689,48.75 C49.3278689,49.2083333 48.9533115,49.5833333 48.4918033,49.5833333 L48.4918033,49.5833333 Z" id="Shape"></path>
                <path d="M5.01639344,9.58333333 L1.67213115,9.58333333 C1.21062295,9.58333333 0.836065574,9.21 0.836065574,8.75 C0.836065574,8.29 1.21062295,7.91666667 1.67213115,7.91666667 L5.01639344,7.91666667 C5.47790164,7.91666667 5.85245902,8.29 5.85245902,8.75 C5.85245902,9.21 5.47790164,9.58333333 5.01639344,9.58333333 L5.01639344,9.58333333 Z" id="Shape"></path>
                <path d="M5.01639344,14.5833333 L1.67213115,14.5833333 C1.21062295,14.5833333 0.836065574,14.21 0.836065574,13.75 C0.836065574,13.29 1.21062295,12.9166667 1.67213115,12.9166667 L5.01639344,12.9166667 C5.47790164,12.9166667 5.85245902,13.29 5.85245902,13.75 C5.85245902,14.21 5.47790164,14.5833333 5.01639344,14.5833333 L5.01639344,14.5833333 Z" id="Shape"></path>
                <path d="M5.01639344,19.5833333 L1.67213115,19.5833333 C1.21062295,19.5833333 0.836065574,19.21 0.836065574,18.75 C0.836065574,18.29 1.21062295,17.9166667 1.67213115,17.9166667 L5.01639344,17.9166667 C5.47790164,17.9166667 5.85245902,18.29 5.85245902,18.75 C5.85245902,19.21 5.47790164,19.5833333 5.01639344,19.5833333 L5.01639344,19.5833333 Z" id="Shape"></path>
                <path d="M5.01639344,24.5833333 L1.67213115,24.5833333 C1.21062295,24.5833333 0.836065574,24.21 0.836065574,23.75 C0.836065574,23.29 1.21062295,22.9166667 1.67213115,22.9166667 L5.01639344,22.9166667 C5.47790164,22.9166667 5.85245902,23.29 5.85245902,23.75 C5.85245902,24.21 5.47790164,24.5833333 5.01639344,24.5833333 L5.01639344,24.5833333 Z" id="Shape"></path>
                <path d="M11.9824918,40.6583333 C9.21678689,40.6583333 6.96609836,38.415 6.96609836,35.6583333 C6.96609836,32.905 9.21678689,30.6583333 11.9824918,30.6583333 C14.7481967,30.6583333 16.9988852,32.905 16.9988852,35.6583333 C16.9988852,38.415 14.7481967,40.6583333 11.9824918,40.6583333 L11.9824918,40.6583333 Z M11.9824918,32.325 C10.136459,32.325 8.63822951,33.82 8.63822951,35.6583333 C8.63822951,37.4983333 10.136459,38.9916667 11.9824918,38.9916667 C13.8285246,38.9916667 15.3267541,37.4983333 15.3267541,35.6583333 C15.3267541,33.82 13.8285246,32.325 11.9824918,32.325 L11.9824918,32.325 Z" id="Shape"></path>
                <path d="M32.8841311,34.4083333 C30.1200984,34.4083333 27.8677377,32.165 27.8677377,29.4083333 C27.8677377,26.655 30.1200984,24.4083333 32.8841311,24.4083333 C35.6481639,24.4083333 37.9005246,26.6516667 37.9005246,29.4083333 C37.9005246,32.165 35.6481639,34.4083333 32.8841311,34.4083333 L32.8841311,34.4083333 Z M32.8841311,26.075 C31.0380984,26.075 29.5398689,27.57 29.5398689,29.4083333 C29.5398689,31.2483333 31.0380984,32.7416667 32.8841311,32.7416667 C34.7301639,32.7416667 36.2283934,31.2483333 36.2283934,29.4083333 C36.2283934,27.57 34.7318361,26.075 32.8841311,26.075 L32.8841311,26.075 Z" id="Shape"></path>
                <path d="M45.4251148,11.4916667 C42.661082,11.4916667 40.4087213,9.24833333 40.4087213,6.49166667 C40.4087213,3.735 42.661082,1.49166667 45.4251148,1.49166667 C48.1891475,1.49166667 50.4415082,3.735 50.4415082,6.49166667 C50.4415082,9.24833333 48.1891475,11.4916667 45.4251148,11.4916667 L45.4251148,11.4916667 Z M45.4251148,3.15833333 C43.579082,3.15833333 42.0808525,4.65333333 42.0808525,6.49166667 C42.0808525,8.33 43.579082,9.825 45.4251148,9.825 C47.2711475,9.825 48.769377,8.33 48.769377,6.49166667 C48.769377,4.65333333 47.2728197,3.15833333 45.4251148,3.15833333 L45.4251148,3.15833333 Z" id="Shape"></path>
                <path d="M34.884,26.5883333 C34.7485574,26.5883333 34.6114426,26.555 34.4843607,26.4866667 C34.0797049,26.2633333 33.9292131,25.7566667 34.1516066,25.3516667 L42.6928525,9.74166667 C42.9135738,9.33833333 43.4252459,9.18833333 43.8282295,9.40833333 C44.2328852,9.62833333 44.383377,10.135 44.1609836,10.5383333 L35.6197377,26.1466667 C35.4675738,26.4283333 35.1799672,26.5883333 34.884,26.5883333 L34.884,26.5883333 Z" id="Shape"></path>
                <path d="M16.1628197,35.405 C15.8066557,35.405 15.4772459,35.175 15.3652131,34.8166667 C15.2280984,34.375 15.4722295,33.9116667 15.9136721,33.775 L28.4546557,29.905 C28.9027869,29.7683333 29.3659672,30.0116667 29.503082,30.455 C29.6368525,30.895 29.3943934,31.36 28.9512787,31.4966667 L16.4102951,35.3666667 C16.3300328,35.3933333 16.2447541,35.405 16.1628197,35.405 L16.1628197,35.405 Z" id="Shape"></path>
                <path d="M5.05485246,46.2166667 C4.88095082,46.2166667 4.70704918,46.1633333 4.55655738,46.0483333 C4.18367213,45.7733333 4.10842623,45.25 4.38265574,44.885 L9.03619672,38.6583333 C9.31042623,38.29 9.83714754,38.2083333 10.2033443,38.485 C10.5728852,38.76 10.6531475,39.2833333 10.3755738,39.65 L5.72537705,45.8783333 C5.56318033,46.1 5.31236066,46.2166667 5.05485246,46.2166667 L5.05485246,46.2166667 Z" id="Shape"></path>
            </g>
        </g>
    </g>
</svg>