<?xml version="1.0" encoding="UTF-8"?>
<svg width="40px" height="53px" viewBox="0 0 40 53" version="1.1" xmlns="http://www.w3.org/2000/svg" xmlns:xlink="http://www.w3.org/1999/xlink">
    <!-- Generator: Sketch 42 (36781) - http://www.bohemiancoding.com/sketch -->
    <title>Group</title>
    <desc>Created with Sketch.</desc>
    <defs></defs>
    <g id="Page-1" stroke="none" stroke-width="1" fill="none" fill-rule="evenodd">
        <g id="9---About-us" transform="translate(-1100.000000, -317.000000)" fill="#00C7C7">
            <g id="Group" transform="translate(1100.000000, 317.000000)">
                <path d="M29.625,47.7 C29.45,47.7 29.275,47.7 29.1,47.5233333 C22.625,42.2233333 15.8,36.04 13.875,29.15 C13.175,26.3233333 14.75,23.32 17.375,22.6133333 C18.775,22.26 20.175,22.4366667 21.225,22.9666667 C22.45,23.6733333 23.325,24.7333333 23.675,26.1466667 C24.55,29.15 28.575,33.7433333 35.225,39.0433333 C35.575,39.3966667 35.575,39.9266667 35.4,40.28 C35.05,40.6333333 34.525,40.6333333 34.175,40.4566667 C29.275,36.57 23.325,30.9166667 22.1,26.6766667 C21.925,25.7933333 21.225,24.91 20.35,24.5566667 C19.475,24.0266667 18.6,24.0266667 17.725,24.2033333 C15.975,24.7333333 14.75,26.6766667 15.275,28.62 C17.025,34.98 23.675,41.1633333 29.8,46.11 C30.15,46.4633333 30.15,46.9933333 29.975,47.3466667 C30.15,47.5233333 29.8,47.7 29.625,47.7 L29.625,47.7 Z" id="Shape"></path>
                <path d="M1.625,42.4 C1.275,42.4 0.925,42.2233333 0.75,41.87 C0.575,41.34 0.925,40.9866667 1.275,40.81 C3.375,40.1033333 7.05,37.2766667 5.475,31.6233333 C4.425,28.09 4.95,24.38 6.7,20.8466667 C8.45,17.49 11.425,15.0166667 14.925,13.9566667 C22.1,11.8366667 29.625,16.0766667 31.9,23.32 C32.425,23.85 35.75,26.6766667 38.725,29.15 C39.075,29.5033333 39.075,30.0333333 38.9,30.3866667 C38.55,30.74 38.025,30.74 37.675,30.5633333 C30.85,24.7333333 30.5,24.38 30.5,24.2033333 L30.5,24.0266667 C28.575,17.49 21.925,13.78 15.625,15.7233333 C12.475,16.6066667 10.025,18.7266667 8.45,21.73 C6.875,24.7333333 6.525,27.9133333 7.4,31.0933333 C9.15,37.1 5.825,41.1633333 1.975,42.4 L1.625,42.4 L1.625,42.4 Z" id="Shape"></path>
                <path d="M5.125,46.8166667 C4.775,46.8166667 4.425,46.64 4.25,46.2866667 C4.075,45.7566667 4.425,45.4033333 4.775,45.2266667 C9.5,43.8133333 11.95,40.81 9.675,30.3866667 C8.45,24.91 11.25,19.7866667 16.15,18.3733333 C18.6,17.6666667 21.05,18.02 23.325,19.2566667 C25.6,20.4933333 27.175,22.6133333 27.875,25.0866667 C28.225,26.1466667 28.75,28.09 36.975,34.8033333 C37.325,35.1566667 37.325,35.6866667 37.15,36.04 C36.8,36.3933333 36.275,36.3933333 35.925,36.2166667 C27.875,29.68 26.65,27.3833333 26.3,25.6166667 C25.775,23.4966667 24.375,21.73 22.45,20.8466667 C20.7,19.7866667 18.6,19.61 16.675,20.14 C12.65,21.3766667 10.375,25.6166667 11.425,30.21 C13.525,40.1033333 11.775,45.05 5.3,47.17 C5.3,46.8166667 5.3,46.8166667 5.125,46.8166667 L5.125,46.8166667 Z" id="Shape"></path>
                <path d="M33.125,44.1666667 C32.95,44.1666667 32.6,43.99 32.425,43.8133333 C32.075,43.46 31.2,42.7533333 30.15,41.87 C26.3,38.8666667 19.65,33.7433333 18.075,27.7366667 C17.9,27.2066667 18.25,26.8533333 18.6,26.6766667 C19.125,26.5 19.475,26.8533333 19.65,27.2066667 C21.225,32.6833333 27.35,37.4533333 31.2,40.4566667 C32.25,41.34 33.3,42.0466667 33.65,42.5766667 C34,42.93 34,43.46 33.65,43.8133333 C33.65,44.1666667 33.3,44.1666667 33.125,44.1666667 L33.125,44.1666667 Z" id="Shape"></path>
                <path d="M17.375,53 C16.85,53 16.5,52.6466667 16.5,52.1166667 C16.5,51.5866667 16.325,46.8166667 18.25,44.8733333 C18.775,44.3433333 19.3,43.99 20,43.99 C22.625,43.99 24.55,46.64 25.95,48.4066667 C26.3,48.9366667 26.65,49.29 26.825,49.4666667 C27.175,49.82 27.175,50.35 26.825,50.7033333 C26.475,51.0566667 25.95,51.0566667 25.6,50.7033333 C25.25,50.35 24.9,49.9966667 24.55,49.4666667 C23.325,48.23 21.75,45.9333333 20,45.9333333 C19.825,45.9333333 19.65,45.9333333 19.475,46.2866667 C18.425,47.3466667 18.25,50.35 18.25,52.1166667 C18.25,52.6466667 17.9,53 17.375,53 L17.375,53 L17.375,53 Z" id="Shape"></path>
                <path d="M9.5,51.2333333 C9.15,51.2333333 8.8,51.0566667 8.625,50.7033333 C8.45,50.1733333 8.8,49.82 9.15,49.6433333 C12.125,48.5833333 13.875,41.34 13,38.3366667 C12.825,37.8066667 13.175,37.4533333 13.525,37.2766667 C14.05,37.1 14.4,37.4533333 14.575,37.8066667 C15.8,41.5166667 13.7,49.9966667 9.675,51.2333333 C9.675,51.2333333 9.675,51.2333333 9.5,51.2333333 L9.5,51.2333333 Z" id="Shape"></path>
                <path d="M1.625,28.4433333 C1.1,28.4433333 0.75,28.09 0.75,27.56 C0.75,17.1366667 8.975,8.83333333 18.95,8.83333333 C28.75,8.83333333 32.425,14.4866667 34.875,18.7266667 C36.1,20.67 37.15,22.4366667 38.55,22.9666667 C39.075,23.1433333 39.25,23.6733333 39.075,24.0266667 C38.9,24.5566667 38.375,24.7333333 38.025,24.5566667 C35.925,23.85 34.7,21.9066667 33.3,19.61 C30.85,15.7233333 27.875,10.6 18.95,10.6 C9.85,10.6 2.5,18.1966667 2.5,27.56 C2.5,28.09 2.15,28.4433333 1.625,28.4433333 L1.625,28.4433333 Z" id="Shape"></path>
                <path d="M2.5,36.2166667 C2.15,36.2166667 1.975,36.04 1.8,35.6866667 C1.625,35.51 0.75,33.92 0.75,32.6833333 C0.75,32.1533333 1.1,31.8 1.625,31.8 C2.15,31.8 2.5,32.1533333 2.5,32.6833333 C2.5,33.39 3.025,34.6266667 3.2,34.98 C3.375,35.3333333 3.375,35.8633333 2.85,36.2166667 L2.5,36.2166667 L2.5,36.2166667 Z" id="Shape"></path>
                <path d="M34,12.0133333 C33.65,12.0133333 33.475,11.8366667 33.3,11.66 C32.25,9.89333333 26.3,5.47666667 17.9,5.47666667 C9.15,5.47666667 4.425,10.07 3.55,11.66 C3.2,12.0133333 2.675,12.19 2.15,11.8366667 C1.8,11.66 1.625,11.13 1.975,10.6 C3.2,8.65666667 8.275,3.53333333 17.9,3.53333333 C27,3.53333333 33.475,8.12666667 34.875,10.6 C35.05,10.9533333 35.05,11.4833333 34.525,11.8366667 C34.35,12.0133333 34.175,12.0133333 34,12.0133333 L34,12.0133333 Z" id="Shape"></path>
                <path d="M29.8,4.06333333 L29.45,4.06333333 C29.1,3.88666667 28.575,3.71 28.225,3.53333333 C25.95,2.65 23.85,1.76666667 17.9,1.76666667 C12.65,1.76666667 11.425,2.47333333 9.85,3.18 C9.325,3.53333333 8.975,3.71 8.45,3.88666667 C8.1,4.06333333 7.575,3.88666667 7.4,3.53333333 C7.05,3.00333333 7.225,2.47333333 7.75,2.29666667 C8.275,2.12 8.625,1.94333333 8.975,1.76666667 C10.725,0.883333333 12.125,0 17.9,0 C24.025,0 26.475,0.883333333 28.925,1.76666667 C29.275,1.94333333 29.8,2.12 30.15,2.29666667 C30.5,2.47333333 30.675,3.00333333 30.5,3.35666667 C30.5,3.71 30.15,4.06333333 29.8,4.06333333 L29.8,4.06333333 Z" id="Shape"></path>
                <path d="M38.375,19.4333333 C38.025,19.4333333 37.675,19.2566667 37.5,18.7266667 C36.975,17.1366667 35.4,14.6633333 35.4,14.6633333 C35.225,14.31 35.225,13.78 35.75,13.4266667 C36.1,13.25 36.625,13.25 36.975,13.78 C36.975,13.9566667 38.725,16.43 39.25,18.3733333 C39.425,18.9033333 39.075,19.2566667 38.725,19.4333333 L38.375,19.4333333 L38.375,19.4333333 Z" id="Shape"></path>
            </g>
        </g>
    </g>
</svg>