<?xml version="1.0" encoding="UTF-8"?>
<svg width="53px" height="56px" viewBox="0 0 53 56" version="1.1" xmlns="http://www.w3.org/2000/svg" xmlns:xlink="http://www.w3.org/1999/xlink">
    <!-- Generator: Sketch 42 (36781) - http://www.bohemiancoding.com/sketch -->
    <title>Party</title>
    <desc>Created with Sketch.</desc>
    <defs></defs>
    <g id="Page-1" stroke="none" stroke-width="1" fill="none" fill-rule="evenodd">
        <g id="9---About-us" transform="translate(-333.000000, -322.000000)" fill="#00C7C7">
            <g id="Party" transform="translate(360.394478, 347.455138) rotate(-15.000000) translate(-360.394478, -347.455138) translate(335.894478, 321.455138)">
                <path d="M7.76245965,28.6 C7.76245965,29.0784 7.37819649,29.4666667 6.90281053,29.4666667 C6.42828421,29.4666667 6.03886316,29.0784 6.03886316,28.6 C6.03886316,28.1216 6.41968772,27.7333333 6.89421404,27.7333333 L6.90281053,27.7333333 C7.37819649,27.7333333 7.76245965,28.1216 7.76245965,28.6 L7.76245965,28.6 L7.76245965,28.6 Z M35.2669333,9.53333333 C35.2669333,9.05493333 35.6477579,8.66666667 36.1222842,8.66666667 L36.1308807,8.66666667 C36.6062667,8.66666667 36.9905298,9.05493333 36.9905298,9.53333333 C36.9905298,10.0117333 36.6062667,10.4 36.1308807,10.4 C35.6563544,10.4 35.2669333,10.0117333 35.2669333,9.53333333 L35.2669333,9.53333333 L35.2669333,9.53333333 Z M9.47745965,4.33333333 C9.47745965,3.85493333 9.85828421,3.46666667 10.3328105,3.46666667 L10.341407,3.46666667 C10.816793,3.46666667 11.2010561,3.85493333 11.2010561,4.33333333 C11.2010561,4.81173333 10.816793,5.2 10.341407,5.2 C9.8668807,5.2 9.47745965,4.81173333 9.47745965,4.33333333 L9.47745965,4.33333333 L9.47745965,4.33333333 Z M45.4554947,8.4422 C45.476986,8.5228 45.6600912,9.25686667 45.4881614,10.1036 C45.2440211,11.3074 44.4058632,12.1610667 43.1284246,12.506 C42.6384246,12.6386 42.5404246,12.857 42.4742316,13.9724 C42.4140561,14.9907333 42.3220737,16.5299333 40.5494772,17.0092 C39.8978632,17.1851333 39.5419684,17.5274667 39.4284947,18.0847333 C39.3382316,18.5276 39.4370912,18.9453333 39.4379509,18.9496667 C39.5608807,19.4116 39.2883719,19.8874 38.8301789,20.0113333 C38.7553895,20.0312667 38.6806,20.0416667 38.6066702,20.0416667 C38.2275649,20.0416667 37.8802667,19.786 37.7771088,19.3986 C37.7556175,19.318 37.5716526,18.5848 37.7435825,17.7372 C37.9885825,16.5334 38.8267404,15.6806 40.1041789,15.3348 C40.5941789,15.2030667 40.6921789,14.9838 40.7583719,13.8684 C40.8185474,12.8492 40.9105298,11.31 42.6831263,10.8316 C43.3347404,10.6556667 43.6906351,10.3142 43.8041088,9.75606667 C43.8935123,9.3132 43.7955123,8.89546667 43.7946526,8.89113333 C43.6717228,8.4292 43.9433719,7.9534 44.4024246,7.82946667 C44.8614772,7.70466667 45.3325649,7.98026667 45.4554947,8.4422 L45.4554947,8.4422 L45.4554947,8.4422 Z M47.9845825,30.9460667 C46.9701965,31.9687333 47.7318456,32.9238 47.9888807,33.1924667 C48.3172667,33.5339333 48.3129684,34.0816667 47.9768456,34.4153333 C47.8083544,34.5817333 47.5908632,34.6658 47.3725123,34.6658 C47.1541614,34.6658 46.9358105,34.5808667 46.7690386,34.4127333 C45.8328807,33.4698 45.0609158,31.4418 46.7690386,29.7206 C47.1275123,29.3592 47.1034421,29.12 46.6074246,28.1207333 C46.1552491,27.2081333 45.4709684,25.8292667 46.7690386,24.5206 C47.7825649,23.4979333 47.0209158,22.5428667 46.7638807,22.2742 C46.4354947,21.9327333 46.439793,21.385 46.7759158,21.0513333 C47.1128982,20.7185333 47.6501789,20.7176667 47.9845825,21.0539333 C48.9198807,21.9968667 49.6918456,24.0248667 47.9845825,25.7460667 C47.6261088,26.1074667 47.6493193,26.3466667 48.1453368,27.3459333 C48.5975123,28.2585333 49.281793,29.6374 47.9845825,30.9460667 L47.9845825,30.9460667 L47.9845825,30.9460667 Z M5.18695088,16.8142 C5.31847719,16.3210667 5.17921404,16.1252 4.25423158,15.5098667 C3.41005614,14.9482667 2.13347719,14.0980667 2.60800351,12.311 C2.78337193,11.6540667 2.6673193,11.1730667 2.24523158,10.7952 C1.90910877,10.4944667 1.50077544,10.3714 1.49647719,10.3705333 C1.03828421,10.2466 0.765775439,9.77166667 0.888705263,9.30886667 C1.01163509,8.84693333 1.48014386,8.57046667 1.94177544,8.69613333 C2.02172281,8.7178 2.74382807,8.92406667 3.38512632,9.4978 C4.29807368,10.3133333 4.61098596,11.4720667 4.26884561,12.7599333 C4.1373193,13.2530667 4.27744211,13.4489333 5.20156491,14.0642667 C6.0466,14.6258667 7.32317895,15.4760667 6.84779298,17.2631333 C6.67328421,17.9200667 6.78847719,18.4010667 7.21142456,18.7789333 C7.54754737,19.0796667 7.9558807,19.2027333 7.9593193,19.2036 C8.41751228,19.3275333 8.69002105,19.8024667 8.56709123,20.2652667 C8.46393333,20.6526667 8.11749474,20.9083333 7.73752982,20.9083333 C7.6636,20.9083333 7.58881053,20.8979333 7.51402105,20.878 C7.43407368,20.8563333 6.71282807,20.6500667 6.07067018,20.0763333 C5.15858246,19.2608 4.84481053,18.1020667 5.18695088,16.8142 L5.18695088,16.8142 L5.18695088,16.8142 Z M24.9296526,1.73333333 C26.8260386,1.73333333 28.3682491,3.28813333 28.3682491,5.2 C28.3682491,7.11186667 26.8260386,8.66666667 24.9296526,8.66666667 C23.0341263,8.66666667 21.4910561,7.11186667 21.4910561,5.2 C21.4910561,3.28813333 23.0341263,1.73333333 24.9296526,1.73333333 L24.9296526,1.73333333 L24.9296526,1.73333333 Z M28.1636526,11.8265333 C27.9865649,11.3845333 27.4862491,11.1696 27.0452491,11.3481333 C26.6042491,11.5275333 26.3919158,12.0319333 26.5698632,12.4765333 L41.7082842,50.2666667 L14.2545298,50.2666667 L36.8667404,44.8812 C37.3292316,44.7711333 37.6154947,44.304 37.5063193,43.8386 C37.3971439,43.3723333 36.9329333,43.0828667 36.4713018,43.1938 L8.29544211,49.9052667 L11.3489158,42.2734 L33.2940386,37.0534667 C33.7556702,36.9442667 34.0419333,36.4771333 33.9327579,36.0117333 C33.8244421,35.5454667 33.3593719,35.2551333 32.8994596,35.3669333 L12.1363544,40.3060667 L15.1734947,32.7158 L29.8021439,29.2266 C30.2637754,29.1165333 30.5500386,28.6494 30.4408632,28.184 C30.3316877,27.7177333 29.8648982,27.43 29.4067053,27.5400667 L15.9609333,30.7467333 L18.9697053,23.2266667 L26.8208807,21.3451333 C27.2833719,21.2342 27.5687754,20.7670667 27.4587404,20.3016667 C27.3487053,19.8354 26.8844947,19.5476667 26.4237228,19.6594667 L19.7580035,21.2558667 L24.1293193,10.3306667 C24.3906526,10.3722667 24.6571439,10.4 24.9296526,10.4 C27.7742316,10.4 30.0875474,8.0678 30.0875474,5.2 C30.0875474,2.3322 27.7742316,-5.68434189e-14 24.9296526,-5.68434189e-14 C22.0859333,-5.68434189e-14 19.7717579,2.3322 19.7717579,5.2 C19.7717579,7.18033333 20.8755474,8.90413333 22.4951263,9.78206667 L6.08012632,50.8092 C6.06035439,50.8586 6.05089825,50.9088667 6.04058246,50.96 C6.03714386,50.973 6.03198596,50.986 6.02940702,50.999 C6.01393333,51.0995333 6.01995088,51.2009333 6.03972281,51.2997333 C6.04230175,51.311 6.03800351,51.3214 6.04058246,51.3326667 C6.0431614,51.3448 6.05089825,51.3534667 6.05433684,51.3656 C6.07582807,51.441 6.10505614,51.5129333 6.1463193,51.5822667 C6.15147719,51.5909333 6.15405614,51.6013333 6.16007368,51.61 C6.16179298,51.6126 6.16265263,51.6160667 6.16437193,51.6186667 C6.21165263,51.688 6.26924912,51.7469333 6.33286316,51.7998 C6.34919649,51.8136667 6.36810877,51.8240667 6.3861614,51.8370667 C6.43945965,51.8743333 6.49619649,51.9064 6.55637193,51.9306667 C6.57872281,51.9402 6.60021404,51.9488667 6.62342456,51.9566667 C6.70423158,51.9818 6.78761754,51.9991333 6.87444211,52 L6.8761614,52 L6.87702105,52 L6.87702105,52 L42.9822842,52 C43.2685474,52 43.5350386,51.857 43.6949333,51.6178 C43.8548281,51.3794667 43.8866351,51.0761333 43.7791789,50.8083333 L28.1636526,11.8265333 L28.1636526,11.8265333 Z" id="party-hat"></path>
            </g>
        </g>
    </g>
</svg>