<?xml version="1.0" encoding="utf-8"?>
<!-- Generator: Adobe Illustrator 16.0.3, SVG Export Plug-In . SVG Version: 6.00 Build 0)  -->
<!DOCTYPE svg PUBLIC "-//W3C//DTD SVG 1.1//EN" "http://www.w3.org/Graphics/SVG/1.1/DTD/svg11.dtd">
<svg version="1.1" id="Ebene_1" xmlns="http://www.w3.org/2000/svg" xmlns:xlink="http://www.w3.org/1999/xlink" x="0px" y="0px"
	 width="265px" height="71px" viewBox="0 0 265 71" enable-background="new 0 0 265 71" xml:space="preserve">
<g>
	<path opacity="0.2" fill="#272E61" d="M12.105,22.213c2.785,0,5.04-2.352,5.04-5.253c0-2.902-2.255-5.256-5.04-5.256
		c-2.782,0-5.037,2.354-5.037,5.256C7.068,19.861,9.323,22.213,12.105,22.213"/>
	<path opacity="0.2" fill="#272E61" d="M23.219,24.255c-0.771-0.888-2.351-1.436-5.037-1.498c-2.564-0.058-5.352-0.039-5.973-0.034
		c-0.621-0.005-3.407-0.023-5.971,0.034c-2.688,0.063-4.267,0.61-5.038,1.498c-1.325,1.521-1.142,3.388-1.2,4.75l0.016,12.429
		c0,0,0,0.102,0,0.151c0,1.274,1.045,2.306,2.334,2.309c2.102,0.008,2.367-1.727,2.367-2.46S4.705,30.021,4.705,30.021
		s0.56,0.007,1.146,0.002v2.594c0,0.002,0,0.002,0,0.005v28.63c0,1.498,1.224,2.712,2.738,2.712c1.512,0,2.739-1.214,2.739-2.712
		v-14.74h1.691v14.74c0,1.498,1.226,2.712,2.738,2.712c1.514,0,2.739-1.214,2.739-2.712V30.022c0.614,0.006,1.217-0.002,1.217-0.002
		s-0.011,10.68-0.011,11.413s0.264,2.468,2.365,2.46c1.29-0.003,2.335-1.034,2.335-2.309c0-0.05,0-0.151,0-0.151l0.015-12.429
		C24.36,27.643,24.544,25.775,23.219,24.255"/>
	<path opacity="0.2" fill="#272E61" d="M70.063,20.73c2.955,0,5.348-2.496,5.348-5.575c0-3.08-2.394-5.576-5.348-5.576
		c-2.952,0-5.346,2.496-5.346,5.576C64.717,18.234,67.111,20.73,70.063,20.73"/>
	<path fill="#73797C" d="M66.988,1.695c-2.119-1.756-3.581-0.526-4.087,0.088c-0.481,0.586-11.333,12.878-13.223,12.878
		c-3.289,0-12.222-0.037-15.58-0.037c-1.89,0-12.742-12.294-13.225-12.878c-0.505-0.616-1.968-1.844-4.088-0.089
		c-1.3,1.076-1.646,2.808-0.767,3.876c0.034,0.042,0.104,0.124,0.104,0.124l11.883,13.416c2.134,2.384,5.586,5.771,5.586,5.771v2.83
		v39.033c0,1.98,1.606,3.585,3.588,3.585c1.98,0,3.584-1.604,3.584-3.585v-19.88h1.094v0.036h1.153v19.882
		c0,1.98,1.606,3.587,3.587,3.587c1.982,0,3.587-1.606,3.587-3.587V27.713c0-0.001,0-2.832,0-2.832s3.454-3.385,5.585-5.768
		L67.651,5.696c0,0,0.069-0.084,0.104-0.126C68.636,4.503,68.29,2.771,66.988,1.695"/>
	<path fill="#73797C" d="M41.886,13.838c3.627,0,6.567-3.098,6.567-6.919S45.513,0,41.886,0c-3.626,0-6.564,3.098-6.564,6.919
		S38.26,13.838,41.886,13.838"/>
	<path opacity="0.2" fill="#272E61" d="M62.218,36.379c-0.003-3.4-0.007-7.364-0.007-7.364s0.592,0.007,1.216,0.002v2.754
		c0,0.001,0,0.002,0,0.004v4.264c0.944-0.216,1.935-0.329,2.967-0.329c1.248,0,2.411,0.178,3.476,0.526h6.975v-7.219
		c0.652,0.006,1.292-0.002,1.292-0.002s-0.004,3.854-0.007,7.221H82.1l1.028-0.017l0.001-8.281
		c-0.062-1.446,0.133-3.428-1.273-5.041c-0.818-0.941-2.494-1.524-5.345-1.59c-2.721-0.062-5.678-0.042-6.337-0.036
		c-0.66-0.006-3.616-0.025-6.336,0.036c-2.851,0.065-4.526,0.648-5.346,1.59c-1.407,1.613-1.212,3.595-1.274,5.041l0.015,11.765
		C58.627,38.146,60.31,37.028,62.218,36.379"/>
	<path fill="#73797C" d="M79.017,58.398c0,3.998-1.158,7.092-3.472,9.287s-5.665,3.292-10.055,3.292
		c-2.902,0-5.202-0.415-6.898-1.24v-5.597c2.216,1.292,4.452,1.936,6.71,1.936c2.244,0,3.983-0.594,5.217-1.777
		c1.234-1.186,1.85-2.795,1.85-4.827v-1.705h-0.083c-1.515,2.413-3.752,3.618-6.71,3.618c-2.749,0-4.929-0.966-6.542-2.903
		c-1.612-1.935-2.419-4.528-2.419-7.783c0-3.645,0.898-6.541,2.693-8.686c1.794-2.146,4.158-3.219,7.088-3.219
		c2.624,0,4.587,1.011,5.891,3.028h0.083v-2.504h6.648V58.398 M72.454,50.51v-1.703c0-1.359-0.403-2.521-1.21-3.482
		c-0.806-0.96-1.854-1.44-3.145-1.44c-1.473,0-2.63,0.575-3.471,1.725c-0.842,1.15-1.262,2.771-1.262,4.86
		c0,1.795,0.399,3.214,1.198,4.259c0.801,1.046,1.894,1.567,3.282,1.567c1.374,0,2.486-0.529,3.333-1.589
		C72.028,53.647,72.454,52.248,72.454,50.51z"/>
	<path fill="#73797C" d="M101.589,60.86h-6.29v-3.094h-0.085c-1.444,2.413-3.583,3.618-6.415,3.618c-2.09,0-3.733-0.591-4.934-1.776
		c-1.199-1.185-1.798-2.766-1.798-4.744c0-4.178,2.476-6.591,7.426-7.236l5.848-0.777c0-2.356-1.276-3.535-3.828-3.535
		c-2.566,0-5.007,0.768-7.321,2.293v-5.005c0.925-0.478,2.191-0.897,3.797-1.263c1.605-0.363,3.067-0.547,4.385-0.547
		c6.143,0,9.214,3.064,9.214,9.192V60.86 M95.341,52.109v-1.452l-3.912,0.506c-2.161,0.281-3.24,1.255-3.24,2.924
		c0,0.756,0.263,1.377,0.789,1.862c0.526,0.483,1.238,0.725,2.135,0.725c1.249,0,2.264-0.432,3.05-1.293
		C94.948,54.518,95.341,53.428,95.341,52.109z"/>
	<path fill="#73797C" d="M105.489,60.292v-5.386c1.095,0.659,2.185,1.151,3.272,1.474c1.086,0.322,2.114,0.483,3.082,0.483
		c1.178,0,2.107-0.161,2.787-0.483c0.68-0.322,1.02-0.814,1.02-1.474c0-0.42-0.153-0.772-0.461-1.051
		c-0.311-0.281-0.705-0.527-1.189-0.737c-0.483-0.21-1.013-0.398-1.588-0.567c-0.576-0.17-1.129-0.358-1.661-0.567
		c-0.857-0.324-1.61-0.67-2.263-1.041c-0.652-0.372-1.198-0.804-1.64-1.294c-0.442-0.491-0.779-1.06-1.011-1.705
		c-0.231-0.645-0.348-1.41-0.348-2.292c0-1.206,0.264-2.243,0.79-3.113c0.525-0.87,1.227-1.581,2.104-2.137
		c0.875-0.553,1.878-0.958,3.007-1.221c1.13-0.258,2.303-0.387,3.523-0.387c0.954,0,1.923,0.073,2.903,0.22
		c0.981,0.147,1.949,0.362,2.904,0.642v5.134c-0.842-0.49-1.744-0.858-2.704-1.104c-0.961-0.246-1.904-0.369-2.829-0.369
		c-0.436,0-0.846,0.041-1.232,0.116c-0.384,0.077-0.724,0.189-1.019,0.335c-0.295,0.148-0.526,0.338-0.695,0.571
		c-0.167,0.229-0.252,0.492-0.252,0.788c0,0.392,0.127,0.729,0.38,1.01c0.252,0.282,0.582,0.522,0.988,0.725
		c0.406,0.203,0.859,0.387,1.356,0.548c0.497,0.161,0.991,0.325,1.483,0.493c0.883,0.308,1.682,0.646,2.398,1.012
		c0.716,0.364,1.329,0.793,1.841,1.281c0.511,0.492,0.904,1.065,1.178,1.726c0.274,0.658,0.41,1.445,0.41,2.356
		c0,1.276-0.277,2.364-0.831,3.27c-0.554,0.905-1.291,1.643-2.209,2.21c-0.917,0.566-1.977,0.98-3.175,1.24
		c-1.2,0.26-2.443,0.389-3.734,0.389C109.705,61.385,107.509,61.02,105.489,60.292"/>
	<path fill="#73797C" d="M138.395,60.606c-0.98,0.52-2.461,0.778-4.438,0.778c-4.686,0-7.025-2.432-7.025-7.298V44.22h-3.492v-4.901
		h3.492v-4.646l6.625-1.896v6.541h4.838v4.901h-4.838v8.71c0,2.243,0.891,3.365,2.671,3.365c0.702,0,1.424-0.203,2.167-0.608V60.606
		"/>
	<path fill="#73797C" d="M156.278,45.314c-0.799-0.434-1.732-0.651-2.798-0.651c-1.444,0-2.579,0.528-3.393,1.588
		c-0.813,1.058-1.22,2.499-1.22,4.322V60.86h-6.648V39.318h6.648v3.997h0.083c1.053-2.915,2.951-4.375,5.688-4.375
		c0.7,0,1.248,0.085,1.64,0.252V45.314"/>
	<path fill="#73797C" d="M169.566,61.385c-3.589,0-6.41-1.005-8.466-3.018c-2.053-2.012-3.083-4.743-3.083-8.194
		c0-3.562,1.065-6.349,3.199-8.36c2.132-2.012,5.013-3.019,8.646-3.019c3.573,0,6.378,1.007,8.411,3.019
		c2.034,2.012,3.051,4.673,3.051,7.982c0,3.576-1.05,6.402-3.146,8.479C176.085,60.347,173.214,61.385,169.566,61.385
		 M169.735,43.884c-1.571,0-2.793,0.539-3.66,1.62c-0.871,1.081-1.304,2.608-1.304,4.585c0,4.137,1.668,6.206,5.005,6.206
		c3.186,0,4.773-2.125,4.773-6.374C174.55,45.898,172.948,43.884,169.735,43.884z"/>
	<path fill="#73797C" d="M185.578,61.322c-0.646,0-1.196-0.23-1.652-0.694c-0.454-0.464-0.684-1.016-0.684-1.662
		c0-0.644,0.229-1.201,0.684-1.672c0.456-0.47,1.007-0.703,1.652-0.703c0.658,0,1.22,0.233,1.683,0.703
		c0.463,0.471,0.696,1.028,0.696,1.672c0,0.646-0.233,1.198-0.696,1.662S186.236,61.322,185.578,61.322"/>
	<path opacity="0.5" fill="#73797C" d="M196.543,59.954c0,3.536-0.711,6.26-2.136,8.172c-1.422,1.916-3.459,2.874-6.111,2.874
		c-0.979,0-1.933-0.227-2.858-0.675v-3.219c1.037,0.632,2.021,0.948,2.944,0.948c3.141,0,4.712-2.511,4.712-7.531V39.318h3.449
		V59.954 M194.862,33.849c-0.619,0-1.146-0.208-1.578-0.63c-0.437-0.421-0.653-0.953-0.653-1.598c0-0.646,0.217-1.183,0.653-1.609
		c0.432-0.428,0.959-0.643,1.578-0.643c0.63,0,1.166,0.215,1.609,0.643c0.44,0.427,0.661,0.963,0.661,1.609
		c0,0.617-0.221,1.143-0.661,1.577C196.028,33.633,195.492,33.849,194.862,33.849z"/>
	<path opacity="0.5" fill="#73797C" d="M211.825,61.364c-3.185,0-5.728-1.006-7.626-3.019c-1.9-2.012-2.851-4.681-2.851-8.004
		c0-3.62,0.989-6.442,2.966-8.477s4.649-3.051,8.015-3.051c3.212,0,5.717,0.99,7.521,2.966c1.802,1.977,2.702,4.72,2.702,8.226
		c0,3.436-0.973,6.188-2.915,8.256S215.092,61.364,211.825,61.364 M212.077,41.719c-2.217,0-3.971,0.753-5.259,2.261
		c-1.292,1.507-1.936,3.587-1.936,6.236c0,2.554,0.651,4.564,1.956,6.038c1.306,1.472,3.051,2.207,5.238,2.207
		c2.23,0,3.943-0.721,5.144-2.166c1.197-1.443,1.798-3.499,1.798-6.163c0-2.693-0.601-4.767-1.798-6.228
		C216.021,42.446,214.308,41.719,212.077,41.719z"/>
	<path opacity="0.5" fill="#73797C" d="M230.977,57.746h-0.083v3.114h-3.449v-31.89h3.449v14.135h0.083
		c1.698-2.859,4.18-4.291,7.448-4.291c2.761,0,4.926,0.965,6.489,2.893c1.565,1.929,2.346,4.511,2.346,7.751
		c0,3.604-0.878,6.491-2.631,8.656c-1.754,2.167-4.149,3.25-7.192,3.25C234.589,61.364,232.436,60.16,230.977,57.746 M230.894,49.06
		v3.007c0,1.781,0.577,3.292,1.735,4.534c1.156,1.241,2.624,1.86,4.407,1.86c2.091,0,3.728-0.798,4.911-2.398
		c1.186-1.598,1.776-3.82,1.776-6.667c0-2.398-0.552-4.277-1.66-5.639c-1.109-1.36-2.608-2.038-4.501-2.038
		c-2.004,0-3.618,0.696-4.838,2.093C231.505,45.207,230.894,46.955,230.894,49.06z"/>
	<path opacity="0.5" fill="#73797C" d="M250.72,60.217v-3.702c1.878,1.387,3.947,2.082,6.205,2.082c3.03,0,4.543-1.01,4.543-3.031
		c0-0.573-0.13-1.061-0.39-1.461c-0.26-0.398-0.606-0.752-1.049-1.062c-0.443-0.309-0.962-0.586-1.558-0.832
		c-0.596-0.244-1.238-0.501-1.925-0.768c-0.954-0.377-1.791-0.76-2.514-1.146c-0.724-0.384-1.325-0.822-1.809-1.306
		c-0.483-0.482-0.85-1.031-1.094-1.65c-0.247-0.617-0.368-1.339-0.368-2.166c0-1.011,0.231-1.903,0.694-2.682
		c0.462-0.779,1.077-1.43,1.851-1.957c0.77-0.524,1.651-0.922,2.639-1.188c0.988-0.267,2.011-0.4,3.06-0.4
		c1.867,0,3.534,0.321,5.009,0.968v3.491c-1.585-1.036-3.409-1.556-5.47-1.556c-0.647,0-1.226,0.073-1.745,0.221
		c-0.521,0.146-0.965,0.354-1.337,0.621c-0.371,0.266-0.658,0.585-0.861,0.956c-0.204,0.372-0.306,0.782-0.306,1.23
		c0,0.563,0.102,1.031,0.306,1.409c0.203,0.379,0.5,0.717,0.893,1.009c0.393,0.295,0.869,0.563,1.431,0.801s1.199,0.497,1.914,0.777
		c0.954,0.366,1.811,0.741,2.567,1.127c0.757,0.385,1.401,0.819,1.935,1.303c0.531,0.483,0.944,1.042,1.23,1.672
		c0.288,0.632,0.429,1.383,0.429,2.253c0,1.064-0.233,1.99-0.702,2.776c-0.471,0.785-1.096,1.437-1.883,1.955
		c-0.785,0.521-1.69,0.905-2.715,1.156c-1.021,0.254-2.094,0.38-3.218,0.38C254.269,61.499,252.347,61.071,250.72,60.217"/>
</g>
</svg>
