<?xml version="1.0" encoding="utf-8"?>
<!-- Generator: Adobe Illustrator 16.0.3, SVG Export Plug-In . SVG Version: 6.00 Build 0)  -->
<!DOCTYPE svg PUBLIC "-//W3C//DTD SVG 1.1//EN" "http://www.w3.org/Graphics/SVG/1.1/DTD/svg11.dtd">
<svg version="1.1" id="Ebene_1" xmlns="http://www.w3.org/2000/svg" xmlns:xlink="http://www.w3.org/1999/xlink" x="0px" y="0px"
	 width="30px" height="30px" viewBox="-2 -1.5 30 30" enable-background="new -2 -1.5 30 30" xml:space="preserve">
<title>Geburtstag</title>
<desc>Created with Sketch.</desc>
<g id="Page-1">
	<g id="Eventlokale-Styleguide" transform="translate(-398.000000, -8834.000000)">
		<g id="Geburtstag" transform="translate(399.000000, 8836.000000)">
			<g id="birthday">
				<g id="Layer_1">
					<polyline id="Shape" fill="none" stroke="#7F7F7F" stroke-width="2" points="1,17 1,23.5 23,23.5 23,17 					"/>
					<rect id="Rectangle-path" x="10" y="7.5" fill="none" stroke="#7F7F7F" stroke-width="2" width="4" height="4"/>
					<path id="Shape_1_" fill="none" stroke="#7F7F7F" stroke-width="2" d="M14,3.5c0-1.1-2-4-2-4s-2,2.9-2,4s0.9,2,2,2
						C13.1,5.5,14,4.6,14,3.5L14,3.5z"/>
					<rect id="Rectangle-path_1_" x="3" y="7.5" fill="none" stroke="#7F7F7F" stroke-width="2" width="4" height="4"/>
					<path id="Shape_2_" fill="none" stroke="#7F7F7F" stroke-width="2" d="M7,3.5c0-1.1-2-4-2-4s-2,2.9-2,4s0.9,2,2,2S7,4.6,7,3.5
						L7,3.5z"/>
					<rect id="Rectangle-path_2_" x="17" y="7.5" fill="none" stroke="#7F7F7F" stroke-width="2" width="4" height="4"/>
					<path id="Shape_3_" fill="none" stroke="#7F7F7F" stroke-width="2" d="M21,3.5c0-1.1-2-4-2-4s-2,2.9-2,4s0.9,2,2,2
						S21,4.6,21,3.5L21,3.5z"/>
					<path id="Shape_4_" fill="none" stroke="#7F7F7F" stroke-width="2" d="M18,14.5c0,1.7,1.3,3,3,3s3-1.3,3-3s-1.3-3-3-3H3
						c-1.7,0-3,1.3-3,3s1.3,3,3,3s3-1.3,3-3"/>
					<path id="Shape_5_" fill="none" stroke="#7F7F7F" stroke-width="2" d="M12,14.5c0,1.7,1.3,3,3,3s3-1.3,3-3"/>
					<path id="Shape_6_" fill="none" stroke="#7F7F7F" stroke-width="2" d="M6,14.5c0,1.7,1.3,3,3,3s3-1.3,3-3"/>
				</g>
			</g>
		</g>
	</g>
</g>
</svg>
