<?xml version="1.0" encoding="utf-8"?>
<!-- Generator: Adobe Illustrator 16.0.3, SVG Export Plug-In . SVG Version: 6.00 Build 0)  -->
<!DOCTYPE svg PUBLIC "-//W3C//DTD SVG 1.1//EN" "http://www.w3.org/Graphics/SVG/1.1/DTD/svg11.dtd">
<svg version="1.1" id="Ebene_1" xmlns="http://www.w3.org/2000/svg" xmlns:xlink="http://www.w3.org/1999/xlink" x="0px" y="0px"
	 width="30px" height="30px" viewBox="-4 -3 30 30" enable-background="new -4 -3 30 30" xml:space="preserve">
<title>Hotel</title>
<desc>Created with Sketch.</desc>
<g id="Page-1">
	<g id="Eventlokale-Styleguide" transform="translate(-522.000000, -8762.000000)">
		<g id="Hotel" transform="translate(523.000000, 8762.000000)">
			<g id="_x33__x5F_star_x5F_hotel">
				<g id="Layer_1">
					<rect id="Rectangle-path" y="5.5" fill="none" stroke="#7F7F7F" stroke-width="2" width="20" height="18"/>
					<rect id="Rectangle-path_1_" x="7" y="8.5" fill="#7F7F7F" width="2" height="2"/>
					<rect id="Rectangle-path_2_" x="15" y="8.5" fill="#7F7F7F" width="2" height="2"/>
					<rect id="Rectangle-path_3_" x="7" y="11.5" fill="#7F7F7F" width="2" height="2"/>
					<rect id="Rectangle-path_4_" x="15" y="11.5" fill="#7F7F7F" width="2" height="2"/>
					<rect id="Rectangle-path_5_" x="7" y="14.5" fill="#7F7F7F" width="2" height="2"/>
					<rect id="Rectangle-path_6_" x="11" y="8.5" fill="#7F7F7F" width="2" height="2"/>
					<rect id="Rectangle-path_7_" x="11" y="11.5" fill="#7F7F7F" width="2" height="2"/>
					<rect id="Rectangle-path_8_" x="11" y="14.5" fill="#7F7F7F" width="2" height="2"/>
					<rect id="Rectangle-path_9_" x="15" y="14.5" fill="#7F7F7F" width="2" height="2"/>
					<rect id="Rectangle-path_10_" x="15" y="17.5" fill="#7F7F7F" width="2" height="2"/>
					<rect id="Rectangle-path_11_" x="3" y="8.5" fill="#7F7F7F" width="2" height="2"/>
					<rect id="Rectangle-path_12_" x="3" y="11.5" fill="#7F7F7F" width="2" height="2"/>
					<rect id="Rectangle-path_13_" x="3" y="14.5" fill="#7F7F7F" width="2" height="2"/>
					<rect id="Rectangle-path_14_" x="3" y="17.5" fill="#7F7F7F" width="2" height="2"/>
					
						<rect id="Rectangle-path_15_" x="8.586" y="1.086" transform="matrix(-0.7071 -0.7071 0.7071 -0.7071 15.3035 11.3384)" fill="#7F7F7F" width="2.828" height="2.828"/>
					
						<rect id="Rectangle-path_16_" x="12.586" y="1.086" transform="matrix(-0.7071 -0.7071 0.7071 -0.7071 22.1319 14.1668)" fill="#7F7F7F" width="2.828" height="2.828"/>
					
						<rect id="Rectangle-path_17_" x="4.586" y="1.086" transform="matrix(-0.707 -0.7072 0.7072 -0.707 8.4743 8.5103)" fill="#7F7F7F" width="2.828" height="2.828"/>
					<polyline id="Shape" fill="none" stroke="#7F7F7F" stroke-width="2" points="8,23.5 8,18.5 12,18.5 12,23.5 					"/>
				</g>
			</g>
		</g>
	</g>
</g>
</svg>
