<?xml version="1.0" encoding="UTF-8"?>
<svg width="96px" height="96px" viewBox="0 0 96 96" version="1.1" xmlns="http://www.w3.org/2000/svg" xmlns:xlink="http://www.w3.org/1999/xlink">
    <!-- Generator: Sketch 47.1 (45422) - http://www.bohemiancoding.com/sketch -->
    <title>postmark</title>
    <desc>Created with Sketch.</desc>
    <defs></defs>
    <g id="Page-1" stroke="none" stroke-width="1" fill="none" fill-rule="evenodd">
        <g id="9---Verkauf_Ebene-2---Mailing-2" transform="translate(-1098.000000, -312.000000)" fill="#00C7C7">
            <g id="Redaktioneller-Eventtipp" transform="translate(968.000000, 244.000000)">
                <g id="postmark" transform="translate(130.000000, 68.000000)">
                    <g id="Communication">
                        <g>
                            <g id="Icon-7">
                                <path d="M91.2,16 C91.2,17.7648 92.6352,19.2 94.4,19.2 C95.2832,19.2 96,19.9168 96,20.8 L96,27.2 C96,28.0832 95.2832,28.8 94.4,28.8 C92.6352,28.8 91.2,30.2352 91.2,32 C91.2,33.7648 92.6352,35.2 94.4,35.2 C95.2832,35.2 96,35.9168 96,36.8 L96,43.2 C96,44.0832 95.2832,44.8 94.4,44.8 C92.6352,44.8 91.2,46.2352 91.2,48 C91.2,49.7648 92.6352,51.2 94.4,51.2 C95.2832,51.2 96,51.9168 96,52.8 L96,59.2 C96,60.0832 95.2832,60.8 94.4,60.8 C92.6352,60.8 91.2,62.2352 91.2,64 C91.2,65.7648 92.6352,67.2 94.4,67.2 C95.2832,67.2 96,67.9168 96,68.8 L96,75.2 C96,76.0832 95.2832,76.8 94.4,76.8 C92.6352,76.8 91.2,78.2352 91.2,80 C91.2,81.7648 92.6352,83.2 94.4,83.2 C95.2832,83.2 96,83.9168 96,84.8 L96,94.4 C96,95.2832 95.2832,96 94.4,96 C93.5168,96 92.8,95.2832 92.8,94.4 L92.8,86.1968 C90.0432,85.4848 88,82.976 88,80 C88,77.024 90.0432,74.5152 92.8,73.8016 L92.8,70.1968 C90.0432,69.4848 88,66.976 88,64 C88,61.024 90.0432,58.5152 92.8,57.8016 L92.8,54.1984 C90.0432,53.4848 88,50.976 88,48 C88,45.024 90.0432,42.5152 92.8,41.8016 L92.8,38.1968 C90.0432,37.4848 88,34.976 88,32 C88,29.024 90.0432,26.5152 92.8,25.8016 L92.8,22.1984 C90.0432,21.4848 88,18.976 88,16 C88,13.024 90.0432,10.5152 92.8,9.8032 L92.8,3.2 L86.1968,3.2 C85.4848,5.9568 82.976,8 80,8 C77.024,8 74.5152,5.9568 73.8016,3.2 L70.1968,3.2 C69.4848,5.9568 66.976,8 64,8 C61.024,8 58.5152,5.9568 57.8016,3.2 L54.1984,3.2 C53.4848,5.9568 50.976,8 48,8 C45.024,8 42.5152,5.9568 41.8016,3.2 L38.1968,3.2 C37.4848,5.9568 34.976,8 32,8 C29.024,8 26.5152,5.9568 25.8016,3.2 L22.1984,3.2 C21.4848,5.9568 18.976,8 16,8 C13.024,8 10.5152,5.9568 9.8032,3.2 L3.2,3.2 L3.2,9.8032 C5.9568,10.5152 8,13.024 8,16 C8,18.976 5.9568,21.4848 3.2,22.1984 L3.2,25.8016 C5.9568,26.5152 8,29.024 8,32 C8,34.976 5.9568,37.4848 3.2,38.1968 L3.2,41.8016 C5.9568,42.5152 8,45.024 8,48 C8,50.976 5.9568,53.4848 3.2,54.1984 L3.2,57.8016 C5.9568,58.5152 8,61.024 8,64 C8,66.976 5.9568,69.4848 3.2,70.1968 L3.2,73.8016 C5.9568,74.5152 8,77.024 8,80 C8,82.976 5.9568,85.4848 3.2,86.1968 L3.2,92.8 L9.8032,92.8 C10.5152,90.0432 13.024,88 16,88 C18.976,88 21.4848,90.0432 22.1984,92.8 L25.8016,92.8 C26.5152,90.0432 29.024,88 32,88 C34.976,88 37.4848,90.0432 38.1968,92.8 L41.8016,92.8 C42.5152,90.0432 45.024,88 48,88 C50.976,88 53.4848,90.0432 54.1984,92.8 L57.8016,92.8 C58.5152,90.0432 61.024,88 64,88 C66.976,88 69.4848,90.0432 70.1968,92.8 L73.8016,92.8 C74.5152,90.0432 77.024,88 80,88 C82.976,88 85.4848,90.0432 86.1968,92.8 L88,92.8 C88.8832,92.8 89.6,93.5168 89.6,94.4 C89.6,95.2832 88.8832,96 88,96 L84.8,96 C83.9168,96 83.2,95.2832 83.2,94.4 C83.2,92.6352 81.7648,91.2 80,91.2 C78.2352,91.2 76.8,92.6352 76.8,94.4 C76.8,95.2832 76.0832,96 75.2,96 L68.8,96 C67.9168,96 67.2,95.2832 67.2,94.4 C67.2,92.6352 65.7648,91.2 64,91.2 C62.2352,91.2 60.8,92.6352 60.8,94.4 C60.8,95.2832 60.0832,96 59.2,96 L52.8,96 C51.9168,96 51.2,95.2832 51.2,94.4 C51.2,92.6352 49.7648,91.2 48,91.2 C46.2352,91.2 44.8,92.6352 44.8,94.4 C44.8,95.2832 44.0832,96 43.2,96 L36.8,96 C35.9168,96 35.2,95.2832 35.2,94.4 C35.2,92.6352 33.7648,91.2 32,91.2 C30.2352,91.2 28.8,92.6352 28.8,94.4 C28.8,95.2832 28.0832,96 27.2,96 L20.8,96 C19.9168,96 19.2,95.2832 19.2,94.4 C19.2,92.6352 17.7648,91.2 16,91.2 C14.2352,91.2 12.8,92.6352 12.8,94.4 C12.8,95.2832 12.0832,96 11.2,96 L1.6,96 C0.7168,96 0,95.2832 0,94.4 L0,84.8 C0,83.9168 0.7168,83.2 1.6,83.2 C3.3648,83.2 4.8,81.7648 4.8,80 C4.8,78.2352 3.3648,76.8 1.6,76.8 C0.7168,76.8 0,76.0832 0,75.2 L0,68.8 C0,67.9168 0.7168,67.2 1.6,67.2 C3.3648,67.2 4.8,65.7648 4.8,64 C4.8,62.2352 3.3648,60.8 1.6,60.8 C0.7168,60.8 0,60.0832 0,59.2 L0,52.8 C0,51.9168 0.7168,51.2 1.6,51.2 C3.3648,51.2 4.8,49.7648 4.8,48 C4.8,46.2352 3.3648,44.8 1.6,44.8 C0.7168,44.8 0,44.0832 0,43.2 L0,36.8 C0,35.9168 0.7168,35.2 1.6,35.2 C3.3648,35.2 4.8,33.7648 4.8,32 C4.8,30.2352 3.3648,28.8 1.6,28.8 C0.7168,28.8 0,28.0832 0,27.2 L0,20.8 C0,19.9168 0.7168,19.2 1.6,19.2 C3.3648,19.2 4.8,17.7648 4.8,16 C4.8,14.2352 3.3648,12.8 1.6,12.8 C0.7168,12.8 0,12.0832 0,11.2 L0,1.6 C0,0.7168 0.7168,0 1.6,0 L11.2,0 C12.0832,0 12.8,0.7168 12.8,1.6 C12.8,3.3648 14.2352,4.8 16,4.8 C17.7648,4.8 19.2,3.3648 19.2,1.6 C19.2,0.7168 19.9168,0 20.8,0 L27.2,0 C28.0832,0 28.8,0.7168 28.8,1.6 C28.8,3.3648 30.2352,4.8 32,4.8 C33.7648,4.8 35.2,3.3648 35.2,1.6 C35.2,0.7168 35.9168,0 36.8,0 L43.2,0 C44.0832,0 44.8,0.7168 44.8,1.6 C44.8,3.3648 46.2352,4.8 48,4.8 C49.7648,4.8 51.2,3.3648 51.2,1.6 C51.2,0.7168 51.9168,0 52.8,0 L59.2,0 C60.0832,0 60.8,0.7168 60.8,1.6 C60.8,3.3648 62.2352,4.8 64,4.8 C65.7648,4.8 67.2,3.3648 67.2,1.6 C67.2,0.7168 67.9168,0 68.8,0 L75.2,0 C76.0832,0 76.8,0.7168 76.8,1.6 C76.8,3.3648 78.2352,4.8 80,4.8 C81.7648,4.8 83.2,3.3648 83.2,1.6 C83.2,0.7168 83.9168,0 84.8,0 L94.4,0 C95.2832,0 96,0.7168 96,1.6 L96,11.2 C96,12.0832 95.2832,12.8 94.4,12.8 C92.6352,12.8 91.2,14.2352 91.2,16 L91.2,16 L91.2,16 Z M81.6,12.8 C82.4832,12.8 83.2,13.5168 83.2,14.4 L83.2,81.6 C83.2,82.4832 82.4832,83.2 81.6,83.2 L14.4,83.2 C13.5168,83.2 12.8,82.4832 12.8,81.6 L12.8,14.4 C12.8,13.5168 13.5168,12.8 14.4,12.8 L81.6,12.8 L81.6,12.8 L81.6,12.8 Z M16,80 L80,80 L80,16 L16,16 L16,80 L16,80 Z M43.5728,49.2864 C42.728,47.7472 42.1408,46.0512 41.84,44.2592 C40.5536,44.0176 39.2032,43.6448 37.8048,43.0864 C30.56,40.1872 24.7728,43.0016 24.7152,43.032 C23.9232,43.4256 22.9632,43.1056 22.568,42.3152 C22.1728,41.5248 22.4944,40.5632 23.2848,40.168 C23.5712,40.0256 30.4272,36.6896 38.9952,40.1136 C39.9008,40.4768 40.7824,40.7504 41.632,40.9504 C41.6976,39.3488 41.9952,37.808 42.4992,36.3616 C41.016,36.1312 39.448,35.7424 37.8048,35.0864 C30.56,32.1872 24.7728,35.0032 24.7152,35.0304 C23.9232,35.4272 22.9632,35.104 22.568,34.3152 C22.1728,33.5248 22.4944,32.5632 23.2848,32.168 C23.5712,32.0256 30.4272,28.6896 38.9952,32.1136 C40.7456,32.816 42.408,33.1776 43.928,33.3312 C46.736,28.7056 51.8048,25.6 57.6,25.6 C66.4224,25.6 73.6,32.7776 73.6,41.6 C73.6,50.4224 66.4224,57.6 57.6,57.6 C53.0448,57.6 48.9392,55.6784 46.024,52.6128 C45.9104,52.616 45.8096,52.6272 45.6944,52.6272 C43.3824,52.6272 40.6912,52.24 37.8048,51.0864 C30.56,48.1872 24.7728,51.0016 24.7152,51.0304 C23.9232,51.4272 22.9632,51.1056 22.568,50.3152 C22.1728,49.5248 22.4944,48.5632 23.2848,48.168 C23.5712,48.024 30.4272,44.6896 38.9952,48.1136 C40.6112,48.7616 42.1488,49.1136 43.5728,49.2864 L43.5728,49.2864 L43.5728,49.2864 Z M53.5152,43.032 C53.3248,43.1264 50.2464,44.6272 45.6944,44.6272 C45.5264,44.6272 45.3424,44.608 45.1696,44.6032 C45.5936,46.3488 46.3712,47.952 47.4272,49.3376 C50.2544,49.0576 52.0528,48.1856 52.0848,48.168 C52.8768,47.7728 53.8368,48.0944 54.2304,48.8848 C54.6272,49.6752 54.3056,50.6352 53.5152,51.0304 C53.4,51.0896 52.216,51.6592 50.3024,52.1008 C52.3744,53.5456 54.888,54.4 57.6,54.4 C64.6576,54.4 70.4,48.6576 70.4,41.6 C70.4,34.5424 64.6576,28.8 57.6,28.8 C53.7168,28.8 50.24,30.544 47.8912,33.2816 C50.4464,32.96 52.0544,32.184 52.0848,32.168 C52.8768,31.7728 53.8368,32.0944 54.2304,32.8848 C54.6272,33.6752 54.3056,34.6368 53.5152,35.0304 C53.3264,35.1264 50.2944,36.5968 45.808,36.6224 C45.184,38.0928 44.8368,39.7056 44.8096,41.3936 C49.104,41.6096 52.0432,40.1904 52.0848,40.168 C52.8768,39.7712 53.8368,40.0944 54.2304,40.8848 C54.6272,41.6752 54.3056,42.6352 53.5152,43.032 L53.5152,43.032 L53.5152,43.032 Z" id="postmark"></path>
                            </g>
                        </g>
                    </g>
                </g>
            </g>
        </g>
    </g>
</svg>