<?xml version="1.0" encoding="UTF-8" standalone="no"?>
<svg width="18px" height="20px" viewBox="0 0 18 20" version="1.1" xmlns="http://www.w3.org/2000/svg" xmlns:xlink="http://www.w3.org/1999/xlink" xmlns:sketch="http://www.bohemiancoding.com/sketch/ns">
    <!-- Generator: Sketch 3.2.2 (9983) - http://www.bohemiancoding.com/sketch -->
    <title>IconWatchSmall</title>
    <desc>Created with Sketch.</desc>
    <defs></defs>
    <g id="Contents" stroke="none" stroke-width="1" fill="none" fill-rule="evenodd" sketch:type="MSPage">
        <g id="StyleGuide" sketch:type="MSArtboardGroup" transform="translate(-680.000000, -5845.000000)" fill="#FFFFFF">
            <g id="IconWatchSmall" sketch:type="MSLayerGroup" transform="translate(680.000000, 5845.000000)">
                <path d="M4.61988679,6.86779661 C4.34071698,7.14644068 4.34071698,7.59661017 4.62022642,7.87559322 C4.89973585,8.15457627 5.35211321,8.1559322 5.63128302,7.87728814 C5.91079245,7.59830508 5.91011321,7.14610169 5.63060377,6.86711864 C5.35143396,6.58813559 4.89973585,6.58881356 4.61988679,6.86779661" id="Fill-1" sketch:type="MSShapeGroup"></path>
                <path d="M3.51,10.5498305 C3.11603774,10.5498305 2.79475472,10.8684746 2.79475472,11.2637288 C2.79407547,11.6572881 3.11501887,11.9776271 3.50966038,11.9776271 C3.90464151,11.9766102 4.22422642,11.6562712 4.22524528,11.2637288 C4.22524528,10.8684746 3.90532075,10.5491525 3.51,10.5498305" id="Fill-2" sketch:type="MSShapeGroup"></path>
                <path d="M4.6185283,14.6511864 C4.34037736,14.9294915 4.34037736,15.3810169 4.62022642,15.66 C4.89837736,15.9376271 5.35075472,15.9376271 5.62890566,15.659661 C5.90909434,15.380339 5.90841509,14.9294915 5.63162264,14.6505085 C5.35211321,14.3715254 4.89871698,14.3715254 4.6185283,14.6511864" id="Fill-3" sketch:type="MSShapeGroup"></path>
                <path d="M9.02479245,16.0542373 C8.62981132,16.0532203 8.30954717,16.3728814 8.30954717,16.7681356 C8.30886792,17.1616949 8.62879245,17.4813559 9.02445283,17.4820339 C9.41943396,17.4810169 9.73969811,17.1613559 9.73969811,16.7677966 C9.73969811,16.3725424 9.41841509,16.0542373 9.02479245,16.0542373" id="Fill-4" sketch:type="MSShapeGroup"></path>
                <path d="M14.5378868,10.5484746 C14.1432453,10.5498305 13.824,10.8681356 13.8226415,11.2623729 C13.8233208,11.6576271 14.1435849,11.9769492 14.5378868,11.9762712 C14.9342264,11.9762712 15.2521132,11.6569492 15.2531321,11.2623729 C15.2531321,10.8691525 14.9332075,10.5498305 14.5378868,10.5484746" id="Fill-5" sketch:type="MSShapeGroup"></path>
                <path d="M9.02445283,6.47355932 C9.41807547,6.47355932 9.73833962,6.15389831 9.73969811,5.75932203 C9.73901887,5.36576271 9.41875472,5.04610169 9.02411321,5.04508475 C8.62879245,5.04644068 8.30988679,5.36474576 8.3085283,5.75898305 C8.30920755,6.15389831 8.62845283,6.47457627 9.02445283,6.47355932" id="Fill-6" sketch:type="MSShapeGroup"></path>
                <path d="M12.4176226,14.6505085 C12.1384528,14.9294915 12.1391321,15.380678 12.4196604,15.660339 C12.6974717,15.9376271 13.1495094,15.9386441 13.4286792,15.659661 C13.7081887,15.3810169 13.7078491,14.9291525 13.4300377,14.6515254 C13.1498491,14.3722034 12.6971321,14.3715254 12.4176226,14.6505085" id="Fill-7" sketch:type="MSShapeGroup"></path>
                <path d="M7.25637736,2.16440678 L10.869283,2.16271186 C11.118566,2.1640678 11.3203019,1.96237288 11.3213208,1.71220339 L11.3203019,0.7 C11.3213208,0.449830508 11.1199245,0.24779661 10.869283,0.24779661 L7.25637736,0.24779661 C7.00743396,0.24779661 6.80501887,0.449830508 6.80501887,0.7 L6.80501887,1.71220339 C6.80501887,1.96237288 7.00743396,2.16271186 7.25637736,2.16440678" id="Fill-8" sketch:type="MSShapeGroup"></path>
                <path d="M1.01377358,5.64915254 C1.15539623,5.79050847 1.38362264,5.78915254 1.52490566,5.64915254 L3.21045283,3.96610169 C3.35207547,3.82576271 3.35207547,3.59830508 3.21045283,3.4559322 L2.628,2.87457627 C2.48671698,2.73186441 2.25781132,2.73186441 2.11720755,2.87457627 L0.430641509,4.55694915 C0.289698113,4.69830508 0.289698113,4.92677966 0.430641509,5.06779661 L1.01377358,5.64915254" id="Fill-9" sketch:type="MSShapeGroup"></path>
                <path d="M9.02377358,2.57864407 C4.22592453,2.57864407 0.322641509,6.47559322 0.322641509,11.2637288 C0.322641509,16.0515254 4.22592453,19.9484746 9.02377358,19.9484746 C13.8219623,19.9484746 17.7252453,16.0515254 17.7252453,11.2637288 C17.7252453,6.47559322 13.8219623,2.57864407 9.02377358,2.57864407 L9.02377358,2.57864407 Z M9.02377358,18.3579661 C5.1045283,18.3579661 1.91615094,15.1755932 1.91615094,11.2637288 C1.91615094,7.35118644 5.10418868,4.16881356 9.02377358,4.16881356 C12.9436981,4.16881356 16.1320755,7.35118644 16.1320755,11.2637288 C16.1320755,15.1755932 12.9436981,18.3579661 9.02377358,18.3579661 L9.02377358,18.3579661 Z" id="Fill-10" sketch:type="MSShapeGroup"></path>
                <path d="M13.415434,7.70677966 C13.6443396,7.47830508 13.644,7.10915254 13.415434,6.88101695 C13.1865283,6.65254237 12.8170189,6.65220339 12.5877736,6.88101695 L9.29750943,10.1650847 C8.93716981,10.0820339 8.54388679,10.1789831 8.26369811,10.4586441 C7.83373585,10.8905085 7.83237736,11.5911864 8.26471698,12.0227119 C8.69535849,12.4525424 9.39837736,12.4525424 9.83003774,12.0220339 C10.1102264,11.7420339 10.2070189,11.3501695 10.1244906,10.9915254 L13.415434,7.70677966" id="Fill-11" sketch:type="MSShapeGroup"></path>
            </g>
        </g>
    </g>
</svg>