<?xml version="1.0" encoding="utf-8"?>
<!-- Generator: Adobe Illustrator 16.0.3, SVG Export Plug-In . SVG Version: 6.00 Build 0)  -->
<!DOCTYPE svg PUBLIC "-//W3C//DTD SVG 1.1//EN" "http://www.w3.org/Graphics/SVG/1.1/DTD/svg11.dtd">
<svg version="1.1" id="Ebene_1" xmlns="http://www.w3.org/2000/svg" xmlns:xlink="http://www.w3.org/1999/xlink" x="0px" y="0px"
	 width="85px" height="85px" viewBox="-33 -31 85 85" enable-background="new -33 -31 85 85" xml:space="preserve">
<g id="Eventmagazin">
	<g id="Magazin-Post" transform="translate(-420.000000, -1016.000000)">
		<g id="Group-6" transform="translate(414.000000, 1010.000000)">
			<g id="Instagram_ffffff" transform="translate(6.000000, 6.000000)">
				<path id="Shape" fill="#FFFFFF" d="M4.556-0.5C0.684-0.5-2.5,2.679-2.5,6.556v9.887c0,3.873,3.179,7.057,7.056,7.057h9.887
					c3.873,0,7.057-3.183,7.057-7.057V6.556c0-3.873-3.183-7.056-7.057-7.056H4.556z M4.556,1.681h9.887
					c2.697,0,4.875,2.179,4.875,4.875v9.887c0,2.697-2.179,4.875-4.875,4.875H4.556c-2.697,0-4.875-2.179-4.875-4.875V6.556
					C-0.319,3.859,1.86,1.681,4.556,1.681z M15.943,4.069c-0.545,0-0.986,0.438-0.986,0.987s0.441,0.991,0.986,0.991
					s0.988-0.442,0.988-0.991S16.488,4.069,15.943,4.069z M9.5,4.953c-3.601,0-6.547,2.947-6.547,6.547
					c0,3.604,2.947,6.543,6.547,6.543c3.604,0,6.543-2.938,6.543-6.543C16.043,7.899,13.104,4.953,9.5,4.953z M9.5,7.138
					c2.42,0,4.362,1.938,4.362,4.362c0,2.42-1.942,4.362-4.362,4.362c-2.424,0-4.362-1.942-4.362-4.362
					C5.138,9.076,7.076,7.138,9.5,7.138z"/>
			</g>
		</g>
	</g>
</g>
</svg>
