<?xml version="1.0" encoding="UTF-8"?>
<svg width="96px" height="96px" viewBox="0 0 96 96" version="1.1" xmlns="http://www.w3.org/2000/svg" xmlns:xlink="http://www.w3.org/1999/xlink">
    <!-- Generator: Sketch 47.1 (45422) - http://www.bohemiancoding.com/sketch -->
    <title>imac click</title>
    <desc>Created with Sketch.</desc>
    <defs></defs>
    <g id="Page-1" stroke="none" stroke-width="1" fill="none" fill-rule="evenodd">
        <g id="9---Verkauf_Ebene-2---Mailing-2" transform="translate(-702.000000, -314.000000)" fill="#00C7C7">
            <g id="Empfehlung-der-Woche" transform="translate(572.000000, 244.000000)">
                <path d="M192.4,156.4 L187.6,156.4 L187.6,148.399999 C187.6,147.516799 186.8848,146.8 186.000006,146.8 C185.115194,146.8 184.399994,147.516799 184.399994,148.399999 L184.399994,157.999999 C184.399994,158.883199 185.115194,159.600001 186.000006,159.600001 L192.4,159.600001 C194.196794,159.600001 196.072,161.062399 196.84,162.799999 L159.16,162.799999 C159.928,161.062399 161.803206,159.600001 163.6,159.600001 L179.599994,159.600001 C180.484806,159.600001 181.200006,158.883199 181.200006,157.999999 C181.200006,157.116799 180.484806,156.4 179.599994,156.4 L171.600006,156.4 L171.600006,148.399999 C171.600006,147.516799 170.883194,146.8 169.999994,146.8 C169.116794,146.8 168.4,147.516799 168.4,148.399999 L168.4,156.4 L163.6,156.4 C159.487994,156.4 155.599994,160.288 155.599994,164.4 C155.599994,165.2832 156.316806,166 157.200006,166 L198.799994,166 C199.684806,166 200.400006,165.2832 200.400006,164.4 C200.400006,160.288 196.512006,156.4 192.4,156.4 M162.079994,102.857594 L157.555206,107.380806 C156.929594,108.004806 156.929594,109.0192 157.555206,109.6432 C157.867206,109.956794 158.2768,110.112006 158.686394,110.112006 C159.096006,110.112006 159.504006,109.956794 159.8176,109.6432 L164.342406,105.120006 C164.966406,104.496006 164.966406,103.483206 164.342406,102.857594 C163.716794,102.233594 162.703994,102.233594 162.079994,102.857594 M152.400006,97.2000063 C152.400006,98.0832062 153.1168,98.8 154,98.8 L160.3984,98.8 C161.2816,98.8 161.998394,98.0848 161.998394,97.2000063 C161.998394,96.3168062 161.2816,95.5999937 160.3984,95.5999937 L154,95.5999937 C153.1168,95.5999937 152.400006,96.3168062 152.400006,97.2000063 M164.342406,89.2816 L159.8176,84.7552 C159.192006,84.1312 158.179206,84.1312 157.555206,84.7552 C156.929594,85.3792 156.929594,86.3935938 157.555206,87.0175938 L162.079994,91.5439937 C162.391994,91.8559937 162.801606,92.0128 163.2112,92.0128 C163.620794,92.0128 164.030406,91.8559937 164.342406,91.5439937 C164.966406,90.9199938 164.966406,89.9056 164.342406,89.2816 M177.916806,91.5439937 L182.443206,87.0192062 C183.0688,86.3952063 183.0688,85.3807937 182.443206,84.7567937 C181.819206,84.1312 180.806406,84.1312 180.180794,84.7567937 L175.654394,89.2816 C175.030394,89.9056 175.030394,90.9184 175.654394,91.5439937 C175.966394,91.8559937 176.376006,92.0128 176.7856,92.0128 C177.195194,92.0128 177.604806,91.8559937 177.916806,91.5439937 M171.598394,87.6000062 L171.598394,81.1999938 C171.598394,80.3167938 170.8816,79.6 169.9984,79.6 C169.1152,79.6 168.398406,80.3167938 168.398406,81.1999938 L168.398406,87.6000062 C168.398406,88.4832062 169.1152,89.2 169.9984,89.2 C170.8816,89.2 171.598394,88.4832062 171.598394,87.6000062 M217.999994,70 L138.000001,70 C133.817599,70 130.3056,73.4671937 130,78.0000062 L130,119.599994 C130,120.483194 130.7168,121.200006 131.6,121.200006 C132.483199,121.200006 133.200001,120.483194 133.200001,119.599994 L133.1968,78.1087937 C133.361599,75.6960062 135.2032,73.2000062 138.000001,73.2000062 L217.999994,73.2000062 C220.646406,73.2000062 222.799994,75.3535937 222.799994,78.0000062 L222.799994,135.600006 C222.799994,138.336006 220.737606,140.400006 217.999994,140.400006 L138.000001,140.400006 C135.264001,140.400006 133.200001,138.336006 133.200001,135.600006 L133.200001,127.6 L217.999994,127.6 C218.5024,127.6 218.974394,127.3648 219.278406,126.963194 C219.579194,126.5632 219.676806,126.043206 219.537606,125.56 C216.300794,114.2272 210.446406,105.902406 210.28,105.679994 C209.686394,104.6512 208.636806,103.867206 207.403206,103.528 C206.150406,103.180806 204.830406,103.332794 203.7808,103.937594 C203.2816,104.227206 202.84,104.614394 202.478406,105.072006 C201.739206,104.2672 200.7856,103.684806 199.704006,103.395194 C198.201606,102.993606 196.636806,103.200006 195.297606,103.975994 C194.268794,104.568006 193.4656,105.4384 192.964806,106.4848 C192.475206,106.174394 191.9344,105.9376 191.359994,105.784 C189.862394,105.382394 188.294406,105.588794 186.950406,106.3648 C185.9872,106.920006 185.220794,107.721606 184.7152,108.681606 L175.150394,95.3776 C172.126394,91.2496 169.017606,92.4079937 167.822406,93.0991937 C166.459206,93.8863937 165.5584,95.1439937 165.2848,96.64 C165.038406,97.9968062 165.326406,99.4752062 166.118406,100.846394 L178.233606,120.441606 C178.699206,121.193594 179.6848,121.423994 180.436806,120.9616 C181.1872,120.496 181.4224,119.510406 180.9568,118.7584 L168.8656,99.2047937 C168.475206,98.5312 168.3232,97.8240062 168.4336,97.2127937 C168.537606,96.64 168.8704,96.1888 169.4224,95.8704062 C169.867206,95.6128 170.913606,95.0095937 172.560006,97.2559937 L184.908794,114.4336 C185.409606,115.128006 186.363194,115.310406 187.078394,114.844806 C187.793594,114.382394 188.0224,113.438406 187.5952,112.7008 C187.246394,112.097594 187.1536,111.393606 187.334406,110.719994 C187.515194,110.0464 187.947194,109.483206 188.5504,109.1344 C189.153606,108.787206 189.856,108.6928 190.531206,108.873606 C191.2048,109.054394 191.7664,109.486394 192.115206,110.0896 L193.166406,111.912006 L193.166406,111.9136 C193.6096,112.678394 194.584,112.9408 195.353594,112.4992 C196.118406,112.0576 196.380794,111.0784 195.939194,110.313606 L195.9376,110.3104 C195.590406,109.707194 195.497594,109.0048 195.6784,108.3328 C195.859206,107.659206 196.291206,107.097606 196.896006,106.747206 C197.500806,106.399994 198.2032,106.3072 198.876794,106.486394 C199.550406,106.6672 200.112006,107.0992 200.462406,107.702406 L202.039994,110.436794 L202.039994,110.436794 C202.4848,111.2032 203.462406,111.465606 204.228794,111.022394 C204.991994,110.5792 205.252806,109.601594 204.8128,108.8368 L204.8128,108.835206 C204.619206,108.5008 204.571206,108.072006 204.684794,107.659206 C204.796806,107.246406 205.051206,106.900806 205.380794,106.7104 C205.697594,106.528 206.1232,106.492806 206.553606,106.612806 C206.9776,106.7296 207.334394,106.977606 207.5872,107.404806 C207.641594,107.481606 212.667194,114.641594 215.836806,124.399994 L131.6,124.399994 C130.7168,124.399994 130,125.116806 130,126.000006 L130,135.600006 C130,140.086394 133.5136,143.599994 138.000001,143.599994 L217.999994,143.599994 C222.4864,143.599994 226,140.086394 226,135.600006 L226,78.0000062 C226,73.5888062 222.411194,70 217.999994,70 M178,130.800006 C179.7664,130.800006 181.200006,132.235206 181.200006,133.999994 C181.200006,135.7648 179.7664,137.2 178,137.2 C176.235194,137.2 174.799994,135.7648 174.799994,133.999994 C174.799994,132.235206 176.235194,130.800006 178,130.800006" id="imac-click"></path>
            </g>
        </g>
    </g>
</svg>