<?xml version="1.0" encoding="UTF-8"?>
<svg width="96px" height="96px" viewBox="0 0 96 96" version="1.1" xmlns="http://www.w3.org/2000/svg" xmlns:xlink="http://www.w3.org/1999/xlink">
    <!-- Generator: Sketch 47.1 (45422) - http://www.bohemiancoding.com/sketch -->
    <title>laptop launch</title>
    <desc>Created with Sketch.</desc>
    <defs></defs>
    <g id="Page-1" stroke="none" stroke-width="1" fill="none" fill-rule="evenodd">
        <g id="9---Verkauf_Ebene-2---Werbeformate" transform="translate(-1098.000000, -312.000000)" fill="#00C7C7">
            <g id="Priority-Boost" transform="translate(968.000000, 244.000000)">
                <path d="M165.199994,131.999994 C162.742394,131.999994 160.552,133.4336 159.492794,135.548806 C158.745606,135.318406 157.972806,135.2 157.200006,135.2 C152.788806,135.2 149.2,138.788806 149.2,143.200006 C149.2,144.083206 149.916794,144.8 150.799994,144.8 C151.683194,144.8 152.400006,144.083206 152.400006,143.200006 C152.400006,140.553594 154.553594,138.400006 157.200006,138.400006 C158.047994,138.400006 158.872,138.635206 159.648006,139.099194 C160.108806,139.374406 160.675206,139.4 161.158394,139.168006 C161.6416,138.937606 161.9776,138.479994 162.052806,137.948806 C162.2752,136.382394 163.6288,135.2 165.199994,135.2 C166.852806,135.2 168.2128,136.4528 168.363194,138.112006 C168.424,138.791994 168.9088,139.3568 169.569606,139.521594 C170.232006,139.686406 170.9248,139.4144 171.297606,138.841606 C172.7824,136.561606 175.289594,135.2 178,135.2 C180.710406,135.2 183.2176,136.561606 184.702394,138.841606 C185.0752,139.4144 185.769606,139.686406 186.430394,139.521594 C187.0912,139.3568 187.576,138.791994 187.636806,138.112006 C187.7872,136.4528 189.147194,135.2 190.800006,135.2 C192.3712,135.2 193.7248,136.382394 193.947194,137.948806 C194.0224,138.479994 194.3584,138.937606 194.841606,139.168006 C195.326406,139.4 195.892806,139.374406 196.351994,139.099194 C197.128,138.635206 197.952006,138.400006 198.799994,138.400006 C201.446406,138.400006 203.599994,140.553594 203.599994,143.200006 C203.599994,144.083206 204.316806,144.8 205.200006,144.8 C206.083206,144.8 206.8,144.083206 206.8,143.200006 C206.8,138.788806 203.211194,135.2 198.799994,135.2 C198.027194,135.2 197.254394,135.318406 196.507206,135.548806 C195.448,133.4336 193.257606,131.999994 190.800006,131.999994 C188.575994,131.999994 186.617594,133.123194 185.475194,134.862406 C183.446406,133.036794 180.801606,131.999994 178,131.999994 C175.198394,131.999994 172.553594,133.036794 170.524806,134.862406 C169.382406,133.123194 167.424006,131.999994 165.199994,131.999994 L165.199994,131.999994 Z M158.8,124.000006 C158.8,124.883206 159.516794,125.6 160.399994,125.6 L165.199994,125.6 L165.199994,127.199994 C165.199994,128.083194 165.916806,128.800006 166.800006,128.800006 C167.683206,128.800006 168.4,128.083194 168.4,127.199994 L168.4,125.6 L171.600006,125.6 C172.483206,125.6 173.2,124.883206 173.2,124.000006 C173.2,123.116806 172.483206,122.399994 171.600006,122.399994 L162.000006,122.399994 L162.000006,120.8 C162.000006,116.084806 163.6144,114.1088 165.3232,112.016 C166.8352,110.1632 168.4,108.246406 168.4,104.800006 L168.4,88.7999937 C168.4,83.2144062 171.028806,80.4383937 171.228794,80.2240062 L178,72.0992 L184.860794,80.3231937 C184.971194,80.4383937 187.6,83.2144062 187.6,88.7999937 L187.6,104.800006 C187.6,108.246406 189.1648,110.1632 190.6768,112.016 C192.3856,114.1088 193.999994,116.084806 193.999994,120.8 L193.999994,122.399994 L184.399994,122.399994 C183.516794,122.399994 182.8,123.116806 182.8,124.000006 C182.8,124.883206 183.516794,125.6 184.399994,125.6 L187.6,125.6 L187.6,127.199994 C187.6,128.083194 188.316794,128.800006 189.199994,128.800006 C190.083194,128.800006 190.800006,128.083194 190.800006,127.199994 L190.800006,125.6 L195.600006,125.6 C196.483206,125.6 197.2,124.883206 197.2,124.000006 L197.2,120.8 C197.2,114.944 194.9584,112.1984 193.156806,109.991994 C191.788806,108.316794 190.800006,107.1056 190.800006,104.800006 L190.800006,88.7999937 C190.800006,81.8176062 187.281606,78.2192 187.228806,78.176 L179.2288,68.576 C178.620794,67.8464 177.379206,67.8464 176.7712,68.576 L168.868806,78.0688062 C168.718394,78.2192 165.199994,81.8176062 165.199994,88.7999937 L165.199994,104.800006 C165.199994,107.1056 164.211194,108.316794 162.843194,109.991994 C161.0416,112.1984 158.8,114.944 158.8,120.8 L158.8,124.000006 Z M176.400006,114.400006 L176.400006,127.199994 C176.400006,128.083194 177.1168,128.800006 178,128.800006 C178.8832,128.800006 179.599994,128.083194 179.599994,127.199994 L179.599994,114.400006 C179.599994,113.516806 178.8832,112.799994 178,112.799994 C177.1168,112.799994 176.400006,113.516806 176.400006,114.400006 L176.400006,114.400006 Z M181.200006,93.5999937 C181.200006,91.8352062 179.764806,90.4000062 178,90.4000062 C176.235194,90.4000062 174.799994,91.8352062 174.799994,93.5999937 C174.799994,95.3648 176.235194,96.8 178,96.8 C179.764806,96.8 181.200006,95.3648 181.200006,93.5999937 L181.200006,93.5999937 Z M178,100.000006 C174.470406,100.000006 171.600006,97.1296062 171.600006,93.5999937 C171.600006,90.0704 174.470406,87.2 178,87.2 C181.529594,87.2 184.399994,90.0704 184.399994,93.5999937 C184.399994,97.1296062 181.529594,100.000006 178,100.000006 L178,100.000006 Z M134.8,151.199999 C135.6832,151.199999 136.399999,150.4832 136.399999,149.6 L136.399999,101.6 C136.399999,99.2672 138.867199,96.8 141.199999,96.8 L160.399994,96.8 C161.283194,96.8 162.000006,96.0832062 162.000006,95.2000062 C162.000006,94.3168062 161.283194,93.5999937 160.399994,93.5999937 L141.199999,93.5999937 C137.088001,93.5999937 133.200001,97.4879937 133.200001,101.6 L133.200001,149.6 C133.200001,150.4832 133.9168,151.199999 134.8,151.199999 L134.8,151.199999 Z M224.400006,148.000001 L222.799994,148.000001 L222.799994,101.6 C222.799994,97.4879937 218.911994,93.5999937 214.800006,93.5999937 L195.600006,93.5999937 C194.716806,93.5999937 193.999994,94.3168062 193.999994,95.2000062 C193.999994,96.0832062 194.716806,96.8 195.600006,96.8 L214.800006,96.8 C217.132806,96.8 219.600006,99.2672 219.600006,101.6 L219.600006,149.6 C219.600006,150.4832 220.3168,151.199999 221.2,151.199999 L222.799994,151.199999 L222.799994,155.999999 C222.799994,158.332799 220.332794,160.799999 217.999994,160.799999 L138.000001,160.799999 C136.203199,160.799999 134.328001,159.337601 133.560001,157.600001 L217.999994,157.600001 C218.883194,157.600001 219.600006,156.883199 219.600006,155.999999 C219.600006,155.116799 218.883194,154.4 217.999994,154.4 L131.6,154.4 C130.7168,154.4 130,155.116799 130,155.999999 C130,160.112 133.888,164 138.000001,164 L217.999994,164 C222.112,164 226,160.112 226,155.999999 L226,149.6 C226,148.7168 225.283206,148.000001 224.400006,148.000001 L224.400006,148.000001 Z M160.399994,103.199994 L145.999999,103.199994 C144.9712,103.199994 142.987201,104.318394 142.790401,104.881606 L142.800001,148.000001 L213.199994,148.000001 L213.199994,104.800006 C213.199994,104.0816 212.318406,103.199994 211.6,103.199994 L195.600006,103.199994 C194.716806,103.199994 193.999994,102.4832 193.999994,101.6 C193.999994,100.7168 194.716806,100.000006 195.600006,100.000006 L211.6,100.000006 C214.0672,100.000006 216.4,102.332806 216.4,104.800006 L216.4,149.6 C216.4,150.4832 215.683206,151.199999 214.800006,151.199999 L141.199999,151.199999 C140.316799,151.199999 139.6,150.4832 139.6,149.6 L139.6,104.800006 C139.6,102.0272 143.8096,100.000006 145.999999,100.000006 L160.399994,100.000006 C161.283194,100.000006 162.000006,100.7168 162.000006,101.6 C162.000006,102.4832 161.283194,103.199994 160.399994,103.199994 L160.399994,103.199994 Z" id="laptop-launch"></path>
            </g>
        </g>
    </g>
</svg>