<?xml version="1.0" encoding="UTF-8"?>
<svg width="96px" height="96px" viewBox="0 0 96 96" version="1.1" xmlns="http://www.w3.org/2000/svg" xmlns:xlink="http://www.w3.org/1999/xlink">
    <!-- Generator: Sketch 47.1 (45422) - http://www.bohemiancoding.com/sketch -->
    <title>paperplane</title>
    <desc>Created with Sketch.</desc>
    <defs></defs>
    <g id="Page-1" stroke="none" stroke-width="1" fill="none" fill-rule="evenodd">
        <g id="Mailing-Footer" transform="translate(-130.000000, -68.000000)" fill="#00C7C7">
            <path d="M225.985806,69.5744078 C225.985806,69.5295953 225.988994,69.4848015 225.984194,69.4400078 C225.981006,69.4047953 225.966606,69.3711953 225.960194,69.3360015 C225.9442,69.2367953 225.931394,69.1344015 225.894606,69.0399953 C225.892994,69.0303953 225.883394,69.0207953 225.878594,69.0080078 C225.865806,68.9744078 225.841806,68.9456078 225.827406,68.9120078 C225.803406,68.8623953 225.777794,68.8176015 225.750606,68.7696015 C225.7042,68.6976015 225.654606,68.6271953 225.597006,68.5616078 C225.5794,68.5407953 225.5746,68.5152015 225.556994,68.4975953 C225.534606,68.4735953 225.504194,68.4672015 225.4834,68.4447953 C225.460994,68.4255953 225.443406,68.4000015 225.421,68.3808015 C225.408194,68.3712015 225.4018,68.3552078 225.388994,68.3456078 C225.385806,68.3424015 225.3826,68.3424015 225.379394,68.3408078 C225.373,68.3360078 225.369794,68.3312078 225.364994,68.3264078 C225.2866,68.2656015 225.1954,68.2272015 225.107406,68.1840015 C225.072194,68.1648015 225.040206,68.1408015 225.0034,68.1248078 C224.961794,68.1087953 224.920206,68.0991953 224.8786,68.0864078 C224.827394,68.0688015 224.774594,68.0607953 224.7202,68.0496015 C224.640194,68.0336078 224.560206,68.0144078 224.4802,68.0096078 C224.428994,68.0064015 224.380994,68.0160015 224.3314,68.0175953 C224.325006,68.0175953 224.318594,68.0192078 224.3122,68.0192078 C224.260994,68.0208015 224.212994,68.0192078 224.1634,68.0271953 C224.083394,68.0384078 224.008206,68.0624078 223.929794,68.0864078 C223.8754,68.1024015 223.824194,68.1183953 223.7698,68.1408015 C223.734606,68.1567953 223.696206,68.1615953 223.660994,68.1792015 L134.061002,114.579208 C131.421002,115.947208 129.941002,118.011208 130.001802,120.244802 C130.059402,122.400002 131.568202,124.299208 134.166602,125.470408 L151.453,132.878402 C152.257806,133.227208 153.206594,132.851195 153.553806,132.038402 C153.901,131.227202 153.525006,130.286402 152.712194,129.937595 L135.454602,122.540795 C134.045003,121.905602 133.225802,121.036802 133.200203,120.158402 C133.174602,119.212802 134.046602,118.190402 135.533003,117.420808 L215.164994,76.1823953 L156.093006,132.441602 C156.0898,132.446402 156.088206,132.452795 156.083406,132.456002 C155.976194,132.560008 155.904194,132.689608 155.8306,132.817595 C155.800206,132.870395 155.752206,132.915208 155.726594,132.969602 C155.704206,133.023995 155.7058,133.084802 155.689806,133.140808 C155.644994,133.286402 155.601794,133.431995 155.6002,133.582408 C155.6002,133.588802 155.596994,133.593602 155.596994,133.599995 L155.596994,162.4 C155.596994,162.5552 155.622606,162.7056 155.664194,162.8512 C155.665806,162.856 155.665806,162.8624 155.6674,162.8688 C155.721794,163.0448 155.814606,163.2048 155.925006,163.3536 C155.956994,163.3968 155.995394,163.4336 156.0322,163.472 C156.129794,163.5776 156.2386,163.6688 156.361806,163.744 C156.393794,163.7648 156.4114,163.7952 156.443406,163.8112 C156.470594,163.8256 156.501006,163.832 156.5266,163.8432 C156.547394,163.8528 156.561794,163.8688 156.5842,163.8784 C156.606606,163.888 156.628994,163.8832 156.652994,163.8912 C156.832206,163.9568 157.014606,164 157.195394,164 L157.197006,164 L157.1986,164 C157.384206,163.9984 157.561806,163.9568 157.734606,163.8944 C157.7794,163.8784 157.8226,163.8592 157.8658,163.8384 C158.0242,163.7664 158.171406,163.672 158.301006,163.5504 C158.3074,163.5424 158.320206,163.5392 158.328194,163.5312 L158.344206,163.5152 C158.3458,163.5136 158.347394,163.512 158.349006,163.5104 L174.328206,147.5312 C174.9538,146.905601 174.9538,145.8944 174.328206,145.268801 C173.702594,144.643202 172.691406,144.643202 172.065794,145.268801 L163.670594,153.664001 L171.345794,139.273595 L221.421006,75.9440078 L206.5762,146.1104 C206.296206,147.4608 205.669,148.432001 204.763394,148.9184 C203.784194,149.4432 202.509006,149.4144 201.054606,148.835201 L176.366594,139.174408 C175.547406,138.854402 174.6178,139.259195 174.292994,140.081608 C173.971394,140.904002 174.3778,141.833608 175.201806,142.155208 L199.878606,151.8096 C201.004994,152.2608 202.123394,152.4864 203.1826,152.4864 C204.2962,152.4864 205.3474,152.2368 206.277006,151.7376 C208.019406,150.803201 209.238606,149.0352 209.709006,146.768 L225.9634,69.9312015 C225.976206,69.8672078 225.969794,69.8016015 225.974594,69.7359953 C225.979394,69.6816015 225.9874,69.6303953 225.985806,69.5744078 L225.985806,69.5744078 Z M168.7426,137.408008 C168.712206,137.444795 168.7042,137.492795 168.6802,137.532808 C168.6514,137.574395 168.609794,137.601602 168.5842,137.646395 L158.797,155.9984 L158.797,134.284802 L209.065806,86.4096015 L168.7426,137.408008 L168.7426,137.408008 Z" id="paperplane"></path>
        </g>
    </g>
</svg>