<?xml version="1.0" encoding="utf-8"?>
<!-- Generator: Adobe Illustrator 16.0.3, SVG Export Plug-In . SVG Version: 6.00 Build 0)  -->
<!DOCTYPE svg PUBLIC "-//W3C//DTD SVG 1.1//EN" "http://www.w3.org/Graphics/SVG/1.1/DTD/svg11.dtd">
<svg version="1.1" id="Ebene_1" xmlns="http://www.w3.org/2000/svg" xmlns:xlink="http://www.w3.org/1999/xlink" x="0px" y="0px"
	 width="60px" height="120px" viewBox="0 0 60 120" enable-background="new 0 0 60 120" xml:space="preserve">
<title>Location Off</title>
<desc>Created with Sketch.</desc>
<path fill="#FF526E" d="M21.016,78v3h-0.969c-1.106,0-2.031,0.894-2.031,2l-0.031,0.938v0.031c0,1.106,0.925,2.031,2.031,2.031
	h0.969l0.031,16h2l-0.031-16h1c1.096,0,1.983-0.907,2-2c0-0.011,0-0.021,0-0.031l0.031-0.938V83c0-1.106-0.925-2-2.031-2h-0.969v-3
	H21.016z M29.016,78v15h-0.969c-1.106,0-2.031,0.894-2.031,2l-0.031,0.938v0.031c0,1.106,0.925,2.031,2.031,2.031h0.969l0.031,4
	l2-0.031L30.984,98h1c1.096,0,1.982-0.907,2-2c0-0.011,0-0.021,0-0.031l0.031-0.938V95c0-1.106-0.925-2-2.031-2h-0.969V78H29.016z
	 M37.016,78v7h-0.969c-1.106,0-2.031,0.894-2.031,2l-0.031,0.938v0.031c0,1.106,0.925,2.031,2.031,2.031h0.969l0.031,12h2l-0.031-12
	h1c1.096,0,1.982-0.907,2-2c0-0.011,0-0.021,0-0.031l0.031-0.938V87c0-1.106-0.925-2-2.031-2h-0.969v-7H37.016z M20.016,83
	c0-0.025,0.006,0,0.031,0h0.969h2h0.969c0.025,0,0.031-0.025,0.031,0l-0.031,0.938v0.031c0,0.025,0.025,0.031,0,0.031h-3.969
	c-0.013,0-0.028,0.003-0.031,0v-0.031l0.031-0.938V83z M36.016,87c0-0.025,0.006,0,0.031,0h3.938c0.025,0,0.031-0.025,0.031,0
	l-0.031,0.938v0.031c0,0.025,0.025,0.031,0,0.031h-3.969c-0.013,0-0.028,0.003-0.031,0v-0.031l0.031-0.938V87z M28.016,95
	c0-0.025,0.006,0,0.031,0h3.938c0.025,0,0.031-0.025,0.031,0l-0.031,0.938v0.031c0,0.025,0.025,0.031,0,0.031h-3.969
	c-0.013,0-0.028,0.003-0.031,0v-0.031l0.031-0.938V95z"/>
<path fill="#606060" d="M22.514,20v2.5h-0.808c-0.922,0-1.692,0.745-1.692,1.667l-0.026,0.781v0.026
	c0,0.922,0.771,1.692,1.692,1.692h0.808L22.514,40h1.666l-0.025-13.333h0.833c0.913,0,1.652-0.756,1.667-1.667
	c0-0.009,0-0.017,0-0.026l0.025-0.781v-0.026c0-0.922-0.771-1.667-1.692-1.667H24.18V20H22.514z M29.18,20v12.5h-0.807
	c-0.923,0-1.693,0.744-1.693,1.667l-0.025,0.781v0.025c0,0.923,0.771,1.693,1.692,1.693h0.808L29.18,40l1.667-0.026l-0.026-3.307
	h0.833c0.914,0,1.652-0.757,1.667-1.667c0-0.009,0-0.018,0-0.026l0.026-0.781v-0.025c0-0.923-0.771-1.667-1.693-1.667h-0.807V20
	H29.18z M35.847,20v5.833h-0.808c-0.922,0-1.692,0.744-1.692,1.667l-0.026,0.781v0.026c0,0.922,0.771,1.693,1.692,1.693h0.808
	l0.026,10h1.666l-0.025-10h0.833c0.913,0,1.652-0.756,1.667-1.667c0-0.009,0-0.018,0-0.026l0.025-0.781V27.5
	c0-0.922-0.771-1.667-1.692-1.667h-0.808V20H35.847z M21.68,24.167c0-0.021,0.005,0,0.026,0h0.808h1.666h0.808
	c0.021,0,0.026-0.021,0.026,0l-0.026,0.781v0.026c0,0.021,0.021,0.026,0,0.026H21.68c-0.011,0-0.023,0.002-0.025,0v-0.026
	l0.025-0.781V24.167z M35.013,27.5c0-0.021,0.005,0,0.026,0h3.281c0.021,0,0.026-0.021,0.026,0l-0.026,0.781v0.026
	c0,0.021,0.021,0.026,0,0.026h-3.308c-0.011,0-0.023,0.002-0.025,0v-0.026l0.025-0.781V27.5z M28.347,34.167
	c0-0.021,0.005,0,0.026,0h3.28c0.021,0,0.026-0.021,0.026,0l-0.026,0.781v0.025c0,0.021,0.021,0.026,0,0.026h-3.307
	c-0.011,0-0.023,0.002-0.026,0v-0.026l0.026-0.781V34.167z"/>
</svg>
