<?xml version="1.0" encoding="UTF-8" standalone="no"?>
<svg width="51px" height="37px" viewBox="0 0 51 37" version="1.1" xmlns="http://www.w3.org/2000/svg" xmlns:xlink="http://www.w3.org/1999/xlink" xmlns:sketch="http://www.bohemiancoding.com/sketch/ns">
    <!-- Generator: Sketch 3.2.2 (9983) - http://www.bohemiancoding.com/sketch -->
    <title>IconMail</title>
    <desc>Created with Sketch.</desc>
    <defs></defs>
    <g id="Contents" stroke="none" stroke-width="1" fill="none" fill-rule="evenodd" sketch:type="MSPage">
        <g id="StyleGuide" sketch:type="MSArtboardGroup" transform="translate(-699.000000, -5757.000000)" fill="#FFFFFF">
            <path d="M747.406,5757 L701,5757 C699.895,5757 699,5757.896 699,5759 L699,5791.04 C699,5792.144 699.895,5793.04 701,5793.04 L747.406,5793.04 C748.51,5793.04 749.406,5792.144 749.406,5791.04 L749.406,5759 C749.406,5757.896 748.51,5757 747.406,5757 L747.406,5757 Z M703,5763.559 L715.407,5774.96 L703,5786.362 L703,5763.559 L703,5763.559 Z M724.203,5777.611 L706.126,5761 L742.279,5761 L724.203,5777.611 L724.203,5777.611 Z M718.363,5777.677 L722.85,5781.8 C723.232,5782.151 723.718,5782.327 724.203,5782.327 C724.688,5782.327 725.174,5782.151 725.556,5781.8 L730.043,5777.677 L742.408,5789.04 L705.998,5789.04 L718.363,5777.677 L718.363,5777.677 Z M732.999,5774.96 L745.406,5763.559 L745.406,5786.362 L732.999,5774.96 L732.999,5774.96 Z" id="IconMail" sketch:type="MSShapeGroup"></path>
        </g>
    </g>
</svg>