<?xml version="1.0" encoding="UTF-8"?>
<svg width="96px" height="96px" viewBox="0 0 96 96" version="1.1" xmlns="http://www.w3.org/2000/svg" xmlns:xlink="http://www.w3.org/1999/xlink">
    <!-- Generator: Sketch 47.1 (45422) - http://www.bohemiancoding.com/sketch -->
    <title>Fill 1</title>
    <desc>Created with Sketch.</desc>
    <defs></defs>
    <g id="Page-1" stroke="none" stroke-width="1" fill="none" fill-rule="evenodd">
        <g id="9---Verkauf_Ebene-1" transform="translate(-1098.000000, -354.000000)" fill="#00C7C7">
            <g id="imac-webshop" transform="translate(1098.000000, 354.000000)">
                <path d="M19.2,43.2 L19.2,49.5999937 C19.2,50.4831937 19.9152,51.2000062 20.7999938,51.2000062 C21.6848063,51.2000062 22.4000063,50.4831937 22.4000063,49.5999937 L22.4000063,43.2 C22.4000063,42.3168 21.6848063,41.6000062 20.7999938,41.6000062 C19.9152,41.6000062 19.2,42.3168 19.2,43.2 L19.2,43.2 Z M26.9727938,51.1839937 C27.0495938,51.1952062 27.1263938,51.2000062 27.2016,51.2000062 C27.9855938,51.2000062 28.6704,50.6240062 28.7840063,49.8272062 L30.384,38.6271937 C30.4304063,38.304 30.3759938,37.9760062 30.2319938,37.6848 C30.0224063,37.2672 27.9807938,33.6 20.7999938,33.6 C13.6191994,33.6 11.5776,37.2672 11.3679994,37.6848 C11.2239994,37.9760062 11.1696,38.304 11.2160006,38.6271937 L12.816,49.8272062 C12.9408,50.7008062 13.7439994,51.3087937 14.6271994,51.1839937 C15.5007994,51.0591937 16.1088,50.2479937 15.984,49.3728 L14.4752006,38.8095937 C15.0687994,38.1552 16.7840006,36.8000062 20.7999938,36.8000062 C24.8384063,36.8000062 26.5503938,38.1696 27.1263938,38.8032 L25.6160063,49.3728 C25.4912063,50.2479937 26.0991938,51.0591937 26.9727938,51.1839937 L26.9727938,51.1839937 Z M75.2000063,38.4 C76.0832062,38.4 76.8,39.1184062 76.8,39.9999937 C76.8,40.8831937 77.5152,41.6000062 78.3999937,41.6000062 C79.2848062,41.6000062 80.0000062,40.8831937 80.0000062,39.9999937 C80.0000062,37.3536 77.8464,35.1999937 75.2000063,35.1999937 C72.5535938,35.1999937 70.4000062,37.3536 70.4000062,39.9999937 C70.4000062,40.8831937 71.1152062,41.6000062 72,41.6000062 C72.8847938,41.6000062 73.5999937,40.8831937 73.5999937,39.9999937 C73.5999937,39.1184062 74.3168062,38.4 75.2000063,38.4 L75.2000063,38.4 Z M49.5999938,38.4 C50.4831938,38.4 51.2000063,39.1184062 51.2000063,39.9999937 C51.2000063,40.8831937 51.9152063,41.6000062 52.8,41.6000062 C53.6847938,41.6000062 54.3999938,40.8831937 54.3999938,39.9999937 C54.3999938,37.3536 52.2464063,35.1999937 49.5999938,35.1999937 C46.9536,35.1999937 44.7999938,37.3536 44.7999938,39.9999937 C44.7999938,40.8831937 45.5151938,41.6000062 46.4000063,41.6000062 C47.2848,41.6000062 48,40.8831937 48,39.9999937 C48,39.1184062 48.7167938,38.4 49.5999938,38.4 L49.5999938,38.4 Z M43.2,44.7999937 C40.5536063,44.7999937 38.4,46.9536 38.4,49.5999938 C38.4,50.4831937 39.1152,51.2000062 39.9999938,51.2000062 C40.8848063,51.2000062 41.6000063,50.4831937 41.6000063,49.5999938 C41.6000063,48.7184063 42.3168,48 43.2,48 C44.0832,48 44.7999937,48.7184063 44.7999937,49.5999938 C44.7999937,50.4831937 45.5151938,51.2000062 46.4000063,51.2000062 C47.2848,51.2000062 48,50.4831937 48,49.5999938 C48,46.9536 45.8463938,44.7999937 43.2,44.7999937 L43.2,44.7999937 Z M62.4,38.4 C63.2832,38.4 63.9999938,39.1184062 63.9999938,39.9999937 C63.9999938,40.8831937 64.7151938,41.6000062 65.6000063,41.6000062 C66.4848,41.6000062 67.2,40.8831937 67.2,39.9999937 C67.2,37.3536 65.0463938,35.1999937 62.4,35.1999937 C59.7536063,35.1999937 57.6,37.3536 57.6,39.9999937 C57.6,40.8831937 58.3152,41.6000062 59.1999938,41.6000062 C60.0848063,41.6000062 60.8000063,40.8831937 60.8000063,39.9999937 C60.8000063,39.1184062 61.5168,38.4 62.4,38.4 L62.4,38.4 Z M52.8,51.2000062 C53.6847938,51.2000062 54.3999938,50.4831937 54.3999938,49.5999938 C54.3999938,48.7184063 55.1168063,48 56.0000062,48 C56.8832063,48 57.6,48.7184063 57.6,49.5999938 C57.6,50.4831937 58.3152,51.2000062 59.1999938,51.2000062 C60.0848063,51.2000062 60.8000063,50.4831937 60.8000063,49.5999938 C60.8000063,46.9536 58.6464,44.7999937 56.0000062,44.7999937 C53.3535938,44.7999937 51.2000063,46.9536 51.2000063,49.5999938 C51.2000063,50.4831937 51.9152063,51.2000062 52.8,51.2000062 L52.8,51.2000062 Z M78.3999937,51.2000062 C79.2848062,51.2000062 80.0000062,50.4831937 80.0000062,49.5999938 C80.0000062,48.7184063 80.7168,48 81.6,48 C82.4832,48 83.1999937,48.7184063 83.1999937,49.5999938 C83.1999937,50.4831937 83.9151937,51.2000062 84.8000062,51.2000062 C85.6848,51.2000062 86.4,50.4831937 86.4,49.5999938 C86.4,46.9536 84.2463937,44.7999937 81.6,44.7999937 C78.9536062,44.7999937 76.8,46.9536 76.8,49.5999938 C76.8,50.4831937 77.5152,51.2000062 78.3999937,51.2000062 L78.3999937,51.2000062 Z M65.6000062,51.2000062 C66.4848,51.2000062 67.2,50.4831937 67.2,49.5999938 C67.2,48.7184063 67.9167937,48 68.7999937,48 C69.6831938,48 70.4000062,48.7184063 70.4000062,49.5999938 C70.4000062,50.4831937 71.1152062,51.2000062 72,51.2000062 C72.8847938,51.2000062 73.5999937,50.4831937 73.5999937,49.5999938 C73.5999937,46.9536 71.4464062,44.7999937 68.7999937,44.7999937 C66.1536,44.7999937 63.9999937,46.9536 63.9999937,49.5999938 C63.9999937,50.4831937 64.7151937,51.2000062 65.6000062,51.2000062 L65.6000062,51.2000062 Z M62.4,86.4 L57.6,86.4 L57.6,78.3999994 C57.6,77.5167994 56.8848,76.8 56.0000063,76.8 C55.1151938,76.8 54.3999938,77.5167994 54.3999938,78.3999994 L54.3999938,87.9999994 C54.3999938,88.8831994 55.1151938,89.6000006 56.0000063,89.6000006 L62.4,89.6000006 C64.1952,89.6000006 66.072,91.0623994 66.8384062,92.7999994 L29.1615938,92.7999994 C29.928,91.0623994 31.8048,89.6000006 33.6,89.6000006 L49.5999938,89.6000006 C50.4848063,89.6000006 51.2000063,88.8831994 51.2000063,87.9999994 C51.2000063,87.1167994 50.4848063,86.4 49.5999938,86.4 L41.6000063,86.4 L41.6000063,78.3999994 C41.6000063,77.5167994 40.8848063,76.8 39.9999938,76.8 C39.1152,76.8 38.4,77.5167994 38.4,78.3999994 L38.4,86.4 L33.6,86.4 C29.4879938,86.4 25.5999938,90.288 25.5999938,94.4000001 C25.5999938,95.2832001 26.3151938,96 27.2000063,96 L68.7999937,96 C69.6848063,96 70.4000063,95.2832001 70.4000063,94.4000001 C70.4000063,90.288 66.5120063,86.4 62.4,86.4 L62.4,86.4 Z M3.4272,14.0432062 C4.632,15.2960062 6.25760062,15.9999937 8.00000062,15.9999937 C11.5296,15.9999937 14.4,13.1295937 14.4,9.6 C14.4,8.7168 15.1152,8.00000625 15.9999994,8.00000625 C16.8848006,8.00000625 17.6000006,8.7168 17.6000006,9.6 C17.6000006,13.1295937 20.4704062,15.9999937 24,15.9999937 C27.5295938,15.9999937 30.3999938,13.1295937 30.3999938,9.6 C30.3999938,8.7168 31.1151937,8.00000625 32.0000063,8.00000625 C32.8848,8.00000625 33.6,8.7168 33.6,9.6 C33.6,13.1295937 36.4704,15.9999937 39.9999938,15.9999937 C43.5296063,15.9999937 46.4000062,13.1295937 46.4000062,9.6 C46.4000062,8.7168 47.1152063,8.00000625 48,8.00000625 C48.8847938,8.00000625 49.5999938,8.7168 49.5999938,9.6 C49.5999938,13.1295937 52.4703938,15.9999937 56.0000062,15.9999937 C59.5296,15.9999937 62.4,13.1295937 62.4,9.6 C62.4,8.7168 63.1152,8.00000625 63.9999937,8.00000625 C64.8848062,8.00000625 65.6000062,8.7168 65.6000062,9.6 C65.6000062,13.1295937 68.4704062,15.9999937 72,15.9999937 C75.5295938,15.9999937 78.3999937,13.1295937 78.3999937,9.6 C78.3999937,8.7168 79.1151938,8.00000625 80.0000063,8.00000625 C80.8848,8.00000625 81.6,8.7168 81.6,9.6 C81.6,13.1295937 84.4704,15.9999937 87.9999937,15.9999937 C89.7423937,15.9999937 91.368,15.2960062 92.5728,14.0432062 L88.4928,3.20000625 L7.5072,3.20000625 L3.4272,14.0432062 Z M0.3168,15.312 C-0.0096,14.8752 -0.0896000062,14.3024062 0.102399994,13.7936063 L4.90239938,1.0368 C5.13759938,0.4128 5.73440063,0 6.39999938,0 L89.6000063,0 C90.2655938,0 90.8624063,0.4128 91.0976063,1.0368 L95.8976063,13.7936063 C96.0896063,14.3024062 96.0096,14.8752 95.6832,15.312 C93.8432063,17.7824063 91.0416,19.2 87.9999938,19.2 C84.6639938,19.2 81.7215938,17.4912 80.0000063,14.9007937 C78.2784,17.4912 75.336,19.2 72,19.2 C68.664,19.2 65.7216,17.4912 63.9999938,14.9007937 C62.2784063,17.4912 59.3360063,19.2 56.0000063,19.2 C52.6640063,19.2 49.7216063,17.4912 48,14.9007937 C46.2783938,17.4912 43.3359938,19.2 39.9999938,19.2 C36.6639938,19.2 33.7215938,17.4912 32.0000063,14.9007937 C30.2784,17.4912 27.336,19.2 24,19.2 C20.664,19.2 17.7216,17.4912 15.9999994,14.9007937 C14.2784006,17.4912 11.3360006,19.2 8.00000063,19.2 C4.9584,19.2 2.15679938,17.7824063 0.3168,15.312 L0.3168,15.312 Z M94.4000062,20.7999938 C93.5151937,20.7999938 92.7999937,21.5168062 92.7999937,22.4000063 L92.7999937,65.6000063 C92.7999937,68.3360063 90.7359938,70.4000063 87.9999937,70.4000063 L8.00000062,70.4000063 C5.26400062,70.4000063 3.20000062,68.3360063 3.20000062,65.6000063 L3.20000062,57.6 L87.9999937,57.6 C88.8848062,57.6 89.6000063,56.8832063 89.6000063,56.0000063 C89.6000063,55.1168063 88.8848062,54.3999937 87.9999937,54.3999937 L1.59999994,54.3999937 C0.7152,54.3999937 -1.09650787e-15,55.1168063 -1.09650787e-15,56.0000063 L-1.09650787e-15,65.6000063 C-1.09650787e-15,70.0863937 3.5136,73.5999938 8.00000062,73.5999938 L87.9999937,73.5999938 C92.4864,73.5999938 96,70.0863937 96,65.6000063 L96,22.4000063 C96,21.5168062 95.2848,20.7999938 94.4000062,20.7999938 L94.4000062,20.7999938 Z M1.59999994,51.2000063 C2.48480063,51.2000063 3.20000063,50.4831937 3.20000063,49.5999938 L3.20000063,22.4000063 C3.20000063,21.5168062 2.48480063,20.7999937 1.59999994,20.7999937 C0.7152,20.7999937 1.37151575e-17,21.5168062 1.37151575e-17,22.4000063 L1.37151575e-17,49.5999938 C1.37151575e-17,50.4831937 0.7152,51.2000063 1.59999994,51.2000063 L1.59999994,51.2000063 Z M48,60.8000063 C49.7648063,60.8000063 51.2000063,62.2352063 51.2000063,63.9999937 C51.2000063,65.7648 49.7648063,67.2 48,67.2 C46.2351938,67.2 44.7999938,65.7648 44.7999938,63.9999937 C44.7999938,62.2352063 46.2351938,60.8000063 48,60.8000063 L48,60.8000063 Z" id="Fill-1"></path>
            </g>
        </g>
    </g>
</svg>