<?xml version="1.0" encoding="UTF-8" standalone="no"?>
<svg width="20px" height="21px" viewBox="0 0 20 21" version="1.1" xmlns="http://www.w3.org/2000/svg" xmlns:xlink="http://www.w3.org/1999/xlink" xmlns:sketch="http://www.bohemiancoding.com/sketch/ns">
    <!-- Generator: Sketch 3.2.2 (9983) - http://www.bohemiancoding.com/sketch -->
    <title>IconDownload</title>
    <desc>Created with Sketch.</desc>
    <defs></defs>
    <g id="Contents" stroke="none" stroke-width="1" fill="none" fill-rule="evenodd" sketch:type="MSPage">
        <g id="StyleGuide" sketch:type="MSArtboardGroup" transform="translate(-646.000000, -5691.000000)" stroke="#FA5A60" stroke-width="0.6" fill="#FA5A60">
            <g id="IconDownload" sketch:type="MSLayerGroup" transform="translate(646.000000, 5692.000000)">
                <path d="M10.1544444,13.3179444 L10.1544444,4.71727778 L9.31052778,4.71727778 L9.31052778,13.3179444 L5.45563889,9.46358333 L4.85872222,10.0605 L9.73222222,14.934 L14.6067778,10.0605 L14.0098611,9.46358333 L10.1544444,13.3179444" id="Fill-1" sketch:type="MSShapeGroup"></path>
                <path d="M9.73222222,0.298194444 C4.64338889,0.298194444 0.5035,4.43808333 0.5035,9.52744444 C0.5035,14.6162778 4.64338889,18.7561667 9.73222222,18.7561667 C14.8215833,18.7561667 18.962,14.6162778 18.962,9.52744444 C18.962,4.43808333 14.8215833,0.298194444 9.73222222,0.298194444 L9.73222222,0.298194444 Z M9.73222222,17.91225 C5.10941667,17.91225 1.34794444,14.1507778 1.34794444,9.52744444 C1.34794444,4.90358333 5.10941667,1.14211111 9.73222222,1.14211111 C14.3560833,1.14211111 18.1175556,4.90358333 18.1175556,9.52744444 C18.1175556,14.1507778 14.3560833,17.91225 9.73222222,17.91225 L9.73222222,17.91225 Z" id="Fill-2" sketch:type="MSShapeGroup"></path>
            </g>
        </g>
    </g>
</svg>