<?xml version="1.0" encoding="utf-8"?>
<!-- Generator: Adobe Illustrator 16.0.3, SVG Export Plug-In . SVG Version: 6.00 Build 0)  -->
<!DOCTYPE svg PUBLIC "-//W3C//DTD SVG 1.1//EN" "http://www.w3.org/Graphics/SVG/1.1/DTD/svg11.dtd">
<svg version="1.1" id="Ebene_1" xmlns="http://www.w3.org/2000/svg" xmlns:xlink="http://www.w3.org/1999/xlink" x="0px" y="0px"
	 width="60px" height="120px" viewBox="0 0 60 120" enable-background="new 0 0 60 120" xml:space="preserve">
<title>Location Off</title>
<desc>Created with Sketch.</desc>
<g>
	<g>
		<g>
			<defs>
				<path id="SVGID_1_" d="M23.021,36.745l0.209,1.563C22.821,38.253,22.5,37.925,22.5,37.5
					C22.501,37.153,22.723,36.871,23.021,36.745z M36.9,36.718c0.34,0.106,0.6,0.406,0.6,0.782c0,0.462-0.371,0.833-0.834,0.833
					L36.9,36.718z M34.166,34.167c-0.459,0-0.832,0.374-0.832,0.833c0,0.461,0.373,0.834,0.832,0.834C34.627,35.833,35,35.46,35,35
					C35,34.54,34.627,34.167,34.166,34.167z M24.245,33.334h11.433L35,38.307v0.026h-9.166h-0.912c0.009,0,0-0.024,0-0.026
					L24.245,33.334z M30.001,30c1.573,0,3.006,0.65,4.062,1.667h-8.177C26.942,30.616,28.388,30,30.001,30z M30.001,21.667
					c1.851,0,3.333,1.483,3.333,3.333c0,1.851-1.482,3.334-3.333,3.334c-1.852,0-3.333-1.482-3.333-3.334
					C26.668,23.149,28.149,21.667,30.001,21.667z M30.001,20C27.249,20,25,22.248,25,25c0,1.614,0.784,3.043,1.98,3.958
					c-1.341,0.587-2.452,1.578-3.256,2.813c-0.707,0.241-1.24,0.933-1.12,1.744h-0.026l0.208,1.563
					c-1.106,0.255-1.952,1.241-1.952,2.421c0,1.37,1.129,2.5,2.499,2.5h1.59h0.911h9.245h1.587c1.371,0,2.5-1.13,2.5-2.5
					c0-1.219-0.896-2.233-2.057-2.447l0.209-1.512c0.001-0.009-0.002-0.016,0-0.026c0.112-0.762-0.348-1.415-0.99-1.693
					c-0.805-1.225-1.941-2.23-3.309-2.839c1.203-0.914,1.979-2.364,1.979-3.984C35,22.249,32.753,20,30.001,20z"/>
			</defs>
			<use xlink:href="#SVGID_1_"  overflow="visible" fill="#606060"/>
			<clipPath id="SVGID_2_">
				<use xlink:href="#SVGID_1_"  overflow="visible"/>
			</clipPath>
			<g clip-path="url(#SVGID_2_)">
				<g>
					<g>
						<defs>
							<rect id="SVGID_3_" x="-10" y="-313.338" width="300.004" height="558.342"/>
						</defs>
						<use xlink:href="#SVGID_3_"  overflow="visible" fill="#606060"/>
						<clipPath id="SVGID_4_">
							<use xlink:href="#SVGID_3_"  overflow="visible"/>
						</clipPath>
						<rect x="16.668" y="15.833" clip-path="url(#SVGID_4_)" fill="#606060" width="26.666" height="28.333"/>
					</g>
				</g>
			</g>
		</g>
	</g>
</g>
<g>
	<g>
		<defs>
			<path id="SVGID_5_" d="M21.625,98.094l0.25,1.878C21.384,99.905,21,99.51,21,99.001C21,98.584,21.266,98.246,21.625,98.094z
				 M38.281,98.063c0.408,0.128,0.72,0.486,0.72,0.938c0,0.554-0.446,0.999-1.001,0.999L38.281,98.063z M35,95
				c-0.553,0-0.999,0.449-0.999,1.001c0,0.553,0.446,1,0.999,1s1-0.447,1-1C36,95.449,35.553,95,35,95z M23.093,94.001h13.722
				L36,99.972V100H25h-1.094c0.01,0,0-0.027,0-0.028L23.093,94.001z M30,90.001c1.888,0,3.607,0.78,4.875,2h-9.814
				C26.331,90.74,28.065,90.001,30,90.001z M30,80c2.221,0,4,1.779,4,3.999c0,2.223-1.779,4.002-4,4.002s-4-1.779-4-4.002
				C26.001,81.779,27.779,80,30,80z M30,78c-3.302,0-6,2.698-6,5.999c0,1.938,0.94,3.653,2.376,4.75
				c-1.609,0.706-2.943,1.895-3.907,3.377c-0.848,0.288-1.489,1.12-1.345,2.093h-0.031l0.25,1.877
				C20.014,96.401,19,97.585,19,99.001c0,1.644,1.355,2.999,3,2.999h1.908H25h11.096H38c1.646,0,3-1.355,3-2.999
				c0-1.463-1.077-2.68-2.469-2.938l0.252-1.813c0-0.011-0.002-0.02,0-0.031c0.133-0.914-0.419-1.697-1.189-2.032
				c-0.965-1.47-2.33-2.676-3.97-3.406c1.444-1.096,2.375-2.836,2.375-4.781C36,80.7,33.304,78,30,78z"/>
		</defs>
		<use xlink:href="#SVGID_5_"  overflow="visible" fill="#FF526E"/>
		<clipPath id="SVGID_6_">
			<use xlink:href="#SVGID_5_"  overflow="visible"/>
		</clipPath>
		<g clip-path="url(#SVGID_6_)">
			<g>
				<g>
					<defs>
						<rect id="SVGID_7_" x="-18.003" y="-322.029" width="360.025" height="670.048"/>
					</defs>
					<use xlink:href="#SVGID_7_"  overflow="visible" fill="#FF526E"/>
					<clipPath id="SVGID_8_">
						<use xlink:href="#SVGID_7_"  overflow="visible"/>
					</clipPath>
					<rect x="14" y="73" clip-path="url(#SVGID_8_)" fill="#FF526E" width="32.002" height="34.003"/>
				</g>
			</g>
		</g>
	</g>
</g>
</svg>
