<?xml version="1.0" encoding="UTF-8" standalone="no"?>
<svg width="49px" height="49px" viewBox="0 0 49 49" version="1.1" xmlns="http://www.w3.org/2000/svg" xmlns:xlink="http://www.w3.org/1999/xlink" xmlns:sketch="http://www.bohemiancoding.com/sketch/ns">
    <!-- Generator: Sketch 3.2.2 (9983) - http://www.bohemiancoding.com/sketch -->
    <title>IconGoogle</title>
    <desc>Created with Sketch.</desc>
    <defs></defs>
    <g id="Contents" stroke="none" stroke-width="1" fill="none" fill-rule="evenodd" sketch:type="MSPage">
        <g id="StyleGuide" sketch:type="MSArtboardGroup" transform="translate(-577.000000, -5408.000000)" fill="#FFFFFF">
            <path d="M601.168919,5408.28984 C587.958864,5408.28984 577.25,5419.035 577.25,5432.28984 C577.25,5445.54467 587.958864,5456.28984 601.168919,5456.28984 C614.378974,5456.28984 625.087838,5445.54467 625.087838,5432.28984 C625.087838,5419.035 614.378974,5408.28984 601.168919,5408.28984 Z M601.168919,5411.16984 C589.544071,5411.16984 580.12027,5420.62558 580.12027,5432.28984 C580.12027,5443.95409 589.544071,5453.40984 601.168919,5453.40984 C612.793767,5453.40984 622.217568,5443.95409 622.217568,5432.28984 C622.217568,5420.62558 612.793767,5411.16984 601.168919,5411.16984 Z M613.84115,5429.5152 L613.84115,5434.5825 L611.696761,5434.5825 L611.696761,5429.5152 L606.693213,5429.5152 L606.693213,5427.40616 L611.696761,5427.40616 L611.696761,5422.38339 L613.84115,5422.38339 L613.84115,5427.40616 L617.66107,5427.40616 C617.943203,5428.09025 618.187254,5428.79418 618.390541,5429.5152 L613.84115,5429.5152 Z M588.468502,5444.0746 C591.256588,5442.36211 595.011641,5442.13593 597.04227,5442.00669 C596.413742,5441.19891 595.688517,5440.34266 595.688517,5438.93713 C595.688517,5438.17782 595.914143,5437.72546 596.139768,5437.19233 C595.640169,5437.24079 595.156686,5437.28926 594.705435,5437.28926 C589.951183,5437.28926 587.259794,5433.73504 587.259794,5430.22928 C587.259794,5428.16137 588.210644,5425.86404 590.128461,5424.20164 C592.690922,5422.0901 595.736866,5421.72984 598.154282,5421.72984 L607.388811,5421.72984 L604.520144,5423.34701 L601.748173,5423.34701 C602.779604,5424.20164 604.923047,5425.99975 604.923047,5429.4215 C604.923047,5432.74955 603.037462,5434.31664 601.167994,5435.80295 C600.571698,5436.38455 599.910937,5437.01462 599.910937,5438.00011 C599.910937,5438.9856 600.571698,5439.53488 601.071297,5439.93877 L602.682908,5441.19891 C604.665189,5442.84678 606.454077,5444.38155 606.454077,5447.48342 C606.454077,5449.52899 605.501804,5451.5821 603.646371,5453.15773 C602.648057,5453.32088 601.623932,5453.40701 600.580266,5453.40984 C602.464314,5452.58136 603.440365,5451.06553 603.440365,5449.24438 C603.440365,5446.95029 601.973799,5445.73862 598.557184,5443.29913 C598.20263,5443.26682 597.977005,5443.26682 597.525754,5443.26682 C597.122851,5443.26682 594.705435,5443.3476 592.81985,5443.97766 C591.836768,5444.33309 588.968101,5445.41551 588.968101,5448.61431 C588.968101,5448.96194 589.005018,5449.29897 589.077045,5449.62357 C584.351747,5446.10969 586.398738,5446.6056 585.860811,5446.6056 C586.398738,5445.69878 587.232836,5444.80724 588.468502,5444.0746 Z M595.333963,5423.21292 C594.173603,5423.21292 592.916547,5423.79775 592.191322,5424.69761 C591.433865,5425.6411 591.20824,5426.85277 591.20824,5428.01597 C591.20824,5431.03706 592.948779,5436.02913 596.816645,5436.02913 C597.928656,5436.02913 599.137364,5435.47984 599.862589,5434.76899 C600.89402,5433.73504 600.9746,5432.29719 600.9746,5431.48941 C600.9746,5428.24214 599.056784,5423.21292 595.333963,5423.21292 Z" id="IconGoogle" sketch:type="MSShapeGroup"></path>
        </g>
    </g>
</svg>