<?xml version="1.0" encoding="UTF-8"?>
<svg width="96px" height="103px" viewBox="0 0 96 103" version="1.1" xmlns="http://www.w3.org/2000/svg" xmlns:xlink="http://www.w3.org/1999/xlink">
    <!-- Generator: Sketch 47.1 (45422) - http://www.bohemiancoding.com/sketch -->
    <title>Fill 1</title>
    <desc>Created with Sketch.</desc>
    <defs></defs>
    <g id="Page-1" stroke="none" stroke-width="1" fill="none" fill-rule="evenodd">
        <g id="Gewinnspiel" transform="translate(-131.000000, -65.000000)" fill="#00C7C7">
            <g id="party-hat" transform="translate(131.000000, 65.000000)">
                <path d="M13.7615317,56.5556485 C13.7615317,57.5016703 12.9954597,58.2694494 12.0477249,58.2694494 C11.1017031,58.2694494 10.3253483,57.5016703 10.3253483,56.5556485 C10.3253483,55.6096268 11.0845637,54.8418477 12.0305854,54.8418477 L12.0477249,54.8418477 C12.9954597,54.8418477 13.7615317,55.6096268 13.7615317,56.5556485 L13.7615317,56.5556485 Z M68.5948117,18.8518895 C68.5948117,17.9058678 69.3540151,17.1380686 70.3000368,17.1380686 L70.3171883,17.1380686 C71.2649172,17.1380686 72.0309891,17.9058678 72.0309891,18.8518895 C72.0309891,19.7979113 71.2649172,20.5656904 70.3171883,20.5656904 C69.3711665,20.5656904 68.5948117,19.7979113 68.5948117,18.8518895 L68.5948117,18.8518895 Z M17.1805858,8.56904435 C17.1805858,7.62302259 17.9397891,6.85522343 18.8858109,6.85522343 L18.9029623,6.85522343 C19.8506912,6.85522343 20.6167632,7.62302259 20.6167632,8.56904435 C20.6167632,9.51506611 19.8506912,10.2828452 18.9029623,10.2828452 C17.9569406,10.2828452 17.1805858,9.51506611 17.1805858,8.56904435 L17.1805858,8.56904435 Z M88.9068452,16.6941992 C88.9497038,16.8535833 89.3147448,18.3051715 88.9719766,19.9795682 C88.4852485,22.3600469 86.8142862,24.0481406 84.2675749,24.7302427 C83.2907046,24.9924552 83.0953305,25.4243347 82.9633607,27.630005 C82.8434008,29.6437356 82.6600167,32.6874577 79.1261523,33.6351866 C77.8270795,33.9830962 77.1175632,34.6600368 76.8913406,35.7620285 C76.7113908,36.6377774 76.9084921,37.4638393 76.9101992,37.472395 C77.1552803,38.3858611 76.6119967,39.3267414 75.6985305,39.5718226 C75.5494293,39.6112268 75.400328,39.6317925 75.252954,39.6317925 C74.4971649,39.6317925 73.8047799,39.1262259 73.599123,38.360154 C73.5562845,38.2007699 73.1895163,36.7508887 73.5322845,35.0747849 C74.0207197,32.6943063 75.691682,31.0079197 78.2383933,30.3241105 C79.2152636,30.063605 79.4106377,29.6300184 79.5426075,27.4243481 C79.6625674,25.4089105 79.8459515,22.3651883 83.3798159,21.4191665 C84.6788887,21.0712569 85.388405,20.3960234 85.6146276,19.2923247 C85.7928703,18.4165757 85.5974962,17.5905138 85.595769,17.5819582 C85.3507079,16.6684921 85.8922644,15.7276117 86.8074377,15.4825305 C87.7226109,15.2357423 88.6617841,15.7807331 88.9068452,16.6941992 L88.9068452,16.6941992 Z M93.9488736,61.1949188 C91.9265874,63.2172251 93.4450142,65.1058343 93.9574494,65.6371079 C94.6121172,66.3123615 94.6035414,67.3954745 93.9334494,68.0553038 C93.5975498,68.3843548 93.1639431,68.5505874 92.7286494,68.5505874 C92.2933356,68.5505874 91.8580218,68.3826276 91.5255565,68.0501623 C89.6592201,66.1855331 88.1202075,62.1752234 91.5255565,58.7716017 C92.2402142,58.0569439 92.1922142,57.5839331 91.203354,55.6079197 C90.3018979,53.8032803 88.9376937,51.0765992 91.5255565,48.4887565 C93.5461356,46.4664703 92.0276887,44.577841 91.5152736,44.0465674 C90.8605858,43.3713339 90.8691615,42.2882008 91.5392536,41.6283916 C92.2110728,40.9702895 93.2821958,40.9685623 93.9488736,41.6335331 C95.8135029,43.4981423 97.3524954,47.5084519 93.9488736,50.9120736 C93.2342159,51.6267314 93.2804887,52.0997423 94.269349,54.0757757 C95.1708251,55.8804151 96.5350092,58.6070762 93.9488736,61.1949188 L93.9488736,61.1949188 Z M8.62696368,33.2495799 C8.88917623,32.2744167 8.61153941,31.8871029 6.76748385,30.6702929 C5.08452351,29.5597456 2.53951933,27.8785004 3.48554109,24.344636 C3.83515782,23.0455632 3.60379381,22.0944 2.76231565,21.3471866 C2.09221556,20.7524887 1.27815766,20.5091347 1.26958795,20.5074276 C0.356129874,20.2623464 -0.187147782,19.3231732 0.057927364,18.408 C0.303000502,17.494554 1.23702628,16.947836 2.15734092,17.1963515 C2.31672502,17.23919 3.75632335,17.6470695 5.03482444,18.7816167 C6.85488803,20.3943163 7.47871331,22.6856636 6.79661724,25.232395 C6.53440469,26.2075381 6.81375665,26.594872 8.65609908,27.8116619 C10.3407726,28.9222092 12.8857767,30.6034544 11.9380398,34.1373389 C11.5901382,35.4363916 11.8197871,36.3875548 12.6629804,37.1347883 C13.3330805,37.7294661 14.1471384,37.9728402 14.153993,37.9745473 C15.0674531,38.2196285 15.6107307,39.1587816 15.3656556,40.0739548 C15.1599987,40.8400268 14.4693349,41.3456134 13.7118306,41.3456134 C13.5644445,41.3456134 13.4153433,41.3250477 13.266242,41.2856234 C13.1068579,41.2427849 11.6689727,40.8348854 10.3887585,39.7003582 C8.57040803,38.0876586 7.94486962,35.7962912 8.62696368,33.2495799 L8.62696368,33.2495799 Z M47.9862628,3.42762176 C51.7669356,3.42762176 54.8415063,6.50219247 54.8415063,10.2828452 C54.8415063,14.0634979 51.7669356,17.1380686 47.9862628,17.1380686 C44.2073172,17.1380686 41.1310393,14.0634979 41.1310393,10.2828452 C41.1310393,6.50219247 44.2073172,3.42762176 47.9862628,3.42762176 L47.9862628,3.42762176 Z M54.4336067,23.3866243 C54.0805757,22.5125824 53.0831397,22.0875515 52.2039565,22.4406025 C51.3247732,22.7953607 50.9014494,23.7927967 51.2562075,24.6719799 L81.4363582,99.4008362 L26.7042075,99.4008362 L71.7842008,88.7512368 C72.7062226,88.5335839 73.2769205,87.609841 73.0592736,86.6895264 C72.8416268,85.7674986 71.9161707,85.1950855 70.9958561,85.4144536 L14.8240931,98.6861784 L20.9115314,83.59439 L64.6616234,73.2721205 C65.5819381,73.0561808 66.152636,72.1324519 65.934969,71.2121372 C65.7190293,70.2900954 64.7918661,69.7159833 63.8749858,69.9370644 L22.4813925,79.7040402 L28.5362611,64.6945205 L57.7001372,57.7947314 C58.6204519,57.5770845 59.1911498,56.6533356 58.9734828,55.7330209 C58.755836,54.8109992 57.8252385,54.2420084 56.9117724,54.4596552 L30.1061222,60.8007565 L36.1044351,45.9300351 L51.7566527,42.2093724 C52.6786745,41.9899983 53.2476653,41.0662494 53.0282912,40.1459347 C52.8089172,39.223913 51.8834611,38.6549222 50.9648736,38.8760033 L37.6760033,42.0328368 L46.3907146,20.4285791 C46.9117054,20.5108418 47.4429992,20.5656904 47.9862628,20.5656904 C53.6572519,20.5656904 58.2691079,15.9538343 58.2691079,10.2828452 C58.2691079,4.61185607 53.6572519,0 47.9862628,0 C42.3170008,0 37.7034176,4.61185607 37.7034176,10.2828452 C37.7034176,14.1989021 39.9039464,17.6076653 43.1327598,19.3437389 L10.407611,100.47368 C10.3681928,100.571367 10.3493403,100.670768 10.3287746,100.771883 C10.32192,100.79759 10.3116372,100.823297 10.3064957,100.849004 C10.2756472,101.047806 10.2876432,101.248321 10.3270614,101.443695 C10.3322028,101.465975 10.3236331,101.486541 10.3287746,101.50882 C10.333916,101.532813 10.3493403,101.549951 10.3561968,101.573945 C10.3990413,101.723046 10.4573101,101.865292 10.5395729,102.002397 C10.5498557,102.019535 10.5549972,102.0401 10.5669951,102.057238 C10.5704214,102.06238 10.5721366,102.069235 10.5755628,102.074377 C10.6698236,102.211481 10.784648,102.32802 10.9114705,102.432562 C10.9440321,102.459983 10.9817352,102.480549 11.0177252,102.506256 C11.1239819,102.57995 11.2370932,102.643361 11.3570591,102.691347 C11.4016187,102.710199 11.4444633,102.727337 11.4907361,102.742761 C11.6518353,102.792462 11.818074,102.826738 11.9911692,102.828452 L11.9945955,102.828452 L11.9963106,102.828452 L11.9963106,102.828452 L83.9762209,102.828452 C84.5469188,102.828452 85.0782126,102.545674 85.3969808,102.072663 C85.715749,101.601366 85.7791531,101.001533 85.5649205,100.471967 L54.4336067,23.3866243 Z" id="Fill-1"></path>
            </g>
        </g>
    </g>
</svg>