<?xml version="1.0" encoding="utf-8"?>
<!-- Generator: Adobe Illustrator 16.2.0, SVG Export Plug-In . SVG Version: 6.00 Build 0)  -->
<!DOCTYPE svg PUBLIC "-//W3C//DTD SVG 1.1//EN" "http://www.w3.org/Graphics/SVG/1.1/DTD/svg11.dtd">
<svg version="1.1" id="Ebene_1" xmlns="http://www.w3.org/2000/svg" xmlns:xlink="http://www.w3.org/1999/xlink" x="0px" y="0px"
	 width="70px" height="70px" viewBox="0 0 70 70" enable-background="new 0 0 70 70" xml:space="preserve">
<title>Location Off</title>
<desc>Created with Sketch.</desc>
<g>
	<g>
		<defs>
			<path id="SVGID_1_" d="M25.863,43.829l0.273,2.046c-0.535-0.071-0.955-0.501-0.955-1.057
				C25.182,44.364,25.472,43.995,25.863,43.829z M44.033,43.795c0.446,0.138,0.785,0.531,0.785,1.023
				c0,0.605-0.486,1.091-1.092,1.091L44.033,43.795z M40.454,40.454c-0.602,0-1.09,0.489-1.09,1.091c0,0.603,0.488,1.092,1.09,1.092
				c0.603,0,1.091-0.489,1.091-1.092C41.545,40.943,41.057,40.454,40.454,40.454z M27.466,39.364h14.966l-0.887,6.511v0.034h-12
				h-1.193c0.011,0,0-0.032,0-0.034L27.466,39.364z M35,35c2.061,0,3.936,0.852,5.318,2.182H29.614C30.997,35.806,32.889,35,35,35z
				 M35,24.091c2.423,0,4.364,1.941,4.364,4.363c0,2.423-1.941,4.364-4.364,4.364s-4.363-1.94-4.363-4.364
				C30.637,26.032,32.577,24.091,35,24.091z M35,21.909c-3.602,0-6.546,2.943-6.546,6.545c0,2.113,1.026,3.984,2.592,5.182
				c-1.755,0.768-3.209,2.065-4.262,3.682c-0.925,0.316-1.624,1.222-1.466,2.283h-0.035l0.273,2.047
				C24.107,41.983,23,43.273,23,44.818c0,1.794,1.478,3.273,3.272,3.273h2.081h1.192h12.103h2.078c1.796,0,3.273-1.479,3.273-3.273
				c0-1.595-1.175-2.923-2.693-3.204l0.273-1.978c0.002-0.013-0.002-0.022,0-0.035c0.147-0.998-0.455-1.851-1.296-2.215
				c-1.053-1.604-2.542-2.92-4.33-3.717c1.575-1.197,2.591-3.095,2.591-5.215C41.545,24.853,38.603,21.909,35,21.909z"/>
		</defs>
		<clipPath id="SVGID_2_">
			<use xlink:href="#SVGID_1_"  overflow="visible"/>
		</clipPath>
		<g clip-path="url(#SVGID_2_)">
			<g>
				<defs>
					<rect id="SVGID_3_" x="-17.364" y="-414.458" width="392.73" height="730.915"/>
				</defs>
				<clipPath id="SVGID_4_">
					<use xlink:href="#SVGID_3_"  overflow="visible"/>
				</clipPath>
				<rect x="17.546" y="16.454" clip-path="url(#SVGID_4_)" fill="#FFFFFF" width="34.909" height="37.091"/>
			</g>
		</g>
	</g>
</g>
</svg>
