<?xml version="1.0" encoding="UTF-8"?>
<svg width="96px" height="96px" viewBox="0 0 96 96" version="1.1" xmlns="http://www.w3.org/2000/svg" xmlns:xlink="http://www.w3.org/1999/xlink">
    <!-- Generator: Sketch 47.1 (45422) - http://www.bohemiancoding.com/sketch -->
    <title>website</title>
    <desc>Created with Sketch.</desc>
    <defs></defs>
    <g id="Page-1" stroke="none" stroke-width="1" fill="none" fill-rule="evenodd">
        <g id="9---Verkauf_Ebene-1" transform="translate(-306.000000, -354.000000)" fill="#00C7C7">
            <g id="Einträge" transform="translate(176.000000, 286.000000)">
                <g id="website" transform="translate(130.000000, 68.000000)">
                    <g id="Design">
                        <g id="Icon-3">
                            <path d="M96,8 L96,88 C96,92.4112 92.4112,96 88,96 L8,96 C3.5888,96 0,92.4112 0,88 L0,24 C0,23.1168 0.7168,22.4 1.6,22.4 C2.4832,22.4 3.2,23.1168 3.2,24 L3.2,88 C3.2,90.6464 5.3536,92.8 8,92.8 L88,92.8 C90.6464,92.8 92.8,90.6464 92.8,88 L92.8,8 C92.8,5.3536 90.6464,3.2 88,3.2 L8,3.2 C5.3536,3.2 3.2,5.3536 3.2,8 L3.2,16 L88,16 C88.8848,16 89.6,16.7168 89.6,17.6 C89.6,18.4832 88.8848,19.2 88,19.2 L1.6,19.2 C0.7168,19.2 0,18.4832 0,17.6 L0,8 C0,3.5888 3.5888,0 8,0 L88,0 C92.4112,0 96,3.5888 96,8 L96,8 L96,8 Z M9.6,9.6 C9.6,11.3648 11.0352,12.8 12.8,12.8 C14.5648,12.8 16,11.3648 16,9.6 C16,7.8352 14.5648,6.4 12.8,6.4 C11.0352,6.4 9.6,7.8352 9.6,9.6 L9.6,9.6 L9.6,9.6 Z M19.2,9.6 C19.2,11.3648 20.6352,12.8 22.4,12.8 C24.1648,12.8 25.6,11.3648 25.6,9.6 C25.6,7.8352 24.1648,6.4 22.4,6.4 C20.6352,6.4 19.2,7.8352 19.2,9.6 L19.2,9.6 L19.2,9.6 Z M28.8,9.6 C28.8,11.3648 30.2352,12.8 32,12.8 C33.7648,12.8 35.2,11.3648 35.2,9.6 C35.2,7.8352 33.7648,6.4 32,6.4 C30.2352,6.4 28.8,7.8352 28.8,9.6 L28.8,9.6 L28.8,9.6 Z M24,25.6 L11.2,25.6 C10.3168,25.6 9.6,26.3168 9.6,27.2 C9.6,28.0832 10.3168,28.8 11.2,28.8 L24,28.8 C24.8832,28.8 25.6,28.0832 25.6,27.2 C25.6,26.3168 24.8832,25.6 24,25.6 L24,25.6 L24,25.6 Z M84.8,28.8 C85.6848,28.8 86.4,28.0832 86.4,27.2 C86.4,26.3168 85.6848,25.6 84.8,25.6 L78.4,25.6 C77.5152,25.6 76.8,26.3168 76.8,27.2 C76.8,28.0832 77.5152,28.8 78.4,28.8 L84.8,28.8 L84.8,28.8 L84.8,28.8 Z M72,28.8 C72.8848,28.8 73.6,28.0832 73.6,27.2 C73.6,26.3168 72.8848,25.6 72,25.6 L65.6,25.6 C64.7152,25.6 64,26.3168 64,27.2 C64,28.0832 64.7152,28.8 65.6,28.8 L72,28.8 L72,28.8 L72,28.8 Z M59.2,28.8 C60.0848,28.8 60.8,28.0832 60.8,27.2 C60.8,26.3168 60.0848,25.6 59.2,25.6 L52.8,25.6 C51.9152,25.6 51.2,26.3168 51.2,27.2 C51.2,28.0832 51.9152,28.8 52.8,28.8 L59.2,28.8 L59.2,28.8 L59.2,28.8 Z M16,36.8 L16,62.4 C16,63.2832 16.7168,64 17.6,64 L33.6,64 C34.024,64 34.4304,63.832 34.7312,63.5312 L46.4,51.8624 L51.6688,57.1312 C52.2944,57.7568 53.3056,57.7568 53.9312,57.1312 L62.4,48.6624 L70.8688,57.1312 C71.4944,57.7568 72.5056,57.7568 73.1312,57.1312 C73.7568,56.5056 73.7568,55.4944 73.1312,54.8688 L63.5312,45.2688 C62.9056,44.6432 61.8944,44.6432 61.2688,45.2688 L52.8,53.7376 L47.5312,48.4688 C46.9056,47.8432 45.8944,47.8432 45.2688,48.4688 L32.9376,60.8 L19.2,60.8 L19.2,38.4 L76.8,38.4 L76.8,60.8 L43.2,60.8 C42.3168,60.8 41.6,61.5168 41.6,62.4 C41.6,63.2832 42.3168,64 43.2,64 L78.4,64 C79.2848,64 80,63.2832 80,62.4 L80,36.8 C80,35.9168 79.2848,35.2 78.4,35.2 L17.6,35.2 C16.7168,35.2 16,35.9168 16,36.8 L16,36.8 L16,36.8 Z M30.4,41.6 C33.0464,41.6 35.2,43.7536 35.2,46.4 C35.2,49.0464 33.0464,51.2 30.4,51.2 C27.7536,51.2 25.6,49.0464 25.6,46.4 C25.6,43.7536 27.7536,41.6 30.4,41.6 L30.4,41.6 L30.4,41.6 Z M30.4,44.8 C29.5184,44.8 28.8,45.5184 28.8,46.4 C28.8,47.2816 29.5184,48 30.4,48 C31.2816,48 32,47.2816 32,46.4 C32,45.5184 31.2816,44.8 30.4,44.8 L30.4,44.8 L30.4,44.8 Z M33.6,89.6 C34.4832,89.6 35.2,88.8832 35.2,88 L35.2,78.4 C35.2,77.5168 34.4832,76.8 33.6,76.8 L17.6,76.8 C16.7168,76.8 16,77.5168 16,78.4 L16,88 C16,88.8832 16.7168,89.6 17.6,89.6 C18.4832,89.6 19.2,88.8832 19.2,88 L19.2,80 L32,80 L32,88 C32,88.8832 32.7168,89.6 33.6,89.6 L33.6,89.6 L33.6,89.6 Z M56,89.6 C56.8848,89.6 57.6,88.8832 57.6,88 L57.6,78.4 C57.6,77.5168 56.8848,76.8 56,76.8 L40,76.8 C39.1168,76.8 38.4,77.5168 38.4,78.4 L38.4,88 C38.4,88.8832 39.1168,89.6 40,89.6 C40.8832,89.6 41.6,88.8832 41.6,88 L41.6,80 L54.4,80 L54.4,88 C54.4,88.8832 55.1152,89.6 56,89.6 L56,89.6 L56,89.6 Z M78.4,89.6 C79.2848,89.6 80,88.8832 80,88 L80,78.4 C80,77.5168 79.2848,76.8 78.4,76.8 L62.4,76.8 C61.5152,76.8 60.8,77.5168 60.8,78.4 L60.8,88 C60.8,88.8832 61.5152,89.6 62.4,89.6 C63.2848,89.6 64,88.8832 64,88 L64,80 L76.8,80 L76.8,88 C76.8,88.8832 77.5152,89.6 78.4,89.6 L78.4,89.6 L78.4,89.6 Z M49.648,68.8 C49.648,67.9168 48.9312,67.2 48.048,67.2 L48.032,67.2 C47.1488,67.2 46.44,67.9168 46.44,68.8 C46.44,69.6832 47.1632,70.4 48.048,70.4 C48.9312,70.4 49.648,69.6832 49.648,68.8 L49.648,68.8 L49.648,68.8 Z M56.048,68.8 C56.048,67.9168 55.3312,67.2 54.448,67.2 L54.432,67.2 C53.5488,67.2 52.84,67.9168 52.84,68.8 C52.84,69.6832 53.5648,70.4 54.448,70.4 C55.3312,70.4 56.048,69.6832 56.048,68.8 L56.048,68.8 L56.048,68.8 Z M43.248,68.8 C43.248,67.9168 42.5312,67.2 41.648,67.2 L41.632,67.2 C40.7488,67.2 40.04,67.9168 40.04,68.8 C40.04,69.6832 40.7648,70.4 41.648,70.4 C42.5312,70.4 43.248,69.6832 43.248,68.8 L43.248,68.8 L43.248,68.8 Z" id="website"></path>
                        </g>
                    </g>
                </g>
            </g>
        </g>
    </g>
</svg>