<?xml version="1.0" encoding="UTF-8"?>
<svg width="96px" height="96px" viewBox="0 0 96 96" version="1.1" xmlns="http://www.w3.org/2000/svg" xmlns:xlink="http://www.w3.org/1999/xlink">
    <!-- Generator: Sketch 47.1 (45422) - http://www.bohemiancoding.com/sketch -->
    <title>newspaper</title>
    <desc>Created with Sketch.</desc>
    <defs></defs>
    <g id="Page-1" stroke="none" stroke-width="1" fill="none" fill-rule="evenodd">
        <g id="9---Verkauf_Ebene-1" transform="translate(-702.000000, -354.000000)" fill="#00C7C7">
            <g id="Mailing" transform="translate(572.000000, 286.000000)">
                <g id="newspaper" transform="translate(130.000000, 68.000000)">
                    <g id="Office">
                        <g>
                            <g id="Icon-1">
                                <path d="M92.8,70.4 L64,70.4 L64,76.8 C64,84.7392 70.4608,91.2 78.4,91.2 C86.3392,91.2 92.8,84.7392 92.8,76.8 L92.8,70.4 L92.8,70.4 Z M61.1056,80 C60.9136,78.9616 60.8,77.8944 60.8,76.8 L60.8,70.4 L54.4,70.4 L54.4,75.2 C54.4,78.0704 56.3296,80 59.2,80 L61.1056,80 L61.1056,80 Z M96,68.8 L96,76.8 C96,86.504 88.104,94.4 78.4,94.4 C70.9552,94.4 64.5904,89.7456 62.0224,83.2 L59.2,83.2 C54.5648,83.2 51.2,79.8352 51.2,75.2 L51.2,68.8 C51.2,67.9168 51.9168,67.2 52.8,67.2 L62.4,67.2 L94.4,67.2 C95.2832,67.2 96,67.9168 96,68.8 L96,68.8 L96,68.8 Z M86.4,62.4 L86.4,59.2 C86.4,58.3168 85.6832,57.6 84.8,57.6 C83.9168,57.6 83.2,58.3168 83.2,59.2 L83.2,62.4 C83.2,63.2848 83.9168,64 84.8,64 C85.6832,64 86.4,63.2848 86.4,62.4 L86.4,62.4 L86.4,62.4 Z M70.4,59.2 L70.4,62.4 C70.4,63.2848 71.1168,64 72,64 C72.8832,64 73.6,63.2848 73.6,62.4 L73.6,59.2 C73.6,58.3168 72.8832,57.6 72,57.6 C71.1168,57.6 70.4,58.3168 70.4,59.2 L70.4,59.2 L70.4,59.2 Z M78.4,54.4 C77.5168,54.4 76.8,55.1168 76.8,56 L76.8,62.4 C76.8,63.2832 77.5168,64 78.4,64 C79.2832,64 80,63.2832 80,62.4 L80,56 C80,55.1168 79.2832,54.4 78.4,54.4 L78.4,54.4 L78.4,54.4 Z M8,22.4 C7.1168,22.4 6.4,23.1168 6.4,24 L6.4,78.4 C6.4,79.2832 7.1168,80 8,80 C8.8832,80 9.6,79.2832 9.6,78.4 L9.6,24 C9.6,23.1168 8.8832,22.4 8,22.4 L8,22.4 L8,22.4 Z M35.2,35.2 C35.2,36.9648 36.6352,38.4 38.4,38.4 C40.1648,38.4 41.6,36.9648 41.6,35.2 C41.6,33.4352 40.1648,32 38.4,32 C36.6352,32 35.2,33.4352 35.2,35.2 L35.2,35.2 L35.2,35.2 Z M28.8,49.6 C28.8,50.4832 29.5168,51.2 30.4,51.2 L40,51.2 C40.424,51.2 40.832,51.032 41.1312,50.7312 L51.2,40.6624 L54.8688,44.3312 C55.4944,44.9568 56.5056,44.9568 57.1312,44.3312 L64,37.4624 L70.8688,44.3312 C71.4944,44.9568 72.5056,44.9568 73.1312,44.3312 C73.7568,43.7056 73.7568,42.6944 73.1312,42.0688 L65.1312,34.0688 C64.5056,33.4432 63.4944,33.4432 62.8688,34.0688 L56,40.9376 L52.3312,37.2688 C51.7056,36.6432 50.6944,36.6432 50.0688,37.2688 L39.3376,48 L32,48 L32,28.8 L76.8,28.8 L76.8,48 L49.6,48 C48.7168,48 48,48.7168 48,49.6 C48,50.4832 48.7168,51.2 49.6,51.2 L78.4,51.2 C79.2832,51.2 80,50.4832 80,49.6 L80,27.2 C80,26.3168 79.2832,25.6 78.4,25.6 L30.4,25.6 C29.5168,25.6 28.8,26.3168 28.8,27.2 L28.8,49.6 L28.8,49.6 Z M30.4,80 L40,80 C40.8832,80 41.6,79.2832 41.6,78.4 C41.6,77.5168 40.8832,76.8 40,76.8 L30.4,76.8 C29.5168,76.8 28.8,77.5168 28.8,78.4 C28.8,79.2832 29.5168,80 30.4,80 L30.4,80 L30.4,80 Z M30.4,70.4 L40,70.4 C40.8832,70.4 41.6,69.6832 41.6,68.8 C41.6,67.9168 40.8832,67.2 40,67.2 L30.4,67.2 C29.5168,67.2 28.8,67.9168 28.8,68.8 C28.8,69.6832 29.5168,70.4 30.4,70.4 L30.4,70.4 L30.4,70.4 Z M78.4,19.2 C79.2832,19.2 80,18.4832 80,17.6 C80,16.7168 79.2832,16 78.4,16 L72,16 C71.1168,16 70.4,16.7168 70.4,17.6 C70.4,18.4832 71.1168,19.2 72,19.2 L78.4,19.2 L78.4,19.2 Z M30.4,19.2 L56,19.2 C56.8832,19.2 57.6,18.4832 57.6,17.6 C57.6,16.7168 56.8832,16 56,16 L30.4,16 C29.5168,16 28.8,16.7168 28.8,17.6 C28.8,18.4832 29.5168,19.2 30.4,19.2 L30.4,19.2 L30.4,19.2 Z M30.4,60.8 L46.4,60.8 C47.2832,60.8 48,60.0832 48,59.2 C48,58.3168 47.2832,57.6 46.4,57.6 L30.4,57.6 C29.5168,57.6 28.8,58.3168 28.8,59.2 C28.8,60.0832 29.5168,60.8 30.4,60.8 L30.4,60.8 L30.4,60.8 Z M65.6,92.8 L14.4,92.8 C7.2816,92.8 3.2,88.7184 3.2,81.6 L3.2,20.8 C3.2,18.1536 5.3536,16 8,16 C8.8832,16 9.6,15.2832 9.6,14.4 C9.6,13.5168 8.8832,12.8 8,12.8 C3.5888,12.8 0,16.3888 0,20.8 L0,81.6 C0,90.4816 5.5184,96 14.4,96 L65.6,96 C66.4832,96 67.2,95.2832 67.2,94.4 C67.2,93.5168 66.4832,92.8 65.6,92.8 L65.6,92.8 L65.6,92.8 Z M96,8 L96,62.4 C96,63.2832 95.2832,64 94.4,64 C93.5168,64 92.8,63.2832 92.8,62.4 L92.8,8 C92.8,5.3536 90.6464,3.2 88,3.2 L20.8,3.2 C18.2432,3.2 16,5.4432 16,8 L16,84.8 C16,85.6832 15.2832,86.4 14.4,86.4 C13.5168,86.4 12.8,85.6832 12.8,84.8 L12.8,8 C12.8,3.664 16.464,0 20.8,0 L88,0 C92.4112,0 96,3.5888 96,8 L96,8 L96,8 Z" id="newspaper"></path>
                            </g>
                        </g>
                    </g>
                </g>
            </g>
        </g>
    </g>
</svg>