<?xml version="1.0" encoding="utf-8"?>
<!-- Generator: Adobe Illustrator 16.2.0, SVG Export Plug-In . SVG Version: 6.00 Build 0)  -->
<!DOCTYPE svg PUBLIC "-//W3C//DTD SVG 1.1//EN" "http://www.w3.org/Graphics/SVG/1.1/DTD/svg11.dtd">
<svg version="1.1" id="Ebene_1" xmlns="http://www.w3.org/2000/svg" xmlns:xlink="http://www.w3.org/1999/xlink" x="0px" y="0px"
	 width="70px" height="70px" viewBox="0 0 70 70" enable-background="new 0 0 70 70" xml:space="preserve">
<g>
	<defs>
		<path id="SVGID_1_" d="M23.346,39.982h1.905l1.407,4.999h-1.905L23.346,39.982z M23,31.986h6.003v5.998H23V31.986z M45.002,26.733
			v5.253v0.997v3.999v1.003v5.219c-0.832-0.561-1.491-1.067-3.564-2.13c-2.938-1.497-6.73-3.02-10.436-3.089v-5.998
			c3.742-0.077,7.539-1.626,10.469-3.124C43.539,27.798,44.181,27.295,45.002,26.733z M46.993,23.017l-1.59,1.154
			c0,0-1.99,1.474-4.845,2.937c-2.855,1.462-6.571,2.877-9.837,2.877h-8.717H21v0.999v8.003v0.12l0.034,0.162l2,6.999l0.217,0.715
			h0.751H28h1.314l-0.347-1.278l-1.625-5.723h3.378c3.221,0,6.937,1.441,9.815,2.908c2.859,1.459,4.867,2.91,4.867,2.91l1.59,1.146
			v-1.966v-7.185C48.154,37.375,49,36.274,49,34.982c0-1.287-0.846-2.391-2.007-2.808v-7.187V23.017z"/>
	</defs>
	<clipPath id="SVGID_2_">
		<use xlink:href="#SVGID_1_"  overflow="visible"/>
	</clipPath>
	<g clip-path="url(#SVGID_2_)">
		<defs>
			<rect id="SVGID_3_" x="-12.995" y="-431.916" width="359.951" height="669.905"/>
		</defs>
		<clipPath id="SVGID_4_">
			<use xlink:href="#SVGID_3_"  overflow="visible"/>
		</clipPath>
		<rect x="16.002" y="18.016" clip-path="url(#SVGID_4_)" fill="#FFFFFF" width="37.989" height="33.963"/>
	</g>
</g>
</svg>
