<?xml version="1.0" encoding="UTF-8" standalone="no"?>
<svg width="50px" height="48px" viewBox="0 0 50 48" version="1.1" xmlns="http://www.w3.org/2000/svg" xmlns:xlink="http://www.w3.org/1999/xlink" xmlns:sketch="http://www.bohemiancoding.com/sketch/ns">
    <!-- Generator: Sketch 3.2.2 (9983) - http://www.bohemiancoding.com/sketch -->
    <title>IconTop5</title>
    <desc>Created with Sketch.</desc>
    <defs></defs>
    <g id="Contents" stroke="none" stroke-width="1" fill="none" fill-rule="evenodd" sketch:type="MSPage">
        <g id="StyleGuide" sketch:type="MSArtboardGroup" transform="translate(-576.000000, -5541.000000)" fill="#FFFFFF">
            <g id="IconTop5" sketch:type="MSLayerGroup" transform="translate(576.000000, 5541.000000)">
                <path d="M15.0091398,38.3697978 C14.5548387,37.8142921 14.4537634,37.0484494 14.7489247,36.3942472 L19.7236559,25.3634157 C19.0634409,25.5203596 18.3784946,25.6120449 17.6709677,25.6120449 C12.7586022,25.6120449 8.77634409,21.6172584 8.77634409,16.6894382 C8.77634409,11.761618 12.7586022,7.76683146 17.6709677,7.76683146 C20.694086,7.76683146 23.3607527,9.28341573 24.9677419,11.5960449 L28.1215054,11.9476854 L31.8112903,7.67083146 C28.6182796,3.25968539 23.4741935,0.393707865 17.6715054,0.393707865 C7.98817204,0.393707865 0.133333333,8.3687191 0.133333333,18.1995506 C0.133333333,18.1995506 0.133333333,28.0595056 17.6715054,47.8953708 C21.3424731,43.7431011 24.2365591,40.0341573 26.5317204,36.7555955 L16.8908602,39.0099775 C16.1930108,39.1733933 15.4639785,38.9253034 15.0091398,38.3697978" id="Fill-1" sketch:type="MSShapeGroup"></path>
                <path d="M40.1419355,18.8035955 C39.5715054,18.5619775 39.1553763,18.0544719 39.0306452,17.4461124 L36.9747312,7.4545618 L30.3193548,15.1685393 C29.9150538,15.6382921 29.3102151,15.8804494 28.6887097,15.8092584 L18.5811828,14.6826067 L23.8376344,23.4159101 C24.1580645,23.9476854 24.1967742,24.6035056 23.9413978,25.1692584 L19.7494624,34.4650787 L29.6537634,32.1486742 C29.7956989,32.1157753 29.9387097,32.0995955 30.0811828,32.0995955 C30.5446237,32.0995955 30.9983871,32.2716404 31.3489247,32.592 L38.8655914,39.4635506 L39.7301075,29.2977978 C39.7827957,28.679191 40.1354839,28.1253034 40.6741935,27.818427 L49.5123656,22.7697978 L40.1419355,18.8035955" id="Fill-2" sketch:type="MSShapeGroup"></path>
            </g>
        </g>
    </g>
</svg>