<?xml version="1.0" encoding="utf-8"?>
<!-- Generator: Adobe Illustrator 16.0.3, SVG Export Plug-In . SVG Version: 6.00 Build 0)  -->
<!DOCTYPE svg PUBLIC "-//W3C//DTD SVG 1.1//EN" "http://www.w3.org/Graphics/SVG/1.1/DTD/svg11.dtd">
<svg version="1.1" id="Ebene_1" xmlns="http://www.w3.org/2000/svg" xmlns:xlink="http://www.w3.org/1999/xlink" x="0px" y="0px"
	 width="85px" height="85px" viewBox="0 0 85 85" enable-background="new 0 0 85 85" xml:space="preserve">
<title>Google+ Pop</title>
<desc>Created with Sketch.</desc>
<g>
	<path id="Google_x2B_-Icon" fill="#FFFFFF" d="M37.409,41.214V44.3h5.053c-0.204,1.325-1.527,3.883-5.053,3.883
		c-3.042,0-5.524-2.546-5.524-5.683c0-3.137,2.482-5.683,5.524-5.683c1.731,0,2.889,0.746,3.551,1.388l2.419-2.353
		c-1.553-1.466-3.564-2.353-5.97-2.353c-4.925,0-8.909,4.024-8.909,9s3.984,9,8.909,9c5.142,0,8.553-3.651,8.553-8.795
		c0-0.591-0.063-1.041-0.14-1.491H37.409z M56.5,41.214h-2.545v-2.571h-2.546v2.571h-2.546v2.571h2.546v2.572h2.546v-2.572H56.5
		V41.214z"/>
</g>
</svg>
