<?xml version="1.0" encoding="UTF-8" standalone="no"?>
<svg width="49px" height="49px" viewBox="0 0 49 49" version="1.1" xmlns="http://www.w3.org/2000/svg" xmlns:xlink="http://www.w3.org/1999/xlink" xmlns:sketch="http://www.bohemiancoding.com/sketch/ns">
    <!-- Generator: Sketch 3.2.2 (9983) - http://www.bohemiancoding.com/sketch -->
    <title>IconFacebook</title>
    <desc>Created with Sketch.</desc>
    <defs></defs>
    <g id="Contents" stroke="none" stroke-width="1" fill="none" fill-rule="evenodd" sketch:type="MSPage">
        <g id="StyleGuide" sketch:type="MSArtboardGroup" transform="translate(-641.000000, -5408.000000)" fill="#FFFFFF">
            <path d="M665.75,5456.28984 C678.960055,5456.28984 689.668919,5445.54467 689.668919,5432.28984 C689.668919,5419.035 678.960055,5408.28984 665.75,5408.28984 C652.539945,5408.28984 641.831081,5419.035 641.831081,5432.28984 C641.831081,5445.54467 652.539945,5456.28984 665.75,5456.28984 Z M665.75,5453.40984 C677.374848,5453.40984 686.798649,5443.95409 686.798649,5432.28984 C686.798649,5420.62558 677.374848,5411.16984 665.75,5411.16984 C654.125152,5411.16984 644.701351,5420.62558 644.701351,5432.28984 C644.701351,5443.95409 654.125152,5453.40984 665.75,5453.40984 Z M667.486054,5442.84984 L667.486054,5432.2886 L670.599556,5432.2886 L671.012162,5428.64914 L667.486054,5428.64914 L667.491344,5426.82755 C667.491344,5425.87833 667.587663,5425.36971 669.043687,5425.36971 L670.990121,5425.36971 L670.990121,5421.72984 L667.876178,5421.72984 C664.135832,5421.72984 662.819328,5423.49537 662.819328,5426.46443 L662.819328,5428.64955 L660.487838,5428.64955 L660.487838,5432.28901 L662.819328,5432.28901 L662.819328,5442.84984 L667.486054,5442.84984 Z" id="IconFacebook" sketch:type="MSShapeGroup"></path>
        </g>
    </g>
</svg>