<?xml version="1.0" encoding="utf-8"?>
<!-- Generator: Adobe Illustrator 16.0.3, SVG Export Plug-In . SVG Version: 6.00 Build 0)  -->
<!DOCTYPE svg PUBLIC "-//W3C//DTD SVG 1.1//EN" "http://www.w3.org/Graphics/SVG/1.1/DTD/svg11.dtd">
<svg version="1.1" id="Ebene_1" xmlns="http://www.w3.org/2000/svg" xmlns:xlink="http://www.w3.org/1999/xlink" x="0px" y="0px"
	 width="60px" height="120px" viewBox="5 10 60 120" enable-background="new 5 10 60 120" xml:space="preserve">
<title>Location Off</title>
<desc>Created with Sketch.</desc>
<g id="Page-1">
	<g id="Eventlokale-Styleguide" transform="translate(-550.000000, -8313.000000)">
		<g id="Location-Off" transform="translate(550.000000, 8313.000000)">
			<g id="Group">
				<path id="Shape" fill="#606060" d="M35,30l-0.566,0.542L24.201,40.776l1.132,1.131l1.009-1.009v8.316V50h0.786h5.511h0.787
					v-0.786v-7.086h3.147v7.086V50h0.789h5.511h0.788v-0.786v-8.316l1.007,1.009l1.132-1.132L35.565,30.542L35,30L35,30z
					 M42.083,39.323v9.103h-3.934v-7.083v-0.789h-0.788h-4.723h-0.788v0.789v7.083h-3.936v-9.103L35,32.24L42.083,39.323z"/>
			</g>
		</g>
	</g>
</g>
<g id="Page-1_1_">
	<g id="Eventlokale-Styleguide_1_" transform="translate(-609.000000, -8311.000000)">
		<g id="Location-On" transform="translate(609.000000, 8311.000000)">
			<g id="Group_1_">
				<path id="Shape_1_" fill="#FF526E" d="M35,88l-0.679,0.648l-12.281,12.28l1.358,1.358l1.211-1.211v9.978V112h0.944h6.614h0.943
					v-0.946v-8.501h3.779v8.501V112h0.946h6.612h0.945v-0.946v-9.978l1.209,1.211l1.358-1.358l-12.281-12.28L35,88L35,88z
					 M43.501,99.189v10.923h-4.722v-8.505v-0.941h-0.946h-5.667h-0.946v0.941v8.505h-4.723V99.189L35,90.686L43.501,99.189z"/>
			</g>
		</g>
	</g>
</g>
</svg>
