<?xml version="1.0" encoding="utf-8"?>
<!-- Generator: Adobe Illustrator 16.0.3, SVG Export Plug-In . SVG Version: 6.00 Build 0)  -->
<!DOCTYPE svg PUBLIC "-//W3C//DTD SVG 1.1//EN" "http://www.w3.org/Graphics/SVG/1.1/DTD/svg11.dtd">
<svg version="1.1" id="Ebene_1" xmlns="http://www.w3.org/2000/svg" xmlns:xlink="http://www.w3.org/1999/xlink" x="0px" y="0px"
	 width="70px" height="70px" viewBox="0 0 70 70" enable-background="new 0 0 70 70" xml:space="preserve">
<title>Location Off</title>
<desc>Created with Sketch.</desc>
<path fill="#FFFFFF" d="M26.016,23v3h-0.969c-1.106,0-2.031,0.894-2.031,2l-0.031,0.938v0.031c0,1.106,0.925,2.031,2.031,2.031
	h0.969l0.031,16h2l-0.031-16h1c1.096,0,1.983-0.907,2-2c0-0.011,0-0.021,0-0.031l0.031-0.938V28c0-1.106-0.925-2-2.031-2h-0.969v-3
	H26.016z M34.016,23v15h-0.969c-1.106,0-2.031,0.894-2.031,2l-0.031,0.938v0.031c0,1.106,0.925,2.031,2.031,2.031h0.969l0.031,4
	l2-0.031L35.984,43h1c1.096,0,1.982-0.907,2-2c0-0.011,0-0.021,0-0.031l0.031-0.938V40c0-1.106-0.925-2-2.031-2h-0.969V23H34.016z
	 M42.016,23v7h-0.969c-1.106,0-2.031,0.894-2.031,2l-0.031,0.938v0.031c0,1.106,0.925,2.031,2.031,2.031h0.969l0.031,12h2l-0.031-12
	h1c1.096,0,1.982-0.907,2-2c0-0.011,0-0.021,0-0.031l0.031-0.938V32c0-1.106-0.925-2-2.031-2h-0.969v-7H42.016z M25.016,28
	c0-0.025,0.006,0,0.031,0h0.969h2h0.969c0.025,0,0.031-0.025,0.031,0l-0.031,0.938v0.031c0,0.025,0.025,0.031,0,0.031h-3.969
	c-0.013,0-0.028,0.003-0.031,0v-0.031l0.031-0.938V28z M41.016,32c0-0.025,0.006,0,0.031,0h3.938c0.025,0,0.031-0.025,0.031,0
	l-0.031,0.938v0.031c0,0.025,0.025,0.031,0,0.031h-3.969c-0.013,0-0.028,0.003-0.031,0v-0.031l0.031-0.938V32z M33.016,40
	c0-0.025,0.006,0,0.031,0h3.938c0.025,0,0.031-0.025,0.031,0l-0.031,0.938v0.031c0,0.025,0.025,0.031,0,0.031h-3.969
	c-0.013,0-0.028,0.003-0.031,0v-0.031l0.031-0.938V40z"/>
</svg>
