<?xml version="1.0" encoding="utf-8"?>
<!-- Generator: Adobe Illustrator 16.0.3, SVG Export Plug-In . SVG Version: 6.00 Build 0)  -->
<!DOCTYPE svg PUBLIC "-//W3C//DTD SVG 1.1//EN" "http://www.w3.org/Graphics/SVG/1.1/DTD/svg11.dtd">
<svg version="1.1" id="Ebene_1" xmlns="http://www.w3.org/2000/svg" xmlns:xlink="http://www.w3.org/1999/xlink" x="0px" y="0px"
	 width="30px" height="30px" viewBox="0 0 30 30" enable-background="new 0 0 30 30" xml:space="preserve">
<title>Herz Blau</title>
<desc>Created with Sketch.</desc>
<g id="Page-1">
	<g id="Eventlokale-Styleguide" transform="translate(-377.000000, -8394.000000)">
		<g id="Herz-Blau" transform="translate(378.000000, 8395.000000)">
			<g id="Group-26">
				<path fill="#FFFFFF" d="M14,28.895C5.788,28.895-0.894,22.213-0.894,14C-0.894,5.788,5.788-0.894,14-0.894
					c8.213,0,14.895,6.682,14.895,14.894C28.895,22.213,22.213,28.895,14,28.895z"/>
				<path id="Stroke-1" fill="none" stroke="#FF526E" stroke-width="2" stroke-miterlimit="10" d="M14,10.445l-0.963-0.971
					c-1.38-1.39-3.619-1.39-5.001,0.001c-1.381,1.393-1.382,3.647-0.001,5.039l3.464,3.488L14,20.521l5.966-6.008
					c1.38-1.393,1.38-3.646-0.002-5.04c-1.381-1.392-3.62-1.392-5-0.001L14,10.445L14,10.445z"/>
			</g>
		</g>
	</g>
</g>
</svg>
