<?xml version="1.0" encoding="utf-8"?>
<!-- Generator: Adobe Illustrator 16.2.0, SVG Export Plug-In . SVG Version: 6.00 Build 0)  -->
<!DOCTYPE svg PUBLIC "-//W3C//DTD SVG 1.1//EN" "http://www.w3.org/Graphics/SVG/1.1/DTD/svg11.dtd">
<svg version="1.1" id="Ebene_1" xmlns="http://www.w3.org/2000/svg" xmlns:xlink="http://www.w3.org/1999/xlink" x="0px" y="0px"
	 width="30px" height="30px" viewBox="0 0 30 30" enable-background="new 0 0 30 30" xml:space="preserve">
<title>Herz Blau</title>
<desc>Created with Sketch.</desc>
<g id="Page-1">
	<g id="Eventlokale-Styleguide" transform="translate(-377.000000, -8394.000000)">
		<g id="Herz-Blau" transform="translate(378.000000, 8395.000000)">
			<g id="Group-26">
				<path id="Stroke-1" fill="none" stroke="#2A5571" stroke-width="2" d="M14,10.445l-0.963-0.971
					c-1.38-1.39-3.619-1.39-5.001,0.001c-1.381,1.393-1.382,3.647-0.001,5.038l3.464,3.489L14,20.522l5.966-6.009
					c1.379-1.391,1.379-3.646-0.002-5.038s-3.62-1.392-5-0.001L14,10.445L14,10.445z"/>
				<path id="Stroke-3" fill="none" stroke="#2A5571" stroke-width="2" d="M27.894,14c0,7.673-6.221,13.894-13.894,13.894
					S0.106,21.673,0.106,14S6.327,0.106,14,0.106S27.894,6.327,27.894,14L27.894,14z"/>
			</g>
		</g>
	</g>
</g>
</svg>
