<?xml version="1.0" encoding="utf-8"?>
<!-- Generator: Adobe Illustrator 15.0.2, SVG Export Plug-In . SVG Version: 6.00 Build 0)  -->
<!DOCTYPE svg PUBLIC "-//W3C//DTD SVG 1.1//EN" "http://www.w3.org/Graphics/SVG/1.1/DTD/svg11.dtd">
<svg version="1.1" id="Ebene_1" xmlns:sketch="http://www.bohemiancoding.com/sketch/ns"
	 xmlns="http://www.w3.org/2000/svg" xmlns:xlink="http://www.w3.org/1999/xlink" x="0px" y="0px" width="297px" height="48px"
	 viewBox="0 0 297 48" enable-background="new 0 0 297 48" xml:space="preserve">
<title>Logo</title>
<desc>Created with Sketch.</desc>
<g id="Contents" sketch:type="MSPage">
	<g id="StyleGuide" transform="translate(-1092.000000, -5890.000000)" sketch:type="MSArtboardGroup">
		<g id="Logo" transform="translate(1091.000000, 5890.000000)" sketch:type="MSLayerGroup">
			<g transform="translate(1.000000, 0.000000)" sketch:type="MSShapeGroup">
				<path id="Fill-1" fill="#FFFFFF" d="M12.298,8.186c-6.336,0-11.492,5.435-11.492,12.116c0,6.702,5.158,11.95,11.742,11.95
					c5.315,0,9.132-2.738,10.746-7.711l0.339-1.046H20.35l-0.191,0.524c-1.241,3.379-3.802,5.092-7.61,5.092
					c-4.605,0-8.164-3.426-8.564-8.092h19.794l0.014-0.787c0.047-3.115-1.285-6.357-3.567-8.672
					C18.083,9.384,15.267,8.186,12.298,8.186L12.298,8.186z M4.291,17.88c0.977-3.825,4.216-6.512,8.007-6.512
					c3.776,0,7.028,2.687,8.041,6.512H4.291L4.291,17.88z"/>
				<path id="Fill-2" fill="#FFFFFF" d="M35.012,26.596L28.157,8.727h-3.379l8.853,23.025h2.762l8.854-23.025h-3.38L35.012,26.596"
					/>
				<path id="Fill-3" fill="#FFFFFF" d="M57.807,8.186c-6.336,0-11.492,5.435-11.492,12.116c0,6.702,5.158,11.95,11.742,11.95
					c5.317,0,9.133-2.738,10.746-7.711l0.34-1.046h-3.283l-0.191,0.524c-1.242,3.379-3.803,5.092-7.611,5.092
					c-4.605,0-8.164-3.426-8.563-8.092h19.795l0.011-0.787c0.048-3.115-1.285-6.357-3.566-8.672
					C63.592,9.384,60.775,8.186,57.807,8.186L57.807,8.186z M49.799,17.88c0.979-3.825,4.218-6.512,8.008-6.512
					c3.778,0,7.03,2.687,8.042,6.512H49.799L49.799,17.88z"/>
				<path id="Fill-4" fill="#FFFFFF" d="M83.932,8.186c-2.732,0-5.16,0.955-6.938,2.679V8.727h-3.139v23.025h3.139V18.014
					c0-3.837,2.966-6.73,6.896-6.73c4.153,0,6.44,2.39,6.44,6.73v13.738h3.138V18.014C93.468,11.951,89.814,8.186,83.932,8.186"/>
				<path id="Fill-5" fill="#FFFFFF" d="M115.081,19.419v3.42c0,3.692-2.578,6.272-6.272,6.272c-3.635,0-6.271-2.639-6.271-6.272
					V11.865h14.933V8.727h-14.933V4.151h-3.141v18.688c0,5.456,3.958,9.413,9.411,9.413s9.411-3.957,9.411-9.413v-3.42H115.081"/>
				<path id="Fill-6" fill="#FFFFFF" d="M124.491,0h1.539v30.951h-1.539V0z"/>
				<path id="Fill-7" fill="#FFFFFF" d="M153.818,20.302c0,6.155-4.825,11.149-10.732,11.149c-5.866,0-10.693-4.994-10.693-11.149
					c0-6.241,4.827-11.315,10.693-11.315C148.993,8.987,153.818,14.061,153.818,20.302L153.818,20.302z M152.238,20.302
					c0-5.45-4.078-9.859-9.152-9.859c-5.033,0-9.152,4.409-9.152,9.859c0,5.325,4.119,9.692,9.152,9.692
					C148.16,29.994,152.238,25.627,152.238,20.302L152.238,20.302z"/>
				<path id="Fill-8" fill="#FFFFFF" d="M161.515,23.795v7.156h-1.539V0h1.539v21.675l12.563-12.148h2.206l-8.112,7.822
					l9.151,13.602h-1.871l-8.403-12.479L161.515,23.795"/>
				<path id="Fill-9" fill="#FFFFFF" d="M201.243,30.951h-1.539v-5.16c-1.746,3.371-5.158,5.66-9.152,5.66
					c-5.906,0-10.69-4.994-10.69-11.149c0-6.241,4.784-11.315,10.69-11.315c3.994,0,7.406,2.329,9.152,5.74v-5.2h1.539V30.951
					L201.243,30.951z M190.552,10.568c-5.034,0-9.152,4.367-9.152,9.734c0,5.282,4.118,9.608,9.152,9.608
					c5.033,0,9.152-4.326,9.152-9.608C199.704,14.935,195.585,10.568,190.552,10.568L190.552,10.568z"/>
				<path id="Fill-10" fill="#FFFFFF" d="M209.479,0h1.539v30.951h-1.539V0z"/>
				<path id="Fill-11" fill="#FFFFFF" d="M218.923,20.219c0.039,5.572,4.201,9.691,9.4,9.691c5.034,0,7.322-2.787,8.362-5.615h1.622
					c-1.498,4.617-4.95,7.156-9.984,7.156c-6.113,0-10.939-4.91-10.939-11.149c0-6.241,4.783-11.315,10.689-11.315
					c6.406,0,10.775,5.824,10.692,11.232H218.923L218.923,20.219z M237.103,18.68c-0.75-4.619-4.534-8.112-9.028-8.112
					c-4.534,0-8.278,3.493-8.987,8.112H237.103L237.103,18.68z"/>
				<path id="Fill-12" fill="#FFFFFF" d="M243.964,27.082h1.539v3.869h-1.539V27.082z"/>
				<path id="Fill-13" fill="#FFFFFF" d="M261.021,31.451c-5.908,0-10.69-4.994-10.69-11.149c0-6.241,4.782-11.315,10.69-11.315
					c4.741,0,8.444,2.828,9.901,7.156h-1.664c-1.375-3.413-4.409-5.575-8.237-5.575c-5.035,0-9.152,4.367-9.152,9.734
					c0,5.282,4.117,9.608,9.152,9.608c3.953,0,6.987-2.162,8.276-5.615h1.625C269.509,28.621,265.763,31.451,261.021,31.451"/>
				<path id="Fill-14" fill="#FFFFFF" d="M295.632,30.951h-1.539V18.014c0-4.701-2.537-7.531-7.239-7.531
					c-4.326,0-7.695,3.205-7.695,7.531v12.937h-1.539V0h1.539v13.146c1.539-2.538,4.327-4.159,7.738-4.159
					c5.489,0,8.735,3.453,8.735,9.027V30.951"/>
			</g>
			<g enable-background="new    ">
				<path fill="#FFFFFF" d="M1.751,36.434h3.322c2.984,0,4.653,1.492,4.653,4.613c0,3.24-1.424,5.072-4.653,5.072H1.751V36.434z
					 M3.04,45.033h2.143c0.881,0,3.255-0.244,3.255-3.813c0-2.307-0.854-3.703-3.229-3.703h-2.17L3.04,45.033L3.04,45.033z"/>
				<path fill="#FFFFFF" d="M14.904,36.434h1.426l3.783,9.686h-1.424l-1.058-2.916h-4.098l-1.085,2.916h-1.328L14.904,36.434z
					 M13.941,42.117h3.283l-1.614-4.516h-0.026L13.941,42.117z"/>
				<path fill="#FFFFFF" d="M27.639,39.27c-0.149-1.385-1.072-1.98-2.401-1.98c-1.085,0-2.17,0.395-2.17,1.654
					c0,1.193,1.546,1.371,3.106,1.723c1.546,0.354,3.093,0.896,3.093,2.795c0,2.063-2.021,2.891-3.785,2.891
					c-2.17,0-4.001-1.059-4.001-3.418h1.221c0,1.627,1.356,2.332,2.822,2.332c1.167,0,2.455-0.365,2.455-1.764
					c0-1.328-1.546-1.561-3.093-1.898c-1.546-0.34-3.106-0.787-3.106-2.564c0-1.967,1.75-2.834,3.514-2.834
					c1.98,0,3.485,0.936,3.567,3.064H27.639L27.639,39.27z"/>
				<path fill="#FFFFFF" d="M40.643,36.203c3.079,0,4.639,2.441,4.639,5.072c0,2.633-1.56,5.074-4.639,5.074
					s-4.639-2.441-4.639-5.074C36.004,38.645,37.563,36.203,40.643,36.203z M40.643,45.266c2.36,0,3.351-2.035,3.351-3.988
					s-0.989-3.988-3.351-3.988s-3.351,2.035-3.351,3.988S38.281,45.266,40.643,45.266z"/>
				<path fill="#FFFFFF" d="M47.813,36.434h1.37l5.101,7.854h0.027v-7.854h1.221v9.686h-1.41l-5.061-7.771h-0.027v7.771h-1.221
					V36.434z"/>
				<path fill="#FFFFFF" d="M58.594,36.434h1.289v8.602h5.127v1.084h-6.416V36.434z"/>
				<path fill="#FFFFFF" d="M67.164,36.434h1.288v9.686h-1.288V36.434z"/>
				<path fill="#FFFFFF" d="M71.584,36.434h1.37l5.101,7.854h0.027v-7.854h1.221v9.686h-1.411l-5.06-7.771h-0.027v7.771h-1.221
					V36.434z"/>
				<path fill="#FFFFFF" d="M82.363,36.434h6.688v1.086h-5.399v3.08h5.033v1.084h-5.033v3.352h5.439v1.084h-6.729V36.434z"/>
				<path fill="#FFFFFF" d="M91.626,36.434h4.246c1.926,0,2.971,1.072,2.971,2.863s-1.045,2.875-2.971,2.861h-2.957v3.961h-1.289
					V36.434z M92.914,41.074h2.522c1.452,0.014,2.116-0.625,2.116-1.777s-0.665-1.777-2.116-1.777h-2.522V41.074z"/>
				<path fill="#FFFFFF" d="M105.484,36.203c3.079,0,4.64,2.441,4.64,5.072c0,2.633-1.561,5.074-4.64,5.074
					s-4.639-2.441-4.639-5.074C100.846,38.645,102.405,36.203,105.484,36.203z M105.484,45.266c2.36,0,3.352-2.035,3.352-3.988
					s-0.99-3.988-3.352-3.988c-2.36,0-3.351,2.035-3.351,3.988S103.125,45.266,105.484,45.266z"/>
				<path fill="#FFFFFF" d="M112.671,36.434h4.558c1.818,0,2.944,0.99,2.944,2.537c0,1.166-0.517,2.129-1.683,2.455v0.027
					c1.126,0.217,1.356,1.043,1.452,1.994c0.081,0.949,0.027,2.006,0.569,2.672h-1.438c-0.365-0.395-0.163-1.438-0.353-2.389
					c-0.135-0.949-0.366-1.75-1.614-1.75h-3.146v4.139h-1.289V36.434z M116.646,40.896c1.207,0,2.238-0.311,2.238-1.723
					c0-0.949-0.517-1.654-1.724-1.654h-3.201v3.377H116.646z"/>
				<path fill="#FFFFFF" d="M124.889,37.52h-3.229v-1.086h7.746v1.086h-3.229v8.6h-1.289L124.889,37.52L124.889,37.52z"/>
				<path fill="#FFFFFF" d="M132.836,36.434h1.424l3.785,9.686h-1.426l-1.058-2.916h-4.097l-1.085,2.916h-1.329L132.836,36.434z
					 M131.872,42.117h3.282l-1.613-4.516h-0.027L131.872,42.117z"/>
				<path fill="#FFFFFF" d="M139.967,36.434h1.289v8.602h5.127v1.084h-6.416V36.434z"/>
				<path fill="#FFFFFF" d="M153.228,36.434h6.361v1.086h-5.072v3.08h4.449v1.084h-4.449v4.436h-1.289V36.434z"/>
				<path fill="#FFFFFF" d="M169.72,42.619c0,2.441-1.397,3.73-3.813,3.73c-2.496,0-3.975-1.154-3.975-3.73v-6.186h1.289v6.186
					c0,1.709,0.977,2.646,2.686,2.646c1.628,0,2.523-0.938,2.523-2.646v-6.186h1.287v6.186H169.72z M163.941,34.277h1.222v1.41
					h-1.222V34.277z M166.491,34.277h1.221v1.41h-1.221V34.277z"/>
				<path fill="#FFFFFF" d="M172.755,36.434h4.559c1.816,0,2.943,0.99,2.943,2.537c0,1.166-0.517,2.129-1.683,2.455v0.027
					c1.125,0.217,1.356,1.043,1.451,1.994c0.081,0.949,0.026,2.006,0.569,2.672h-1.438c-0.366-0.395-0.163-1.438-0.353-2.389
					c-0.137-0.949-0.366-1.75-1.614-1.75h-3.147v4.139h-1.289v-9.686H172.755z M176.729,40.896c1.208,0,2.237-0.311,2.237-1.723
					c0-0.949-0.515-1.654-1.723-1.654h-3.201v3.377H176.729z"/>
				<path fill="#FFFFFF" d="M191.577,46.119h-1.465l-3.419-9.686h1.397l2.768,8.395h0.025l2.795-8.395h1.344L191.577,46.119z"/>
				<path fill="#FFFFFF" d="M197.026,36.434h6.688v1.086h-5.398v3.08h5.033v1.084h-5.033v3.352h5.439v1.084h-6.729L197.026,36.434
					L197.026,36.434z"/>
				<path fill="#FFFFFF" d="M206.288,36.434h4.559c1.816,0,2.943,0.99,2.943,2.537c0,1.166-0.517,2.129-1.683,2.455v0.027
					c1.125,0.217,1.356,1.043,1.451,1.994c0.081,0.949,0.026,2.006,0.569,2.672h-1.438c-0.366-0.395-0.163-1.438-0.353-2.389
					c-0.137-0.949-0.367-1.75-1.615-1.75h-3.146v4.139h-1.289v-9.686H206.288z M210.261,40.896c1.209,0,2.238-0.311,2.238-1.723
					c0-0.949-0.515-1.654-1.723-1.654h-3.201v3.377H210.261z"/>
				<path fill="#FFFFFF" d="M219.185,36.434h1.425l3.784,9.686h-1.424l-1.06-2.916h-4.097l-1.085,2.916h-1.329L219.185,36.434z
					 M218.222,42.117h3.283l-1.614-4.516h-0.027L218.222,42.117z"/>
				<path fill="#FFFFFF" d="M226.302,36.434h1.371l5.1,7.854h0.027v-7.854h1.221v9.686h-1.41l-5.061-7.771h-0.026v7.771h-1.222
					V36.434z"/>
				<path fill="#FFFFFF" d="M242.685,39.27c-0.148-1.385-1.071-1.98-2.4-1.98c-1.086,0-2.171,0.395-2.171,1.654
					c0,1.193,1.547,1.371,3.106,1.723c1.547,0.354,3.093,0.896,3.093,2.795c0,2.063-2.021,2.891-3.784,2.891
					c-2.171,0-4.002-1.059-4.002-3.418h1.221c0,1.627,1.356,2.332,2.821,2.332c1.167,0,2.456-0.365,2.456-1.764
					c0-1.328-1.547-1.561-3.094-1.898c-1.547-0.34-3.105-0.787-3.105-2.564c0-1.967,1.749-2.834,3.514-2.834
					c1.979,0,3.485,0.936,3.566,3.064H242.685L242.685,39.27z"/>
				<path fill="#FFFFFF" d="M249.044,37.52h-3.229v-1.086h7.745v1.086h-3.229v8.6h-1.289v-8.6H249.044z"/>
				<path fill="#FFFFFF" d="M256.989,36.434h1.426l3.783,9.686h-1.424l-1.059-2.916h-4.098l-1.085,2.916h-1.329L256.989,36.434z
					 M256.026,42.117h3.283l-1.614-4.516h-0.026L256.026,42.117z"/>
				<path fill="#FFFFFF" d="M264.12,36.434h1.289v8.602h5.129v1.084h-6.418V36.434z"/>
				<path fill="#FFFFFF" d="M273.587,37.52h-3.229v-1.086h7.745v1.086h-3.229v8.6h-1.287V37.52L273.587,37.52z"/>
				<path fill="#FFFFFF" d="M280.148,36.434h6.688v1.086h-5.399v3.08h5.032v1.084h-5.032v3.352h5.438v1.084h-6.729L280.148,36.434
					L280.148,36.434z"/>
				<path fill="#FFFFFF" d="M289.409,36.434h4.559c1.817,0,2.943,0.99,2.943,2.537c0,1.166-0.516,2.129-1.682,2.455v0.027
					c1.125,0.217,1.355,1.043,1.451,1.994c0.08,0.949,0.027,2.006,0.568,2.672h-1.438c-0.366-0.395-0.163-1.438-0.354-2.389
					c-0.136-0.949-0.365-1.75-1.613-1.75h-3.147v4.139h-1.289L289.409,36.434L289.409,36.434z M293.384,40.896
					c1.207,0,2.238-0.311,2.238-1.723c0-0.949-0.516-1.654-1.724-1.654h-3.201v3.377H293.384z"/>
			</g>
			<text transform="matrix(1 0 0 1 285.7705 46.291)" fill="#FFFFFF" font-family="'ArialMT'" font-size="13"> </text>
		</g>
	</g>
</g>
</svg>
