<?xml version="1.0" encoding="utf-8"?>
<!-- Generator: Adobe Illustrator 15.0.2, SVG Export Plug-In . SVG Version: 6.00 Build 0)  -->
<!DOCTYPE svg PUBLIC "-//W3C//DTD SVG 1.1//EN" "http://www.w3.org/Graphics/SVG/1.1/DTD/svg11.dtd">
<svg version="1.1" id="Ebene_1" xmlns:sketch="http://www.bohemiancoding.com/sketch/ns"
	 xmlns="http://www.w3.org/2000/svg" xmlns:xlink="http://www.w3.org/1999/xlink" x="0px" y="0px" width="297px" height="47.99px"
	 viewBox="0 -0.995 297 47.99" enable-background="new 0 -0.995 297 47.99" xml:space="preserve">
<title>Logo-DE</title>
<desc>Created with Sketch.</desc>
<g id="Contents" sketch:type="MSPage">
	<g id="StyleGuide" transform="translate(-1090.000000, -6029.000000)" sketch:type="MSArtboardGroup">
		<g id="Logo-DE" transform="translate(1090.000000, 6029.000000)" sketch:type="MSLayerGroup">
			<path id="Fill-1" sketch:type="MSShapeGroup" fill="#FFFFFF" d="M12.21,7.168c-6.318,0-11.459,5.42-11.459,12.082
				c0,6.682,5.143,11.916,11.708,11.916c5.301,0,9.107-2.73,10.716-7.688l0.338-1.044H20.24l-0.19,0.523
				c-1.239,3.369-3.792,5.078-7.59,5.078c-4.592,0-8.141-3.416-8.54-8.07h19.739l0.013-0.785c0.047-3.106-1.281-6.339-3.557-8.647
				C17.979,8.362,15.171,7.168,12.21,7.168L12.21,7.168z M4.226,16.835c0.974-3.814,4.204-6.494,7.984-6.494
				c3.766,0,7.01,2.679,8.019,6.494H4.226L4.226,16.835z"/>
			<path id="Fill-2" sketch:type="MSShapeGroup" fill="#FFFFFF" d="M34.861,25.525L28.026,7.708h-3.369l8.827,22.96h2.754
				l8.829-22.96h-3.37L34.861,25.525"/>
			<path id="Fill-3" sketch:type="MSShapeGroup" fill="#FFFFFF" d="M57.593,7.168c-6.319,0-11.46,5.42-11.46,12.082
				c0,6.682,5.144,11.916,11.709,11.916c5.302,0,9.107-2.73,10.716-7.688l0.339-1.044h-3.274l-0.191,0.523
				c-1.239,3.369-3.792,5.078-7.59,5.078c-4.592,0-8.141-3.416-8.539-8.07h19.739l0.011-0.785c0.048-3.106-1.281-6.339-3.556-8.647
				C63.361,8.362,60.553,7.168,57.593,7.168L57.593,7.168z M49.607,16.835c0.976-3.814,4.207-6.494,7.986-6.494
				c3.767,0,7.01,2.679,8.02,6.494H49.607L49.607,16.835z"/>
			<path id="Fill-4" sketch:type="MSShapeGroup" fill="#FFFFFF" d="M83.645,7.168c-2.725,0-5.146,0.952-6.918,2.672V7.708h-3.13
				v22.96h3.13V16.969c0-3.827,2.957-6.711,6.876-6.711c4.141,0,6.422,2.383,6.422,6.711v13.699h3.129V16.969
				C93.154,10.922,89.511,7.168,83.645,7.168"/>
			<path id="Fill-5" sketch:type="MSShapeGroup" fill="#FFFFFF" d="M114.707,18.37v3.41c0,3.683-2.571,6.255-6.255,6.255
				c-3.625,0-6.253-2.629-6.253-6.255V10.837h14.891V7.708h-14.891V3.144h-3.131V21.78c0,5.441,3.947,9.386,9.385,9.386
				s9.385-3.945,9.385-9.386v-3.41H114.707"/>
			<path id="Fill-6" sketch:type="MSShapeGroup" fill="#FFFFFF" d="M124.091-0.995h1.535v30.864h-1.535V-0.995z"/>
			<path id="Fill-7" sketch:type="MSShapeGroup" fill="#FFFFFF" d="M153.337,19.25c0,6.139-4.812,11.119-10.703,11.119
				c-5.85,0-10.663-4.98-10.663-11.119c0-6.224,4.813-11.284,10.663-11.284C148.525,7.966,153.337,13.026,153.337,19.25
				L153.337,19.25z M151.762,19.25c0-5.435-4.067-9.832-9.128-9.832c-5.02,0-9.126,4.397-9.126,9.832
				c0,5.311,4.107,9.666,9.126,9.666C147.695,28.916,151.762,24.561,151.762,19.25L151.762,19.25z"/>
			<path id="Fill-8" sketch:type="MSShapeGroup" fill="#FFFFFF" d="M161.012,22.733v7.136h-1.534V-0.995h1.534v21.614L173.54,8.505
				h2.199l-8.089,7.801l9.125,13.563h-1.866l-8.381-12.445L161.012,22.733"/>
			<path id="Fill-9" sketch:type="MSShapeGroup" fill="#FFFFFF" d="M200.631,29.869h-1.535v-5.145
				c-1.743,3.361-5.144,5.645-9.127,5.645c-5.892,0-10.662-4.98-10.662-11.119c0-6.224,4.771-11.284,10.662-11.284
				c3.983,0,7.384,2.323,9.127,5.725V8.505h1.535V29.869L200.631,29.869z M189.969,9.543c-5.021,0-9.128,4.355-9.128,9.707
				c0,5.268,4.107,9.582,9.128,9.582c5.02,0,9.127-4.314,9.127-9.582C199.096,13.898,194.988,9.543,189.969,9.543L189.969,9.543z"/>
			<path id="Fill-10" sketch:type="MSShapeGroup" fill="#FFFFFF" d="M208.842-0.995h1.535v30.864h-1.535V-0.995z"/>
			<path id="Fill-11" sketch:type="MSShapeGroup" fill="#FFFFFF" d="M269.368-0.995v14.686c-1.741-3.402-5.144-5.725-9.126-5.725
				c-5.892,0-10.663,5.06-10.663,11.284c0,6.139,4.771,11.119,10.663,11.119c3.982,0,7.385-2.283,9.126-5.645v5.145h1.534V-0.995
				H269.368L269.368-0.995z M260.242,28.832c-5.021,0-9.128-4.314-9.128-9.582c0-5.352,4.106-9.707,9.128-9.707
				c5.019,0,9.126,4.355,9.126,9.707C269.368,24.518,265.261,28.832,260.242,28.832L260.242,28.832z"/>
			<path id="Fill-12" sketch:type="MSShapeGroup" fill="#FFFFFF" d="M218.259,19.167c0.041,5.558,4.191,9.665,9.376,9.665
				c5.021,0,7.302-2.779,8.339-5.6h1.618c-1.494,4.604-4.937,7.137-9.957,7.137c-6.098,0-10.91-4.896-10.91-11.119
				c0-6.224,4.77-11.284,10.661-11.284c6.389,0,10.745,5.808,10.662,11.201H218.259L218.259,19.167z M236.389,17.633
				c-0.748-4.606-4.521-8.09-9.003-8.09c-4.521,0-8.254,3.483-8.961,8.09H236.389L236.389,17.633z"/>
			<path id="Fill-13" sketch:type="MSShapeGroup" fill="#FFFFFF" d="M243.232,26.012h1.534v3.857h-1.534V26.012z"/>
			<path id="Fill-14" sketch:type="MSShapeGroup" fill="#FFFFFF" d="M4.836,33.748c1.428,0,2.529,0.365,3.3,1.092
				c0.772,0.729,1.158,1.836,1.158,3.326c0,0.781-0.087,1.471-0.261,2.074c-0.173,0.602-0.442,1.107-0.806,1.52
				c-0.364,0.412-0.828,0.725-1.39,0.941c-0.565,0.219-1.232,0.324-2.002,0.324H1.651v-9.277H4.836L4.836,33.748z M4.939,41.986
				c0.14,0,0.313-0.01,0.521-0.031c0.208-0.021,0.429-0.072,0.663-0.156c0.233-0.082,0.466-0.201,0.695-0.355
				c0.229-0.158,0.436-0.371,0.617-0.639c0.182-0.27,0.331-0.605,0.449-1.008C8,39.395,8.058,38.908,8.058,38.336
				c0-0.555-0.054-1.049-0.163-1.488C7.788,36.41,7.61,36.037,7.363,35.73c-0.247-0.309-0.564-0.541-0.956-0.703
				c-0.39-0.158-0.871-0.24-1.442-0.24H2.886v7.199H4.939L4.939,41.986z"/>
			<path id="Fill-15" sketch:type="MSShapeGroup" fill="#FFFFFF" d="M15.654,33.748l3.625,9.277h-1.364l-1.014-2.793h-3.924
				l-1.04,2.793h-1.261l3.613-9.277H15.654L15.654,33.748z M16.512,39.193l-1.546-4.326H14.94l-1.572,4.326H16.512L16.512,39.193z"
				/>
			<path id="Fill-16" sketch:type="MSShapeGroup" fill="#FFFFFF" d="M26.031,35.016c-0.411-0.301-0.938-0.449-1.579-0.449
				c-0.26,0-0.515,0.025-0.767,0.078s-0.474,0.139-0.67,0.262c-0.194,0.119-0.35,0.283-0.466,0.486
				c-0.118,0.203-0.176,0.457-0.176,0.76c0,0.285,0.084,0.516,0.253,0.695c0.169,0.178,0.394,0.322,0.675,0.436
				c0.283,0.111,0.601,0.205,0.956,0.279s0.717,0.154,1.085,0.24c0.368,0.086,0.729,0.189,1.084,0.305
				c0.356,0.117,0.675,0.277,0.956,0.475c0.281,0.199,0.508,0.451,0.676,0.754c0.169,0.305,0.253,0.686,0.253,1.145
				c0,0.494-0.11,0.916-0.331,1.266c-0.221,0.352-0.505,0.637-0.852,0.859c-0.346,0.221-0.733,0.381-1.163,0.48
				c-0.428,0.1-0.855,0.148-1.28,0.148c-0.52,0-1.012-0.064-1.474-0.195c-0.464-0.129-0.872-0.326-1.223-0.592
				c-0.351-0.262-0.628-0.6-0.832-1.012c-0.204-0.412-0.306-0.9-0.306-1.463h1.17c0,0.391,0.075,0.727,0.227,1.008
				s0.35,0.514,0.598,0.695c0.247,0.182,0.535,0.316,0.865,0.402c0.329,0.088,0.667,0.131,1.013,0.131
				c0.277,0,0.557-0.025,0.838-0.078s0.535-0.141,0.761-0.266c0.224-0.127,0.407-0.299,0.545-0.514
				c0.137-0.217,0.208-0.496,0.208-0.834c0-0.32-0.085-0.578-0.254-0.777c-0.169-0.201-0.395-0.363-0.676-0.488
				s-0.601-0.227-0.954-0.305c-0.356-0.078-0.718-0.16-1.086-0.24c-0.368-0.082-0.729-0.178-1.085-0.287
				c-0.355-0.107-0.674-0.252-0.956-0.428c-0.281-0.178-0.507-0.408-0.676-0.689c-0.168-0.281-0.253-0.635-0.253-1.059
				c0-0.469,0.095-0.873,0.287-1.217c0.189-0.342,0.443-0.623,0.759-0.844c0.317-0.221,0.676-0.385,1.079-0.494
				c0.404-0.107,0.816-0.162,1.24-0.162c0.478,0,0.918,0.057,1.328,0.17c0.407,0.111,0.764,0.289,1.071,0.531
				c0.307,0.244,0.551,0.549,0.728,0.916c0.178,0.369,0.275,0.809,0.292,1.32h-1.169C26.683,35.797,26.442,35.314,26.031,35.016"/>
			<path id="Fill-17" sketch:type="MSShapeGroup" fill="#FFFFFF" d="M35.778,36.563c0.187-0.586,0.465-1.104,0.837-1.555
				c0.373-0.449,0.836-0.809,1.391-1.078c0.555-0.268,1.2-0.402,1.937-0.402c0.736,0,1.382,0.135,1.936,0.402
				c0.555,0.27,1.018,0.629,1.391,1.078c0.372,0.451,0.651,0.969,0.839,1.555c0.185,0.584,0.279,1.193,0.279,1.826
				c0,0.631-0.094,1.238-0.279,1.824c-0.188,0.586-0.467,1.104-0.839,1.555c-0.373,0.449-0.836,0.807-1.391,1.072
				c-0.553,0.264-1.2,0.395-1.936,0.395c-0.737,0-1.382-0.131-1.937-0.395c-0.555-0.266-1.018-0.623-1.391-1.072
				c-0.372-0.451-0.651-0.969-0.837-1.555s-0.28-1.193-0.28-1.824C35.498,37.756,35.591,37.146,35.778,36.563L35.778,36.563z
				 M36.914,39.771c0.122,0.455,0.313,0.865,0.573,1.227c0.259,0.365,0.593,0.656,1,0.879c0.407,0.221,0.892,0.332,1.456,0.332
				c0.563,0,1.048-0.111,1.455-0.332c0.407-0.223,0.741-0.514,1.001-0.879c0.26-0.361,0.45-0.771,0.572-1.227
				c0.122-0.455,0.183-0.916,0.183-1.383c0-0.469-0.061-0.932-0.183-1.385c-0.122-0.455-0.312-0.865-0.572-1.229
				s-0.594-0.656-1.001-0.877s-0.893-0.332-1.455-0.332c-0.564,0-1.049,0.111-1.456,0.332c-0.407,0.221-0.741,0.514-1,0.877
				c-0.26,0.363-0.451,0.773-0.573,1.229c-0.121,0.453-0.181,0.916-0.181,1.385C36.733,38.855,36.793,39.316,36.914,39.771
				L36.914,39.771z"/>
			<path id="Fill-18" sketch:type="MSShapeGroup" fill="#FFFFFF" d="M48.475,33.748l4.885,7.523h0.026v-7.523h1.169v9.277h-1.351
				l-4.847-7.443h-0.026v7.443h-1.169v-9.277H48.475"/>
			<path id="Fill-19" sketch:type="MSShapeGroup" fill="#FFFFFF" d="M59.046,33.748v8.238h4.913v1.039h-6.146v-9.277H59.046"/>
			<path id="Fill-20" sketch:type="MSShapeGroup" fill="#FFFFFF" d="M66.305,33.748h1.233v9.279h-1.233V33.748z"/>
			<path id="Fill-21" sketch:type="MSShapeGroup" fill="#FFFFFF" d="M72.135,33.748l4.887,7.523h0.024v-7.523h1.17v9.277h-1.352
				l-4.847-7.443h-0.026v7.443h-1.17v-9.277H72.135"/>
			<path id="Fill-22" sketch:type="MSShapeGroup" fill="#FFFFFF" d="M87.878,33.748v1.039h-5.172v2.951h4.822v1.039h-4.822v3.209
				h5.211v1.039h-6.445v-9.277H87.878"/>
			<path id="Fill-23" sketch:type="MSShapeGroup" fill="#FFFFFF" d="M94.644,33.748c0.936,0,1.644,0.24,2.125,0.723
				c0.482,0.479,0.722,1.154,0.722,2.02s-0.24,1.543-0.722,2.027c-0.48,0.484-1.188,0.725-2.125,0.715h-2.832v3.793h-1.236v-9.277
				H94.644L94.644,33.748z M94.228,38.193c0.703,0.008,1.216-0.135,1.54-0.43c0.326-0.295,0.489-0.719,0.489-1.273
				s-0.163-0.977-0.489-1.266c-0.324-0.291-0.836-0.438-1.54-0.438h-2.416v3.406H94.228L94.228,38.193z"/>
			<path id="Fill-24" sketch:type="MSShapeGroup" fill="#FFFFFF" d="M99.987,36.563c0.186-0.586,0.466-1.104,0.838-1.555
				c0.373-0.449,0.836-0.809,1.39-1.078c0.556-0.268,1.2-0.402,1.938-0.402c0.736,0,1.381,0.135,1.936,0.402
				c0.555,0.27,1.018,0.629,1.391,1.078c0.372,0.451,0.651,0.969,0.837,1.555c0.187,0.584,0.281,1.193,0.281,1.826
				c0,0.631-0.094,1.238-0.281,1.824s-0.465,1.104-0.837,1.555c-0.373,0.449-0.836,0.807-1.391,1.072
				c-0.555,0.264-1.2,0.395-1.936,0.395c-0.738,0-1.382-0.131-1.938-0.395c-0.553-0.266-1.017-0.623-1.39-1.072
				c-0.372-0.451-0.652-0.969-0.838-1.555c-0.188-0.586-0.279-1.193-0.279-1.824C99.708,37.756,99.799,37.146,99.987,36.563
				L99.987,36.563z M101.123,39.771c0.123,0.455,0.313,0.865,0.574,1.227c0.258,0.365,0.592,0.656,1,0.879
				c0.407,0.221,0.892,0.332,1.456,0.332c0.563,0,1.047-0.111,1.455-0.332c0.406-0.223,0.741-0.514,1-0.879
				c0.26-0.361,0.451-0.771,0.572-1.227s0.182-0.916,0.182-1.383c0-0.469-0.06-0.932-0.182-1.385
				c-0.122-0.455-0.312-0.865-0.572-1.229c-0.259-0.363-0.594-0.656-1-0.877c-0.408-0.221-0.893-0.332-1.455-0.332
				c-0.564,0-1.049,0.111-1.456,0.332c-0.408,0.221-0.742,0.514-1,0.877c-0.26,0.363-0.451,0.773-0.574,1.229
				c-0.121,0.453-0.181,0.916-0.181,1.385C100.942,38.855,101.002,39.316,101.123,39.771L101.123,39.771z"/>
			<path id="Fill-25" sketch:type="MSShapeGroup" fill="#FFFFFF" d="M115.744,33.748c0.882,0,1.574,0.217,2.072,0.65
				c0.499,0.434,0.748,1.025,0.748,1.779c0,0.564-0.129,1.059-0.384,1.482c-0.255,0.424-0.665,0.715-1.228,0.871v0.025
				c0.268,0.053,0.486,0.139,0.656,0.26c0.169,0.121,0.302,0.266,0.403,0.436c0.1,0.17,0.172,0.357,0.22,0.564
				c0.048,0.209,0.085,0.424,0.111,0.65c0.018,0.227,0.03,0.455,0.039,0.689c0.009,0.234,0.029,0.461,0.065,0.689
				c0.034,0.225,0.084,0.438,0.148,0.641c0.065,0.205,0.163,0.385,0.292,0.539h-1.377c-0.087-0.094-0.145-0.223-0.176-0.389
				c-0.031-0.164-0.05-0.348-0.058-0.551c-0.009-0.203-0.018-0.424-0.027-0.656c-0.008-0.234-0.035-0.465-0.078-0.689
				c-0.034-0.227-0.077-0.439-0.13-0.643c-0.05-0.205-0.133-0.383-0.246-0.533c-0.113-0.152-0.259-0.273-0.442-0.363
				c-0.183-0.092-0.424-0.137-0.728-0.137h-3.014v3.961h-1.235v-9.277H115.744L115.744,33.748z M116.003,37.959
				c0.261-0.043,0.488-0.127,0.682-0.254c0.195-0.125,0.351-0.295,0.469-0.506c0.116-0.213,0.175-0.49,0.175-0.824
				c0-0.469-0.13-0.85-0.39-1.145s-0.681-0.443-1.261-0.443h-3.066v3.236h2.573C115.471,38.023,115.744,38.002,116.003,37.959
				L116.003,37.959z"/>
			<path id="Fill-26" sketch:type="MSShapeGroup" fill="#FFFFFF" d="M120.572,34.787v-1.039h7.421v1.039H124.9v8.238h-1.234v-8.238
				H120.572"/>
			<path id="Fill-27" sketch:type="MSShapeGroup" fill="#FFFFFF" d="M133.172,33.748l3.625,9.277h-1.364l-1.014-2.793h-3.924
				l-1.04,2.793h-1.261l3.613-9.277H133.172L133.172,33.748z M134.03,39.193l-1.547-4.326h-0.026l-1.573,4.326H134.03L134.03,39.193
				z"/>
			<path id="Fill-28" sketch:type="MSShapeGroup" fill="#FFFFFF" d="M140.268,33.748v8.238h4.913v1.039h-6.147v-9.277H140.268"/>
			<path id="Fill-29" sketch:type="MSShapeGroup" fill="#FFFFFF" d="M158.566,33.748v1.039h-4.86v2.951h4.263v1.039h-4.263v4.248
				h-1.233v-9.277H158.566"/>
			<path id="Fill-30" sketch:type="MSShapeGroup" fill="#FFFFFF" d="M167.521,42.344c-0.632,0.594-1.533,0.891-2.702,0.891
				c-1.195,0-2.13-0.285-2.801-0.852c-0.672-0.566-1.007-1.471-1.007-2.709v-5.926h1.235v5.926c0,0.832,0.22,1.463,0.662,1.891
				c0.441,0.43,1.079,0.645,1.91,0.645c0.789,0,1.388-0.215,1.8-0.645c0.411-0.428,0.617-1.059,0.617-1.891v-5.926h1.235v5.926
				C168.471,40.861,168.153,41.752,167.521,42.344L167.521,42.344z M162.935,31.684h1.169v1.35h-1.169V31.684z M165.377,31.684
				h1.169v1.35h-1.169V31.684z"/>
			<path id="Fill-31" sketch:type="MSShapeGroup" fill="#FFFFFF" d="M176.063,33.748c0.883,0,1.574,0.217,2.072,0.65
				c0.499,0.434,0.747,1.025,0.747,1.779c0,0.564-0.128,1.059-0.384,1.482c-0.255,0.424-0.664,0.715-1.227,0.871v0.025
				c0.267,0.053,0.486,0.139,0.656,0.26c0.168,0.121,0.303,0.266,0.401,0.436c0.101,0.17,0.174,0.357,0.222,0.564
				c0.048,0.209,0.085,0.424,0.111,0.65c0.017,0.227,0.031,0.455,0.038,0.689c0.008,0.234,0.031,0.461,0.064,0.689
				c0.035,0.225,0.085,0.438,0.15,0.641c0.066,0.205,0.161,0.385,0.292,0.539h-1.377c-0.088-0.094-0.146-0.223-0.176-0.389
				c-0.03-0.164-0.05-0.348-0.059-0.551s-0.019-0.424-0.024-0.656c-0.01-0.234-0.035-0.465-0.08-0.689
				c-0.035-0.227-0.078-0.439-0.129-0.643c-0.053-0.205-0.135-0.383-0.247-0.533c-0.113-0.152-0.26-0.273-0.442-0.363
				c-0.181-0.092-0.425-0.137-0.728-0.137h-3.016v3.961h-1.233v-9.277H176.063L176.063,33.748z M176.323,37.959
				c0.26-0.043,0.487-0.127,0.682-0.254c0.195-0.125,0.351-0.295,0.469-0.506c0.117-0.213,0.176-0.49,0.176-0.824
				c0-0.469-0.131-0.85-0.391-1.145s-0.68-0.443-1.261-0.443h-3.067v3.236h2.573C175.79,38.023,176.063,38.002,176.323,37.959
				L176.323,37.959z"/>
			<path id="Fill-32" sketch:type="MSShapeGroup" fill="#FFFFFF" d="M189.06,43.025l-3.263-9.277h1.325l2.651,8.045h0.026
				l2.677-8.045h1.286l-3.301,9.277H189.06"/>
			<path id="Fill-33" sketch:type="MSShapeGroup" fill="#FFFFFF" d="M202.452,33.748v1.039h-5.172v2.951h4.82v1.039h-4.82v3.209
				h5.211v1.039h-6.445v-9.277H202.452"/>
			<path id="Fill-34" sketch:type="MSShapeGroup" fill="#FFFFFF" d="M209.517,33.748c0.884,0,1.574,0.217,2.072,0.65
				c0.499,0.434,0.747,1.025,0.747,1.779c0,0.564-0.128,1.059-0.383,1.482c-0.256,0.424-0.665,0.715-1.228,0.871v0.025
				c0.267,0.053,0.486,0.139,0.656,0.26c0.168,0.121,0.304,0.266,0.401,0.436c0.101,0.17,0.174,0.357,0.222,0.564
				c0.048,0.209,0.085,0.424,0.111,0.65c0.017,0.227,0.029,0.455,0.039,0.689c0.008,0.234,0.031,0.461,0.063,0.689
				c0.035,0.225,0.086,0.438,0.15,0.641c0.066,0.205,0.162,0.385,0.292,0.539h-1.377c-0.088-0.094-0.146-0.223-0.177-0.389
				c-0.029-0.164-0.049-0.348-0.058-0.551s-0.019-0.424-0.026-0.656c-0.008-0.234-0.035-0.465-0.078-0.689
				c-0.035-0.227-0.078-0.439-0.129-0.643c-0.052-0.205-0.135-0.383-0.247-0.533c-0.113-0.152-0.259-0.273-0.442-0.363
				c-0.183-0.092-0.424-0.137-0.726-0.137h-3.017v3.961h-1.234v-9.277H209.517L209.517,33.748z M209.776,37.959
				c0.26-0.043,0.487-0.127,0.682-0.254c0.195-0.125,0.352-0.295,0.469-0.506c0.117-0.213,0.177-0.49,0.177-0.824
				c0-0.469-0.132-0.85-0.392-1.145c-0.259-0.295-0.68-0.443-1.261-0.443h-3.066v3.236h2.572
				C209.243,38.023,209.517,38.002,209.776,37.959L209.776,37.959z"/>
			<path id="Fill-35" sketch:type="MSShapeGroup" fill="#FFFFFF" d="M219.569,33.748l3.627,9.277h-1.365l-1.014-2.793h-3.926
				l-1.04,2.793h-1.258l3.612-9.277H219.569L219.569,33.748z M220.428,39.193l-1.548-4.326h-0.025l-1.572,4.326H220.428
				L220.428,39.193z"/>
			<path id="Fill-36" sketch:type="MSShapeGroup" fill="#FFFFFF" d="M226.737,33.748l4.887,7.523h0.026v-7.523h1.169v9.277h-1.352
				l-4.848-7.443h-0.025v7.443h-1.169v-9.277H226.737"/>
			<path id="Fill-37" sketch:type="MSShapeGroup" fill="#FFFFFF" d="M240.754,35.016c-0.412-0.301-0.938-0.449-1.58-0.449
				c-0.26,0-0.515,0.025-0.767,0.078c-0.251,0.053-0.474,0.139-0.668,0.262c-0.196,0.119-0.353,0.283-0.469,0.486
				c-0.117,0.203-0.176,0.457-0.176,0.76c0,0.285,0.085,0.516,0.253,0.695c0.17,0.178,0.396,0.322,0.677,0.436
				c0.281,0.111,0.6,0.205,0.956,0.279c0.354,0.074,0.715,0.154,1.085,0.24c0.367,0.086,0.729,0.189,1.085,0.305
				c0.354,0.117,0.672,0.277,0.954,0.475c0.281,0.199,0.506,0.451,0.676,0.754c0.169,0.305,0.254,0.686,0.254,1.145
				c0,0.494-0.111,0.916-0.332,1.266c-0.22,0.352-0.504,0.637-0.851,0.859c-0.347,0.221-0.734,0.381-1.163,0.48
				s-0.856,0.148-1.281,0.148c-0.519,0-1.011-0.064-1.474-0.195c-0.464-0.129-0.871-0.326-1.223-0.592
				c-0.351-0.262-0.629-0.6-0.831-1.012c-0.204-0.412-0.304-0.9-0.304-1.463h1.168c0,0.391,0.076,0.727,0.228,1.008
				c0.15,0.281,0.352,0.514,0.599,0.695s0.533,0.316,0.863,0.402c0.329,0.088,0.667,0.131,1.012,0.131
				c0.279,0,0.559-0.025,0.84-0.078c0.28-0.053,0.534-0.141,0.761-0.266c0.225-0.127,0.407-0.299,0.545-0.514
				c0.14-0.217,0.209-0.496,0.209-0.834c0-0.32-0.085-0.578-0.254-0.777c-0.169-0.201-0.394-0.363-0.676-0.488
				c-0.281-0.125-0.599-0.227-0.955-0.305c-0.355-0.078-0.717-0.16-1.085-0.24c-0.369-0.082-0.73-0.178-1.085-0.287
				c-0.356-0.107-0.674-0.252-0.956-0.428c-0.281-0.178-0.506-0.408-0.674-0.689c-0.171-0.281-0.255-0.635-0.255-1.059
				c0-0.469,0.095-0.873,0.286-1.217c0.19-0.342,0.444-0.623,0.762-0.844c0.314-0.221,0.674-0.385,1.077-0.494
				c0.402-0.107,0.816-0.162,1.241-0.162c0.477,0,0.918,0.057,1.325,0.17c0.407,0.111,0.764,0.289,1.072,0.531
				c0.307,0.244,0.551,0.549,0.728,0.916c0.178,0.369,0.274,0.809,0.292,1.32h-1.168C241.405,35.797,241.165,35.314,240.754,35.016"
				/>
			<path id="Fill-38" sketch:type="MSShapeGroup" fill="#FFFFFF" d="M244.685,34.787v-1.039h7.42v1.039h-3.094v8.238h-1.232v-8.238
				H244.685"/>
			<path id="Fill-39" sketch:type="MSShapeGroup" fill="#FFFFFF" d="M257.283,33.748l3.626,9.277h-1.364l-1.014-2.793h-3.925
				l-1.04,2.793h-1.26l3.612-9.277H257.283L257.283,33.748z M258.142,39.193l-1.547-4.326h-0.027l-1.571,4.326H258.142
				L258.142,39.193z"/>
			<path id="Fill-40" sketch:type="MSShapeGroup" fill="#FFFFFF" d="M264.38,33.748v8.238h4.913v1.039h-6.146v-9.277H264.38"/>
			<path id="Fill-41" sketch:type="MSShapeGroup" fill="#FFFFFF" d="M269.57,34.787v-1.039h7.421v1.039h-3.093v8.238h-1.234v-8.238
				H269.57"/>
			<path id="Fill-42" sketch:type="MSShapeGroup" fill="#FFFFFF" d="M285.693,33.748v1.039h-5.172v2.951h4.821v1.039h-4.821v3.209
				h5.211v1.039h-6.445v-9.277H285.693"/>
			<path id="Fill-43" sketch:type="MSShapeGroup" fill="#FFFFFF" d="M292.758,33.748c0.883,0,1.573,0.217,2.072,0.65
				c0.498,0.434,0.748,1.025,0.748,1.779c0,0.564-0.129,1.059-0.384,1.482c-0.257,0.424-0.665,0.715-1.229,0.871v0.025
				c0.269,0.053,0.489,0.139,0.658,0.26c0.168,0.121,0.302,0.266,0.401,0.436s0.174,0.357,0.223,0.564
				c0.046,0.209,0.083,0.424,0.109,0.65c0.017,0.227,0.03,0.455,0.039,0.689c0.008,0.234,0.03,0.461,0.063,0.689
				c0.037,0.225,0.086,0.438,0.151,0.641c0.064,0.205,0.162,0.385,0.292,0.539h-1.377c-0.087-0.094-0.147-0.223-0.177-0.389
				c-0.03-0.164-0.051-0.348-0.059-0.551c-0.009-0.203-0.018-0.424-0.025-0.656c-0.01-0.234-0.035-0.465-0.077-0.689
				c-0.035-0.227-0.078-0.439-0.131-0.643c-0.053-0.205-0.135-0.383-0.246-0.533c-0.113-0.152-0.261-0.273-0.442-0.363
				c-0.182-0.092-0.425-0.137-0.728-0.137h-3.015v3.961h-1.235v-9.277H292.758L292.758,33.748z M293.018,37.959
				c0.259-0.043,0.486-0.127,0.682-0.254c0.194-0.125,0.35-0.295,0.469-0.506c0.116-0.213,0.175-0.49,0.175-0.824
				c0-0.469-0.13-0.85-0.39-1.145s-0.681-0.443-1.261-0.443h-3.066v3.236h2.572C292.483,38.023,292.758,38.002,293.018,37.959
				L293.018,37.959z"/>
			<path id="Fill-44" sketch:type="MSShapeGroup" fill="#FFFFFF" d="M276.459,19.167c0.039,5.558,4.189,9.665,9.376,9.665
				c5.02,0,7.301-2.779,8.339-5.6h1.616c-1.494,4.604-4.936,7.137-9.955,7.137c-6.099,0-10.91-4.896-10.91-11.119
				c0-6.224,4.769-11.284,10.66-11.284c6.388,0,10.744,5.808,10.663,11.201H276.459L276.459,19.167z M294.588,17.633
				c-0.747-4.606-4.521-8.09-9.003-8.09c-4.521,0-8.255,3.483-8.962,8.09H294.588L294.588,17.633z"/>
		</g>
	</g>
</g>
</svg>
