<?xml version="1.0" encoding="UTF-8" standalone="no"?>
<svg width="26px" height="21px" viewBox="0 0 26 21" version="1.1" xmlns="http://www.w3.org/2000/svg" xmlns:xlink="http://www.w3.org/1999/xlink" xmlns:sketch="http://www.bohemiancoding.com/sketch/ns">
    <!-- Generator: Sketch 3.2.2 (9983) - http://www.bohemiancoding.com/sketch -->
    <title>Menu</title>
    <desc>Created with Sketch.</desc>
    <defs>
        <filter x="-50%" y="-50%" width="200%" height="200%" filterUnits="objectBoundingBox" id="filter-1">
            <feOffset dx="0" dy="0" in="SourceAlpha" result="shadowOffsetOuter1"></feOffset>
            <feGaussianBlur stdDeviation="1.5" in="shadowOffsetOuter1" result="shadowBlurOuter1"></feGaussianBlur>
            <feColorMatrix values="0 0 0 0 0   0 0 0 0 0   0 0 0 0 0  0 0 0 0.084 0" in="shadowBlurOuter1" type="matrix" result="shadowMatrixOuter1"></feColorMatrix>
            <feMerge>
                <feMergeNode in="shadowMatrixOuter1"></feMergeNode>
                <feMergeNode in="SourceGraphic"></feMergeNode>
            </feMerge>
        </filter>
    </defs>
    <g id="Contents" stroke="none" stroke-width="1" fill="none" fill-rule="evenodd" sketch:type="MSPage">
        <g id="StyleGuide" sketch:type="MSArtboardGroup" transform="translate(-204.000000, -5999.000000)">
            <g id="Menu" sketch:type="MSLayerGroup" transform="translate(187.000000, 5979.000000)">
                <rect id="Rectangle-379" sketch:type="MSShapeGroup" x="0" y="0" width="60" height="60"></rect>
                <g id="bounds-+-Shape" transform="translate(15.000000, 15.000000)" sketch:type="MSShapeGroup">
                    <path d="M30,0 L0,0 L0,30 L30,30 L30,0 Z" id="bounds" transform="translate(15.000000, 15.000000) scale(1, -1) translate(-15.000000, -15.000000) "></path>
                    <g id="Shape" transform="translate(4.000000, 8.000000)" filter="url(#filter-1)" fill="#FAFAFA">
                        <path d="M0,0 L22,0 L22,3 L0,3 L0,0 L0,0 Z M0,6 L22,6 L22,9 L0,9 L0,6 L0,6 Z M0,15 L0,12 L22,12 L22,15 L0,15 L0,15 Z" transform="translate(11.000000, 7.500000) scale(1, -1) translate(-11.000000, -7.500000) "></path>
                    </g>
                </g>
            </g>
        </g>
    </g>
</svg>