<?xml version="1.0" encoding="utf-8"?>
<!-- Generator: Adobe Illustrator 16.0.0, SVG Export Plug-In . SVG Version: 6.00 Build 0)  -->
<!DOCTYPE svg PUBLIC "-//W3C//DTD SVG 1.1//EN" "http://www.w3.org/Graphics/SVG/1.1/DTD/svg11.dtd">
<svg version="1.1" id="Ebene_1" xmlns="http://www.w3.org/2000/svg" xmlns:xlink="http://www.w3.org/1999/xlink" x="0px" y="0px"
	 width="50px" height="50px" viewBox="0 0 50 50" enable-background="new 0 0 50 50" xml:space="preserve">
<title>Pfeil Rechts</title>
<desc>Created with Sketch.</desc>
<g>
	<path fill-rule="evenodd" clip-rule="evenodd" fill="#2A5571" d="M39.658,1.514c-0.57,0.577-1.137,1.156-1.708,1.728
		c-7.112,7.115-14.226,14.228-21.342,21.337c-0.127,0.127-0.3,0.209-0.47,0.325c7.895,7.89,15.685,15.675,23.557,23.541
		c-0.198,0.023-0.266,0.039-0.333,0.039c-1.757,0.001-3.517,0.011-5.273-0.012c-0.209-0.004-0.46-0.143-0.615-0.296
		c-6.288-6.273-12.566-12.555-18.848-18.835c-1.33-1.331-2.659-2.66-3.988-3.99c-0.106-0.106-0.208-0.218-0.333-0.35
		c0.136-0.144,0.256-0.276,0.383-0.403C18.244,17.042,25.8,9.485,33.354,1.927c0.126-0.125,0.227-0.274,0.34-0.413
		C35.683,1.514,37.67,1.514,39.658,1.514z"/>
</g>
</svg>
