<?xml version="1.0" encoding="UTF-8" standalone="no"?>
<svg width="76px" height="32px" viewBox="0 0 76 32" version="1.1" xmlns="http://www.w3.org/2000/svg" xmlns:xlink="http://www.w3.org/1999/xlink">
    <!-- Generator: Sketch 3.6.1 (26313) - http://www.bohemiancoding.com/sketch -->
    <title>SLA-LogoHorizontal-Blau</title>
    <desc>Created with Sketch.</desc>
    <defs></defs>
    <g id="Parallax-Werbung" stroke="none" stroke-width="1" fill="none" fill-rule="evenodd">
        <g id="Elements" transform="translate(-541.000000, -171.000000)" fill="#163850">
            <g id="SLA-LogoHorizontal-Blau" transform="translate(541.000000, 171.000000)">
                <path d="M30.6627651,3.0486521 C32.1621087,3.0486521 32.9891446,3.57659678 33.5620677,4.77907123 C33.6283241,4.90261585 33.5842831,5.00391449 33.4408574,5.07144691 L33.0990523,5.22875774 C32.9560164,5.28476993 32.9006728,5.27364694 32.8125908,5.1274591 C32.3717908,4.22848333 31.7544369,3.82408326 30.6627651,3.82408326 C29.3508882,3.82408326 28.6341497,4.35242519 28.6341497,5.30741316 C28.6781908,6.0041889 28.9868677,6.34105654 29.6264369,6.53213358 C30.0676267,6.67832143 30.3431754,6.72321063 30.9164882,6.77922282 C31.5669703,6.85787823 31.9083856,6.90316468 32.44896,7.10536471 C32.7245087,7.2062661 32.933801,7.33020797 33.0990523,7.47599856 C33.4190318,7.76837425 33.6836677,8.29631892 33.6836677,8.98197168 C33.6836677,10.4653016 32.6251241,11.3416341 30.6849805,11.3416341 C29.1084677,11.3416341 28.2151754,10.7235138 27.6972062,9.40901497 C27.6531651,9.26282713 27.6972062,9.16152849 27.8293292,9.1055163 L28.1711344,8.98197168 C28.2923446,8.93668523 28.3917292,8.98197168 28.4579856,9.11663929 C28.8656574,10.0942705 29.6042215,10.577326 30.6849805,10.577326 C32.1511959,10.577326 32.8788472,10.0493813 32.8788472,9.00421766 C32.8348062,8.30744191 32.5479549,7.98169727 31.9637292,7.79062022 C31.5447549,7.65595262 31.2692062,7.6221864 30.7290215,7.56617421 C30.3872164,7.532408 30.1003651,7.48712155 29.8910728,7.45375259 C29.6813908,7.41998637 29.4280574,7.34133096 29.1302933,7.24003232 C28.8325292,7.13913093 28.6010215,7.01518906 28.4357703,6.86939847 C28.0939651,6.57702278 27.8184164,6.06020109 27.8184164,5.35230236 C27.8184164,3.94762788 28.8656574,3.0486521 30.6627651,3.0486521" id="Fill-1"></path>
                <path d="M43.2756472,3.20604238 C43.4190728,3.20604238 43.4631138,3.27357481 43.4190728,3.4193654 L41.4567138,10.9933257 C41.4235856,11.1168703 41.324201,11.1844028 41.1698626,11.1844028 L40.8280574,11.1844028 C40.6628062,11.1844028 40.5747241,11.1279933 40.5415959,11.0044487 L39.0753805,5.56570483 C38.9982113,5.25108317 38.9210421,4.88044932 38.8547856,4.46452902 L38.8107446,4.46452902 C38.7776164,4.76802769 38.7004472,5.13866154 38.5901497,5.55458184 L37.101719,10.9933257 C37.0689805,11.1168703 36.9695959,11.1844028 36.8261703,11.1844028 L36.4734523,11.1844028 C36.3191138,11.1844028 36.2310318,11.1279933 36.1979036,11.0044487 L34.2242421,3.4193654 C34.1911138,3.27357481 34.2464574,3.20604238 34.3676677,3.20604238 L34.8088574,3.20604238 C34.9959344,3.20604238 35.0621908,3.2398086 35.1062318,3.40824241 L36.4512369,8.83586329 C36.4843651,8.9705309 36.5174933,9.19537415 36.5728369,9.50999581 C36.6168779,9.82461747 36.6387036,10.0041743 36.6500062,10.0379405 L36.6940472,10.0379405 C36.7930421,9.42021741 36.8702113,9.0154201 36.9255549,8.83586329 L38.3917703,3.53178703 C38.4248985,3.39711942 38.5238933,3.329587 38.6895344,3.329587 L39.0313395,3.329587 C39.1965908,3.329587 39.2955856,3.39711942 39.3287138,3.53178703 L40.7731036,8.84698628 C40.8280574,9.02694033 40.9052267,9.42021741 41.0155241,10.0379405 L41.0595651,10.0379405 C41.1367344,9.49887282 41.2029908,9.10559575 41.2583344,8.85810927 L42.6033395,3.40824241 C42.6360779,3.2398086 42.7023344,3.20604238 42.889801,3.20604238 L43.2756472,3.20604238 Z" id="Fill-3"></path>
                <path d="M44.3818954,3.43072674 C44.3818954,3.26229292 44.4368492,3.20588348 44.6024903,3.20588348 L44.966121,3.20588348 C45.1313723,3.20588348 45.1758031,3.26229292 45.1758031,3.43072674 L45.1758031,10.9594006 C45.1758031,11.1282317 45.1313723,11.1842439 44.966121,11.1842439 L44.6024903,11.1842439 C44.4368492,11.1842439 44.3818954,11.1282317 44.3818954,10.9594006 L44.3818954,3.43072674 Z" id="Fill-5"></path>
                <path d="M49.2138195,3.0486521 C50.7131631,3.0486521 51.540199,3.57659678 52.1131221,4.77907123 C52.1793785,4.90261585 52.1353374,5.00391449 51.9919118,5.07144691 L51.6501067,5.22875774 C51.5070708,5.28476993 51.4517272,5.27364694 51.3636451,5.1274591 C50.9228451,4.22848333 50.3051015,3.82408326 49.2138195,3.82408326 C47.9019426,3.82408326 47.1852041,4.35242519 47.1852041,5.30741316 C47.2292451,6.0041889 47.5379221,6.34105654 48.1774913,6.53213358 C48.618681,6.67832143 48.8942297,6.72321063 49.4675426,6.77922282 C50.1180246,6.85787823 50.45944,6.90316468 51.0000144,7.10536471 C51.2755631,7.2062661 51.4848554,7.33020797 51.6501067,7.47599856 C51.9700862,7.76837425 52.2347221,8.29631892 52.2347221,8.98197168 C52.2347221,10.4653016 51.1761785,11.3416341 49.2360349,11.3416341 C47.6595221,11.3416341 46.7662297,10.7235138 46.2482605,9.40901497 C46.2042195,9.26282713 46.2482605,9.16152849 46.3803836,9.1055163 L46.7221887,8.98197168 C46.843399,8.93668523 46.9427836,8.98197168 47.00904,9.11663929 C47.4167118,10.0942705 48.1552759,10.577326 49.2360349,10.577326 C50.7022503,10.577326 51.4299015,10.0493813 51.4299015,9.00421766 C51.3854708,8.30744191 51.0990092,7.98169727 50.5147836,7.79062022 C50.0958092,7.65595262 49.8202605,7.6221864 49.2800759,7.56617421 C48.9382708,7.532408 48.6514195,7.48712155 48.4421272,7.45375259 C48.2324451,7.41998637 47.9791118,7.34133096 47.6813477,7.24003232 C47.3835836,7.13913093 47.1520759,7.01518906 46.9868246,6.86939847 C46.6450195,6.57702278 46.3694708,6.06020109 46.3694708,5.35230236 C46.3694708,3.94762788 47.4167118,3.0486521 49.2138195,3.0486521" id="Fill-7"></path>
                <path d="M56.0817251,3.0486521 C57.5810687,3.0486521 58.4081046,3.57659678 58.9810277,4.77907123 C59.0472841,4.90261585 59.0032431,5.00391449 58.8598174,5.07144691 L58.5180123,5.22875774 C58.3749764,5.28476993 58.3196328,5.27364694 58.2315508,5.1274591 C57.7907508,4.22848333 57.1730072,3.82408326 56.0817251,3.82408326 C54.7698482,3.82408326 54.0531097,4.35242519 54.0531097,5.30741316 C54.0971508,6.0041889 54.4058277,6.34105654 55.0453969,6.53213358 C55.4865867,6.67832143 55.7621354,6.72321063 56.3354482,6.77922282 C56.9859303,6.85787823 57.3273456,6.90316468 57.86792,7.10536471 C58.1434687,7.2062661 58.352761,7.33020797 58.5180123,7.47599856 C58.8379918,7.76837425 59.1026277,8.29631892 59.1026277,8.98197168 C59.1026277,10.4653016 58.0440841,11.3416341 56.1039405,11.3416341 C54.5274277,11.3416341 53.6341354,10.7235138 53.1161662,9.40901497 C53.0721251,9.26282713 53.1161662,9.16152849 53.2482892,9.1055163 L53.5900944,8.98197168 C53.7113046,8.93668523 53.8106892,8.98197168 53.8769456,9.11663929 C54.2846174,10.0942705 55.0231815,10.577326 56.1039405,10.577326 C57.5701559,10.577326 58.2978072,10.0493813 58.2978072,9.00421766 C58.2533764,8.30744191 57.9669149,7.98169727 57.3826892,7.79062022 C56.9637149,7.65595262 56.6881662,7.6221864 56.1479815,7.56617421 C55.8061764,7.532408 55.5193251,7.48712155 55.3100328,7.45375259 C55.1003508,7.41998637 54.8470174,7.34133096 54.5492533,7.24003232 C54.2514892,7.13913093 54.0199815,7.01518906 53.8547303,6.86939847 C53.5129251,6.57702278 53.2373764,6.06020109 53.2373764,5.35230236 C53.2373764,3.94762788 54.2846174,3.0486521 56.0817251,3.0486521" id="Fill-9"></path>
                <path d="M28.9539344,12.8674697 C29.2294831,12.8674697 29.3288677,12.9687684 29.3288677,13.2496238 L29.3288677,19.530934 L32.4928062,19.530934 C32.7683549,19.530934 32.8677395,19.6322327 32.8677395,19.9130881 L32.8677395,20.463676 C32.8677395,20.7445315 32.7683549,20.8458301 32.4928062,20.8458301 L28.3256677,20.8458301 C28.050119,20.8458301 27.9398215,20.7445315 27.9398215,20.463676 L27.9398215,13.2496238 C27.9398215,12.9687684 28.050119,12.8674697 28.3256677,12.8674697 L28.9539344,12.8674697 Z" id="Fill-11"></path>
                <path d="M38.2849026,15.6205284 C38.2849026,14.5864878 37.6566359,14.0136539 36.5209231,14.0136539 C35.3856,14.0136539 34.7569436,14.5753648 34.7569436,15.6205284 L34.7569436,18.0926125 C34.7569436,19.1377761 35.3856,19.699487 36.5209231,19.699487 C37.6566359,19.699487 38.2849026,19.1266531 38.2849026,18.0926125 L38.2849026,15.6205284 Z M33.3678974,15.6316514 C33.3678974,13.7999336 34.5036103,12.6987578 36.5209231,12.6987578 C38.5164103,12.6987578 39.6630359,13.7999336 39.6630359,15.6316514 L39.6630359,18.0814895 C39.6630359,19.9132073 38.5164103,21.0143831 36.5209231,21.0143831 C34.5036103,21.0143831 33.3678974,19.9132073 33.3678974,18.0814895 L33.3678974,15.6316514 Z" id="Fill-13"></path>
                <path d="M40.5278769,15.6205284 C40.5278769,13.8114539 41.6635897,12.6987578 43.6809026,12.6987578 C45.2465026,12.6987578 46.2497026,13.3280012 46.6795897,14.5753648 C46.7676718,14.8113311 46.6905026,14.9801621 46.4480821,15.0699405 L45.841641,15.2832635 C45.5773949,15.3734392 45.4670974,15.3170298 45.3677128,15.0472973 C45.1252923,14.3620418 44.5628923,14.0136539 43.6809026,14.0136539 C42.5455795,14.0136539 41.9169231,14.5753648 41.9169231,15.6094054 L41.9169231,18.0926125 C41.9169231,19.1266531 42.5455795,19.699487 43.6809026,19.699487 C44.5519795,19.699487 45.1139897,19.3510991 45.3677128,18.6543234 C45.4889231,18.3734679 45.5883077,18.3174558 45.8529436,18.4183571 L46.4480821,18.6320774 C46.6905026,18.7218558 46.7676718,18.8902896 46.6905026,19.1266531 C46.2606154,20.3851398 45.2574154,21.0143831 43.6809026,21.0143831 C41.6635897,21.0143831 40.5278769,19.9132073 40.5278769,18.0814895 L40.5278769,15.6205284 Z" id="Fill-15"></path>
                <path d="M50.8884697,15.5305911 C50.7563467,15.1261911 50.6678749,14.6093694 50.6347467,14.3507599 L50.6238338,14.1596829 L50.5466646,14.1596829 C50.5466646,14.5867261 50.4694954,15.0360154 50.3042441,15.5194681 L49.4553826,17.9017738 L51.7264185,17.9017738 L50.8884697,15.5305911 Z M54.1295774,20.4747593 C54.2180492,20.7222458 54.1295774,20.8457904 53.8762441,20.8457904 L53.3029313,20.8457904 C52.8508287,20.8457904 52.7074031,20.7782579 52.619321,20.5085255 L52.1122646,19.0589618 L49.0695364,19.0589618 L48.5511774,20.5085255 C48.4630954,20.7782579 48.3196697,20.8457904 47.8675672,20.8457904 L47.3605108,20.8457904 C47.1071774,20.8457904 47.0187056,20.7222458 47.1071774,20.4747593 L49.8630544,13.1709287 C49.962439,12.9123192 50.0614338,12.856307 50.3260697,12.856307 L50.9106851,12.856307 C51.1749313,12.856307 51.2852287,12.9238394 51.3737005,13.1598057 L54.1295774,20.4747593 Z" id="Fill-17"></path>
                <path d="M58.8919323,12.8674697 C59.167481,12.8674697 59.2668656,12.9687684 59.2668656,13.2496238 L59.2668656,13.8002117 C59.2668656,14.0810672 59.167481,14.1819686 58.8919323,14.1819686 L56.9958297,14.1819686 L56.9958297,20.463676 C56.9958297,20.7445315 56.8964451,20.8458301 56.6208964,20.8458301 L55.9813272,20.8458301 C55.7057785,20.8458301 55.6063938,20.7445315 55.6063938,20.463676 L55.6063938,14.1819686 L53.7102913,14.1819686 C53.4347426,14.1819686 53.3353579,14.0810672 53.3353579,13.8002117 L53.3353579,13.2496238 C53.3353579,12.9687684 53.4347426,12.8674697 53.7102913,12.8674697 L58.8919323,12.8674697 Z" id="Fill-19"></path>
                <path d="M60.0512636,13.2495444 C60.0512636,12.9686889 60.161561,12.8673903 60.4371097,12.8673903 L61.0653764,12.8673903 C61.3413149,12.8673903 61.4403097,12.9686889 61.4403097,13.2495444 L61.4403097,20.4635966 C61.4403097,20.744452 61.3413149,20.8457506 61.0653764,20.8457506 L60.4371097,20.8457506 C60.161561,20.8457506 60.0512636,20.744452 60.0512636,20.4635966 L60.0512636,13.2495444 Z" id="Fill-21"></path>
                <path d="M67.3658933,15.6205284 C67.3658933,14.5864878 66.7376267,14.0136539 65.6019138,14.0136539 C64.4665908,14.0136539 63.8379344,14.5753648 63.8379344,15.6205284 L63.8379344,18.0926125 C63.8379344,19.1377761 64.4665908,19.699487 65.6019138,19.699487 C66.7376267,19.699487 67.3658933,19.1266531 67.3658933,18.0926125 L67.3658933,15.6205284 Z M62.4488882,15.6316514 C62.4488882,13.7999336 63.584601,12.6987578 65.6019138,12.6987578 C67.597401,12.6987578 68.7440267,13.7999336 68.7440267,15.6316514 L68.7440267,18.0814895 C68.7440267,19.9132073 67.597401,21.0143831 65.6019138,21.0143831 C63.584601,21.0143831 62.4488882,19.9132073 62.4488882,18.0814895 L62.4488882,15.6316514 Z" id="Fill-23"></path>
                <path d="M75.5368677,12.8674697 C75.8124164,12.8674697 75.911801,12.9687684 75.911801,13.2496238 L75.911801,20.463676 C75.911801,20.7445315 75.8124164,20.8458301 75.5368677,20.8458301 L74.908601,20.8458301 C74.74296,20.8458301 74.6217497,20.7782977 74.5445805,20.6547531 L71.8436574,16.5869175 C71.3806421,15.9012647 70.9176267,14.6654213 70.9394523,14.6991875 L70.8735856,14.6991875 C70.8735856,14.6654213 71.1160062,15.9914404 71.1160062,16.9353053 L71.1160062,20.463676 C71.1160062,20.7445315 71.0166215,20.8458301 70.7410728,20.8458301 L70.1568472,20.8458301 C69.8812985,20.8458301 69.771001,20.7445315 69.771001,20.463676 L69.771001,13.2496238 C69.771001,12.9687684 69.8812985,12.8674697 70.1568472,12.8674697 L70.7851138,12.8674697 C70.9507549,12.8674697 71.0719651,12.9234819 71.1491344,13.0470265 L73.8282318,17.0926162 C74.3352882,17.8454041 74.7651754,19.0141123 74.7542626,19.0029893 L74.8201292,19.0029893 C74.8201292,19.0141123 74.5777087,17.7441055 74.5777087,16.7331053 L74.5777087,13.2496238 C74.5777087,12.9687684 74.6770933,12.8674697 74.9526421,12.8674697 L75.5368677,12.8674697 Z" id="Fill-25"></path>
                <path d="M30.9604513,23.769428 C30.8610667,23.4659294 30.8061128,23.2077171 30.8061128,22.9939969 L30.751159,22.9939969 C30.751159,23.2299631 30.7067282,23.4885726 30.6186462,23.769428 L29.2845538,27.2191433 L32.283241,27.2191433 L30.9604513,23.769428 Z M34.201559,30.0173693 C34.2569026,30.1635571 34.2128615,30.2306923 34.0472205,30.2306923 L33.7276308,30.2306923 C33.4961231,30.2306923 33.364,30.1635571 33.3308718,30.0284923 L32.5038359,27.8932758 L29.0530462,27.8932758 L28.2264,30.0284923 C28.182359,30.1969261 28.1051897,30.2306923 27.8405538,30.2306923 L27.5427897,30.2306923 C27.3884513,30.2306923 27.3444103,30.1635571 27.3993641,30.0173693 L30.3540103,22.4096428 C30.3980513,22.2860981 30.4865231,22.2185657 30.629559,22.2185657 L30.9604513,22.2185657 C31.1038769,22.2185657 31.2028718,22.2749752 31.2469128,22.3985198 L34.201559,30.0173693 Z" id="Fill-28"></path>
                <path d="M42.8093579,22.2524908 C42.9527836,22.2524908 42.9968246,22.3200233 42.9527836,22.4658138 L40.9904246,30.0397742 C40.9572964,30.1633188 40.8579118,30.2308512 40.7035733,30.2308512 L40.3617682,30.2308512 C40.1965169,30.2308512 40.1084349,30.1744418 40.0753067,30.0508971 L38.6090913,24.6121533 C38.5319221,24.2975316 38.4543631,23.9268978 38.3884964,23.5109775 L38.3444554,23.5109775 C38.3113272,23.8144761 38.2341579,24.18511 38.1238605,24.6010303 L36.6354297,30.0397742 C36.6023015,30.1633188 36.5033067,30.2308512 36.359881,30.2308512 L36.0071631,30.2308512 C35.8528246,30.2308512 35.7643528,30.1744418 35.7316144,30.0508971 L33.7579528,22.4658138 C33.7248246,22.3200233 33.7801682,22.2524908 33.9013785,22.2524908 L34.3425682,22.2524908 C34.5296451,22.2524908 34.5959015,22.286257 34.6399426,22.4546909 L35.9849477,27.8823117 C36.0180759,28.0169793 36.0512041,28.2418226 36.1061579,28.5564443 C36.1505887,28.8710659 36.1724144,29.0506227 36.1833272,29.0843889 L36.2277579,29.0843889 C36.3267528,28.4666659 36.4039221,28.0618685 36.4592656,27.8823117 L37.925481,22.5782355 C37.9586092,22.4435679 38.0576041,22.3760354 38.2228554,22.3760354 L38.5646605,22.3760354 C38.7303015,22.3760354 38.8292964,22.4435679 38.8624246,22.5782355 L40.3068144,27.8934347 C40.3617682,28.0733888 40.4389374,28.4666659 40.5492349,29.0843889 L40.5932759,29.0843889 C40.6704451,28.5453213 40.7367015,28.1520442 40.7916554,27.9045577 L42.1366605,22.4546909 C42.1697887,22.286257 42.2360451,22.2524908 42.4235118,22.2524908 L42.8093579,22.2524908 Z" id="Fill-30"></path>
                <path d="M46.1271672,23.769428 C46.0277826,23.4659294 45.9728287,23.2077171 45.9728287,22.9939969 L45.9178749,22.9939969 C45.9178749,23.2299631 45.8734441,23.4885726 45.7853621,23.769428 L44.4512697,27.2191433 L47.4499569,27.2191433 L46.1271672,23.769428 Z M49.3682749,30.0173693 C49.4236185,30.1635571 49.3795774,30.2306923 49.2139364,30.2306923 L48.8943467,30.2306923 C48.662839,30.2306923 48.5307159,30.1635571 48.4975877,30.0284923 L47.6705518,27.8932758 L44.2197621,27.8932758 L43.3931159,30.0284923 C43.3490749,30.1969261 43.2719056,30.2306923 43.0072697,30.2306923 L42.7095056,30.2306923 C42.5551672,30.2306923 42.5111262,30.1635571 42.56608,30.0173693 L45.5207262,22.4096428 C45.5647672,22.2860981 45.653239,22.2185657 45.7962749,22.2185657 L46.1271672,22.2185657 C46.2705928,22.2185657 46.3695877,22.2749752 46.4136287,22.3985198 L49.3682749,30.0173693 Z" id="Fill-32"></path>
                <path d="M53.5087938,23.0166004 L51.0393785,23.0166004 L51.0393785,26.1179278 L53.5087938,26.1179278 C54.4901682,26.1179278 55.0743938,25.5673399 55.0743938,24.5785857 C55.0743938,23.5783113 54.5119938,23.0166004 53.5087938,23.0166004 L53.5087938,23.0166004 Z M53.5859631,22.2522922 C55.0412656,22.2522922 55.90104,23.1063788 55.90104,24.5785857 C55.90104,25.8033061 55.2396451,26.6009832 54.1261477,26.7809373 C54.412999,26.9160022 54.6554195,27.1742144 54.8428862,27.5563685 L56.0775938,30.0058093 C56.1769785,30.1519972 56.1325477,30.2306526 55.9672964,30.2306526 L55.6036656,30.2306526 C55.3721579,30.2306526 55.2287323,30.1635174 55.1733887,30.0284525 L54.1043221,27.8598671 C53.7512144,27.1404482 53.3766708,26.8822359 52.5278092,26.8822359 L51.0393785,26.8822359 L51.0393785,30.0058093 C51.0393785,30.1746404 50.9953374,30.2306526 50.8296964,30.2306526 L50.4660656,30.2306526 C50.3008144,30.2306526 50.2454708,30.1746404 50.2454708,30.0058093 L50.2454708,22.4771355 C50.2454708,22.3087016 50.3008144,22.2522922 50.4660656,22.2522922 L53.5859631,22.2522922 Z" id="Fill-34"></path>
                <path d="M62.0755918,25.218952 C62.0755918,23.8142775 61.2267303,23.0166004 59.6833456,23.0166004 L57.930279,23.0166004 L57.930279,29.4667416 L59.6833456,29.4667416 C61.2267303,29.4667416 62.0755918,28.6686673 62.0755918,27.2639928 L62.0755918,25.218952 Z M59.6833456,22.2522922 C61.7115713,22.2522922 62.8804123,23.3761112 62.8804123,25.218952 L62.8804123,27.2639928 C62.8804123,29.1072308 61.7115713,30.2306526 59.6833456,30.2306526 L57.3569662,30.2306526 C57.1917149,30.2306526 57.1363713,30.1746404 57.1363713,30.0058093 L57.1363713,22.4771355 C57.1363713,22.3087016 57.1917149,22.2522922 57.3569662,22.2522922 L59.6833456,22.2522922 Z" id="Fill-36"></path>
                <path d="M17.0890092,10.163233 L14.7899118,12.8545988 C14.6897477,12.9717875 14.6523323,13.1322763 14.6905272,13.2832311 L15.5623836,16.7393024 C15.6582605,17.119073 15.2848862,17.4460094 14.930999,17.2922738 L11.7093785,15.8955443 C11.568681,15.8347651 11.4077169,15.8478744 11.2787118,15.931694 L8.32328615,17.8444507 C7.99824,18.054993 7.57809641,17.7943972 7.61161436,17.4035037 L7.91951179,13.8489145 C7.93315282,13.6935899 7.87079385,13.5418406 7.75309128,13.4425282 L5.05450667,11.1686717 C4.75791179,10.9188017 4.87132718,10.430582 5.24626051,10.3427898 L8.65846564,9.54272918 C8.80734769,9.50777121 8.92972718,9.40051383 8.98585026,9.25591499 L10.2739528,5.93729208 C10.4154297,5.57261697 10.9057272,5.53170027 11.1037169,5.86817065 L12.9043323,8.92818409 C12.9830605,9.0620572 13.1210297,9.14746585 13.2738092,9.15739709 L16.7678605,9.3802541 C17.1517579,9.40448633 17.3415631,9.86728208 17.0890092,10.163233 M22.1517785,10.7769836 L16.4198195,1.33634755 C16.0328041,0.721802469 15.3530913,0.364675105 14.6375221,0.399633068 L5.02566564,1.96400188 C4.31009641,1.99856259 3.66701949,2.42004438 3.33846564,3.06915018 L0.222855385,11.2016434 C-0.105698462,11.8511464 -0.0690625641,12.6301528 0.319122051,13.2446979 L10.8761067,30.6958715 C11.3831631,31.4987129 12.5523938,31.4419062 12.9818913,30.5933812 L22.2468759,12.8200381 C22.5758195,12.1705351 22.5395733,11.3915287 22.1517785,10.7769836" id="Fill-38"></path>
            </g>
        </g>
    </g>
</svg>