<?xml version="1.0" encoding="utf-8"?>
<!-- Generator: Adobe Illustrator 16.0.3, SVG Export Plug-In . SVG Version: 6.00 Build 0)  -->
<!DOCTYPE svg PUBLIC "-//W3C//DTD SVG 1.1//EN" "http://www.w3.org/Graphics/SVG/1.1/DTD/svg11.dtd">
<svg version="1.1" id="Ebene_1" xmlns="http://www.w3.org/2000/svg" xmlns:xlink="http://www.w3.org/1999/xlink" x="0px" y="0px"
	 width="20px" height="40px" viewBox="-1 -4 30 60" enable-background="new -1 -4 30 60" xml:space="preserve">
<title>Weitere Off</title>
<desc>Created with Sketch.</desc>
<g id="Page-1">
	<g id="Eventlokale-Styleguide" transform="translate(-550.000000, -8502.000000)">
		<g id="Weitere-Off" transform="translate(550.000000, 8502.000000)">
			<g id="Group-5">
				<path id="Shape" fill="#A89785" d="M22.447,24L14,19.559L5.552,24l1.613-9.407L0.331,7.931l9.445-1.372L14-2l4.225,8.559
					l9.444,1.372l-6.834,6.662L22.447,24L22.447,24z M14,17.467l5.988,3.149l-1.145-6.669l4.846-4.723l-6.694-0.973L14,2.184
					l-2.994,6.067L4.31,9.224l4.846,4.723l-1.144,6.669L14,17.467L14,17.467z"/>
			</g>
		</g>
	</g>
</g>
<title>Weitere Off</title>
<desc>Created with Sketch.</desc>
<path id="Shape_1_" fill="#A89785" d="M22.447,54L14,49.559L5.552,54l1.613-9.407l-6.834-6.661l9.445-1.373L14,28l4.225,8.559
	l9.444,1.373l-6.834,6.661L22.447,54L22.447,54z"/>
</svg>
