<?xml version="1.0" encoding="utf-8"?>
<!-- Generator: Adobe Illustrator 15.0.2, SVG Export Plug-In . SVG Version: 6.00 Build 0)  -->
<!DOCTYPE svg PUBLIC "-//W3C//DTD SVG 1.1//EN" "http://www.w3.org/Graphics/SVG/1.1/DTD/svg11.dtd">
<svg version="1.1" id="Ebene_1" xmlns:sketch="http://www.bohemiancoding.com/sketch/ns"
	 xmlns="http://www.w3.org/2000/svg" xmlns:xlink="http://www.w3.org/1999/xlink" x="0px" y="0px" width="18px" height="20px"
	 viewBox="0 0 18 20" enable-background="new 0 0 18 20" xml:space="preserve">
<title>calendar</title>
<desc>Created with Sketch.</desc>
<g>
	<path fill="#FFFFFF" d="M17.643,16.245l-4.315-4.315c0.649-1.07,1.024-2.325,1.024-3.669c0-3.902-3.381-7.284-7.285-7.284
		C3.164,0.977,0,4.14,0,8.044c0,3.901,3.381,7.283,7.284,7.283c1.298,0,2.513-0.351,3.558-0.962l4.34,4.34
		c0.426,0.425,1.114,0.425,1.539,0l1.076-1.074C18.221,17.205,18.066,16.67,17.643,16.245z M2.174,8.044
		c0-2.703,2.19-4.893,4.892-4.893c2.702,0,5.11,2.408,5.11,5.109c0,2.703-2.189,4.893-4.893,4.893
		C4.583,13.152,2.174,10.746,2.174,8.044z"/>
</g>
</svg>
