<?xml version="1.0" encoding="utf-8"?>
<!-- Generator: Adobe Illustrator 16.0.3, SVG Export Plug-In . SVG Version: 6.00 Build 0)  -->
<!DOCTYPE svg PUBLIC "-//W3C//DTD SVG 1.1//EN" "http://www.w3.org/Graphics/SVG/1.1/DTD/svg11.dtd">
<svg version="1.1" id="Ebene_1" xmlns="http://www.w3.org/2000/svg" xmlns:xlink="http://www.w3.org/1999/xlink" x="0px" y="0px"
	 width="29px" height="30px" viewBox="0 0 29 30" enable-background="new 0 0 29 30" xml:space="preserve">
<title>Print Blau</title>
<desc>Created with Sketch.</desc>
<path id="Stroke-3-Copy-3" fill="none" stroke="#2A5571" stroke-width="2" d="M27.83,14.894c0,7.673-6.006,13.893-13.415,13.893
	C7.006,28.787,1,22.567,1,14.894S7.006,1,14.415,1C21.824,1,27.83,7.221,27.83,14.894L27.83,14.894z"/>
<path id="Twitter-Icon-Copy" fill="#2A5571" d="M21.66,11.328c0.003,0.161,0.006,0.32,0.006,0.475c0,4.881-3.712,10.51-10.505,10.51
	C9.148,22.311,7.18,21.735,5.5,20.651c0.293,0.035,0.585,0.053,0.881,0.053c1.671,0,3.29-0.562,4.586-1.584
	c-1.596-0.039-2.988-1.07-3.452-2.562c0.23,0.048,0.462,0.067,0.696,0.067c0.33,0,0.659-0.042,0.976-0.132
	c-1.744-0.368-2.981-1.879-2.964-3.617v-0.044c0.512,0.28,1.086,0.437,1.673,0.459c-1.627-1.112-2.121-3.246-1.143-4.933
	c1.848,2.294,4.623,3.7,7.613,3.858c-0.064-0.274-0.096-0.557-0.096-0.84c-0.025-2.012,1.628-3.665,3.693-3.691
	c1.028,0,2.004,0.423,2.695,1.163c0.829-0.16,1.622-0.463,2.344-0.893c-0.267,0.851-0.847,1.574-1.621,2.04
	c0.73-0.085,1.445-0.28,2.119-0.577C23.006,10.157,22.384,10.803,21.66,11.328L21.66,11.328z"/>
</svg>
