<?xml version="1.0" encoding="utf-8"?>
<!-- Generator: Adobe Illustrator 15.0.2, SVG Export Plug-In . SVG Version: 6.00 Build 0)  -->
<!DOCTYPE svg PUBLIC "-//W3C//DTD SVG 1.1//EN" "http://www.w3.org/Graphics/SVG/1.1/DTD/svg11.dtd">
<svg version="1.1" id="Ebene_1" xmlns="http://www.w3.org/2000/svg" xmlns:xlink="http://www.w3.org/1999/xlink" x="0px" y="0px"
	 width="22px" height="22px" viewBox="0 0 22 22" enable-background="new 0 0 22 22" xml:space="preserve">
<path fill="#FFFFFF" d="M5.155,16.505c-2.949-3.17-2.896-8.139,0.166-11.224c1.253-1.263,2.821-2.017,4.451-2.264L9.681,0.312
	c-2.287,0.277-4.5,1.298-6.253,3.063c-4.104,4.134-4.153,10.807-0.16,15.03l-2.269,2.284l7.182,0.394l-0.02-7.604L5.155,16.505z
	 M13.818,0.918l0.02,7.604l3.008-3.027c2.948,3.17,2.896,8.139-0.168,11.225c-1.253,1.263-2.82,2.017-4.451,2.263l0.094,2.707
	c2.285-0.277,4.498-1.297,6.252-3.063c4.105-4.135,4.152-10.807,0.16-15.032l2.27-2.285L13.818,0.918z"/>
</svg>
