<?xml version="1.0" encoding="UTF-8"?>
<svg width="108px" height="108px" viewBox="0 0 108 108" version="1.1" xmlns="http://www.w3.org/2000/svg" xmlns:xlink="http://www.w3.org/1999/xlink">
    <!-- Generator: Sketch 40.3 (33839) - http://www.bohemiancoding.com/sketch -->
    <title>Award Button</title>
    <desc>Created with Sketch.</desc>
    <defs></defs>
    <g id="Page-1" stroke="none" stroke-width="1" fill="none" fill-rule="evenodd">
        <g id="Eventlokale-Styleguide" transform="translate(-868.000000, -8965.000000)">
            <g id="Award-Button" transform="translate(862.000000, 8959.000000)">
                <g id="Group-30">
                    <path d="M59.7136003,6.13071262 C74.0260067,6.13071262 87.4820495,11.7042955 97.6024773,21.8247233 C107.722905,31.9451511 113.296488,45.4011939 113.296488,59.7136003 C113.296488,74.0260067 107.722905,87.4820495 97.6024773,97.6024773 C87.4820495,107.722905 74.0260067,113.296488 59.7136003,113.296488 C45.4011939,113.296488 31.9451511,107.722905 21.8247233,97.6024773 C11.7042955,87.4820495 6.13071262,74.0260067 6.13071262,59.7136003 C6.13071262,45.4011939 11.7042955,31.9451511 21.8247233,21.8247233 C31.9451511,11.7042955 45.4011939,6.13071262 59.7136003,6.13071262" id="Fill-1-Copy-3" fill="#A89785" transform="translate(59.713600, 59.713600) rotate(-7.000000) translate(-59.713600, -59.713600) "></path>
                    <g id="Group-28" transform="translate(11.550802, 11.550802)" fill="#FFFFFF">
                        <polygon id="Fill-3-Copy" transform="translate(25.094754, 87.914430) rotate(-7.000000) translate(-25.094754, -87.914430) " points="26.6699951 85.7133609 26.0587651 87.4392433 27.4676421 88.5471577 25.6788721 88.4884411 25.0609042 90.2091898 24.5414389 88.4448048 22.7218667 88.3986015 24.230209 87.3702593 23.7210111 85.6196711 25.152348 86.7394572"></polygon>
                        <path d="M33.5825332,90.5430437 C33.8382552,90.6848619 33.869699,90.8170544 33.72756,91.0730972 L33.1423193,92.1287122 C32.818576,92.7129903 32.3411429,93.064648 31.705207,93.193632 C31.0567578,93.3251828 30.3550466,93.1766266 29.5872391,92.7508512 C28.0195386,91.8816534 27.5895921,90.5456106 28.3657418,89.1457175 L29.1637097,87.7060384 C29.9398594,86.3067871 31.3012498,85.9634715 32.8686295,86.8326694 C34.07633,87.5022951 34.5948327,88.395878 34.4279878,89.5272149 C34.3872391,89.8079635 34.2444584,89.895878 33.9726937,89.8394074 L32.9485225,89.6683913 C32.6517311,89.6193004 32.5869183,89.5095678 32.63633,89.2130972 C32.6911963,88.7940598 32.5089503,88.4629368 32.0928006,88.2322416 C31.4770787,87.8905304 31.0667044,88.0082844 30.7516241,88.575878 L29.9446723,90.0315999 C29.6299129,90.5998352 29.7473461,91.0098887 30.3633888,91.3515999 C30.8992177,91.6483913 31.3378273,91.6304234 31.5287364,91.2864662 L31.6172926,91.1263592 L30.8494851,90.7005838 C30.6017846,90.5632576 30.5578273,90.4342737 30.6999664,90.1785518 L31.0323728,89.5788726 C31.174191,89.322509 31.3108755,89.2836855 31.5588969,89.4213325 L33.5825332,90.5430437 Z" id="Fill-5-Copy" transform="translate(31.223638, 89.798943) rotate(-7.000000) translate(-31.223638, -89.798943) "></path>
                        <path d="M40.6151552,89.048749 C40.8888451,89.1523854 40.9469199,89.2826527 40.8458504,89.5473586 L40.5532301,90.3167704 C40.4492729,90.5904602 40.3196472,90.6482142 40.0459574,90.5445779 L37.7893798,89.6859682 L37.4996472,90.4463961 L39.3038183,91.1330271 C39.5768665,91.2369843 39.6349413,91.36661 39.5341927,91.6316367 L39.2415723,92.4010485 C39.1376151,92.6747383 39.0076686,92.7328132 38.7342996,92.6288559 L36.9307702,91.9422249 L36.6185777,92.7632945 L38.9518397,93.6514228 C39.2168665,93.7518506 39.2784707,93.873134 39.1745135,94.1468239 L38.8786846,94.9245779 C38.777936,95.1896046 38.6479895,95.2480003 38.3829627,95.1469308 L34.7242461,93.7550592 C34.4505563,93.6511019 34.3928023,93.5208346 34.4932301,93.2561287 L36.529059,87.9052196 C36.6304494,87.6401928 36.7597542,87.5817971 37.0331231,87.6860752 L40.6151552,89.048749 Z" id="Fill-7-Copy" transform="translate(37.669717, 91.415436) rotate(-7.000000) translate(-37.669717, -91.415436) "></path>
                        <path d="M49.5196529,90.5455422 C49.7798668,90.5965583 49.8109898,90.7236171 49.6900272,90.9610502 L47.1530219,96.372601 C47.0410433,96.6116385 46.9120593,96.6517454 46.6338775,96.5975208 L45.5837171,96.3924941 C45.3235032,96.3417989 45.1813641,96.2115315 45.1752679,96.0055422 L45.0982625,93.8195529 C45.0973,93.2978417 45.1399738,92.7472535 45.2429684,92.1706759 L45.1707759,92.1568791 C45.0446796,92.7097133 44.8768721,93.2362374 44.6586903,93.7338845 L43.7782625,95.7145262 C43.6576208,95.9516385 43.5289577,95.9917454 43.250455,95.9375208 L42.2182625,95.7360235 C41.9490647,95.683724 41.8155887,95.5550609 41.8091716,95.3487508 L41.5050005,89.363831 C41.4818989,89.0984834 41.5585834,88.992601 41.8187973,89.0432962 L42.9228615,89.2585904 C43.254947,89.3234032 43.3666048,89.4199807 43.3608294,89.6888577 L43.2969791,92.1174139 C43.2835032,92.6176278 43.2244657,93.1560235 43.1124871,93.7303551 L43.1756957,93.7428684 C43.2825406,93.1954887 43.4391181,92.6760235 43.6560165,92.1873604 L44.6712037,89.9445797 C44.7879951,89.6782695 44.9243588,89.6493925 45.2381556,89.7103551 L46.2077812,89.899339 C46.503931,89.9574139 46.6335566,90.0572 46.6457492,90.3299273 L46.7343053,92.7880021 C46.7471395,93.2471465 46.6977278,93.7871465 46.595054,94.4099273 L46.6666048,94.423724 C46.7984764,93.8439379 46.9467117,93.3231893 47.1113107,92.8614781 L47.9471395,90.583724 C48.0430754,90.3321732 48.1909898,90.2866117 48.5237171,90.3517454 L49.5196529,90.5455422 Z" id="Fill-9-Copy" transform="translate(45.629531, 92.824934) rotate(-7.000000) translate(-45.629531, -92.824934) "></path>
                        <path d="M50.750513,89.6496217 C50.7646306,89.3849158 50.870513,89.2896217 51.1352189,89.3037393 L52.2129729,89.3608516 C52.4773579,89.3749693 52.572652,89.4808516 52.5585344,89.7455575 L52.2537215,95.4984987 C52.2396039,95.7628837 52.1337215,95.8581778 51.8686948,95.8440602 L50.7915825,95.7869479 C50.5262349,95.7728302 50.4312616,95.6669479 50.4457001,95.4019212 L50.750513,89.6496217 Z" id="Fill-11-Copy" transform="translate(51.502087, 92.573900) rotate(-7.000000) translate(-51.502087, -92.573900) "></path>
                        <path d="M58.7247056,88.8876575 C59.0073794,88.8706522 59.1135826,88.9649837 59.1309088,89.2482992 L59.4735826,94.962096 C59.4902671,95.2447698 59.3962564,95.3516147 59.1132617,95.3679784 L58.0813901,95.4302243 C57.908128,95.4401709 57.7855612,95.3837003 57.6966842,95.2701174 L56.1610692,93.190973 C55.9515505,92.9012404 55.7891975,92.6362137 55.6733687,92.386588 C55.5485558,92.137604 55.4089836,91.7978179 55.2453473,91.3588875 L55.1721922,91.3630586 C55.2764703,91.7323634 55.3573259,92.0025238 55.3939034,92.1562137 C55.430481,92.3095826 55.4802136,92.526481 55.5235291,92.7988875 C55.5684489,93.079957 55.5957216,93.3809195 55.6146521,93.7001709 L55.7038499,95.1879784 C55.7208553,95.470973 55.6265237,95.5771762 55.3345451,95.5945024 L54.412727,95.6500104 C54.1204275,95.6676575 54.0139034,95.5730051 53.9968981,95.2900104 L53.6545451,89.5765345 C53.6375398,89.2935399 53.7318713,89.1873366 54.0238499,89.1696896 L55.1009622,89.1048768 C55.2742243,89.0949302 55.4060959,89.1507591 55.4952938,89.2646629 L57.1319783,91.5116147 C57.3411761,91.7920425 57.5154007,92.1023099 57.6090906,92.2890479 C57.6937965,92.4764276 57.8744382,92.8868019 57.9989302,93.1357858 L58.0724061,93.1316147 C57.885989,92.6204917 57.7521922,92.2251976 57.6799997,91.9367484 C57.5985024,91.6486201 57.5494114,91.2850907 57.5231013,90.8471227 L57.4332617,89.3500104 C57.4162564,89.0670158 57.5009622,88.9611334 57.7935826,88.9434864 L58.7247056,88.8876575 Z" id="Fill-13-Copy" transform="translate(56.564035, 92.268899) rotate(-7.000000) translate(-56.564035, -92.268899) "></path>
                        <path d="M64.3878064,87.0260089 C64.6647048,86.9660089 64.7843839,87.0423726 64.8447048,87.3199127 L66.0633144,92.9143512 C66.1236353,93.1915704 66.0466299,93.3115704 65.7694107,93.3712496 L64.7596781,93.5916774 C64.5899454,93.6285758 64.4599989,93.5913565 64.3544374,93.4928538 L62.5165765,91.6742442 C62.2647048,91.4201266 62.0635283,91.1830143 61.9101593,90.9542442 C61.748769,90.7273993 61.5585016,90.4129608 61.3290898,90.0041907 L61.2572182,90.0199127 C61.4179668,90.3690036 61.5389294,90.6234421 61.5986085,90.7694314 C61.6586085,90.9154207 61.7407476,91.1223726 61.826416,91.3848324 C61.9136888,91.6559554 61.9868438,91.9488966 62.0548652,92.26141 L62.3721914,93.7184153 C62.4321914,93.9956346 62.3555069,94.1153137 62.0689829,94.1775597 L61.1667369,94.3739234 C60.8805337,94.4364902 60.7608545,94.359164 60.7008545,94.0825865 L59.4822449,88.4875062 C59.4216032,88.210287 59.4986085,88.0906078 59.7848117,88.0283619 L60.8391433,87.7986292 C61.0091968,87.7617308 61.1478064,87.797025 61.2536888,87.8958485 L63.2179668,89.8646185 C63.4675925,90.1094314 63.6876994,90.3892175 63.808662,90.5595918 C63.9216032,90.7318913 64.1628866,91.1095383 64.3245978,91.3363832 L64.3961486,91.3209822 C64.1333679,90.8445116 63.9402128,90.4748859 63.8243839,90.2002335 C63.6995711,89.928148 63.5946513,89.5764902 63.5016032,89.1471854 L63.182031,87.6818378 C63.122031,87.4046185 63.1903732,87.2868645 63.4759347,87.2246185 L64.3878064,87.0260089 Z" id="Fill-15-Copy" transform="translate(62.772740, 90.700570) rotate(-7.000000) translate(-62.772740, -90.700570) "></path>
                        <path d="M69.7554596,83.8377043 C70.0294703,83.7350305 70.159096,83.794068 70.2588821,84.0594156 L70.547973,84.8304316 C70.6503259,85.1041214 70.5916093,85.2337471 70.3175986,85.3367418 L68.05685,86.1841214 L68.3424115,86.9464744 L70.1494703,86.2688273 C70.423481,86.1661535 70.5527858,86.2248701 70.6525719,86.4905386 L70.941342,87.2615546 C71.0443366,87.5352444 70.98562,87.665191 70.7112885,87.7675439 L68.9045505,88.4448701 L69.2128928,89.2675439 L71.5506468,88.3903247 C71.8159944,88.2911803 71.9424115,88.3412337 72.0454061,88.6158862 L72.3373847,89.3949236 C72.43685,89.6602712 72.3781334,89.7898968 72.1127858,89.8893621 L68.4470104,91.2639075 C68.1729997,91.3665813 68.0436949,91.3075439 67.9439088,91.0421963 L65.9340692,85.6810198 C65.8342831,85.4156722 65.8933206,85.2860466 66.1670104,85.1830519 L69.7554596,83.8377043 Z" id="Fill-17-Copy" transform="translate(69.135768, 87.550806) rotate(-7.000000) translate(-69.135768, -87.550806) "></path>
                        <path d="M73.4835618,83.1509075 L72.6169308,83.6244904 L73.1954334,84.6836348 L74.0623853,84.2103728 C74.3912623,84.0306936 74.4782142,83.7127257 74.298535,83.3835279 C74.123027,83.0623514 73.8288024,82.9622444 73.4835618,83.1509075 L73.4835618,83.1509075 Z M72.8931874,81.6496241 C74.1214227,80.978715 75.2781072,81.2649182 75.9486955,82.4931535 C76.3738291,83.2718701 76.3873051,83.9835279 75.9843104,84.6201054 C76.129658,84.6762551 76.2676259,84.7571108 76.3898719,84.8469503 L77.8616366,85.8252391 C78.1003532,85.9763621 78.1244174,86.1922979 77.8677329,86.3325118 L77.000781,86.8060947 C76.583027,87.0335813 76.3378933,87.0425653 76.0516901,86.8234209 L74.9373586,86.0045974 C74.6270912,85.7986081 74.4249521,85.7527257 74.1121179,85.9237418 L73.9276259,86.0248113 L74.7775725,87.5819236 C74.9136152,87.8309075 74.880888,87.9627792 74.6245243,88.103314 L73.7174655,88.5983942 C73.4604602,88.7389289 73.3240965,88.6985011 73.1880537,88.449838 L70.4440965,83.4245974 C70.3083746,83.1752926 70.3484816,83.0389289 70.6054869,82.8990359 L72.8931874,81.6496241 Z" id="Fill-19-Copy" transform="translate(74.209185, 84.987487) rotate(-7.000000) translate(-74.209185, -84.987487) "></path>
                        <polygon id="Fill-21-Copy" transform="translate(80.296201, 81.476958) rotate(-7.000000) translate(-80.296201, -81.476958) " points="78.7631532 79.23883 80.2705328 80.2774397 81.7073243 79.2048194 81.1852922 80.9165841 82.6862548 81.9603274 80.8474312 82.0039637 80.3298911 83.7490974 79.7295703 82.0251402 77.9061478 82.0620386 79.3599446 80.9708087"></polygon>
                        <path d="M56.743826,31.7108715 L52.8755907,36.1534383 C52.7068206,36.347556 52.6442538,36.611941 52.7084249,36.860925 L54.1750559,42.5660587 C54.3364463,43.1930105 53.7085319,43.7330105 53.112703,43.4795346 L47.6921682,41.1735453 C47.4556976,41.0727966 47.1845747,41.0952565 46.9676763,41.2329036 L41.9950559,44.3907645 C41.448318,44.7379303 40.7408313,44.3076629 40.7979436,43.6627432 L41.3161255,37.7949357 C41.3385853,37.5388929 41.2336656,37.2879838 41.0356976,37.1240266 L36.4955907,33.3709784 C35.9963394,32.9583581 36.1872485,32.1523688 36.8180506,32.0073421 L42.5587993,30.6867004 C42.8093875,30.6292672 43.0156976,30.4518341 43.1100292,30.2127966 L45.2767672,24.7351496 C45.5151629,24.1332244 46.3404035,24.0655239 46.6734517,24.6206041 L49.7032912,29.6724758 C49.8354837,29.8929036 50.0677832,30.0340801 50.3244677,30.0501228 L56.2035051,30.4181442 C56.8497083,30.458572 57.1689597,31.2225293 56.743826,31.7108715 M65.2625426,32.7238127 L55.6182645,17.1398555 C54.9662859,16.1256309 53.8230773,15.5362191 52.6189062,15.5936522 L36.4468206,18.1758982 C35.2426495,18.2333314 34.1607244,18.9286255 33.608211,20.0002833 L28.366072,33.4248822 C27.8129169,34.4971817 27.874842,35.783171 28.5281041,36.7977164 L46.2903501,65.605417 C47.1435051,66.9305506 49.1106709,66.8365399 49.8335586,65.436326 L65.4223287,36.096326 C65.9754837,35.0243474 65.9145212,33.738679 65.2625426,32.7238127" id="Fill-23-Copy" transform="translate(46.894468, 41.067532) rotate(-7.000000) translate(-46.894468, -41.067532) "></path>
                        <path d="M17.0803433,84.1521329 C16.4870812,84.0305287 15.9165999,83.6384431 15.3679368,82.9887105 C14.5006641,81.9613308 14.3065465,81.1078549 14.7002363,80.2129885 C14.8051561,79.9688174 14.9851561,79.9123468 15.2331775,80.0503147 L16.1235518,80.4956623 C16.3667604,80.6134164 16.4036588,80.7135233 16.2952096,80.996518 C16.1511454,81.3218656 16.2329636,81.6597265 16.5278299,82.0091383 C16.8997015,82.4493522 17.2074021,82.5725607 17.4518941,82.3662506 C17.7243005,82.1361971 17.5532844,81.7778014 17.1050491,81.0908495 C16.7951026,80.6105287 16.6744609,80.4250741 16.4989529,79.8911704 C16.416493,79.6376944 16.3905037,79.4082827 16.4007711,79.2077479 C16.4286855,78.8012238 16.6606641,78.2820795 17.1637657,77.8575875 C17.6601293,77.43855 18.2225892,77.3108495 18.8383112,77.4732024 C19.4668673,77.636518 20.0492203,78.0427212 20.5860117,78.6783361 C21.5065465,79.7686035 21.7154235,80.7533094 21.2197015,81.6263575 C21.0682577,81.8862506 20.9241935,81.9000474 20.6761721,81.7624003 L19.8839796,81.3061436 C19.6359582,81.1681757 19.5823753,81.0340581 19.6895411,80.7638976 C19.8281507,80.4314912 19.7296481,80.0599404 19.3933914,79.6617586 C18.9743539,79.165395 18.6294342,79.0258228 18.3637657,79.2504217 C18.1122149,79.4628281 18.2524288,79.7990848 18.6419475,80.4157693 C18.8418406,80.7375875 18.8488994,80.7318121 19.027616,81.0712773 C19.1190598,81.2220795 19.1736053,81.3433629 19.2114662,81.4312773 C19.2865465,81.6189779 19.4129636,81.9671062 19.4200224,82.1884966 C19.4274021,82.4095661 19.4200224,82.7272131 19.2894342,82.9691383 C19.1716801,83.2123468 18.9859047,83.4889244 18.685263,83.7424003 C18.2171347,84.1376944 17.6797015,84.2804752 17.0803433,84.1521329" id="Fill-25-Copy" transform="translate(17.993271, 80.801511) rotate(-7.000000) translate(-17.993271, -80.801511) "></path>
                        <path d="M8.28624934,73.8901174 C8.15052742,73.6623099 8.22464507,73.5541816 8.48197127,73.4858394 L14.2076397,71.7682992 C14.4604739,71.6919356 14.5763028,71.7615613 14.7213296,72.0050907 L15.2690301,72.924342 C15.404752,73.1521495 15.402506,73.3453046 15.2529873,73.4874436 L13.6750194,75.002203 C13.2864632,75.3506522 12.8478536,75.686588 12.3495649,75.9939677 L12.387105,76.0568554 C12.8834686,75.782203 13.3875328,75.5563206 13.9044312,75.3872297 L15.9672119,74.7227378 C16.224859,74.6543955 16.3406878,74.7237003 16.4857146,74.9672297 L17.0237895,75.87108 C17.1643242,76.106588 17.1575862,76.2914009 17.0080675,76.4338607 L12.7503135,80.6518287 C12.5677467,80.8459463 12.4374793,80.8594222 12.3017574,80.6316148 L11.7261424,79.6651976 C11.5528804,79.3745025 11.5503135,79.2272297 11.7546985,79.0520426 L13.6073189,77.4798501 C13.9894579,77.1567484 14.4296718,76.8410265 14.9324526,76.5419891 L14.8997253,76.4868019 C14.4206878,76.7720426 13.9288162,77.0011335 13.42026,77.1657324 L11.0715969,77.9049837 C10.7950194,77.9948233 10.6823991,77.9130051 10.5187627,77.6380319 L10.0130943,76.7893688 C9.85876271,76.5301174 9.8465702,76.3671228 10.0419713,76.1762137 L11.8150194,74.4708661 C12.1483884,74.1548233 12.5841103,73.8317217 13.1167306,73.493219 L13.0791905,73.4300105 C12.5590836,73.7187805 12.0723456,73.955572 11.6183349,74.1407057 L9.36304079,75.0368554 C9.11181084,75.1334329 8.97897662,75.0528982 8.80571459,74.762203 L8.28624934,73.8901174 Z" id="Fill-27-Copy" transform="translate(12.672172, 76.269388) rotate(-7.000000) translate(-12.672172, -76.269388) "></path>
                        <path d="M7.5976518,72.3937747 C7.35412239,72.4983736 7.22192987,72.4457533 7.11701009,72.2022239 L6.69027212,71.2107801 C6.58567319,70.9672506 6.63829351,70.835379 6.88182292,70.7301383 L12.1743363,68.453026 C12.4178657,68.3484271 12.5503791,68.4010474 12.654978,68.644256 L13.081716,69.6356998 C13.1863149,69.8795501 13.1336946,70.0114218 12.8901652,70.1163415 L7.5976518,72.3937747 Z" id="Fill-29-Copy" transform="translate(9.885994, 70.423395) rotate(-7.000000) translate(-9.885994, -70.423395) "></path>
                        <path d="M5.56803946,69.8138386 C5.06622128,69.475015 4.68857422,68.8952289 4.42964374,68.0847477 C4.01991112,66.8042129 4.16654213,65.9414321 4.87210363,65.2644268 C5.06205015,65.0789723 5.25007154,65.0956567 5.42654213,65.317368 L6.07980416,66.0688118 C6.25948331,66.27063 6.25531219,66.3777958 6.04707689,66.5979027 C5.78942983,66.8433573 5.7361678,67.1866728 5.87541914,67.6223947 C6.05092716,68.1713787 6.28836031,68.4027156 6.59317315,68.3051755 C6.93263839,68.1964054 6.91146192,67.8001487 6.75969721,66.9941594 C6.65670256,66.4316995 6.6159539,66.2141594 6.65766513,65.6536247 C6.67787903,65.3879562 6.74140844,65.166245 6.8277186,64.9846407 C7.00836031,64.6198279 7.42098063,64.2287049 8.04825336,64.0281701 C8.66686299,63.8302022 9.23541914,63.9267797 9.74269186,64.3121273 C10.2611945,64.7029295 10.6442961,65.3006835 10.8977721,66.0931969 C11.3325314,67.4523412 11.1496437,68.4421808 10.3584138,69.0598279 C10.1190555,69.2420739 9.98044588,69.2000418 9.80397529,68.9780097 L9.24600737,68.2538386 C9.06953678,68.0318065 9.07114106,67.8871006 9.2732801,67.6785444 C9.52803946,67.4244268 9.57873465,67.0429295 9.42023197,66.5465658 C9.22258491,65.9282771 8.95659561,65.6674215 8.62547261,65.7733038 C8.31199668,65.8737316 8.3132801,66.2379027 8.43745122,66.9569402 C8.49937636,67.330737 8.50836031,67.3278493 8.54397529,67.7099883 C8.57092716,67.883892 8.57509828,68.0170471 8.57670256,68.1123412 C8.57413571,68.315122 8.55809293,68.6847477 8.48044588,68.8923412 C8.40247796,69.099614 8.27477743,69.3903092 8.06140844,69.5642129 C7.85959026,69.7435712 7.58269186,69.9280632 7.20793251,70.0480632 C6.62429614,70.2348011 6.07274534,70.1613252 5.56803946,69.8138386" id="Fill-31-Copy" transform="translate(7.665580, 67.038049) rotate(-7.000000) translate(-7.665580, -67.038049) "></path>
                        <path d="M3.22922118,63.570671 C2.7787399,63.1660721 2.4845153,62.5394411 2.33948856,61.7013662 C2.11007679,60.3768742 2.37382011,59.5420079 3.16569177,58.9686389 C3.37970246,58.8110988 3.56355273,58.8537726 3.70793776,59.0979437 L4.25146717,59.9318475 C4.4016276,60.1561256 4.38269711,60.2616871 4.14622653,60.4509919 C3.85745647,60.6589063 3.75734952,60.9919544 3.83531744,61.4424357 C3.93349925,62.0103502 4.13660086,62.2718475 4.45232278,62.217302 C4.80365968,62.1566603 4.83702867,61.7607245 4.79756342,60.941901 C4.77285754,60.3704571 4.76226931,60.1497084 4.88066503,59.6000828 C4.93777733,59.339548 5.03114631,59.128425 5.14119979,58.9609384 C5.37061155,58.6243609 5.83328535,58.2935587 6.4820554,58.1812593 C7.1218415,58.0702432 7.67178802,58.244147 8.12130674,58.6955908 C8.58109284,59.1540935 8.87820514,59.7990133 9.02034417,60.6191202 C9.26387359,62.0247887 8.94654738,62.9799758 8.07767038,63.4833983 C7.81521048,63.630671 7.68430139,63.5697084 7.53991637,63.3255373 L7.08654738,62.5317405 C6.94248321,62.2875694 6.96398054,62.1444678 7.19307145,61.9657512 C7.48023722,61.7488528 7.58323187,61.3782646 7.49435487,60.8645748 C7.38365968,60.2247887 7.15617305,59.9299224 6.81349925,59.9892806 C6.48943508,60.0457512 6.44034417,60.4067138 6.46440834,61.1356978 C6.47435487,61.5146282 6.48365968,61.513024 6.46633348,61.8964464 C6.46890032,62.0722753 6.45478268,62.2047887 6.44323187,62.2997619 C6.41307145,62.499655 6.34601262,62.864147 6.24045113,63.0585855 C6.13521048,63.2533448 5.96836556,63.5235052 5.7331784,63.666286 C5.50857947,63.8167673 5.20890032,63.9614732 4.82130674,64.028532 C4.21745647,64.1328101 3.68130674,63.9842539 3.22922118,63.570671" id="Fill-33-Copy" transform="translate(5.679815, 61.104722) rotate(-7.000000) translate(-5.679815, -61.104722) "></path>
                        <path d="M0.912465474,53.2793045 C0.919845153,52.9866842 1.02251895,52.8978072 1.30615531,52.904866 L5.81321414,53.0162029 L5.86775959,50.8128874 C5.87481841,50.529251 5.96882911,50.4310692 6.26112858,50.4384489 L7.09342804,50.4586628 C7.37674355,50.4657216 7.47492537,50.5687163 7.46786654,50.8523526 L7.37834783,54.4725665 C7.37096815,54.7651869 7.2679735,54.8633687 6.98465799,54.8566307 L1.26123553,54.7148125 C0.977920019,54.7080746 0.879738201,54.604759 0.886797025,54.3121387 L0.912465474,53.2793045 Z" id="Fill-35-Copy" transform="translate(4.177332, 52.647509) rotate(-7.000000) translate(-4.177332, -52.647509) "></path>
                        <path d="M2.98650358,45.8459021 C2.41698487,45.7586294 2.06340198,46.0743513 1.96778701,46.6984155 C1.86960519,47.3401267 2.11377631,47.7383086 2.68329503,47.8255813 L4.4733485,48.099592 C5.04286722,48.1868647 5.39516669,47.8801267 5.4933485,47.2380947 C5.58896348,46.6146722 5.34607578,46.2071856 4.77655706,46.1199128 L2.98650358,45.8459021 Z M2.4904608,49.6281481 C0.908321767,49.3855813 0.114524975,48.2279342 0.385968826,46.4558487 C0.655808398,44.6930679 1.76019342,43.826116 3.34201161,44.068362 L4.96939129,44.3176668 C6.55120947,44.5599128 7.34532711,45.7178808 7.07548754,47.4806615 C6.80404369,49.2524262 5.69965867,50.1193781 4.11784048,49.8771321 L2.4904608,49.6281481 Z" id="Fill-37-Copy" transform="translate(3.730449, 46.972741) rotate(-7.000000) translate(-3.730449, -46.972741) "></path>
                        <path d="M2.81356502,43.1478814 C1.28019604,42.6896995 0.653244165,41.433229 1.16661315,39.7156888 C1.56222812,38.3928011 2.32426021,37.6946193 3.46490192,37.615368 C3.74789657,37.5951541 3.86436716,37.7157958 3.86725486,37.9936568 L3.91987518,39.0306621 C3.91762919,39.3258493 3.84254898,39.4179348 3.54222812,39.433015 C3.12062384,39.4695926 2.83634577,39.7185765 2.69998213,40.1741915 C2.49848481,40.84863 2.7009447,41.2243519 3.32340459,41.4104482 L4.918057,41.8869188 C5.54019604,42.073015 5.91559711,41.8702343 6.11741529,41.1954749 C6.25602491,40.7311969 6.15527625,40.3667049 5.82030299,40.1138707 C5.57131903,39.9252076 5.54757572,39.8129081 5.72500887,39.5700204 L6.33816395,38.7319455 C6.49313721,38.5015712 6.65709443,38.4643519 6.88233507,38.6366514 C7.7922816,39.328737 8.04639924,40.3307691 7.65078427,41.6536568 C7.13773614,43.3711969 5.92426021,44.0777209 4.39089122,43.6192183 L2.81356502,43.1478814 Z" id="Fill-39-Copy" transform="translate(4.410894, 40.684474) rotate(-7.000000) translate(-4.410894, -40.684474) "></path>
                        <path d="M5.97921443,34.332545 C5.60092566,34.2802455 5.12990961,34.1451653 4.90146042,34.0505129 L4.73108608,33.9828123 L4.69322512,34.065914 C5.09621977,34.2401386 5.45204865,34.4734006 5.77675453,34.7528658 L6.61739625,35.5097642 L7.09290427,34.470192 L5.97921443,34.332545 Z M10.0710861,33.0167161 C10.3338668,33.0362883 10.4121556,33.1729728 10.3017813,33.4139353 L9.89076523,34.3123311 C9.69664758,34.7361813 9.55290427,34.8314754 9.25611282,34.7759674 L8.56980266,34.6935075 L7.74809143,36.4896573 L8.25921443,36.9548979 C8.4834925,37.1682669 8.51333207,37.3225984 8.33076523,37.7217428 L7.93097913,38.5951118 C7.82445507,38.8277321 7.67397379,38.8495503 7.48723582,38.6634541 L3.09023047,34.3383204 C2.89162084,34.1567161 2.87878662,34.030299 2.99686149,33.7726519 L3.43065828,32.8245236 C3.54103261,32.5832402 3.66103261,32.4972508 3.90295774,32.5177856 L10.0710861,33.0167161 Z" id="Fill-41-Copy" transform="translate(6.635866, 35.651491) rotate(-7.000000) translate(-6.635866, -35.651491) "></path>
                        <path d="M6.02447828,26.3048759 C6.17784727,26.0555711 6.31645689,26.0228438 6.55774032,26.1710791 L7.25880983,26.6026299 C7.50811465,26.7559989 7.54084192,26.8942877 7.38747294,27.1435925 L6.67838203,28.2964267 L10.5180612,30.6595283 C10.7593446,30.8080845 10.7923927,30.9463732 10.6390237,31.195678 L10.0974195,32.075785 C9.94405048,32.3250898 9.81057454,32.3501165 9.56897026,32.2015604 L5.72929112,29.8387796 L5.01506652,30.9989935 C4.86137668,31.2482984 4.72790074,31.2736459 4.47891679,31.120277 L3.77784727,30.6887262 C3.53624299,30.54017 3.49838203,30.4095818 3.65175101,30.160277 L6.02447828,26.3048759 Z" id="Fill-43-Copy" transform="translate(7.146241, 29.187796) rotate(-7.000000) translate(-7.146241, -29.187796) "></path>
                        <path d="M6.88425245,25.0023902 C6.67248774,24.8426041 6.65259469,24.7017485 6.81238079,24.4899838 L7.46179255,23.6281656 C7.62157865,23.4164009 7.76243426,23.3968287 7.97419897,23.556294 L12.5752685,27.0241015 C12.7870332,27.1835667 12.8069262,27.3247432 12.6471401,27.5365079 L11.9977284,28.3980052 C11.8379423,28.6100908 11.6970867,28.6299838 11.485322,28.4701977 L6.88425245,25.0023902 Z" id="Fill-45-Copy" transform="translate(9.729760, 26.013299) rotate(-7.000000) translate(-9.729760, -26.013299) "></path>
                        <path d="M12.1379143,21.0162258 C11.7153475,20.6247819 11.245294,20.6879905 10.81631,21.1509851 C10.3751336,21.6274557 10.354278,22.0939798 10.7768448,22.4857445 L12.1055079,23.7162258 C12.5280747,24.1076696 12.992032,24.0508782 13.4332084,23.5747285 C13.8621924,23.1117338 13.8891443,22.6381509 13.4665774,22.2467071 L12.1379143,21.0162258 Z M9.60668437,23.8702365 C8.43267368,22.7825359 8.42401058,21.3784718 9.64229935,20.0636055 C10.854171,18.7551563 12.2543849,18.6560119 13.4287165,19.7437124 L14.636417,20.8622151 C15.8107485,21.9495948 15.8190908,23.3536589 14.60754,24.6621081 C13.3892512,25.9772953 11.9887165,26.0761188 10.8147058,24.9887392 L9.60668437,23.8702365 Z" id="Fill-47-Copy" transform="translate(12.122026, 22.365841) rotate(-7.000000) translate(-12.122026, -22.365841) "></path>
                        <path d="M15.8301093,13.4242303 C16.0482911,13.2432677 16.1897884,13.2564228 16.3710718,13.4746046 L20.0278633,17.8796313 C20.208505,18.0978132 20.1953499,18.2393105 19.977489,18.4205939 L19.1824087,19.0805939 C19.048612,19.1916099 18.9160986,19.218241 18.7768472,19.1794174 L16.3088259,18.4109682 C15.968398,18.3015565 15.6805906,18.1838025 15.439628,18.0509682 C15.1916066,17.9242303 14.8781307,17.7326795 14.486366,17.4753533 L14.4298954,17.5221982 C14.7327831,17.7583479 14.957382,17.9284014 15.0777029,18.0304335 C15.1980237,18.1327864 15.3664729,18.278134 15.5628366,18.4716099 C15.7649756,18.6724656 15.9648686,18.8986688 16.1692537,19.1450859 L17.1212323,20.2921447 C17.3025157,20.5100057 17.2893606,20.6518239 17.06412,20.8388827 L16.3534248,21.4286153 C16.1281841,21.6156741 15.9866868,21.602519 15.8054034,21.3843372 L12.148612,16.9793105 C11.9676494,16.7611287 11.9808045,16.6193105 12.2060451,16.4325725 L13.0364194,15.7433747 C13.1698954,15.6323586 13.3094676,15.5996313 13.4487189,15.6387757 L16.0980237,16.4819843 C16.432997,16.5846581 16.7570611,16.7316099 16.9428366,16.8269041 C17.121874,16.9279736 17.5101093,17.1522517 17.7581307,17.2793105 L17.8146013,17.2324656 C17.361874,16.9308613 17.0204836,16.6911821 16.7913927,16.5009148 C16.555243,16.3167436 16.3004836,16.0526795 16.0200558,15.7151394 L15.0619809,14.5610217 C14.8810184,14.3428399 14.8871146,14.2067971 15.1123553,14.0200591 L15.8301093,13.4242303 Z" id="Fill-49-Copy" transform="translate(16.088458, 17.428997) rotate(-7.000000) translate(-16.088458, -17.428997) "></path>
                        <path d="M23.8721388,10.2741736 C23.6103206,9.99631261 23.3276468,9.59556394 23.2089302,9.3789864 L23.1187698,9.21952116 L23.0372725,9.26026982 C23.2419784,9.64882597 23.3728875,10.0537458 23.4511762,10.4747083 L23.6314971,11.5912859 L24.6537431,11.0795212 L23.8721388,10.2741736 Z M27.8854008,11.8136388 C28.0775933,11.9936388 28.0532083,12.1489329 27.816096,12.2676495 L26.9331014,12.7101094 C26.5159891,12.9189864 26.3440104,12.9026228 26.1476468,12.6738527 L25.6647591,12.1790934 L23.898449,13.0636923 L24.0052939,13.746473 C24.0460425,14.053211 23.9725666,14.1924623 23.5801602,14.388826 L22.7215506,14.8190934 C22.4924596,14.933318 22.3615506,14.8559918 22.3326735,14.5941736 L21.6174864,8.46775646 C21.5764169,8.20208801 21.6460425,8.09556394 21.8995185,7.96850512 L22.831604,7.5016602 C23.0687163,7.38294362 23.2159891,7.39128587 23.3918179,7.5587725 L27.8854008,11.8136388 Z" id="Fill-51-Copy" transform="translate(24.810070, 11.145924) rotate(-7.000000) translate(-24.810070, -11.145924) "></path>
                        <path d="M32.5534803,3.07508425 C32.8066354,2.99583291 32.894229,3.09305216 32.900967,3.35936232 L33.242999,9.32727676 C33.2580793,9.59102008 33.1637477,9.68727676 32.8932664,9.77198264 L31.871983,10.091234 C31.6188279,10.1704853 31.4317691,10.1233195 31.3281327,9.94524467 L30.22086,8.05861366 C29.9721969,7.59979013 29.7472771,7.09508425 29.5640686,6.53904147 L29.494122,6.5611805 C29.6455659,7.10759762 29.7482397,7.65048532 29.7931595,8.19241045 L29.9606461,10.353373 C29.9673841,10.6196832 29.8730525,10.7159399 29.6025712,10.8006457 L28.598614,11.1144425 C28.3367958,11.1962607 28.1584001,11.1465281 28.0547637,10.9684532 L24.9398974,5.84791847 C24.7939081,5.62524467 24.8109135,5.49529815 25.0640686,5.41604681 L26.1376514,5.08043184 C26.4604322,4.97968318 26.6044964,5.01112703 26.7273841,5.25080617 L27.8263145,7.417865 C28.0521969,7.86449601 28.2569028,8.36599334 28.4314482,8.92460296 L28.4927317,8.90535163 C28.3262076,8.37305216 28.2174375,7.84139441 28.1754055,7.30845323 L28.0018226,4.8523035 C27.9784001,4.56257088 28.0842825,4.47208959 28.389737,4.37679548 L29.3324108,4.08192917 C29.6205391,3.99176874 29.7819295,4.0180789 29.9221434,4.25198264 L31.1696301,6.3725174 C31.3993627,6.77037836 31.6124108,7.26898799 31.8184001,7.86577943 L31.8880258,7.84396125 C31.7282397,7.27123398 31.6108065,6.74246393 31.5360472,6.25797195 L31.1879188,3.85668853 C31.1523039,3.58973665 31.2617156,3.47904147 31.5844964,3.37797195 L32.5534803,3.07508425 Z" id="Fill-53-Copy" transform="translate(29.046054, 7.100506) rotate(-7.000000) translate(-29.046054, -7.100506) "></path>
                        <path d="M36.6029155,4.60688626 C36.441846,4.26068305 36.299707,3.79127128 36.255108,3.54838358 L36.2198139,3.36870444 L36.1293326,3.38185952 C36.2015252,3.8150146 36.1986375,4.24046914 36.1402417,4.66496112 L35.9602417,5.78153866 L37.0915786,5.61693973 L36.6029155,4.60688626 Z M39.9279423,7.33062957 C40.0540385,7.56196647 39.981846,7.70185952 39.7193861,7.74004134 L38.7420599,7.88185952 C38.2806695,7.94891834 38.1224877,7.87929267 38.0079423,7.60046914 L37.7053754,6.97897182 L35.7504022,7.26292904 L35.6368193,7.94474722 C35.5793861,8.24891834 35.4658032,8.35768839 35.0313647,8.42089695 L34.0809904,8.55886487 C33.8278353,8.59576326 33.7277284,8.4805761 33.7825947,8.22324989 L35.0310439,2.18282208 C35.0756428,1.91747449 35.175108,1.83854401 35.4555359,1.79779535 L36.4874075,1.64795577 C36.7498674,1.60977396 36.8871936,1.6636777 37.0014182,1.87833011 L39.9279423,7.33062957 Z" id="Fill-55-Copy" transform="translate(36.878179, 5.101115) rotate(-7.000000) translate(-36.878179, -5.101115) "></path>
                        <path d="M42.9603975,2.54853894 L41.9724831,2.5488598 L41.9731248,3.75591862 L42.9607184,3.75559777 C43.3357986,3.75559777 43.5642478,3.51784376 43.5642478,3.14276354 C43.563927,2.77698814 43.3537665,2.54853894 42.9603975,2.54853894 L42.9603975,2.54853894 Z M43.1609323,0.948111135 C44.5601836,0.947469424 45.4386863,1.75217531 45.4390072,3.15142664 C45.439328,4.03859242 45.1101302,4.66971541 44.4517344,5.03549081 C44.5524831,5.15452825 44.634943,5.29153359 44.6987933,5.4288598 L45.5224296,6.99238921 C45.6597558,7.23944803 45.5772959,7.4406245 45.2846756,7.4406245 L44.297082,7.44094536 C43.821574,7.44126622 43.6021088,7.33153359 43.4554778,7.00233573 L42.8699163,5.74939456 C42.6960125,5.4201967 42.5403975,5.28319135 42.183927,5.28319135 L41.9734457,5.28319135 L41.9740874,7.0575229 C41.9740874,7.34115926 41.8826435,7.44158707 41.5900232,7.44158707 L40.5565473,7.44190793 C40.263927,7.44222878 40.1634992,7.34148012 40.1631783,7.05816461 L40.161574,1.33313787 C40.1612532,1.04950151 40.2620018,0.949073702 40.5546221,0.948752846 L43.1609323,0.948111135 Z" id="Fill-57-Copy" transform="translate(42.874326, 4.195010) rotate(-7.000000) translate(-42.874326, -4.195010) "></path>
                        <path d="M50.0341585,3.35238834 C50.1249607,2.70008888 49.8169393,2.32500867 49.1193992,2.22811027 L48.3766184,2.12447391 L47.9232494,5.38565038 L48.6660302,5.48896588 C49.3635703,5.58586428 49.762073,5.30896588 49.8528751,4.65666642 L50.0341585,3.35238834 Z M49.4033564,0.651746633 C51.1696665,0.897201179 52.0520195,1.98939369 51.8315917,3.57442043 L51.6426077,4.93324396 C51.4247468,6.50062364 50.2754419,7.32875198 48.5088109,7.08297658 L46.2987574,6.7755969 C46.008704,6.73516909 45.9230355,6.62158621 45.9621799,6.34083754 L46.750843,0.670356259 C46.7899874,0.389607596 46.9032494,0.303939147 47.1933029,0.344366954 L49.4033564,0.651746633 Z" id="Fill-59-Copy" transform="translate(48.909058, 3.730296) rotate(-7.000000) translate(-48.909058, -3.730296) "></path>
                        <path d="M54.3540763,2.48020163 L54.7699052,2.58865083 C54.9114025,2.62587008 55.0009212,2.57357062 55.0355736,2.44073639 C55.0699052,2.30790217 55.0176057,2.21870431 54.8761084,2.18180591 L54.4602795,2.07303586 L54.3540763,2.48020163 Z M55.0022047,1.80800912 C55.3647715,1.90298238 55.554718,2.18886474 55.4600656,2.55175244 C55.3885148,2.82608399 55.2296913,2.9640519 54.9697982,2.9813781 L55.1331138,3.51528185 C55.1783544,3.63111073 55.1379266,3.67731393 55.0140763,3.64490752 L54.819317,3.59421233 C54.7397448,3.57335671 54.6845576,3.53068292 54.6656271,3.45945297 L54.5157875,2.9098273 L54.2594239,2.84308933 L54.1368571,3.31185939 C54.1160015,3.39175244 54.0848785,3.40234067 54.0053063,3.38180591 L53.8195309,3.33303586 C53.7486218,3.31474709 53.7223116,3.2698273 53.7386752,3.20822302 L54.1336485,1.69474709 C54.159317,1.59752784 54.17921,1.59335671 54.2764293,1.61870431 L55.0022047,1.80800912 Z M53.3356806,2.28993425 C53.2432742,2.643838 53.2885148,2.97720698 53.4717234,3.2893995 C53.6523651,3.61089682 53.9209212,3.81335671 54.2834881,3.90800912 C54.6287287,3.99816955 54.9620977,3.95260805 55.2768571,3.76073639 C55.5893704,3.57784869 55.7915095,3.30929254 55.8842367,2.9553888 C55.9766432,2.6011642 55.9310817,2.26811607 55.748194,1.9556027 C55.5649854,1.64341019 55.2967501,1.4409503 54.9511886,1.35046901 C54.5883009,1.25613746 54.2552528,1.3013781 53.9430603,1.48426581 C53.6305469,1.66747436 53.428087,1.93603051 53.3356806,2.28993425 L53.3356806,2.28993425 Z M52.8842367,2.17218024 C53.0068036,1.70308933 53.2811351,1.33988078 53.7139694,1.09378452 C54.1381405,0.845442276 54.5889426,0.783517142 55.0580335,0.906083987 C55.5271244,1.02832998 55.881349,1.30041554 56.1296913,1.72458666 C56.3783544,2.14843693 56.4402795,2.59955992 56.3177127,3.06832998 C56.1951458,3.53742089 55.9208143,3.90062944 55.5056271,4.15121768 C55.0817769,4.39988078 54.6306539,4.46180591 54.1615629,4.33923907 C53.692472,4.21699308 53.3295843,3.94234067 53.0809212,3.5184904 C52.823595,3.09207329 52.7619908,2.6409503 52.8842367,2.17218024 L52.8842367,2.17218024 Z" id="Fill-61-Copy" transform="translate(54.601202, 2.622656) rotate(-7.000000) translate(-54.601202, -2.622656) "></path>
                        <path d="M62.9674545,3.25045293 L61.1215722,2.42713742 L60.197508,4.49826041 L62.0433904,5.32189678 C62.7364385,5.63088074 63.268738,5.44799303 63.5780428,4.75462405 C63.8834973,4.06991817 63.677508,3.56713742 62.9674545,3.25045293 L62.9674545,3.25045293 Z M62.5740855,7.52136202 C62.7341925,7.16232459 62.7614652,6.85398234 62.655262,6.57612138 C62.5452085,6.30660266 62.3023208,6.08809999 61.9432834,5.92799303 L59.955262,5.04114811 L58.9827486,7.22104116 L60.9704492,8.10788608 C61.3298075,8.26799303 61.6545134,8.3029663 61.9288449,8.20478448 C62.2025347,8.10692352 62.4136577,7.88072031 62.5740855,7.52136202 L62.5740855,7.52136202 Z M63.2956898,2.71590747 C64.3233904,3.17441015 64.6657433,3.97815346 64.2297005,4.95515881 C63.9354759,5.61515881 63.4750481,5.95077378 62.8484171,5.94146897 L62.8407166,5.95815346 C63.4224278,6.42788608 63.5405027,7.06125507 63.1827486,7.86307325 C62.7319465,8.87376844 61.8027486,9.1602925 60.742,8.68703047 L58.2948342,7.59515881 C58.1697005,7.53932993 58.1469198,7.47900908 58.2024278,7.35355453 L60.6993262,1.75783261 C60.7548342,1.63269892 60.8154759,1.60927646 60.9409305,1.66542619 L63.2956898,2.71590747 Z" id="Fill-63-Copy" transform="translate(61.294450, 5.272914) rotate(-7.000000) translate(-61.294450, -5.272914) "></path>
                        <path d="M70.444658,6.317125 C70.5457275,6.37905014 70.5418773,6.47338169 70.427011,6.52086832 L66.4715029,8.41006618 L65.1919307,10.5004405 C65.1200591,10.6175528 65.0574922,10.632633 64.9403799,10.5610822 L64.6830537,10.4035421 C64.5662623,10.3319913 64.5508612,10.2687828 64.622412,10.1519913 L65.9067971,8.05391645 L65.7858345,3.67969185 C65.7762088,3.55584158 65.858027,3.50931752 65.9594174,3.57156351 L66.2796313,3.76728543 C66.4666901,3.88183089 66.5039094,3.92610896 66.4897917,4.08910361 L66.5488291,7.65316778 L69.7657275,6.09477206 C69.9043372,6.00814105 69.9608077,6.02097527 70.1481874,6.13584158 L70.444658,6.317125 Z" id="Fill-65-Copy" transform="translate(67.548111, 7.074218) rotate(-7.000000) translate(-67.548111, -7.074218) "></path>
                        <path d="M76.8930807,9.99015648 C76.9819577,10.0687661 76.9806743,10.1531511 76.9020647,10.242349 L76.7323321,10.4338998 C76.6537225,10.5230977 76.5699791,10.5346485 76.4811021,10.4560388 L74.0631342,8.31689445 L72.5602465,10.0155041 L74.6698722,11.8819212 C74.75907,11.9608517 74.7577866,12.0449158 74.679177,12.1341137 L74.5091235,12.3259854 C74.4305139,12.4148624 74.3467706,12.4264132 74.2578936,12.3478035 L72.1482679,10.4813864 L70.5847385,12.2486592 L73.0915834,14.4664132 C73.1811021,14.5453436 73.1794979,14.6294078 73.1008882,14.7186057 L72.9308348,14.9104773 C72.8522251,14.9993543 72.7688027,15.0109051 72.6796048,14.9322955 L69.8162893,12.3991404 C69.7136155,12.3083383 69.7097652,12.2438463 69.8008882,12.1411725 L73.8606743,7.5516538 C73.9514765,7.44898001 74.0159684,7.44512974 74.1189631,7.53593188 L76.8930807,9.99015648 Z" id="Fill-67-Copy" transform="translate(73.348075, 11.227935) rotate(-7.000000) translate(-73.348075, -11.227935) "></path>
                        <path d="M82.2237736,14.6574957 C82.3020624,14.7470145 82.2847361,14.8108647 82.1711533,14.8612391 L75.9770356,17.1405973 C75.8711533,17.1723621 75.7816345,17.1534316 75.7036666,17.0639129 L75.5230249,16.8572818 C75.4447361,16.7677631 75.4309394,16.6827364 75.4768217,16.5819877 L78.5785329,10.7501161 C78.6378912,10.6374957 78.7033458,10.6288326 78.7877308,10.7254102 L78.9622763,10.9249824 C79.0825971,11.0626294 79.1133992,11.1816669 79.0546827,11.281453 L76.6187468,15.7904369 C76.5603511,15.890223 76.4804581,16.0208113 76.3793886,16.1696883 C76.2786399,16.3185653 76.227303,16.4122551 76.2125436,16.436961 L76.2301907,16.4578166 C76.2571426,16.4465867 76.3569287,16.408084 76.5179982,16.3281909 C76.6787468,16.2482979 76.8131853,16.1793139 76.9197094,16.134715 L81.7145757,14.3250893 C81.8156452,14.2734316 81.9289073,14.3199556 82.0492281,14.4576027 L82.2237736,14.6574957 Z" id="Fill-69-Copy" transform="translate(78.861219, 13.906889) rotate(-7.000000) translate(-78.861219, -13.906889) "></path>
                        <path d="M85.5474904,19.005043 C85.6139075,19.1035457 85.5917685,19.185043 85.492945,19.2514601 L85.2805385,19.3942409 C85.181715,19.460658 85.0982926,19.4510323 85.0318754,19.3525296 L83.2286669,16.6743478 L81.3471696,17.9414066 L82.9203246,20.2775564 C82.9870626,20.3763799 82.9646027,20.4575564 82.8661,20.5239735 L82.6533728,20.6670751 C82.5548701,20.7334922 82.4711268,20.7235457 82.4047097,20.625043 L80.8315546,18.2885724 L78.8743353,19.6063264 L80.7436401,22.3830109 C80.8100573,22.4815136 80.7875974,22.5626901 80.6890947,22.6291072 L80.4766883,22.7722088 C80.3781856,22.8386259 80.2944423,22.8286794 80.2280252,22.7301767 L78.0930519,19.5591606 C78.0160466,19.4455778 78.0285599,19.3820483 78.1424637,19.3053639 L83.2251375,15.8831179 C83.3387204,15.8064334 83.4022498,15.8189467 83.4789343,15.9325296 L85.5474904,19.005043 Z" id="Fill-71-Copy" transform="translate(81.814889, 19.324579) rotate(-7.000000) translate(-81.814889, -19.324579) "></path>
                        <path d="M89.126383,24.516468 C89.1873455,24.6393557 89.1671316,24.7006391 89.0442439,24.7616017 L83.5579338,27.4901578 C83.4350461,27.5511204 83.3734418,27.5305856 83.3124792,27.4076979 L83.1822118,27.1458798 C83.1414632,27.0637407 83.1456343,26.9902648 83.1867038,26.9289814 L85.6380407,22.4514413 C85.752907,22.2515482 85.9171851,22.0064145 86.1305541,21.716361 C86.3436022,21.4266284 86.4546182,21.2591418 86.4834953,21.214222 L86.4671316,21.1814947 C86.4260621,21.2017086 86.2377199,21.3159332 85.9101263,21.5196765 C85.5783616,21.7153985 85.2998589,21.874222 85.0624257,21.9922969 L81.6639231,23.6822434 C81.557399,23.7351846 81.4759017,23.7146498 81.4229605,23.6081257 L81.2968642,23.354329 C81.2355808,23.2314413 81.2561156,23.1701578 81.3790033,23.1091953 L86.8653134,20.3806391 C86.9882011,20.3196765 87.0494846,20.3402113 87.110768,20.463099 L87.2410354,20.725238 C87.2776129,20.798714 87.2814632,20.8683396 87.2445648,20.9376445 L84.8342974,25.3128316 C84.71526,25.5255589 84.5509819,25.7909065 84.3376129,26.1011739 C84.1200728,26.4034199 83.9975059,26.5872701 83.9602867,26.6565749 L83.9728001,26.6812808 C84.0299124,26.6527247 84.2265969,26.5346498 84.5705541,26.3225642 C84.9064899,26.1146498 85.2013562,25.947484 85.4468108,25.8255589 L88.7631744,24.1760402 C88.8696985,24.123099 88.9470247,24.1561471 88.9999658,24.2626712 L89.126383,24.516468 Z" id="Fill-73-Copy" transform="translate(85.211553, 23.935398) rotate(-7.000000) translate(-85.211553, -23.935398) "></path>
                        <path d="M91.878412,29.6929632 C91.923011,29.8225889 91.8944548,29.8806637 91.7648291,29.9252627 L91.5222623,30.0080434 C91.3923158,30.0526423 91.3345618,30.0240862 91.2899628,29.8944605 L90.6915671,28.14676 L85.309535,29.9894338 C85.1799094,30.0337119 85.1218345,30.0054766 85.0775564,29.87553 L84.9796955,29.5899685 C84.9350965,29.4603429 84.9636527,29.402268 85.0935992,29.3576691 L90.4753104,27.5149953 L89.8769147,25.7672947 C89.8323158,25.6373482 89.8608719,25.5792734 89.9904976,25.5349953 L90.2327436,25.4518937 C90.3626901,25.4076156 90.420765,25.4358509 90.4653639,25.5657974 L91.878412,29.6929632 Z" id="Fill-75-Copy" transform="translate(88.429058, 27.730043) rotate(-7.000000) translate(-88.429058, -27.730043) "></path>
                        <path d="M93.338278,31.6182486 C93.3681176,31.7520454 93.3312192,31.7979278 93.1974224,31.8271256 L87.6421283,33.0518315 L88.309508,36.0794251 C88.3348556,36.1955748 88.2841604,36.2629545 88.1683315,36.288623 L87.9180641,36.3438101 C87.8019144,36.3691577 87.7277968,36.3293716 87.7021283,36.2132219 L86.9323957,32.7213502 C86.9025561,32.5875535 86.9378502,32.533008 87.071647,32.5031684 L93.0552834,31.184131 C93.189401,31.1546123 93.2439465,31.1895855 93.2734652,31.3237032 L93.338278,31.6182486 Z" id="Fill-77-Copy" transform="translate(90.135241, 33.762753) rotate(-7.000000) translate(-90.135241, -33.762753) "></path>
                        <path d="M92.8360809,40.0438669 C93.9013215,39.9424765 94.4496638,39.2378776 94.3364017,38.0452573 C94.2228188,36.8526369 93.5506263,36.2552038 92.4850648,36.3565942 L90.3366156,36.5613 C89.271375,36.6623696 88.7239953,37.3759524 88.8372573,38.5685728 C88.9508402,39.7615139 89.6220702,40.3496423 90.6876317,40.2482519 L92.8360809,40.0438669 Z M92.4228188,35.7010861 C93.8522306,35.5650433 94.7929793,36.3758455 94.9463483,37.9871824 C95.0987547,39.5895353 94.3277386,40.5633321 92.8983269,40.6993749 L90.7498777,40.9037599 C89.3204659,41.0398027 88.3797172,40.2293214 88.2273108,38.6266476 C88.0739418,37.0153107 88.8449579,36.0415139 90.2743696,35.905792 L92.4228188,35.7010861 Z" id="Fill-79-Copy" transform="translate(91.586718, 38.302427) rotate(-7.000000) translate(-91.586718, -38.302427) "></path>
                        <path d="M89.6470601,46.7689145 C89.5257767,46.8289145 89.462889,46.7990749 89.4677018,46.6617487 L89.4782901,46.3694492 C89.4863115,46.141 89.516151,46.0781123 89.6557232,46.0097701 L91.72075,45.0670963 C92.3159371,44.7956524 92.5373275,44.492123 92.5623542,43.7884867 L92.5954024,42.8564011 L89.78952,42.756615 C89.6525147,42.7514813 89.6082366,42.7132995 89.6130494,42.5762941 L89.6236377,42.2746899 C89.6284505,42.1376845 89.6759371,42.0937273 89.8132633,42.0985401 L95.9367927,42.3160802 C96.0734772,42.3208931 96.1177553,42.3683797 96.1129425,42.505385 L96.1020334,42.8069893 C96.0975414,42.9439947 96.0503756,42.9789679 95.9130494,42.9741551 L93.1986109,42.8775776 L93.1678088,43.7547968 L93.1604291,43.9559733 L95.829627,46.1008931 C95.9271671,46.1868824 95.9775414,46.3075241 95.9720869,46.4718022 L95.9602152,46.801 C95.9554024,46.9380054 95.862996,46.9623904 95.7834238,46.8860268 L93.0089853,44.618861 C92.8642794,45.0712674 92.5135842,45.4248503 91.9456698,45.6882727 L89.6470601,46.7689145 Z" id="Fill-81-Copy" transform="translate(92.790368, 44.513500) rotate(-7.000000) translate(-92.790368, -44.513500) "></path>
                        <path d="M94.498797,51.0667802 C94.7564441,51.0282776 94.9714173,51.0196145 95.1424334,51.049454 L95.1501339,51.0045342 C94.9611499,50.9711653 94.7602943,50.8992936 94.547567,50.7876359 L91.9727007,49.2138391 L91.5440376,51.6638925 L94.498797,51.0667802 Z M89.0266045,52.8388658 C88.9017916,52.8635717 88.8536633,52.8180102 88.8774066,52.68293 L88.923289,52.4217535 C88.9563371,52.2324487 89.0291713,52.1336252 89.1421125,52.1256038 L90.9719521,51.749561 L91.465428,48.9298818 L89.872059,47.9548016 C89.7430751,47.8948016 89.7270323,47.8271011 89.7648932,47.6108444 L89.807567,47.3679567 C89.8293852,47.2415396 89.8900269,47.2149086 89.9994387,47.280684 L95.6756954,50.7622883 C95.7684227,50.8155503 95.809813,50.8970476 95.7892783,51.0141599 L95.7421125,51.2843203 C95.7215777,51.4014326 95.6622195,51.4745877 95.5569788,51.4935182 L89.0266045,52.8388658 Z" id="Fill-83-Copy" transform="translate(92.332990, 50.045588) rotate(-7.000000) translate(-92.332990, -50.045588) "></path>
                        <path d="M95.3011906,56.0167961 C95.2610836,56.1480261 95.2065382,56.1698442 95.0753082,56.1297373 L89.6355221,54.4657801 L88.729105,57.430486 C88.6941318,57.5443897 88.6168056,57.5780795 88.5032227,57.5434271 L88.2584098,57.4683469 C88.1445061,57.4336945 88.0995863,57.3621437 88.1342387,57.2488817 L89.1799072,53.8292025 C89.2200141,53.6979726 89.2774473,53.6678122 89.4083564,53.7079191 L95.2678216,55.4998977 C95.3993724,55.5400047 95.429212,55.597117 95.389105,55.7283469 L95.3011906,56.0167961 Z" id="Fill-85-Copy" transform="translate(91.764239, 55.623912) rotate(-7.000000) translate(-91.764239, -55.623912) "></path>
                        <path d="M92.9991637,64.3078657 C92.9516771,64.4169566 92.8711423,64.4413416 92.7620514,64.393855 L92.527506,64.2911812 C92.418415,64.2433737 92.3818375,64.1676518 92.429645,64.0585608 L93.7236557,61.1009138 L91.6457947,60.1919298 L90.5167038,62.7725715 C90.4688963,62.8813416 90.3883616,62.9060475 90.2792707,62.85824 L90.0447252,62.7555662 C89.9359551,62.7080796 89.8993776,62.6320368 89.9468642,62.5232667 L91.0759551,59.942625 L88.9143509,58.9967427 L87.5725327,62.0631598 C87.5247252,62.1722507 87.4445113,62.1969566 87.3354204,62.1488282 L87.1005541,62.0464753 C86.991784,61.9989887 86.9552065,61.922625 87.003014,61.8141758 L88.5350995,58.3120368 C88.5902867,58.1859405 88.6502867,58.1625181 88.7760621,58.2177052 L94.3897519,60.673855 C94.5155273,60.7287213 94.5389498,60.7887213 94.4840835,60.9144967 L92.9991637,64.3078657 Z" id="Fill-87-Copy" transform="translate(90.747188, 61.303278) rotate(-7.000000) translate(-90.747188, -61.303278) "></path>
                        <path d="M87.453516,63.5761162 C87.3193983,63.8257419 87.2122325,63.8514103 86.9626069,63.7172927 L86.9141577,63.6913034 C86.664532,63.5571857 86.6350133,63.4375066 86.7607887,63.2042445 L86.786778,63.1554745 C86.9208956,62.9058488 87.0325534,62.8724798 87.2821791,63.0065975 L87.3303074,63.0325868 C87.5802539,63.1667044 87.6136229,63.2780413 87.4795053,63.5279879 L87.453516,63.5761162 Z" id="Fill-89-Copy" transform="translate(87.188224, 63.428934) rotate(-7.000000) translate(-87.188224, -63.428934) "></path>
                        <path d="M90.7021445,66.151995 C91.9088825,66.9300698 92.1508076,68.1416206 91.2732675,69.5020484 C90.5349788,70.647503 89.703321,70.9924228 88.6406472,70.6991607 C88.5007542,70.6635458 88.4644975,70.6183051 88.5004333,70.4780912 L88.5697381,70.18515 C88.6108076,70.0706046 88.681075,70.0288934 88.7904868,70.0449361 C89.6131606,70.2708185 90.1984012,70.038519 90.7586151,69.1699629 C91.407706,68.163118 91.2395777,67.2932784 90.3479199,66.7183051 L88.5184012,65.5388399 C87.634444,64.9686795 86.7549788,65.1849361 86.1158344,66.1767009 C85.5459948,67.0606581 85.5835349,67.6943479 86.1443905,68.3604442 C86.2117702,68.4583051 86.1979734,68.547503 86.1151927,68.6248292 L85.8694173,68.8035458 C85.7715563,68.8712463 85.6903798,68.8619415 85.6178665,68.7717811 C84.9046044,67.9205511 84.8526258,67.00515 85.6008611,65.8446153 C86.4681338,64.4995886 87.6812889,64.2047222 88.8880269,64.9824763 L90.7021445,66.151995 Z" id="Fill-91-Copy" transform="translate(88.429950, 67.678392) rotate(-7.000000) translate(-88.429950, -67.678392) "></path>
                        <path d="M86.2725678,76.8040137 C86.1949208,76.8941741 86.1105358,76.8938533 86.0206962,76.8165271 L81.3750277,72.8209121 C81.2848673,72.7435859 81.2720331,72.6601634 81.3496801,72.570003 L81.5466855,72.3412329 C81.6358834,72.2372757 81.7003753,72.232142 81.8043326,72.3216607 L83.9261507,74.1466875 L86.1984502,71.5047624 L84.076632,69.6800565 C83.9726748,69.5905378 83.9617657,69.5331046 84.0512844,69.4291474 L84.2479689,69.2003773 C84.3374876,69.0964201 84.4019796,69.0912864 84.5059368,69.1808051 L89.1516053,73.1764201 C89.2555625,73.2659388 89.2603753,73.3304308 89.1708566,73.434388 L88.9741721,73.6631581 C88.8846534,73.7671153 88.8259368,73.7648693 88.7223005,73.6756714 L86.6697871,71.9103238 L84.3974876,74.5519281 L86.450001,76.3172757 C86.5539582,76.4067944 86.5587711,76.4712864 86.4692523,76.5752436 L86.2725678,76.8040137 Z" id="Fill-93-Copy" transform="translate(85.266340, 72.995452) rotate(-7.000000) translate(-85.266340, -72.995452) "></path>
                        <path d="M39.5443007,70.4058739 C40.7516804,70.4058739 41.7209852,70.7337884 42.421413,71.3896172 C43.1221616,72.0454461 43.4799157,72.8655531 43.4799157,73.8643766 C43.4799157,74.967799 43.2264397,75.8023445 42.7047285,76.3542162 C42.1830173,76.905767 41.3183114,77.3976386 40.1109317,77.830152 C39.6485788,77.9642696 39.0671884,78.127906 38.7543542,78.2472643 C38.485798,78.3518632 38.3516804,78.4712215 38.3516804,78.6053392 L38.3516804,78.694537 L42.63029,78.694537 C43.1070814,78.694537 43.2713595,78.8588151 43.2713595,79.3356065 L43.2713595,80.587906 C43.2713595,81.0502589 43.1070814,81.2142162 42.63029,81.2142162 L35.9215199,81.2142162 C35.4447285,81.2142162 35.2804504,81.0502589 35.2804504,80.587906 L35.2804504,79.3952857 C35.2804504,78.4410611 35.5788461,77.7107937 36.234675,77.1740023 C36.5629103,76.9205263 36.8609852,76.7116493 37.1141403,76.5627723 C37.3676162,76.4286547 37.7256911,76.2646974 38.1726429,76.0709007 C38.5156376,75.9217028 38.7543542,75.8174247 38.8884718,75.7577456 C39.0225895,75.6980664 39.2163862,75.5937884 39.4846215,75.4445905 C39.7380975,75.3104728 39.9318943,75.1763552 40.0361723,75.0569969 C40.2450493,74.8336814 40.4686857,74.4310076 40.4686857,73.9984942 C40.4686857,73.4174247 40.0958515,73.0147509 39.454782,73.0147509 C38.843552,73.0147509 38.5008782,73.2829862 38.1578836,73.9984942 C37.9342472,74.4759274 37.8148889,74.5352857 37.3528568,74.401168 L35.7726429,73.8197777 C35.3401296,73.6558204 35.2210921,73.4472643 35.3850493,73.0147509 C36.0707178,71.2702589 37.4571349,70.4058739 39.5443007,70.4058739" id="Fill-95-Copy" transform="translate(39.380183, 75.810045) rotate(-7.000000) translate(-39.380183, -75.810045) "></path>
                        <path d="M49.8225924,73.5383907 C49.8225924,72.8078025 49.3454801,72.3903693 48.525694,72.3903693 C47.705587,72.3903693 47.2287956,72.8078025 47.2287956,73.5383907 L47.2287956,77.0414923 C47.2287956,77.7720805 47.705587,78.2042731 48.525694,78.2042731 C49.3454801,78.2042731 49.8225924,77.7720805 49.8225924,77.0414923 L49.8225924,73.5383907 Z M44.2769239,73.6574281 C44.2769239,71.2725083 45.8420576,69.7814923 48.525694,69.7814923 C51.2090095,69.7814923 52.7744641,71.2725083 52.7744641,73.6574281 L52.7744641,76.9224549 C52.7744641,79.3522944 51.2090095,80.8134709 48.525694,80.8134709 C45.8420576,80.8134709 44.2769239,79.3522944 44.2769239,76.9224549 L44.2769239,73.6574281 Z" id="Fill-97-Copy" transform="translate(48.525694, 75.297482) rotate(-7.000000) translate(-48.525694, -75.297482) "></path>
                        <path d="M58.3397083,68.9723267 C58.8168206,68.9723267 58.9660185,69.1362839 58.9660185,69.598316 L58.9660185,78.9307224 C58.9660185,79.3930754 58.8168206,79.5567117 58.3397083,79.5567117 L56.6552164,79.5567117 C56.1784249,79.5567117 56.0141468,79.3930754 56.0141468,78.9307224 L56.0141468,72.7141449 L55.0153233,73.2807759 C54.5831308,73.5191716 54.2699757,73.4296529 54.0463393,73.0273 L53.3459115,71.7599203 C53.1517939,71.3277278 53.2262324,71.1486903 53.6436656,70.8952144 L56.5509383,69.2254818 C56.8342538,69.0615246 57.1323287,68.9723267 57.4454837,68.9723267 L58.3397083,68.9723267 Z" id="Fill-99-Copy" transform="translate(56.104985, 74.264519) rotate(-7.000000) translate(-56.104985, -74.264519) "></path>
                        <path d="M62.6139092,75.2149491 C62.6139092,75.9901363 63.0759413,76.3777298 64.0003263,76.3777298 C64.9994707,76.3777298 65.3870643,76.0498154 65.3870643,75.4087459 C65.3870643,74.752917 65.0142301,74.4696015 64.0003263,74.4696015 C63.4192568,74.4696015 62.9569038,74.5289598 62.6139092,74.6483181 L62.6139092,75.2149491 Z M62.6139092,72.0692807 C63.016583,71.9948421 63.5235349,71.9499224 64.1646044,71.9499224 C67.0118771,71.9499224 68.3238557,73.0533448 68.3238557,75.3939865 C68.3238557,77.6447887 66.7285616,78.897409 64.0003263,78.897409 C61.1828932,78.897409 59.6774386,77.4660721 59.6774386,74.8870347 L59.6774386,71.8754839 C59.6774386,69.2964464 61.1979734,67.8654304 64.0003263,67.8654304 C66.1622514,67.8654304 67.5486686,68.6553769 68.1595776,70.2355908 C68.3238557,70.6979438 68.2195776,70.8766603 67.7572247,71.0406176 L66.340968,71.5921684 C65.8789359,71.7266069 65.7746579,71.6370881 65.5211819,71.1747352 C65.2975456,70.7127031 64.805353,70.4743074 64.0452461,70.4743074 C63.0464226,70.4743074 62.6139092,70.8914197 62.6139092,71.8607245 L62.6139092,72.0692807 Z" id="Fill-101-Copy" transform="translate(64.000647, 73.381420) rotate(-7.000000) translate(-64.000647, -73.381420) "></path>
                    </g>
                </g>
            </g>
        </g>
    </g>
</svg>