<?xml version="1.0" encoding="utf-8"?>
<!-- Generator: Adobe Illustrator 16.2.0, SVG Export Plug-In . SVG Version: 6.00 Build 0)  -->
<!DOCTYPE svg PUBLIC "-//W3C//DTD SVG 1.1//EN" "http://www.w3.org/Graphics/SVG/1.1/DTD/svg11.dtd">
<svg version="1.1" id="Ebene_1" xmlns:sketch="http://www.bohemiancoding.com/sketch/ns"
	 xmlns="http://www.w3.org/2000/svg" xmlns:xlink="http://www.w3.org/1999/xlink" x="0px" y="0px" width="200px" height="70px"
	 viewBox="0 0 200 70" enable-background="new 0 0 200 70" xml:space="preserve">
<title>Logo</title>
<desc>Created with Sketch.</desc>
<g transform="translate(1.000000, 0.000000)" sketch:type="MSShapeGroup">
	<path id="Fill-1" fill="#FFFFFF" d="M31.569,31.061c-3.143,0-5.701,2.696-5.701,6.011c0,3.324,2.559,5.928,5.825,5.928
		c2.638,0,4.531-1.357,5.331-3.825l0.168-0.519h-1.628l-0.095,0.26c-0.616,1.677-1.886,2.525-3.776,2.525
		c-2.285,0-4.05-1.699-4.249-4.015h9.819l0.007-0.391c0.023-1.545-0.638-3.154-1.77-4.302
		C34.439,31.656,33.042,31.061,31.569,31.061L31.569,31.061z M27.597,35.871c0.485-1.898,2.091-3.231,3.972-3.231
		c1.874,0,3.487,1.333,3.989,3.231H27.597L27.597,35.871z"/>
	<path id="Fill-2" fill="#FFFFFF" d="M42.838,40.193l-3.401-8.864h-1.676l4.391,11.423h1.371l4.392-11.423h-1.677L42.838,40.193"/>
	<path id="Fill-3" fill="#FFFFFF" d="M54.146,31.061c-3.145,0-5.702,2.696-5.702,6.011c0,3.324,2.559,5.928,5.825,5.928
		c2.639,0,4.531-1.357,5.332-3.825l0.168-0.519h-1.629l-0.095,0.26c-0.616,1.677-1.886,2.525-3.776,2.525
		c-2.283,0-4.049-1.699-4.248-4.015h9.82l0.006-0.391c0.023-1.545-0.639-3.154-1.77-4.302
		C57.016,31.656,55.619,31.061,54.146,31.061L54.146,31.061z M50.174,35.871c0.485-1.898,2.094-3.231,3.973-3.231
		c1.875,0,3.487,1.333,3.99,3.231H50.174L50.174,35.871z"/>
	<path id="Fill-4" fill="#FFFFFF" d="M67.105,31.061c-1.354,0-2.559,0.474-3.439,1.329v-1.061h-1.559v11.423h1.559v-6.814
		c0-1.903,1.471-3.338,3.42-3.338c2.061,0,3.195,1.186,3.195,3.338v6.814h1.557v-6.814C71.838,32.929,70.025,31.061,67.105,31.061"
		/>
	<path id="Fill-5" fill="#FFFFFF" d="M82.561,36.634v1.696c0,1.832-1.279,3.111-3.111,3.111c-1.805,0-3.111-1.31-3.111-3.111v-5.444
		h7.408v-1.557h-7.408v-2.27h-1.559v9.271c0,2.707,1.964,4.67,4.67,4.67c2.705,0,4.668-1.963,4.668-4.67v-1.696H82.561"/>
	<path id="Fill-6" fill="#FFFFFF" d="M87.229,27h0.764v15.355h-0.764V27z"/>
	<path id="Fill-7" fill="#FFFFFF" d="M101.777,37.072c0,3.053-2.395,5.531-5.324,5.531c-2.911,0-5.305-2.479-5.305-5.531
		c0-3.097,2.395-5.614,5.305-5.614C99.384,31.458,101.777,33.976,101.777,37.072L101.777,37.072z M100.994,37.072
		c0-2.704-2.023-4.891-4.541-4.891c-2.498,0-4.541,2.187-4.541,4.891c0,2.641,2.043,4.809,4.541,4.809
		C98.971,41.881,100.994,39.713,100.994,37.072L100.994,37.072z"/>
	<path id="Fill-8" fill="#FFFFFF" d="M105.596,38.805v3.551h-0.763V27h0.763v10.753l6.232-6.026h1.095l-4.024,3.88l4.541,6.748
		h-0.93l-4.169-6.19L105.596,38.805"/>
	<path id="Fill-9" fill="#FFFFFF" d="M125.307,42.355h-0.765v-2.562c-0.867,1.673-2.56,2.81-4.54,2.81
		c-2.932,0-5.305-2.479-5.305-5.531c0-3.097,2.373-5.614,5.305-5.614c1.98,0,3.673,1.155,4.54,2.847v-2.579h0.765V42.355
		L125.307,42.355z M120.002,32.243c-2.498,0-4.542,2.166-4.542,4.829c0,2.619,2.044,4.766,4.542,4.766
		c2.496,0,4.54-2.146,4.54-4.766C124.542,34.409,122.498,32.243,120.002,32.243L120.002,32.243z"/>
	<path id="Fill-10" fill="#FFFFFF" d="M129.391,27h0.764v15.355h-0.764V27z"/>
	<path id="Fill-11" fill="#FFFFFF" d="M134.076,37.031c0.02,2.764,2.085,4.807,4.662,4.807c2.498,0,3.634-1.382,4.15-2.785h0.803
		c-0.742,2.291-2.455,3.551-4.953,3.551c-3.031,0-5.426-2.437-5.426-5.53c0-3.097,2.373-5.614,5.303-5.614
		c3.179,0,5.346,2.89,5.305,5.573L134.076,37.031L134.076,37.031z M143.096,36.268c-0.371-2.292-2.25-4.023-4.479-4.023
		c-2.249,0-4.107,1.732-4.458,4.023H143.096L143.096,36.268z"/>
	<path id="Fill-12" fill="#FFFFFF" d="M146.499,40.436h0.765v1.92h-0.765V40.436z"/>
	<path id="Fill-13" fill="#FFFFFF" d="M154.961,42.604c-2.932,0-5.304-2.479-5.304-5.53c0-3.097,2.372-5.614,5.304-5.614
		c2.354,0,4.189,1.403,4.912,3.55h-0.825c-0.683-1.693-2.188-2.766-4.087-2.766c-2.497,0-4.539,2.166-4.539,4.829
		c0,2.619,2.042,4.766,4.539,4.766c1.962,0,3.467-1.072,4.105-2.785h0.807C159.172,41.199,157.313,42.604,154.961,42.604"/>
	<path id="Fill-14" fill="#FFFFFF" d="M172.132,42.355h-0.765v-6.42c0-2.332-1.258-3.734-3.592-3.734
		c-2.146,0-3.816,1.59-3.816,3.734v6.42h-0.764V27h0.764v6.522c0.764-1.259,2.146-2.063,3.839-2.063
		c2.724,0,4.334,1.713,4.334,4.479V42.355"/>
</g>
</svg>
