<?xml version="1.0" encoding="utf-8"?>
<!-- Generator: Adobe Illustrator 16.0.3, SVG Export Plug-In . SVG Version: 6.00 Build 0)  -->
<!DOCTYPE svg PUBLIC "-//W3C//DTD SVG 1.1//EN" "http://www.w3.org/Graphics/SVG/1.1/DTD/svg11.dtd">
<svg version="1.1" id="Ebene_1" xmlns="http://www.w3.org/2000/svg" xmlns:xlink="http://www.w3.org/1999/xlink" x="0px" y="0px"
	 width="30px" height="30px" viewBox="0 0 30 30" enable-background="new 0 0 30 30" xml:space="preserve">
<title>Herz Weiss</title>
<desc>Created with Sketch.</desc>
<g id="Page-1_1_">
	<g id="Eventlokale-Styleguide_1_" transform="translate(-568.000000, -8151.000000)">
		<g id="Kalender" transform="translate(569.000000, 8151.000000)">
			<g id="calendar">
				<g id="Layer_1">
					<rect id="Rectangle-path" x="4" y="6" fill="none" stroke="#FFFFFF" stroke-width="2" width="20" height="20"/>
					<path id="Shape" fill="none" stroke="#FFFFFF" stroke-width="2" d="M4,10h20"/>
					<path id="Shape_1_" fill="none" stroke="#FFFFFF" stroke-width="2" d="M20,8V4"/>
					<path id="Shape_2_" fill="none" stroke="#FFFFFF" stroke-width="2" d="M8,8V4"/>
					<rect id="Rectangle-path_1_" x="19" y="13" fill="#FFFFFF" width="2" height="2"/>
					<rect id="Rectangle-path_2_" x="19" y="17" fill="#FFFFFF" width="2" height="2"/>
					<rect id="Rectangle-path_3_" x="15" y="13" fill="#FFFFFF" width="2" height="2"/>
					<rect id="Rectangle-path_4_" x="15" y="17" fill="#FFFFFF" width="2" height="2"/>
					<rect id="Rectangle-path_5_" x="11" y="13" fill="#FFFFFF" width="2" height="2"/>
					<rect id="Rectangle-path_6_" x="11" y="17" fill="#FFFFFF" width="2" height="2"/>
					<rect id="Rectangle-path_7_" x="7" y="17" fill="#FFFFFF" width="2" height="2"/>
					<rect id="Rectangle-path_8_" x="15" y="21" fill="#FFFFFF" width="2" height="2"/>
					<rect id="Rectangle-path_9_" x="11" y="21" fill="#FFFFFF" width="2" height="2"/>
					<rect id="Rectangle-path_10_" x="7" y="21" fill="#FFFFFF" width="2" height="2"/>
				</g>
			</g>
		</g>
	</g>
</g>
</svg>
