<?xml version="1.0" encoding="utf-8"?>
<!-- Generator: Adobe Illustrator 16.0.3, SVG Export Plug-In . SVG Version: 6.00 Build 0)  -->
<!DOCTYPE svg PUBLIC "-//W3C//DTD SVG 1.1//EN" "http://www.w3.org/Graphics/SVG/1.1/DTD/svg11.dtd">
<svg version="1.1" id="Ebene_1" xmlns="http://www.w3.org/2000/svg" xmlns:xlink="http://www.w3.org/1999/xlink" x="0px" y="0px"
	 width="85px" height="85px" viewBox="-33 -31 85 85" enable-background="new -33 -31 85 85" xml:space="preserve">
<g id="Eventmagazin">
	<g id="Magazin-Post" transform="translate(-343.000000, -1015.000000)">
		<g id="Group-4" transform="translate(338.000000, 1010.000000)">
			<path id="Shape-Copy" fill="#FFFFFF" d="M23.004,7.988C20.749,5.74,17.749,4.501,14.549,4.5C7.963,4.5,2.604,9.834,2.602,16.392
				c-0.004,2.096,0.546,4.141,1.594,5.944L2.5,28.5l6.336-1.656c1.742,0.951,3.709,1.448,5.71,1.449h0.004l0,0
				c6.585,0,11.948-5.332,11.95-11.89C26.5,13.223,25.258,10.234,23.004,7.988z M14.549,26.282h-0.003
				c-1.782-0.001-3.529-0.476-5.054-1.374l-0.363-0.213L5.37,25.672l1.001-3.644l-0.235-0.374c-0.995-1.574-1.517-3.395-1.517-5.261
				c0.001-5.45,4.457-9.885,9.933-9.885c2.652,0,5.149,1.03,7.024,2.901c1.875,1.867,2.907,4.35,2.905,6.99
				C24.48,21.85,20.025,26.282,14.549,26.282z M20,18.885c-0.301-0.152-1.771-0.868-2.039-0.972
				c-0.276-0.098-0.479-0.146-0.675,0.152c-0.202,0.294-0.771,0.966-0.942,1.161c-0.178,0.201-0.35,0.226-0.65,0.079
				c-0.3-0.152-1.262-0.464-2.402-1.476c-0.888-0.79-1.486-1.763-1.661-2.06c-0.174-0.3-0.017-0.458,0.13-0.607
				c0.136-0.132,0.301-0.348,0.45-0.522c0.147-0.171,0.199-0.297,0.298-0.495c0.101-0.198,0.049-0.373-0.025-0.52
				c-0.074-0.149-0.671-1.613-0.922-2.205c-0.24-0.581-0.487-0.501-0.671-0.511c-0.175-0.01-0.374-0.01-0.573-0.01
				s-0.521,0.076-0.796,0.373C9.25,11.569,8.478,12.29,8.478,13.75c0,1.463,1.069,2.878,1.219,3.076s2.106,3.197,5.104,4.484
				c0.709,0.305,1.268,0.49,1.697,0.628c0.719,0.228,1.371,0.192,1.886,0.117c0.571-0.088,1.765-0.721,2.015-1.411
				c0.246-0.696,0.246-1.289,0.172-1.411C20.496,19.104,20.295,19.031,20,18.885z"/>
		</g>
	</g>
</g>
</svg>
