<?xml version="1.0" encoding="utf-8"?>
<!-- Generator: Adobe Illustrator 16.0.3, SVG Export Plug-In . SVG Version: 6.00 Build 0)  -->
<!DOCTYPE svg PUBLIC "-//W3C//DTD SVG 1.1//EN" "http://www.w3.org/Graphics/SVG/1.1/DTD/svg11.dtd">
<svg version="1.1" id="Ebene_1" xmlns="http://www.w3.org/2000/svg" xmlns:xlink="http://www.w3.org/1999/xlink" x="0px" y="0px"
	 width="30px" height="30px" viewBox="0 0 30 30" enable-background="new 0 0 30 30" xml:space="preserve">
<title>Share Blau</title>
<desc>Created with Sketch.</desc>
<g id="Page-1">
	<g id="Eventlokale-Styleguide" transform="translate(-377.000000, -8539.000000)">
		<g id="Share-Blau" transform="translate(378.000000, 8540.000000)">
			<g id="Group-32">
				<path id="Stroke-3-Copy-2" fill="none" stroke="#FFFFFF" stroke-width="2" d="M27.822,13.894
					c0,7.673-6.221,13.893-13.894,13.893c-7.673,0-13.894-6.22-13.894-13.893S6.255,0,13.929,0C21.602,0,27.822,6.221,27.822,13.894
					L27.822,13.894z"/>
				<path id="Shape" fill="#FFFFFF" d="M18.334,5c-1.474,0-2.668,1.209-2.668,2.7c0,0.176,0.024,0.339,0.057,0.506l-6.334,3.741
					c-0.465-0.4-1.063-0.647-1.722-0.647C6.194,11.3,5,12.509,5,14s1.194,2.7,2.667,2.7c0.659,0,1.257-0.247,1.722-0.647
					l6.334,3.741c-0.032,0.167-0.057,0.329-0.057,0.506c0,1.491,1.194,2.7,2.668,2.7C19.807,23,21,21.791,21,20.3
					s-1.193-2.7-2.666-2.7c-0.659,0-1.258,0.247-1.723,0.647l-6.333-3.741c0.032-0.167,0.056-0.329,0.056-0.506
					s-0.024-0.339-0.056-0.506l6.333-3.741c0.465,0.4,1.063,0.647,1.723,0.647C19.807,10.4,21,9.191,21,7.7S19.807,5,18.334,5
					L18.334,5z"/>
			</g>
		</g>
	</g>
</g>
</svg>
