<?xml version="1.0" encoding="utf-8"?>
<!-- Generator: Adobe Illustrator 16.2.0, SVG Export Plug-In . SVG Version: 6.00 Build 0)  -->
<!DOCTYPE svg PUBLIC "-//W3C//DTD SVG 1.1//EN" "http://www.w3.org/Graphics/SVG/1.1/DTD/svg11.dtd">
<svg version="1.1" id="Ebene_1" xmlns="http://www.w3.org/2000/svg" xmlns:xlink="http://www.w3.org/1999/xlink" x="0px" y="0px"
	 width="30px" height="60px" viewBox="0 0 30 60" enable-background="new 0 0 30 60" xml:space="preserve">
<title>Suche Weiss</title>
<desc>Created with Sketch.</desc>
<g id="Page-1">
	<g id="Eventlokale-Styleguide" transform="translate(-423.000000, -8306.000000)">
		<g id="Suche-Weiss" transform="translate(424.000000, 8307.000000)">
			<g id="Group-Copy-2">
				<g id="Group-7-Copy-3">
					<path id="Stroke-3" fill="none" stroke="#FFFFFF" stroke-width="2" d="M27.895,14c0,7.673-6.222,13.894-13.895,13.894
						S0.106,21.673,0.106,14S6.327,0.106,14,0.106S27.895,6.327,27.895,14L27.895,14z"/>
				</g>
				
					<g id="Group-3" transform="translate(13.118835, 14.336613) rotate(-315.000000) translate(-13.118835, -14.336613) translate(8.338835, 5.838835)">
					<g id="Group-7-Copy-3_1_">
						<path id="Stroke-3_1_" fill="none" stroke="#FFFFFF" stroke-width="2" d="M9.551,4.772c0.001,2.62-2.123,4.743-4.743,4.743
							c-2.619,0-4.743-2.124-4.743-4.744c0-2.62,2.124-4.744,4.743-4.743C7.43,0.027,9.553,2.15,9.551,4.772L9.551,4.772z"/>
					</g>
					<rect id="Rectangle-755" x="3.224" y="9.56" fill="#FFFFFF" width="3.188" height="7.436"/>
				</g>
			</g>
		</g>
	</g>
</g>
<polygon id="Shape_1_" fill="#FFFFFF" points="23.75,38 22,36.25 15,43.25 8,36.25 6.25,38 13.25,45 6.25,52 8,53.75 15,46.75 
	22,53.75 23.75,52 16.75,45 "/>
</svg>
