<?xml version="1.0" encoding="utf-8"?>
<!-- Generator: Adobe Illustrator 16.0.3, SVG Export Plug-In . SVG Version: 6.00 Build 0)  -->
<!DOCTYPE svg PUBLIC "-//W3C//DTD SVG 1.1//EN" "http://www.w3.org/Graphics/SVG/1.1/DTD/svg11.dtd">
<svg version="1.1" id="Ebene_1" xmlns="http://www.w3.org/2000/svg" xmlns:xlink="http://www.w3.org/1999/xlink" x="0px" y="0px"
	 width="85px" height="85px" viewBox="0 0 85 85" enable-background="new 0 0 85 85" xml:space="preserve">
<title>Twitter Pop</title>
<desc>Created with Sketch.</desc>
<path id="Twitter-Icon" fill="#FFFFFF" d="M52.045,37.603c0.008,0.214,0.012,0.429,0.012,0.633c0,6.51-4.952,14.014-14.009,14.014
	c-2.684-0.002-5.309-0.771-7.548-2.212c0.39,0.042,0.782,0.065,1.174,0.067c2.228,0,4.387-0.746,6.116-2.114
	c-2.129-0.051-3.984-1.426-4.603-3.411c0.306,0.06,0.617,0.089,0.929,0.088c0.44,0.002,0.878-0.057,1.301-0.176
	c-2.325-0.491-3.976-2.506-3.953-4.823V39.61c0.684,0.374,1.449,0.584,2.232,0.614c-2.171-1.484-2.83-4.33-1.524-6.578
	c2.463,3.06,6.162,4.935,10.148,5.146c-0.085-0.368-0.127-0.744-0.127-1.121c-0.035-2.683,2.169-4.887,4.924-4.921
	c1.368,0,2.672,0.563,3.592,1.549c1.107-0.212,2.167-0.615,3.129-1.189c-0.359,1.132-1.13,2.099-2.166,2.719
	c0.977-0.114,1.932-0.374,2.828-0.77C53.842,36.042,53.012,36.903,52.045,37.603L52.045,37.603z"/>
</svg>
