<?xml version="1.0" encoding="utf-8"?>
<!-- Generator: Adobe Illustrator 16.0.3, SVG Export Plug-In . SVG Version: 6.00 Build 0)  -->
<!DOCTYPE svg PUBLIC "-//W3C//DTD SVG 1.1//EN" "http://www.w3.org/Graphics/SVG/1.1/DTD/svg11.dtd">
<svg version="1.1" id="Ebene_1" xmlns="http://www.w3.org/2000/svg" xmlns:xlink="http://www.w3.org/1999/xlink" x="0px" y="0px"
	 width="70px" height="70px" viewBox="0 0 70 70" enable-background="new 0 0 70 70" xml:space="preserve">
<title>Location Off</title>
<desc>Created with Sketch.</desc>
<g id="Page-1">
	<g id="Eventlokale-Styleguide" transform="translate(-550.000000, -8313.000000)">
		<g id="Location-Off" transform="translate(550.000000, 8313.000000)">
			<g id="Group">
				<path id="Shape" fill="#FFFFFF" d="M35,22.297l-0.719,0.688l-13,13l1.438,1.438L24,36.141v10.563v1h1h7h1v-1v-9h4v9v1h1h7h1v-1
					V36.141l1.281,1.281l1.438-1.439l-13-12.999L35,22.297L35,22.297z M44,34.142v11.563h-5v-9v-1h-1h-6h-1v1v9h-5V34.142l9-9
					L44,34.142z"/>
			</g>
		</g>
	</g>
</g>
</svg>
