<?xml version="1.0" encoding="utf-8"?>
<!-- Generator: Adobe Illustrator 16.0.3, SVG Export Plug-In . SVG Version: 6.00 Build 0)  -->
<!DOCTYPE svg PUBLIC "-//W3C//DTD SVG 1.1//EN" "http://www.w3.org/Graphics/SVG/1.1/DTD/svg11.dtd">
<svg version="1.1" id="Ebene_1" xmlns="http://www.w3.org/2000/svg" xmlns:xlink="http://www.w3.org/1999/xlink" x="0px" y="0px"
	 width="30px" height="30px" viewBox="-4 -3 30 30" enable-background="new -4 -3 30 30" xml:space="preserve">
<title>Konzert</title>
<desc>Created with Sketch.</desc>
<g id="Page-1">
	<g id="Eventlokale-Styleguide" transform="translate(-870.000000, -8762.000000)">
		<g id="Konzert" transform="translate(871.000000, 8763.000000)">
			<g id="music_conductor">
				<g id="Layer_1">
					<circle id="Oval" fill="none" stroke="#7F7F7F" stroke-width="2" cx="10" cy="3" r="3"/>
					<polyline id="Shape" fill="none" stroke="#7F7F7F" stroke-width="2" points="6,9 6,17 8,17 8,22 12,22 12,17 14,17 14,9 					
						"/>
					<path id="Shape_1_" fill="none" stroke="#7F7F7F" stroke-width="2" d="M0,7l2.75,3.667c0.138,0.184,0.399,0.221,0.583,0.083
						L6.466,8.4C6.812,8.14,7.233,8,7.666,8H8.5l1.5,4l1.5-4h0.833c0.433,0,0.854,0.14,1.2,0.4l3.133,2.35
						c0.184,0.138,0.445,0.101,0.583-0.083L20,7"/>
					<path id="Shape_2_" fill="none" stroke="#7F7F7F" d="M19.997,9.991L17.005,2"/>
				</g>
			</g>
		</g>
	</g>
</g>
</svg>
