<?xml version="1.0" encoding="utf-8"?>
<!-- Generator: Adobe Illustrator 16.0.3, SVG Export Plug-In . SVG Version: 6.00 Build 0)  -->
<!DOCTYPE svg PUBLIC "-//W3C//DTD SVG 1.1//EN" "http://www.w3.org/Graphics/SVG/1.1/DTD/svg11.dtd">
<svg version="1.1" id="Ebene_1" xmlns="http://www.w3.org/2000/svg" xmlns:xlink="http://www.w3.org/1999/xlink" x="0px" y="0px"
	 width="30px" height="30px" viewBox="-4 -4 30 30" enable-background="new -4 -4 30 30" xml:space="preserve">
<title>Land</title>
<desc>Created with Sketch.</desc>
<g id="Page-1">
	<g id="Eventlokale-Styleguide" transform="translate(-758.000000, -8763.000000)">
		<g id="Land" transform="translate(758.000000, 8763.000000)">
			<g id="Group-2">
				<g id="Field">
					<path id="Shape" fill="#7F7F7F" d="M5,0v2.156C4.636,2.25,4.285,2.376,3.969,2.563l-1.5-1.5L1.063,2.469l1.5,1.5
						C2.376,4.285,2.25,4.636,2.156,5H0v2h2.156c0.078,0.276,0.183,0.562,0.313,0.813C3.02,7.585,3.638,7.353,4.344,7.125
						C4.13,6.806,4,6.412,4,6c0-1.103,0.897-2,2-2s2,0.897,2,2c0,0.056-0.026,0.102-0.031,0.156C9.162,5.908,10.511,5.683,12,5.5V5
						H9.844C9.75,4.64,9.589,4.314,9.406,4l1.531-1.531L9.531,1.063l-1.5,1.5C7.713,2.371,7.368,2.221,7,2.125V0H5L5,0z M21,7
						C13.061,7,7.939,8.022,4.781,9.063c-1.579,0.52-2.664,1.026-3.375,1.438s-1.094,0.781-1.094,0.781L0,11.563V12v9v1h1h20h1v-1V8
						V7H21L21,7z M20,9.063v1.969C11.084,11.33,4.825,15.438,2,17.75V12.5c0.105-0.079,0.082-0.063,0.406-0.25
						c0.584-0.338,1.574-0.833,3.031-1.313C8.201,10.027,12.918,9.158,20,9.063L20,9.063z M20,13.031v2.063
						C14.521,15.835,10.36,19.351,9.625,20H2.469C4.419,18.221,10.56,13.365,20,13.031L20,13.031z M20,17.125V20h-6.938
						C14.78,18.88,17.248,17.563,20,17.125L20,17.125z"/>
				</g>
			</g>
		</g>
	</g>
</g>
</svg>
