<?xml version="1.0" encoding="utf-8"?>
<!-- Generator: Adobe Illustrator 16.0.3, SVG Export Plug-In . SVG Version: 6.00 Build 0)  -->
<!DOCTYPE svg PUBLIC "-//W3C//DTD SVG 1.1//EN" "http://www.w3.org/Graphics/SVG/1.1/DTD/svg11.dtd">
<svg version="1.1" id="Ebene_1" xmlns="http://www.w3.org/2000/svg" xmlns:xlink="http://www.w3.org/1999/xlink" x="0px" y="0px"
	 width="30px" height="30px" viewBox="-3 -3 30 30" enable-background="new -3 -3 30 30" xml:space="preserve">
<title>Schloss</title>
<desc>Created with Sketch.</desc>
<g id="Page-1">
	<g id="Eventlokale-Styleguide" transform="translate(-459.000000, -8762.000000)">
		<g id="Schloss" transform="translate(460.000000, 8762.000000)">
			<g id="basilica">
				<g id="Layer_1">
					<path id="Shape" fill="none" stroke="#7F7F7F" stroke-width="2" d="M15,9.5v-3c0-2.209-1.791-4-4-4s-4,1.791-4,4v3"/>
					<path id="Shape_1_" fill="none" stroke="#7F7F7F" stroke-width="2" d="M22,9.5v-1c0-1.105-0.895-2-2-2s-2,0.895-2,2v1"/>
					<path id="Shape_2_" fill="none" stroke="#7F7F7F" stroke-width="2" d="M4,9.5v-1c0-1.105-0.895-2-2-2s-2,0.895-2,2v1"/>
					<path id="Shape_3_" fill="none" stroke="#7F7F7F" stroke-width="2" d="M11,2.5v-2"/>
					<path id="Shape_4_" fill="none" stroke="#7F7F7F" stroke-width="2" d="M20,6.5v-2"/>
					<path id="Shape_5_" fill="none" stroke="#7F7F7F" stroke-width="2" d="M2,6.5v-2"/>
					<polygon id="Shape_6_" fill="none" stroke="#7F7F7F" stroke-width="2" points="0,11.5 0,23.5 8,23.5 8,19.5 11,18.5 14,19.5 
						14,23.5 22,23.5 22,11.5 					"/>
					<rect id="Rectangle-path" x="17" y="18.5" fill="#7F7F7F" width="2" height="2"/>
					<rect id="Rectangle-path_1_" x="17" y="14.5" fill="#7F7F7F" width="2" height="2"/>
					<rect id="Rectangle-path_2_" x="3" y="18.5" fill="#7F7F7F" width="2" height="2"/>
					<rect id="Rectangle-path_3_" x="3" y="14.5" fill="#7F7F7F" width="2" height="2"/>
					<rect id="Rectangle-path_4_" x="13" y="14.5" fill="#7F7F7F" width="2" height="2"/>
					<rect id="Rectangle-path_5_" x="13" y="6.5" fill="#7F7F7F" width="2" height="3"/>
					<rect id="Rectangle-path_6_" x="10" y="6.5" fill="#7F7F7F" width="2" height="3"/>
					<rect id="Rectangle-path_7_" x="7" y="6.5" fill="#7F7F7F" width="2" height="3"/>
					<rect id="Rectangle-path_8_" x="7" y="14.5" fill="#7F7F7F" width="2" height="2"/>
				</g>
			</g>
		</g>
	</g>
</g>
</svg>
