<?xml version="1.0" encoding="utf-8"?>
<!-- Generator: Adobe Illustrator 16.2.0, SVG Export Plug-In . SVG Version: 6.00 Build 0)  -->
<!DOCTYPE svg PUBLIC "-//W3C//DTD SVG 1.1//EN" "http://www.w3.org/Graphics/SVG/1.1/DTD/svg11.dtd">
<svg version="1.1" id="Ebene_1" xmlns="http://www.w3.org/2000/svg" xmlns:xlink="http://www.w3.org/1999/xlink" x="0px" y="0px"
	 width="24px" height="24px" viewBox="3 0 24 24" enable-background="new 3 0 24 24" xml:space="preserve">
<title>Share Blau</title>
<desc>Created with Sketch.</desc>
<path id="Shape" fill="#2A5571" d="M20.334,3c-1.474,0-2.668,1.209-2.668,2.7c0,0.176,0.024,0.339,0.057,0.506l-6.334,3.741
	C10.924,9.547,10.325,9.3,9.667,9.3C8.194,9.3,7,10.509,7,12s1.194,2.7,2.667,2.7c0.659,0,1.257-0.247,1.722-0.647l6.334,3.741
	c-0.032,0.167-0.057,0.329-0.057,0.506c0,1.491,1.194,2.7,2.668,2.7C21.807,21,23,19.791,23,18.3s-1.193-2.7-2.666-2.7
	c-0.659,0-1.258,0.247-1.723,0.647l-6.334-3.741c0.032-0.167,0.057-0.329,0.057-0.506s-0.024-0.339-0.057-0.506l6.334-3.741
	c0.465,0.4,1.063,0.647,1.723,0.647C21.807,8.4,23,7.191,23,5.7S21.807,3,20.334,3L20.334,3z"/>
</svg>
