<?xml version="1.0" encoding="UTF-8" standalone="no"?>
<svg
   xmlns:dc="http://purl.org/dc/elements/1.1/"
   xmlns:cc="http://creativecommons.org/ns#"
   xmlns:rdf="http://www.w3.org/1999/02/22-rdf-syntax-ns#"
   xmlns:svg="http://www.w3.org/2000/svg"
   xmlns="http://www.w3.org/2000/svg"
   height="22.004087"
   viewBox="0 0 16.499997 16.532131"
   width="21.999996"
   version="1.1"
   id="svg8">
  <metadata
     id="metadata14">
    <rdf:RDF>
      <cc:Work
         rdf:about="">
        <dc:format>image/svg+xml</dc:format>
        <dc:type
           rdf:resource="http://purl.org/dc/dcmitype/StillImage" />
        <dc:title></dc:title>
      </cc:Work>
    </rdf:RDF>
  </metadata>
  <defs
     id="defs12" />
  <path
     d="M 16.47252,4.8605147 C 16.433789,3.9820877 16.291739,3.3781768 16.088249,2.8548848 15.878326,2.2994178 15.555367,1.8021189 15.132241,1.3887059 14.718828,0.96885792 14.218243,0.64261994 13.669212,0.435974 13.14289,0.232485 12.542136,0.090431 11.663713,0.0517 10.778729,0.00968 10.497781,0 8.2532172,0 6.0086531,0 5.7277041,0.0099 4.8460012,0.0484 3.9675783,0.08712 3.3636704,0.229306 2.8405023,0.432674 2.2849121,0.64259794 1.7876059,0.96555792 1.3741934,1.3886839 0.95434685,1.8020969 0.62823405,2.3026848 0.42146469,2.8517058 0.21797537,3.3781548 0.07592392,3.9787877 0.03719408,4.8572037 -0.0048158,5.7421866 -0.01452979,6.0231376 -0.01452979,8.2677094 c 0,2.2445616 0.0097141,2.5255126 0.04844389,3.4072176 0.03872989,0.878416 0.1809074,1.482327 0.38439672,2.005619 0.20992334,0.555467 0.53603614,1.052766 0.95588268,1.466179 0.4134125,0.419848 0.9139987,0.746086 1.4630288,0.952732 0.5264482,0.203489 1.127076,0.345543 2.0056251,0.384274 0.8815767,0.03883 1.1626519,0.0484 3.407216,0.0484 2.2445636,0 2.5255126,-0.0099 3.4072156,-0.0484 0.878424,-0.03872 1.482331,-0.180785 2.005499,-0.384274 1.111055,-0.429561 1.989477,-1.307977 2.419037,-2.418911 0.203364,-0.526449 0.345541,-1.127203 0.384271,-2.005619 0.03873,-0.881705 0.04844,-1.162656 0.04844,-3.4072176 0,-2.2445718 -0.0033,-2.5255228 -0.04201,-3.4072167 z m -1.488764,6.7498423 c -0.03557,0.807389 -0.171194,1.243385 -0.284229,1.534049 -0.277795,0.720225 -0.849407,1.29184 -1.569631,1.569634 -0.290663,0.113036 -0.729811,0.248655 -1.534054,0.284097 -0.87199,0.03883 -1.133511,0.0484 -3.3393447,0.0484 -2.2058343,0 -2.4706354,-0.0099 -3.3394705,-0.0484 C 4.1096298,14.962717 3.6736352,14.827076 3.3829722,14.71404 3.0245636,14.581578 2.6983247,14.371654 2.4335237,14.097138 2.1590086,13.829057 1.9490854,13.506097 1.8166217,13.147684 1.7035862,12.85702 1.5679687,12.417746 1.5325189,11.613635 1.4936625,10.741643 1.4840749,10.479997 1.4840749,8.2741554 c 0,-2.2058298 0.00959,-2.4706328 0.048444,-3.3393357 0.03545,-0.8074 0.1710673,-1.243396 0.2841028,-1.5340599 0.1324637,-0.358534 0.3423869,-0.684651 0.620182,-0.949575 0.267955,-0.274516 0.5909139,-0.4844399 0.9494486,-0.6167699 0.290663,-0.113036 0.7299375,-0.248655 1.5340546,-0.284229 0.871989,-0.03872 1.1336361,-0.0484 3.3393443,-0.0484 2.2091138,0 2.4706338,0.0099 3.3394708,0.0484 0.807397,0.03553 1.243391,0.171193 1.534054,0.284229 0.358409,0.13233 0.684648,0.3422539 0.949449,0.6167699 0.274515,0.268081 0.484437,0.591041 0.616902,0.949575 0.113035,0.2906639 0.248652,0.7298169 0.284229,1.5340599 0.03873,0.8719809 0.04844,1.1335059 0.04844,3.3393357 0,2.2058416 -0.0097,2.4642096 -0.04844,3.3362016 z m 0,0"
     id="path2"
     style="fill:#2a5571;stroke-width:0.03229589" />
  <path
     d="m 8.2532172,4.0208187 c -2.3446057,0 -4.2469091,1.9021749 -4.2469091,4.2469127 0,2.3447276 1.9023034,4.2469026 4.2469091,4.2469026 2.3447318,0 4.2469088,-1.902175 4.2469088,-4.2469026 0,-2.3447378 -1.902177,-4.2469127 -4.2469088,-4.2469127 z m 0,7.0017753 c -1.5210606,0 -2.7548644,-1.2336837 -2.7548644,-2.7548626 0,-1.5211899 1.2338038,-2.7548728 2.7548644,-2.7548728 1.5211867,0 2.7548638,1.2336829 2.7548638,2.7548728 0,1.5211789 -1.2336771,2.7548626 -2.7548638,2.7548626 z m 0,0"
     id="path4"
     style="fill:#2a5571;stroke-width:0.03229589" />
  <path
     d="m 13.659624,3.8529037 c 0,0.547514 -0.443942,0.991463 -0.991585,0.991463 -0.547516,0 -0.991458,-0.443949 -0.991458,-0.991463 0,-0.5476459 0.443942,-0.9914629 0.991458,-0.9914629 0.547643,0 0.991585,0.443817 0.991585,0.9914629 z m 0,0"
     id="path6"
     style="fill:#2a5571;stroke-width:0.03229589" />
</svg>
