<svg xmlns="http://www.w3.org/2000/svg" viewBox="0 0 32 32" width="64" height="64">
    <path d="M 8.5 4 C 5.4666667 4 3 6.4666667 3 9.5 C 3 12.533333 5.4666667 15 8.5 15 C 9.3107102 15 10.076277 14.795659 10.78125 14.46875 L 16 21.34375 L 16 27 L 12 27 L 12 29 L 22 29 L 22 27 L 18 27 L 18 21.34375 L 26.8125 9.71875 L 27 9.4375 L 27 9.09375 L 27 9 L 27 8 L 26 8 L 13.75 8 C 13.143571 5.6798279 10.983979 4 8.5 4 z M 8.5 6 C 9.8915493 6 11.090722 6.8407954 11.625 8 L 8 8 L 7 8 L 7 9 L 7 9.09375 L 7 9.4375 L 7.1875 9.71875 L 9.53125 12.8125 C 9.1875607 12.933039 8.8356733 13 8.5 13 C 6.5333333 13 5 11.466667 5 9.5 C 5 7.5333333 6.5333333 6 8.5 6 z M 9.9375 10 L 24.0625 10 L 22.5625 12 L 13.5 12 L 15 14 L 21.03125 14 L 17 19.34375 L 9.9375 10 z" fill="#606060"/>
</svg>