<svg xmlns="http://www.w3.org/2000/svg" viewBox="0 0 32 32" width="64" height="64">
    <path style="text-indent:0;text-align:start;line-height:normal;text-transform:none;block-progression:tb;-inkscape-font-specification:Sans" d="M 10 5 L 10 7.15625 C 9.6359392 7.250334 9.2850831 7.3760506 8.96875 7.5625 L 7.46875 6.0625 L 6.0625 7.46875 L 7.5625 8.96875 C 7.3760506 9.2850831 7.250334 9.6359392 7.15625 10 L 5 10 L 5 12 L 7.15625 12 C 7.234045 12.276617 7.3387398 12.56127 7.46875 12.8125 C 8.01975 12.5855 8.63775 12.353 9.34375 12.125 C 9.12975 11.806 9 11.412 9 11 C 9 9.897 9.897 9 11 9 C 12.103 9 13 9.897 13 11 C 13 11.056 12.97375 11.10225 12.96875 11.15625 C 14.16175 10.90825 15.511 10.683 17 10.5 L 17 10 L 14.84375 10 C 14.750186 9.6399764 14.589383 9.3137645 14.40625 9 L 15.9375 7.46875 L 14.53125 6.0625 L 13.03125 7.5625 C 12.712707 7.3709876 12.368351 7.2213341 12 7.125 L 12 5 L 10 5 z M 26 12 C 18.061118 12 12.939401 13.022437 9.78125 14.0625 C 8.2021745 14.582531 7.117249 15.088423 6.40625 15.5 C 5.695251 15.911577 5.3125 16.28125 5.3125 16.28125 L 5 16.5625 L 5 17 L 5 26 L 5 27 L 6 27 L 26 27 L 27 27 L 27 26 L 27 13 L 27 12 L 26 12 z M 25 14.0625 L 25 16.03125 C 16.084175 16.329588 9.8249235 20.437758 7 22.75 L 7 17.5 C 7.105467 17.42098 7.081372 17.43806 7.40625 17.25 C 7.990876 16.911577 8.9800755 16.417469 10.4375 15.9375 C 13.200461 15.027584 17.917459 14.157662 25 14.0625 z M 25 18.03125 L 25 20.09375 C 19.521575 20.835055 15.360274 24.350521 14.625 25 L 7.46875 25 C 9.4189462 23.221067 15.559471 18.365743 25 18.03125 z M 25 22.125 L 25 25 L 18.0625 25 C 19.780373 23.879769 22.247434 22.562522 25 22.125 z" fill="#606060"/>
</svg>