<svg xmlns="http://www.w3.org/2000/svg" viewBox="0 0 32 32" width="64" height="64">
    <path style="text-indent:0;text-align:start;line-height:normal;text-transform:none;block-progression:tb;-inkscape-font-specification:Bitstream Vera Sans" d="M 16 5.875 L 15.5625 6.09375 L 7.5625 10.09375 L 7 10.375 L 7 11 L 7 13.28125 L 1.59375 15.6875 L 1 15.96875 L 1 16.59375 L 1 25 L 1 26 L 2 26 L 11 26 L 12 26 L 12 25 L 12 19 L 20 19 L 20 25 L 20 26 L 21 26 L 30 26 L 31 26 L 31 25 L 31 16.59375 L 31 15.96875 L 30.40625 15.6875 L 25 13.28125 L 25 11 L 25 10.375 L 24.4375 10.09375 L 16.4375 6.09375 L 16 5.875 z M 16 8.125 L 23 11.625 L 23 13.90625 L 23 14.53125 L 23.59375 14.8125 L 29 17.21875 L 29 24 L 22 24 L 22 18 L 22 17 L 21 17 L 11 17 L 10 17 L 10 18 L 10 24 L 3 24 L 3 17.21875 L 8.40625 14.8125 L 9 14.53125 L 9 13.90625 L 9 11.625 L 16 8.125 z M 15 12 L 15 15 L 17 15 L 17 12 L 15 12 z" fill="#606060" overflow="visible" font-family="Bitstream Vera Sans"/>
</svg>