<svg xmlns="http://www.w3.org/2000/svg" viewBox="0 0 32 32" width="64" height="64">
    <path style="text-indent:0;text-align:start;line-height:normal;text-transform:none;block-progression:tb;-inkscape-font-specification:Sans" d="M 16 4 C 15.581522 4 15.274058 4.1990487 15.0625 4.375 C 14.850942 4.5509513 14.710666 4.7220393 14.5625 4.9375 C 14.266167 5.3684214 13.99449 5.9090495 13.71875 6.5625 C 13.386074 7.350878 13.027851 8.5904047 12.6875 9.6875 C 12.285183 9.2987379 11.744235 9 11.21875 9 C 10.661143 9 10.262607 9.2659691 9.9375 9.5625 C 9.6123926 9.8590309 9.3417628 10.245225 9.0625 10.6875 C 8.5039743 11.57205 7.9482837 12.761731 7.375 14.28125 C 6.2284325 17.320289 5.0480921 21.61385 4.03125 26.8125 L 3.78125 28 L 5 28 L 10.125 28 L 12 28 L 12.78125 28 L 12.96875 27.25 C 13.198713 26.37167 13.64363 25.213106 14.21875 24.34375 C 14.79387 23.474394 15.398859 23 16 23 C 16.601141 23 17.178752 23.441498 17.75 24.3125 C 18.321248 25.183502 18.774609 26.383006 19.03125 27.28125 L 19.25 28 L 20 28 L 21.96875 28 L 27 28 L 28.1875 28 L 28 26.8125 C 27.259927 22.581422 26.368179 19.053096 25.53125 16.53125 C 25.112785 15.270327 24.725973 14.281163 24.3125 13.53125 C 24.105764 13.156294 23.8827 12.83265 23.625 12.5625 C 23.3673 12.29235 23.031477 12 22.46875 12 C 21.497372 12 21.010152 12.638514 20.5 13.40625 C 20.4167 13.531615 20.332186 13.795417 20.25 13.9375 C 19.746596 11.745161 19.255154 9.387033 18.78125 7.9375 C 18.430621 6.8650291 18.081938 5.9941793 17.71875 5.34375 C 17.537156 5.0185353 17.374858 4.7458965 17.125 4.5 C 16.875142 4.2541035 16.497104 4 16 4 z M 16.03125 6.4375 C 16.273234 6.8929662 16.565486 7.5845391 16.875 8.53125 C 17.532242 10.541558 18.279489 13.518689 19.03125 17.1875 L 19.8125 21 L 20.96875 17.3125 C 21.383684 15.978989 21.801902 15.033264 22.15625 14.5 C 22.375229 14.170455 22.308063 14.227331 22.34375 14.1875 C 22.41175 14.2833 22.474695 14.340749 22.5625 14.5 C 22.873808 15.064618 23.26109 15.965548 23.65625 17.15625 C 24.352946 19.255543 25.053862 22.485547 25.71875 26 L 21.96875 26 L 20.65625 26 C 20.359918 25.103544 20.035823 24.131035 19.4375 23.21875 C 18.684748 22.071002 17.552859 21 16 21 C 14.447141 21 13.32288 22.069356 12.5625 23.21875 C 11.962617 24.125537 11.631211 25.097706 11.34375 26 L 10.125 26 L 6.25 26 C 7.1897396 21.46889 8.2554613 17.636078 9.25 15 C 9.7938413 13.558519 10.313244 12.4417 10.75 11.75 C 10.962238 11.413874 11.160312 11.175946 11.28125 11.0625 C 11.28765 11.0681 11.26195 11.03636 11.34375 11.125 C 11.507355 11.302286 11.772969 11.701277 12.09375 12.40625 L 13.25 14.96875 L 13.96875 12.25 C 14.510968 10.216683 15.072229 8.505599 15.5625 7.34375 C 15.741449 6.9196751 15.887575 6.6882934 16.03125 6.4375 z" fill="#606060" overflow="visible" font-family="Sans"/>
</svg>