<svg xmlns="http://www.w3.org/2000/svg" viewBox="0 0 32 32" width="64" height="64">
    <path style="text-indent:0;text-align:start;line-height:normal;text-transform:none;block-progression:tb;-inkscape-font-specification:Bitstream Vera Sans" d="M 16 3.3125 L 15.46875 3.65625 L 8.46875 8.15625 L 8 8.46875 L 8 9 L 8 9.46875 L 3.5 12.15625 L 3 12.4375 L 3 13 L 3 14 L 3 15 L 4 15 L 5 15 L 5 27 L 5 28 L 6 28 L 26 28 L 27 28 L 27 27 L 27 15 L 28 15 L 29 15 L 29 14 L 29 13 L 29 12.4375 L 28.5 12.15625 L 24 9.46875 L 24 9 L 24 8.46875 L 23.53125 8.15625 L 16.53125 3.65625 L 16 3.3125 z M 16 5.6875 L 21.15625 9 L 10.84375 9 L 16 5.6875 z M 9.25 11 L 22.75 11 L 26.09375 13 L 5.90625 13 L 9.25 11 z M 7 15 L 19 15 L 19 21 L 19 22 L 20 22 L 25 22 L 25 26 L 7 26 L 7 15 z M 21 15 L 25 15 L 25 20 L 21 20 L 21 15 z M 10 16 L 10 17 L 10 21 L 10 22 L 11 22 L 15 22 L 16 22 L 16 21 L 16 17 L 16 16 L 15 16 L 11 16 L 10 16 z M 12 18 L 14 18 L 14 20 L 12 20 L 12 18 z" fill="#606060" overflow="visible" font-family="Bitstream Vera Sans"/>
</svg>