<?xml version="1.0" encoding="utf-8"?>
<!-- Generator: Adobe Illustrator 16.0.3, SVG Export Plug-In . SVG Version: 6.00 Build 0)  -->
<!DOCTYPE svg PUBLIC "-//W3C//DTD SVG 1.1//EN" "http://www.w3.org/Graphics/SVG/1.1/DTD/svg11.dtd">
<svg version="1.1" id="Ebene_1" xmlns="http://www.w3.org/2000/svg" xmlns:xlink="http://www.w3.org/1999/xlink" x="0px" y="0px"
	 width="30px" height="30px" viewBox="-2 -4 30 30" enable-background="new -2 -4 30 30" xml:space="preserve">
<title>Berge</title>
<desc>Created with Sketch.</desc>
<g id="Page-1">
	<g id="Eventlokale-Styleguide" transform="translate(-644.000000, -8763.000000)">
		<g id="Berge" transform="translate(644.000000, 8763.000000)">
			<g id="Earth-Element">
				<path id="Shape" fill="#7F7F7F" d="M10.063,0.047L9.281,0.984L0,12.703l1.563,1.25l8.531-10.781l7.375,8.75L19,10.641
					l-2.969-3.5l1-1.125l7.5,8l1.438-1.375l-8.25-8.781l-0.75-0.813L16.25,3.859l-1.5,1.719l-3.906-4.594L10.063,0.047L10.063,0.047
					z M0,15.953v2h26v-2H0L0,15.953z M0,19.953v2h26v-2H0L0,19.953z"/>
			</g>
		</g>
	</g>
</g>
</svg>
