<svg xmlns="http://www.w3.org/2000/svg" viewBox="0 0 32 32" width="64" height="64">
    <path style="text-indent:0;text-align:start;line-height:normal;text-transform:none;block-progression:tb;-inkscape-font-specification:Bitstream Vera Sans" d="M 12 5 L 12 9 L 14 9 L 14 5 L 12 5 z M 16 6 L 16 9 L 18 9 L 18 6 L 16 6 z M 5 10 L 5 11 L 5 19 C 5 21.749516 7.2504839 24 10 24 L 20 24 C 22.749516 24 25 21.749516 25 19 L 26 19 C 27.64497 19 29 17.64497 29 16 L 29 11 L 29 10 L 28 10 L 25 10 L 24 10 L 6 10 L 5 10 z M 7 12 L 23 12 L 23 19 C 23 20.668484 21.668484 22 20 22 L 10 22 C 8.3315161 22 7 20.668484 7 19 L 7 12 z M 25 12 L 27 12 L 27 16 C 27 16.56503 26.56503 17 26 17 L 25 17 L 25 12 z M 4 25 L 4 27 L 26 27 L 26 25 L 4 25 z" fill="#606060" overflow="visible" font-family="Bitstream Vera Sans"/>
</svg>