<?xml version="1.0" encoding="utf-8"?>
<!-- Generator: Adobe Illustrator 16.0.3, SVG Export Plug-In . SVG Version: 6.00 Build 0)  -->
<!DOCTYPE svg PUBLIC "-//W3C//DTD SVG 1.1//EN" "http://www.w3.org/Graphics/SVG/1.1/DTD/svg11.dtd">
<svg version="1.1" id="Ebene_1" xmlns:sketch="http://www.bohemiancoding.com/sketch/ns"
	 xmlns="http://www.w3.org/2000/svg" xmlns:xlink="http://www.w3.org/1999/xlink" x="0px" y="0px" width="300px" height="70px"
	 viewBox="-50 0 300 70" enable-background="new -50 0 300 70" xml:space="preserve">
<title>Logo</title>
<desc>Created with Sketch.</desc>
<g transform="translate(1.000000, 0.000000)" sketch:type="MSShapeGroup">
	<path id="Fill-1" d="M-11.642,28.54c-5.159,0-9.358,4.428-9.358,9.882c0,5.439,4.203,9.705,9.567,9.705
		c4.309,0,7.427-2.248,8.733-6.286l0.29-0.825h-2.677l-0.169,0.396c-0.999,2.761-3.085,4.152-6.178,4.152
		c-3.751,0-6.652-2.788-6.982-6.586h16.123l0.009-0.651c0.032-2.543-1.049-5.17-2.909-7.053C-6.937,29.509-9.238,28.54-11.642,28.54
		L-11.642,28.54z M-18.168,36.427c0.799-3.103,3.427-5.298,6.526-5.298c3.07,0,5.725,2.195,6.547,5.298H-18.168L-18.168,36.427z"/>
	<path id="Fill-2" d="M6.853,43.506L1.266,28.984h-2.742l7.194,18.725h2.248l7.217-18.725h-2.764L6.853,43.506"/>
	<path id="Fill-3" d="M25.402,28.54c-5.161,0-9.359,4.428-9.359,9.882c0,5.439,4.2,9.705,9.565,9.705
		c4.331,0,7.426-2.248,8.737-6.286l0.287-0.825h-2.675l-0.15,0.396c-1.018,2.761-3.107,4.152-6.199,4.152
		c-3.746,0-6.649-2.788-6.979-6.586h16.124l0.006-0.651c0.032-2.543-1.047-5.17-2.907-7.053
		C30.107,29.509,27.826,28.54,25.402,28.54L25.402,28.54z M18.876,36.427c0.8-3.103,3.449-5.298,6.527-5.298
		c3.072,0,5.725,2.195,6.552,5.298H18.876L18.876,36.427z"/>
	<path id="Fill-4" d="M46.656,28.54c-2.222,0-4.182,0.764-5.64,2.169v-1.725h-2.56v18.725h2.56V36.556c0-3.126,2.424-5.5,5.615-5.5
		c3.385,0,5.247,1.955,5.247,5.5v11.153h2.559V36.556C54.438,31.602,51.45,28.54,46.656,28.54"/>
	<path id="Fill-5" d="M72.031,37.666v2.785c0,3.012-2.102,5.113-5.113,5.113c-2.956,0-5.096-2.146-5.096-5.113v-8.929h12.144v-2.539
		H61.822v-3.728h-2.561v15.195c0,4.442,3.213,7.676,7.656,7.676c4.44,0,7.671-3.233,7.671-7.676v-2.785H72.031"/>
	<path id="Fill-6" d="M79.682,21.873h1.261v25.218h-1.261V21.873z"/>
	<path id="Fill-7" d="M103.542,38.422c0,4.992-3.902,9.048-8.727,9.048c-4.763,0-8.699-4.057-8.699-9.048
		c0-5.096,3.94-9.241,8.699-9.241C99.644,29.181,103.542,33.327,103.542,38.422L103.542,38.422z M102.276,38.422
		c0-4.462-3.315-8.039-7.461-8.039c-4.101,0-7.438,3.577-7.438,8.039c0,4.313,3.338,7.86,7.438,7.86
		C98.961,46.282,102.276,42.735,102.276,38.422L102.276,38.422z"/>
	<path id="Fill-8" d="M109.816,41.26v5.831h-1.239V21.873h1.239v17.633l10.241-9.88h1.771l-6.594,6.361l7.456,11.104h-1.503
		l-6.874-10.183L109.816,41.26"/>
	<path id="Fill-9" d="M142.163,47.091h-1.242v-4.208c-1.423,2.717-4.204,4.587-7.46,4.587c-4.794,0-8.696-4.057-8.696-9.048
		c0-5.096,3.902-9.241,8.696-9.241c3.256,0,6.037,1.909,7.46,4.673v-4.229h1.242V47.091L142.163,47.091z M133.461,30.468
		c-4.081,0-7.463,3.566-7.463,7.954c0,4.281,3.382,7.806,7.463,7.806c4.117,0,7.46-3.524,7.46-7.806
		C140.921,34.035,137.578,30.468,133.461,30.468L133.461,30.468z"/>
	<path id="Fill-10" d="M148.878,21.873h1.24v25.218h-1.24V21.873z"/>
	<path id="Fill-11" d="M156.574,38.324c0.025,4.562,3.396,7.903,7.623,7.903c4.12,0,5.987-2.283,6.811-4.594h1.33
		c-1.208,3.76-4.021,5.836-8.141,5.836c-4.965,0-8.902-3.996-8.902-9.045c0-5.096,3.91-9.241,8.694-9.241
		c5.248,0,8.8,4.753,8.702,9.143L156.574,38.324L156.574,38.324z M171.367,37.084c-0.626-3.757-3.701-6.61-7.37-6.61
		c-3.661,0-6.711,2.854-7.311,6.61H171.367L171.367,37.084z"/>
	<path id="Fill-12" d="M176.96,43.918h1.241v3.173h-1.241V43.918z"/>
	<path id="Fill-13" d="M190.838,47.47c-4.831,0-8.701-4.056-8.701-9.045c0-5.096,3.87-9.241,8.701-9.241
		c3.84,0,6.861,2.31,8.043,5.83h-1.364c-1.091-2.782-3.578-4.544-6.679-4.544c-4.118,0-7.46,3.569-7.46,7.952
		c0,4.281,3.342,7.808,7.46,7.808c3.227,0,5.673-1.779,6.742-4.587h1.301C197.726,45.158,194.676,47.47,190.838,47.47"/>
	<path id="Fill-14" d="M219,47.091h-1.235V36.554c0-3.856-2.075-6.142-5.889-6.142c-3.564,0-6.278,2.603-6.278,6.142v10.537h-1.279
		V21.873h1.279v10.696c1.24-2.053,3.525-3.387,6.306-3.387c4.465,0,7.097,2.81,7.097,7.374V47.091"/>
</g>
</svg>
