<svg xmlns="http://www.w3.org/2000/svg" viewBox="0 0 32 32" width="64" height="64">
    <path style="text-indent:0;text-align:start;line-height:normal;text-transform:none;block-progression:tb;-inkscape-font-specification:Bitstream Vera Sans" d="M 16.28125 5 C 16.109316 5.0062344 15.929706 5.0265251 15.75 5.0625 C 15.031177 5.2063996 14.27834 5.5662966 13.40625 6.1875 L 14.59375 7.8125 C 15.31716 7.2972034 15.810604 7.1004442 16.15625 7.03125 C 16.501896 6.9620558 16.704668 6.9905858 17 7.09375 C 17.590664 7.3000785 18.519866 8 20 8 L 20 6 C 19.178134 6 18.692336 5.5806715 17.65625 5.21875 C 17.267718 5.0830294 16.797051 4.9812967 16.28125 5 z M 8.6875 6.03125 C 8.3674412 6.0259452 8.021469 6.0829057 7.6875 6.21875 C 7.0195621 6.4904386 6.4179319 7.018062 5.8125 7.8125 L 7.40625 9.03125 C 7.8883181 8.398688 8.2526566 8.1689364 8.4375 8.09375 C 8.6223434 8.018564 8.7052167 8.0095 8.96875 8.09375 C 9.4958166 8.2622502 10.496987 9 12 9 L 12 7 C 11.201013 7 10.605683 6.5209998 9.5625 6.1875 C 9.3017041 6.1041251 9.0075588 6.0365548 8.6875 6.03125 z M 23.21875 7.03125 C 23.059613 7.0405015 22.885227 7.0530071 22.71875 7.09375 C 22.052843 7.2567216 21.442778 7.6632613 20.84375 8.3125 L 22.3125 9.6875 C 22.739472 9.2247387 23.00147 9.0767784 23.1875 9.03125 C 23.37353 8.9857216 23.560344 9.0176367 23.875 9.125 C 24.504311 9.3397267 25.526961 10 27 10 L 27 8 C 26.171039 8 25.500189 7.5600233 24.5 7.21875 C 24.12493 7.0907725 23.69616 7.0034954 23.21875 7.03125 z M 16 10 C 11.662915 10 8.734272 11.034917 6.875 12.125 C 5.015728 13.215083 4.15625 14.4375 4.15625 14.4375 L 4 14.6875 L 4 15 L 4 26 L 4 27 L 5 27 L 14 27 L 15 27 L 15 26 L 15 22 L 17 22 L 17 26 L 17 27 L 18 27 L 27 27 L 28 27 L 28 26 L 28 15 L 28 14.6875 L 27.84375 14.4375 C 27.84375 14.4375 26.984272 13.215083 25.125 12.125 C 23.265728 11.034917 20.337085 10 16 10 z M 16 12 C 20.017915 12 22.573022 12.965083 24.125 13.875 C 25.559401 14.715982 25.928793 15.331848 26 15.4375 L 26 25 L 19 25 L 19 21 L 19 20 L 18 20 L 14 20 L 13 20 L 13 21 L 13 25 L 6 25 L 6 15.4375 C 6.0712066 15.331848 6.4405994 14.715982 7.875 13.875 C 9.426978 12.965083 11.982085 12 16 12 z M 9 16 L 9 18 L 11 18 L 11 16 L 9 16 z M 13 16 L 13 18 L 15 18 L 15 16 L 13 16 z M 17 16 L 17 18 L 19 18 L 19 16 L 17 16 z M 21 16 L 21 18 L 23 18 L 23 16 L 21 16 z M 9 20 L 9 22 L 11 22 L 11 20 L 9 20 z M 21 20 L 21 22 L 23 22 L 23 20 L 21 20 z" fill="#606060" overflow="visible" font-family="Bitstream Vera Sans"/>
</svg>