<?xml version="1.0" encoding="utf-8"?>
<!-- Generator: Adobe Illustrator 16.0.3, SVG Export Plug-In . SVG Version: 6.00 Build 0)  -->
<!DOCTYPE svg PUBLIC "-//W3C//DTD SVG 1.1//EN" "http://www.w3.org/Graphics/SVG/1.1/DTD/svg11.dtd">
<svg version="1.1" id="Ebene_1" xmlns="http://www.w3.org/2000/svg" xmlns:xlink="http://www.w3.org/1999/xlink" x="0px" y="0px"
	 width="29px" height="30px" viewBox="0 0 29 30" enable-background="new 0 0 29 30" xml:space="preserve">
<title>Print Blau</title>
<desc>Created with Sketch.</desc>
<path id="Stroke-3-Copy-3" fill="none" stroke="#2A5571" stroke-width="2" d="M27.83,14.894c0,7.673-6.006,13.893-13.415,13.893
	C7.006,28.787,1,22.567,1,14.894S7.006,1,14.415,1C21.824,1,27.83,7.221,27.83,14.894L27.83,14.894z"/>
<path id="Facebook-Icon-Copy" fill="#2A5571" d="M12.362,15.768H9.249v-3.147h3.113v-2.377C12.362,7.507,14.214,6,16.955,6
	c1.314,0,2.465,0.083,2.794,0.119v2.901h-1.95c-1.489,0-1.769,0.631-1.769,1.56v2.04h3.567l-0.464,3.147H16.03V24h-3.675
	L12.362,15.768z"/>
</svg>
