<svg xmlns="http://www.w3.org/2000/svg" viewBox="0 0 32 32" width="64" height="64">
    <path style="text-indent:0;text-align:start;line-height:normal;text-transform:none;block-progression:tb;-inkscape-font-specification:Bitstream Vera Sans" d="M 16 4.96875 L 15.75 5.03125 L 3.75 8.03125 L 3 8.21875 L 3 9 L 3 23 L 3 24 L 4 24 L 5 24 C 5 25.645455 6.3545455 27 8 27 C 9.6454545 27 11 25.645455 11 24 L 21 24 C 21 25.645455 22.354545 27 24 27 C 25.645455 27 27 25.645455 27 24 L 28 24 L 29 24 L 29 23 L 29 9 L 29 8.21875 L 28.25 8.03125 L 16.25 5.03125 L 16 4.96875 z M 16 7.03125 L 27 9.78125 L 27 22 L 25 22 L 25 13 L 25 12 L 24 12 L 18 12 L 17 12 L 17 13 L 17 22 L 5 22 L 5 9.78125 L 16 7.03125 z M 7 12 L 7 13 L 7 17 L 7 18 L 8 18 L 14 18 L 15 18 L 15 17 L 15 13 L 15 12 L 14 12 L 8 12 L 7 12 z M 9 14 L 13 14 L 13 16 L 9 16 L 9 14 z M 19 14 L 23 14 L 23 22 L 21.75 22 L 19 22 L 19 14 z M 7 24 L 9 24 C 9 24.554545 8.5545455 25 8 25 C 7.4454545 25 7 24.554545 7 24 z M 23 24 L 24 24 L 25 24 C 25 24.554545 24.554545 25 24 25 C 23.445455 25 23 24.554545 23 24 z" fill="#606060" overflow="visible" font-family="Bitstream Vera Sans"/>
</svg>