<svg xmlns="http://www.w3.org/2000/svg" viewBox="0 0 32 32" width="64" height="64">
    <path style="text-indent:0;text-align:start;line-height:normal;text-transform:none;block-progression:tb;-inkscape-font-specification:Bitstream Vera Sans" d="M 11 5 C 7.6983746 5 5 7.6983746 5 11 L 5 12 L 7 12 L 7 11 C 7 8.7796254 8.7796254 7 11 7 C 13.059925 7 14.705371 8.5369085 14.9375 10.53125 C 14.358915 10.203849 13.708271 10 13 10 C 10.802666 10 9 11.802666 9 14 L 11 14 C 11 12.883334 11.883334 12 13 12 C 14.116666 12 15 12.883334 15 14 L 15 15 L 17 15 L 17 14 C 17 13.860417 17.004915 13.724772 17.03125 13.59375 C 17.215593 12.676595 18.022917 12 19 12 C 20.116666 12 21 12.883334 21 14 L 23 14 C 23 11.802666 21.197334 10 19 10 C 18.725333 10 18.447083 10.040167 18.1875 10.09375 C 17.778823 10.178109 17.416244 10.331626 17.0625 10.53125 C 17.294629 8.5369085 18.940075 7 21 7 C 23.220375 7 25 8.7796254 25 11 L 25 12 L 27 12 L 27 11 C 27 7.6983746 24.301625 5 21 5 C 18.908471 5 17.070026 6.0878164 16 7.71875 C 14.924438 6.0904327 13.08786 5 11 5 z M 5 13 L 5 15 L 7 15 L 7 13 L 5 13 z M 25 13 L 25 15 L 27 15 L 27 13 L 25 13 z M 5 16 L 5 18 L 7 18 L 7 16 L 5 16 z M 8 16 L 8 17 C 8 19.197334 9.8026661 21 12 21 L 13 21 L 13 22 L 5 22 L 4 22 L 4 23 C 4 25.197334 5.8026661 27 8 27 L 24 27 C 26.197334 27 28 25.197334 28 23 L 28 22 L 27 22 L 19 22 L 19 21 L 20 21 C 22.197334 21 24 19.197334 24 17 L 24 16 L 23 16 L 9 16 L 8 16 z M 25 16 L 25 18 L 27 18 L 27 16 L 25 16 z M 10.4375 18 L 21.5625 18 C 21.210082 18.55689 20.717456 19 20 19 L 12 19 C 11.282544 19 10.789918 18.55689 10.4375 18 z M 5 19 L 5 21 L 7 21 L 7 19 L 5 19 z M 25 19 L 25 21 L 27 21 L 27 19 L 25 19 z M 15 21 L 17 21 L 17 22 L 15 22 L 15 21 z M 6.4375 24 L 25.5625 24 C 25.210082 24.55689 24.717456 25 24 25 L 8 25 C 7.2825444 25 6.7899179 24.55689 6.4375 24 z" fill="#606060"/>
</svg>