<?xml version="1.0" encoding="UTF-8"?>
<svg width="46px" height="46px" viewBox="-3 -3 28 28" version="1.1" xmlns="http://www.w3.org/2000/svg" xmlns:xlink="http://www.w3.org/1999/xlink">
    <!-- Generator: Sketch 43.2 (39069) - http://www.bohemiancoding.com/sketch -->
    <title>Gebäudeart Hochzeitslocation</title>
    <desc>Created with Sketch.</desc>
    <defs></defs>
    <g id="Page-1" stroke="none" stroke-width="1" fill="none" fill-rule="evenodd">
        <g id="Gebäudeart-Hochzeitslocation" fill-rule="nonzero" fill="#606060">
            <g id="Gebäudeart--Hochzeitslocation">
                <path d="M13.1757143,6.52 C12.2254857,6.52 11.4254143,7.1174848 11.04,7.4652448 C10.6545857,7.1174848 9.85451428,6.52 8.90428572,6.52 C7.54531428,6.52 6.44,7.6341568 6.44,9.004 C6.44,9.861808 7.21707143,10.6424464 7.24828571,10.6735792 L11.04,14.4956272 L14.8297429,10.6755664 C14.8629286,10.6424464 15.64,9.861808 15.64,9.004 C15.64,7.6341568 14.5346857,6.52 13.1757143,6.52 Z M11.04,0.89125 L10.81,0.94875 L0.69,3.70875 L0,3.91 L0,4.6 L0,22.08 L0,23 L0.92,23 L9.2,23 L10.12,23 L10.12,22.08 L10.12,19.32 L11.96,19.32 L11.96,22.08 L11.96,23 L12.88,23 L21.16,23 L22.08,23 L22.08,22.08 L22.08,4.6 L22.08,3.91 L21.39,3.70875 L11.27,0.94875 L11.04,0.89125 Z M11.04,2.78875 L20.24,5.29 L20.24,21.16 L13.8,21.16 L13.8,18.4 L13.8,17.48 L12.88,17.48 L9.2,17.48 L8.28,17.48 L8.28,18.4 L8.28,21.16 L1.84,21.16 L1.84,5.29 L11.04,2.78875 Z" id="Shape"></path>
            </g>
        </g>
    </g>
</svg>