<svg xmlns="http://www.w3.org/2000/svg" viewBox="0 0 32 32" width="64" height="64">
    <path style="text-indent:0;text-align:start;line-height:normal;text-transform:none;block-progression:tb;-inkscape-font-specification:Sans" d="M 15.875 4 L 15.78125 4.03125 L 7.78125 5.90625 L 7 6.09375 L 7 6.875 L 7 25.5 L 7 26.34375 L 7.8125 26.46875 L 15.8125 27.96875 L 15.90625 28 L 16 28 L 17 28 L 18 28 L 18 27 L 18 5 L 18 4 L 17 4 L 16 4 L 15.875 4 z M 20 6 L 20 8 L 23 8 L 23 24 L 20 24 L 20 26 L 24 26 L 25 26 L 25 25 L 25 7 L 25 6 L 24 6 L 20 6 z M 16 6.03125 L 16 26 L 9 24.6875 L 9 7.65625 L 16 6.03125 z M 14.34375 15 C 13.975376 15 13.65625 15.447715 13.65625 16 C 13.65625 16.552285 13.975376 17 14.34375 17 C 14.712124 17 15 16.552285 15 16 C 15 15.447715 14.712124 15 14.34375 15 z" overflow="visible" font-family="Sans" fill="#606060"/>
</svg>