<svg xmlns="http://www.w3.org/2000/svg" viewBox="0 0 32 32" width="64" height="64">
    <path style="text-indent:0;text-align:start;line-height:normal;text-transform:none;block-progression:tb;-inkscape-font-specification:Bitstream Vera Sans" d="M 15 4 L 15 5.09375 C 12.727282 5.5620977 11 7.5941734 11 10 L 11 13 L 12 13 L 13 13 L 14 13 L 14 10 L 13 10 C 13 8.3315161 14.331516 7 16 7 C 17.668484 7 19 8.3315161 19 10 L 18 10 L 18 13 L 19 13 L 20 13 L 21 13 L 21 10 C 21 7.5941734 19.272718 5.5620977 17 5.09375 L 17 4 L 15 4 z M 6 8 L 6 9.1875 C 4.8442639 9.605727 4 10.708013 4 12 L 4 13 L 6 13 L 6 12 C 6 11.43497 6.4349698 11 7 11 C 7.5650302 11 8 11.43497 8 12 L 8 13 L 10 13 L 10 12 C 10 10.708013 9.1557361 9.605727 8 9.1875 L 8 8 L 6 8 z M 24 8 L 24 9.1875 C 22.844264 9.605727 22 10.708013 22 12 L 22 13 L 24 13 L 24 12 C 24 11.43497 24.43497 11 25 11 C 25.56503 11 26 11.43497 26 12 L 26 13 L 28 13 L 28 12 C 28 10.708013 27.155736 9.605727 26 9.1875 L 26 8 L 24 8 z M 15 10 L 15 13 L 17 13 L 17 10 L 15 10 z M 4 14 L 4 15 L 4 27 L 4 28 L 5 28 L 13 28 L 14 28 L 14 27 L 14 23.71875 L 16 23.03125 L 18 23.71875 L 18 27 L 18 28 L 19 28 L 27 28 L 28 28 L 28 27 L 28 15 L 28 14 L 27 14 L 5 14 L 4 14 z M 6 16 L 26 16 L 26 26 L 20 26 L 20 23 L 20 22.28125 L 19.3125 22.0625 L 16.3125 21.0625 L 16 20.9375 L 15.6875 21.0625 L 12.6875 22.0625 L 12 22.28125 L 12 23 L 12 26 L 6 26 L 6 16 z M 8 18 L 8 20 L 10 20 L 10 18 L 8 18 z M 12 18 L 12 20 L 14 20 L 14 18 L 12 18 z M 18 18 L 18 20 L 20 20 L 20 18 L 18 18 z M 22 18 L 22 20 L 24 20 L 24 18 L 22 18 z M 8 22 L 8 24 L 10 24 L 10 22 L 8 22 z M 22 22 L 22 24 L 24 24 L 24 22 L 22 22 z" fill="#606060"/>
</svg>