<?xml version="1.0" encoding="UTF-8"?>
<svg width="46px" height="46px" viewBox="-3 -3 28 28" version="1.1" xmlns="http://www.w3.org/2000/svg" xmlns:xlink="http://www.w3.org/1999/xlink">
    <!-- Generator: Sketch 43.2 (39069) - http://www.bohemiancoding.com/sketch -->
    <title>Gebäudeart Eventlocation</title>
    <desc>Created with Sketch.</desc>
    <defs></defs>
    <g id="Page-1" stroke="none" stroke-width="1" fill="none" fill-rule="evenodd">
        <g id="Gebäudeart-Eventlocation" fill-rule="nonzero" fill="#606060">
            <g id="Gebäudeart--Eventlocation">
                <path d="M11.04,0.83375 L10.66625,1.00625 L0.54625,5.49125 L0,5.75 L0,6.325 L0,22.08 L0,23 L0.92,23 L21.16,23 L22.08,23 L22.08,22.08 L22.08,6.325 L22.08,5.75 L21.53375,5.49125 L11.41375,1.00625 L11.04,0.83375 Z M11.04,2.84625 L20.24,6.9575 L20.24,21.16 L18.4,21.16 L18.4,9.2 L18.4,8.28 L17.48,8.28 L4.6,8.28 L3.68,8.28 L3.68,9.2 L3.68,21.16 L1.84,21.16 L1.84,6.9575 L11.04,2.84625 Z M5.52,10.12 L16.56,10.12 L16.56,21.16 L5.52,21.16 L5.52,10.12 Z" id="Shape"></path>
            </g>
        </g>
    </g>
</svg>