<svg xmlns="http://www.w3.org/2000/svg" viewBox="0 0 32 32" width="64" height="64">
    <path d="M 16 2.6875 L 15.375 3.21875 L 12.375 5.71875 L 12.03125 6 L 11 6 L 11 8 L 12 8 L 12 10 L 11 10 L 11 12 L 11.75 12 L 8 27 L 10 27 L 10.25 25.96875 L 21.03125 23.09375 L 22 27 L 24 27 L 20.25 12 L 21 12 L 21 10 L 20 10 L 20 8 L 21 8 L 21 6 L 19.96875 6 L 19.625 5.71875 L 16.625 3.21875 L 16 2.6875 z M 14 8 L 18 8 L 18 10 L 14 10 L 14 8 z M 13.75 12 L 18.25 12 L 18.75 13.96875 L 12.875 15.53125 L 13.75 12 z M 19.46875 16.90625 L 20.3125 20.1875 L 11.09375 22.625 L 12.03125 18.875 L 19.46875 16.90625 z" fill="#606060"/>
</svg>