<?xml version="1.0" encoding="UTF-8"?>
<svg width="52px" height="46px" viewBox="-3 -3 31 28" version="1.1" xmlns="http://www.w3.org/2000/svg" xmlns:xlink="http://www.w3.org/1999/xlink">
    <!-- Generator: Sketch 43.2 (39069) - http://www.bohemiancoding.com/sketch -->
    <title>Gebäudeart Hangar, Werft</title>
    <desc>Created with Sketch.</desc>
    <defs></defs>
    <g id="Page-1" stroke="none" stroke-width="1" fill="none" fill-rule="evenodd">
        <g id="Gebäudeart-Hangar,-Werft" fill-rule="nonzero" fill="#606060">
            <g id="Gebäudeart--Hangar,-Werft">
                <path d="M13,0.90625 L12.625,1.0625 L0.625,6.0625 L0,6.34375 L0,7 L0,22 L0,23 L1,23 L25,23 L26,23 L26,22 L26,7 L26,6.34375 L25.375,6.0625 L13.375,1.0625 L13,0.90625 Z M13,3.09375 L24,7.6875 L24,21 L22,21 L22,11 L22,10 L21,10 L5,10 L4,10 L4,11 L4,21 L2,21 L2,7.6875 L13,3.09375 Z M6,12 L20,12 L20,21 L6,21 L6,12 Z" id="Shape"></path>
            </g>
        </g>
    </g>
</svg>