<?xml version="1.0" encoding="utf-8"?>
<!-- Generator: Adobe Illustrator 16.0.3, SVG Export Plug-In . SVG Version: 6.00 Build 0)  -->
<!DOCTYPE svg PUBLIC "-//W3C//DTD SVG 1.1//EN" "http://www.w3.org/Graphics/SVG/1.1/DTD/svg11.dtd">
<svg version="1.1" id="Ebene_1" xmlns="http://www.w3.org/2000/svg" xmlns:xlink="http://www.w3.org/1999/xlink" x="0px" y="0px"
	 width="29px" height="30px" viewBox="0 0 29 30" enable-background="new 0 0 29 30" xml:space="preserve">
<title>Print Blau</title>
<desc>Created with Sketch.</desc>
<path id="Stroke-3-Copy-3" fill="none" stroke="#2A5571" stroke-width="2" d="M27.83,14.894c0,7.673-6.006,13.893-13.415,13.893
	C7.006,28.787,1,22.567,1,14.894S7.006,1,14.415,1C21.824,1,27.83,7.221,27.83,14.894L27.83,14.894z"/>
<path id="Google_x2B_-Icon-Copy" fill="#2A5571" d="M11.226,14.174v1.981h3.248c-0.128,0.856-0.982,2.496-3.248,2.496
	c-1.953,0-3.55-1.638-3.55-3.651c0-2.016,1.597-3.652,3.55-3.652c1.116,0,1.859,0.478,2.281,0.891l1.56-1.513
	c-0.997-0.942-2.295-1.513-3.841-1.513C8.062,9.213,5.5,11.802,5.5,15s2.562,5.787,5.726,5.787c3.306,0,5.498-2.351,5.498-5.655
	c0-0.381-0.036-0.668-0.088-0.958H11.226z M23.5,14.174h-1.637v-1.653h-1.638v1.653h-1.638v1.652h1.638v1.654h1.638v-1.654H23.5
	V14.174z"/>
</svg>
