<svg xmlns="http://www.w3.org/2000/svg" viewBox="0 0 32 32" width="64" height="64">
    <path style="text-indent:0;text-align:start;line-height:normal;text-transform:none;block-progression:tb;-inkscape-font-specification:Sans" d="M 9 4 L 9 5 L 6 5 L 5 5 L 5 6 L 5 26 L 5 27 L 6 27 L 26 27 L 27 27 L 27 26 L 27 6 L 27 5 L 26 5 L 23 5 L 23 4 L 21 4 L 21 5 L 11 5 L 11 4 L 9 4 z M 7 7 L 9 7 L 9 8 L 11 8 L 11 7 L 21 7 L 21 8 L 23 8 L 23 7 L 25 7 L 25 9 L 7 9 L 7 7 z M 7 11 L 25 11 L 25 25 L 7 25 L 7 11 z M 13.5 14 C 12.119 14 11 15.119 11 16.5 C 11 19.002 16 22 16 22 C 16 22 21 19.002 21 16.5 C 21 15.119 19.881 14 18.5 14 C 17.119 14 16 15.119 16 16.5 C 16 15.119 14.881 14 13.5 14 z" fill="#606060" overflow="visible" font-family="Sans"/>
</svg>