<svg xmlns="http://www.w3.org/2000/svg" xmlns:xlink="http://www.w3.org/1999/xlink" viewBox="0 0 32 32" version="1.1" width="64" height="64" style="fill: rgb(77, 77, 77);">
<g id="surface1">
<path style=" " d="M 11 3 L 11 7.09375 L 11.03125 7.1875 L 11.90625 11.5625 C 10.535156 12.539063 4 17.613281 4 26 L 4 26.40625 L 4.28125 26.71875 C 4.28125 26.71875 4.570313 26.960938 4.96875 27.1875 C 5.367188 27.414063 5.96875 27.699219 6.84375 27.96875 C 8.59375 28.507813 11.425781 29 16 29 C 20.574219 29 23.40625 28.507813 25.15625 27.96875 C 26.03125 27.699219 26.632813 27.414063 27.03125 27.1875 C 27.429688 26.960938 27.71875 26.71875 27.71875 26.71875 L 28 26.40625 L 28 26 C 28 17.613281 21.464844 12.539063 20.09375 11.5625 L 20.96875 7.1875 L 21 7.09375 L 21 3 L 19 3 L 19 5.0625 C 17.777344 5.238281 16.867188 5.722656 16.25 6.21875 C 16.101563 6.335938 16.054688 6.445313 15.9375 6.5625 C 15.332031 5.957031 14.441406 5.28125 13 5.0625 L 13 3 Z M 18.96875 7.09375 L 18.03125 11.8125 L 17.875 12.46875 L 18.4375 12.84375 C 18.4375 12.84375 25.621094 17.710938 25.9375 25.5 C 25.667969 25.644531 25.277344 25.820313 24.59375 26.03125 C 24.148438 26.167969 23.574219 26.308594 22.90625 26.4375 C 22.660156 24.632813 22.03125 22.746094 21.4375 21.15625 C 20.667969 19.101563 19.90625 17.5625 19.90625 17.5625 L 18.09375 18.4375 C 18.09375 18.4375 18.832031 19.921875 19.5625 21.875 C 20.128906 23.382813 20.683594 25.183594 20.90625 26.71875 C 19.574219 26.871094 17.984375 27 16 27 C 14.015625 27 12.425781 26.871094 11.09375 26.71875 C 11.3125 25.15625 11.871094 23.351563 12.4375 21.84375 C 13.167969 19.902344 13.90625 18.4375 13.90625 18.4375 L 12.09375 17.5625 C 12.09375 17.5625 11.332031 19.078125 10.5625 21.125 C 9.964844 22.714844 9.335938 24.605469 9.09375 26.4375 C 8.425781 26.308594 7.851563 26.167969 7.40625 26.03125 C 6.722656 25.820313 6.332031 25.644531 6.0625 25.5 C 6.378906 17.710938 13.5625 12.84375 13.5625 12.84375 L 14.125 12.46875 L 13.96875 11.8125 L 13.03125 7.125 C 14.582031 7.464844 15.0625 8.46875 15.0625 8.46875 L 15.34375 9 L 16.625 9 L 16.90625 8.4375 C 16.921875 8.402344 16.90625 8.378906 17 8.25 C 17.09375 8.121094 17.269531 7.964844 17.5 7.78125 C 17.820313 7.523438 18.285156 7.238281 18.96875 7.09375 Z "/>
</g>
</svg>