<svg xmlns="http://www.w3.org/2000/svg" xmlns:xlink="http://www.w3.org/1999/xlink" viewBox="0 0 32 32" version="1.1" width="64" height="64" style="fill: rgb(77, 77, 77);">
<g id="surface1">
<path style=" " d="M 5 5 L 5 27 L 27 27 L 27 5 Z M 7 7 L 25 7 L 25 25 L 7 25 Z M 9 8 C 8.449219 8 8 8.449219 8 9 C 8 9.550781 8.449219 10 9 10 C 9.550781 10 10 9.550781 10 9 C 10 8.449219 9.550781 8 9 8 Z M 23 8 C 22.449219 8 22 8.449219 22 9 C 22 9.550781 22.449219 10 23 10 C 23.550781 10 24 9.550781 24 9 C 24 8.449219 23.550781 8 23 8 Z M 16 9 C 12.144531 9 9 12.144531 9 16 C 9 19.855469 12.144531 23 16 23 C 19.855469 23 23 19.855469 23 16 C 23 12.144531 19.855469 9 16 9 Z M 16 11 C 18.773438 11 21 13.226563 21 16 C 21 18.773438 18.773438 21 16 21 C 13.226563 21 11 18.773438 11 16 C 11 13.226563 13.226563 11 16 11 Z M 16 14 C 14.894531 14 14 14.894531 14 16 C 14 17.105469 14.894531 18 16 18 C 17.105469 18 18 17.105469 18 16 C 18 14.894531 17.105469 14 16 14 Z M 9 22 C 8.449219 22 8 22.449219 8 23 C 8 23.550781 8.449219 24 9 24 C 9.550781 24 10 23.550781 10 23 C 10 22.449219 9.550781 22 9 22 Z M 23 22 C 22.449219 22 22 22.449219 22 23 C 22 23.550781 22.449219 24 23 24 C 23.550781 24 24 23.550781 24 23 C 24 22.449219 23.550781 22 23 22 Z "/>
</g>
</svg>