<svg xmlns="http://www.w3.org/2000/svg" xmlns:xlink="http://www.w3.org/1999/xlink" viewBox="0 0 32 32" version="1.1" width="64" height="64" style="fill: rgb(77, 77, 77);">
<g id="surface1">
<path style=" " d="M 3 6 L 3 24 L 29 24 L 29 6 Z M 5 8 L 27 8 L 27 22 L 5 22 Z M 16 10 C 14.355469 10 13 11.355469 13 13 C 13 13.679688 13.238281 14.308594 13.625 14.8125 C 12.652344 15.542969 12 16.699219 12 18 L 14 18 C 14 16.882813 14.882813 16 16 16 C 17.117188 16 18 16.882813 18 18 L 20 18 C 20 16.699219 19.347656 15.542969 18.375 14.8125 C 18.761719 14.308594 19 13.679688 19 13 C 19 11.355469 17.644531 10 16 10 Z M 16 12 C 16.5625 12 17 12.4375 17 13 C 17 13.5625 16.5625 14 16 14 C 15.4375 14 15 13.5625 15 13 C 15 12.4375 15.4375 12 16 12 Z M 9 19 L 9 21 L 13 21 L 13 19 Z M 14 19 L 14 21 L 18 21 L 18 19 Z M 19 19 L 19 21 L 23 21 L 23 19 Z M 10 25 L 10 27 L 22 27 L 22 25 Z "/>
</g>
</svg>