<svg xmlns="http://www.w3.org/2000/svg" xmlns:xlink="http://www.w3.org/1999/xlink" viewBox="0 0 32 32" version="1.1" width="64" height="64" style="fill: rgb(77, 77, 77);">
<g id="surface1">
<path style=" " d="M 3 5 L 3 27 L 13.5 27 L 15.5 25 L 5 25 L 5 7 L 27 7 L 27 13.5 L 29 11.5 L 29 5 Z M 7 9 L 7 23 L 17.5 23 L 19.5 21 L 9 21 L 9 11 L 23 11 L 23 17.5 L 25 15.5 L 25 9 Z M 29 15.03125 C 28.234375 15.03125 27.484375 15.328125 26.90625 15.90625 L 17 25.78125 L 16.78125 26 L 16.71875 26.3125 L 16.03125 29.8125 L 15.71875 31.28125 L 17.1875 30.96875 L 20.6875 30.28125 L 21 30.21875 L 21.21875 30 L 31.09375 20.09375 C 32.246094 18.941406 32.246094 17.058594 31.09375 15.90625 C 30.515625 15.328125 29.765625 15.03125 29 15.03125 Z M 29 16.96875 C 29.234375 16.96875 29.464844 17.089844 29.6875 17.3125 C 30.132813 17.757813 30.132813 18.242188 29.6875 18.6875 L 20 28.375 L 18.28125 28.71875 L 18.625 27 L 28.25 17.34375 L 28.3125 17.3125 C 28.535156 17.089844 28.765625 16.96875 29 16.96875 Z "/>
</g>
</svg>