<?xml version="1.0" encoding="utf-8"?>
<!-- Generator: Adobe Illustrator 16.0.3, SVG Export Plug-In . SVG Version: 6.00 Build 0)  -->
<!DOCTYPE svg PUBLIC "-//W3C//DTD SVG 1.1//EN" "http://www.w3.org/Graphics/SVG/1.1/DTD/svg11.dtd">
<svg version="1.1" id="Ebene_1" xmlns="http://www.w3.org/2000/svg" xmlns:xlink="http://www.w3.org/1999/xlink" x="0px" y="0px"
	 width="60px" height="120px" viewBox="5 10 60 120" enable-background="new 5 10 60 120" xml:space="preserve">
<title>Location Off</title>
<desc>Created with Sketch.</desc>
<g id="Page-1">
	<g id="Eventlokale-Styleguide" transform="translate(-608.000000, -8498.000000)">
		<g id="Weitere-On" transform="translate(608.000000, 8498.000000)">
			<g id="Group-4">
				<path id="Shape" fill="#FF526E" d="M42.796,112L35,107.901L27.201,112l1.488-8.684l-6.307-6.149l8.718-1.267L35,88l3.902,7.901
					l8.717,1.267l-6.309,6.148L42.796,112L42.796,112z M35,105.968l5.527,2.907l-1.057-6.154l4.474-4.358l-6.181-0.9L35,91.862
					l-2.764,5.6l-6.182,0.9l4.475,4.358l-1.057,6.154L35,105.968L35,105.968z"/>
			</g>
		</g>
	</g>
</g>
<g id="Page-1_1_">
	<g id="Eventlokale-Styleguide_1_" transform="translate(-550.000000, -8502.000000)">
		<g id="Weitere-Off" transform="translate(550.000000, 8502.000000)">
			<g id="Group-5">
				<path id="Shape_1_" fill="#606060" d="M41.496,50L35,46.584L28.502,50l1.24-7.236l-5.256-5.123l7.265-1.057L35,30l3.252,6.584
					l7.265,1.057l-5.258,5.123L41.496,50L41.496,50z M35,44.976l4.605,2.422l-0.881-5.13l3.728-3.633l-5.148-0.749L35,33.218
					l-2.303,4.668l-5.152,0.75l3.729,3.633l-0.88,5.129L35,44.976L35,44.976z"/>
			</g>
		</g>
	</g>
</g>
</svg>
