<svg xmlns="http://www.w3.org/2000/svg" xmlns:xlink="http://www.w3.org/1999/xlink" viewBox="0 0 32 32" version="1.1" width="64" height="64" style="fill: rgb(77, 77, 77);">
<g id="surface1">
<path style=" " d="M 5 3 L 5 29 L 21.40625 29 L 21.71875 28.71875 L 26.71875 23.71875 L 27 23.40625 L 27 3 Z M 7 5 L 25 5 L 25 22 L 20 22 L 20 27 L 7 27 Z M 16 6 C 15.449219 6 15 6.449219 15 7 C 15 7.550781 15.449219 8 16 8 C 16.550781 8 17 7.550781 17 7 C 17 6.449219 16.550781 6 16 6 Z M 8 9 L 8 26 L 19 26 L 19 24 L 10 24 L 10 11 L 22 11 L 22 21 L 24 21 L 24 9 Z M 22 24 L 23.5625 24 L 22 25.5625 Z "/>
</g>
</svg>