<svg xmlns="http://www.w3.org/2000/svg" xmlns:xlink="http://www.w3.org/1999/xlink" viewBox="0 0 32 32" version="1.1" width="64" height="64" style="fill: rgb(77, 77, 77);">
<g id="surface1">
<path style=" " d="M 25.4375 4 C 24.871094 4 24.347656 4.234375 23.96875 4.65625 L 15.28125 14.34375 C 14.859375 13.617188 14.90625 12.988281 15.03125 12.40625 C 15.117188 12.007813 15.269531 11.65625 15.40625 11.34375 C 15.476563 11.1875 15.53125 11.054688 15.59375 10.875 C 15.625 10.785156 15.671875 10.679688 15.6875 10.5 C 15.703125 10.320313 15.691406 9.941406 15.375 9.625 C 15.148438 9.398438 15.023438 9.382813 14.90625 9.34375 C 14.789063 9.304688 14.691406 9.296875 14.59375 9.28125 C 14.398438 9.253906 14.195313 9.242188 13.96875 9.25 C 13.515625 9.265625 12.972656 9.328125 12.40625 9.53125 C 11.839844 9.734375 11.253906 10.070313 10.78125 10.625 C 10.308594 11.179688 10 11.980469 10 12.875 C 10 13.511719 9.628906 14 8.8125 14 C 7.707031 14 6.210938 14.445313 4.90625 15.75 L 4.90625 15.78125 C 3.65625 17.0625 2.941406 18.71875 3 20.46875 C 3.058594 22.21875 3.878906 24.003906 5.46875 25.5625 C 7.054688 27.148438 8.855469 27.957031 10.59375 28 C 12.332031 28.042969 13.96875 27.3125 15.21875 26.0625 C 16.710938 24.570313 16.78125 22.949219 16.9375 21.8125 C 16.972656 21.527344 16.996094 21.539063 17.21875 21.40625 C 17.441406 21.273438 17.871094 21.128906 18.40625 20.9375 C 18.941406 20.746094 19.589844 20.484375 20.125 19.90625 C 20.660156 19.328125 21 18.457031 21 17.40625 C 21 17.246094 20.964844 16.984375 20.75 16.71875 C 20.535156 16.453125 20.175781 16.320313 19.96875 16.3125 C 19.554688 16.296875 19.457031 16.417969 19.34375 16.46875 C 19.113281 16.570313 18.953125 16.65625 18.78125 16.71875 C 18.609375 16.78125 18.46875 16.789063 18.375 16.78125 C 18.28125 16.773438 18.230469 16.761719 18.0625 16.59375 L 16.625 18.03125 C 17.078125 18.484375 17.667969 18.726563 18.1875 18.78125 C 18.222656 18.785156 18.246094 18.777344 18.28125 18.78125 C 18.117188 18.875 17.996094 18.972656 17.75 19.0625 C 17.308594 19.222656 16.753906 19.347656 16.1875 19.6875 C 15.621094 20.027344 15.074219 20.710938 14.96875 21.5625 C 14.789063 22.867188 14.875 23.59375 13.8125 24.65625 C 12.894531 25.574219 11.785156 26.027344 10.625 26 C 9.464844 25.972656 8.175781 25.457031 6.875 24.15625 L 6.875 24.125 C 5.578125 22.851563 5.039063 21.585938 5 20.40625 C 4.960938 19.242188 5.417969 18.121094 6.3125 17.1875 C 6.324219 17.175781 6.332031 17.167969 6.34375 17.15625 C 7.25 16.269531 8.300781 16 8.8125 16 C 10.628906 16 12 14.523438 12 12.875 C 12 12.394531 12.132813 12.152344 12.3125 11.9375 C 12.492188 11.722656 12.769531 11.554688 13.09375 11.4375 C 13.167969 11.410156 13.234375 11.425781 13.3125 11.40625 C 13.242188 11.617188 13.148438 11.746094 13.09375 12 C 12.867188 13.058594 12.957031 14.511719 13.9375 15.875 L 13.0625 16.84375 L 14.5625 18.15625 L 25.4375 6 L 28 6 L 28 4 Z M 11 17.5 L 10.03125 18.46875 L 12.53125 20.96875 L 13.5 20 Z M 8.75 19.75 L 7.75 20.75 L 10.25 23.25 L 11.25 22.25 Z "/>
</g>
</svg>