<svg xmlns="http://www.w3.org/2000/svg" xmlns:xlink="http://www.w3.org/1999/xlink" viewBox="0 0 32 32" version="1.1" width="64" height="64" style="fill: rgb(77, 77, 77);">
<g id="surface1">
<path style=" " d="M 16.5 4.09375 L 8.5 14.59375 L 9.90625 16 L 18.09375 5.40625 Z M 26.59375 7.8125 L 13.09375 19.1875 L 14.5 20.59375 L 27.90625 9.40625 Z M 7.1875 15.59375 L 6.5 16.28125 L 4.90625 17.90625 C 3.640625 19.171875 3.640625 21.234375 4.90625 22.5 L 6.5 24.09375 L 6.5 24.125 L 6.53125 24.15625 C 6.679688 24.289063 6.832031 24.398438 7 24.5 L 7 26 L 5 26 L 5 28 L 11 28 L 11 26 L 9 26 L 9 24.9375 C 9.757813 24.875 10.507813 24.585938 11.09375 24 L 11.125 23.96875 L 12.71875 22.40625 L 13.40625 21.6875 L 12.6875 21 L 7.90625 16.28125 Z M 7.21875 18.40625 L 10.59375 21.6875 L 9.6875 22.59375 C 9.164063 23.117188 8.421875 23.117188 7.90625 22.6875 L 6.3125 21.09375 C 5.777344 20.558594 5.777344 19.847656 6.3125 19.3125 Z "/>
</g>
</svg>