<?xml version="1.0" encoding="UTF-8"?>
<svg width="96px" height="96px" viewBox="0 0 96 96" version="1.1" xmlns="http://www.w3.org/2000/svg" xmlns:xlink="http://www.w3.org/1999/xlink">
    <!-- Generator: Sketch 47.1 (45422) - http://www.bohemiancoding.com/sketch -->
    <title>envelope send</title>
    <desc>Created with Sketch.</desc>
    <defs></defs>
    <g id="Page-1" stroke="none" stroke-width="1" fill="none" fill-rule="evenodd">
        <g id="9---Verkauf_Ebene-2---Mailing-2" transform="translate(-306.000000, -312.000000)" fill="#00C7C7">
            <g id="Exklusive-Mailing" transform="translate(176.000000, 244.000000)">
                <path d="M223.641606,113.7056 L175.7104,161.635199 C174.1408,163.2064 172.078394,163.992 170.014394,163.992 C167.952006,163.992 165.8896,163.2064 164.318406,161.635199 L134.1904,131.5088 C133.564801,130.8848 133.564801,129.872 134.1904,129.246406 C134.815999,128.622406 135.828799,128.622406 136.452799,129.246406 L166.5808,159.3728 C168.475206,161.267201 171.555194,161.264 173.448006,159.3728 L221.379194,111.443206 C223.272006,109.5488 223.272006,106.468794 221.379194,104.574406 L191.268794,74.4671937 C190.6432,73.8416 190.6432,72.8288 191.268794,72.2032063 C191.894406,71.5792062 192.905594,71.5792062 193.531206,72.2032063 L223.641606,102.311994 C226.7824,105.4544 226.7824,110.564806 223.641606,113.7056 L223.641606,113.7056 Z M130,124.000006 C130,123.947206 130.0032,123.897594 130.008,123.846406 C130.0416,121.747194 130.8752,119.779194 132.364801,118.2896 L180.295994,70.3600062 C181.817594,68.8367937 183.838394,68 185.990406,68 L186.000006,68 C186.8848,68 187.6,68.7167937 187.6,69.5999937 L187.6,117.599994 C187.6,122.011194 184.011194,125.6 179.599994,125.6 L131.6,125.6 C130.7152,125.6 130,124.883206 130,124.000006 L130,124.000006 Z M133.468801,122.399994 L179.599994,122.399994 C182.246406,122.399994 184.399994,120.246406 184.399994,117.599994 L184.399994,71.4656 C183.713594,71.7023937 183.086406,72.0944 182.558406,72.6224 L134.6272,120.551994 C134.095999,121.081606 133.704001,121.712 133.468801,122.399994 L133.468801,122.399994 Z M168.4,130.4 L168.4,152.800001 C168.4,153.683201 169.1152,154.4 169.999994,154.4 C170.884806,154.4 171.600006,153.683201 171.600006,152.800001 L171.600006,130.4 C171.600006,129.5168 170.884806,128.800006 169.999994,128.800006 C169.1152,128.800006 168.4,129.5168 168.4,130.4 L168.4,130.4 Z M214.800006,109.600006 C215.6848,109.600006 216.4,108.883194 216.4,107.999994 C216.4,107.116794 215.6848,106.4 214.800006,106.4 L192.4,106.4 C191.515206,106.4 190.800006,107.116794 190.800006,107.999994 C190.800006,108.883194 191.515206,109.600006 192.4,109.600006 L214.800006,109.600006 L214.800006,109.600006 Z M154,160.799999 L131.6,160.799999 C130.7152,160.799999 130,161.516801 130,162.4 C130,163.2832 130.7152,164 131.6,164 L154,164 C154.884794,164 155.599994,163.2832 155.599994,162.4 C155.599994,161.516801 154.884794,160.799999 154,160.799999 L154,160.799999 Z M131.6,154.4 L144.4,154.4 C145.284799,154.4 145.999999,153.683201 145.999999,152.800001 C145.999999,151.916801 145.284799,151.199999 144.4,151.199999 L131.6,151.199999 C130.7152,151.199999 130,151.916801 130,152.800001 C130,153.683201 130.7152,154.4 131.6,154.4 L131.6,154.4 Z M131.6,144.8 L138.000001,144.8 C138.8848,144.8 139.6,144.083206 139.6,143.200006 C139.6,142.316806 138.8848,141.599994 138.000001,141.599994 L131.6,141.599994 C130.7152,141.599994 130,142.316806 130,143.200006 C130,144.083206 130.7152,144.8 131.6,144.8 L131.6,144.8 Z" id="envelope-send"></path>
            </g>
        </g>
    </g>
</svg>