<svg xmlns="http://www.w3.org/2000/svg" xmlns:xlink="http://www.w3.org/1999/xlink" viewBox="0 0 50 50" version="1.1" width="64" height="64" style="fill: rgb(77, 77, 77);">
<g id="surface1">
<path style=" " d="M 14.984375 16.984375 C 14.9375 16.988281 14.886719 16.992188 14.839844 17 L 11.160156 17 C 10.085938 17 9.089844 17.578125 8.554688 18.511719 L 5.953125 23.0625 L 2.710938 23.378906 C 1.179688 23.527344 0 24.828125 0 26.363281 L 0 31 C 0 32.644531 1.355469 34 3 34 L 5.144531 34 C 5.59375 35.714844 7.148438 37 9 37 C 10.851563 37 12.40625 35.714844 12.855469 34 L 38.144531 34 C 38.59375 35.714844 40.148438 37 42 37 C 43.851563 37 45.40625 35.714844 45.855469 34 L 47 34 C 48.644531 34 50 32.644531 50 31 L 50 27.683594 C 50 26.265625 48.992188 25.03125 47.605469 24.746094 L 39.703125 23.121094 L 35.957031 18.746094 C 35.007813 17.636719 33.617188 17 32.160156 17 L 29.15625 17 C 29.097656 16.992188 29.042969 16.984375 28.984375 16.984375 C 28.9375 16.988281 28.886719 16.992188 28.839844 17 L 15.15625 17 C 15.097656 16.992188 15.042969 16.984375 14.984375 16.984375 Z M 11.160156 19 L 14 19 L 14 23 L 8.296875 23 L 10.292969 19.503906 C 10.472656 19.191406 10.800781 19 11.160156 19 Z M 16 19 L 28 19 L 28 23 L 16 23 Z M 30 19 L 32.160156 19 C 33.035156 19 33.867188 19.382813 34.4375 20.046875 L 36.96875 23 L 30 23 Z M 6.695313 25 L 14.832031 25 C 14.941406 25.019531 15.050781 25.019531 15.15625 25 L 28.832031 25 C 28.941406 25.019531 29.050781 25.019531 29.15625 25 L 38.917969 25 L 47.203125 26.703125 C 47.671875 26.800781 48 27.203125 48 27.683594 L 48 28 L 47 28 L 47 30 L 48 30 L 48 31 C 48 31.566406 47.566406 32 47 32 L 45.855469 32 C 45.40625 30.285156 43.851563 29 42 29 C 40.148438 29 38.59375 30.285156 38.144531 32 L 12.855469 32 C 12.40625 30.285156 10.851563 29 9 29 C 7.148438 29 5.59375 30.285156 5.144531 32 L 3 32 C 2.433594 32 2 31.566406 2 31 L 2 29 L 3 29 L 3 27 L 2 27 L 2 26.363281 C 2 25.839844 2.378906 25.421875 2.902344 25.371094 Z M 9 31 C 10.054688 31 10.890625 31.789063 10.984375 32.816406 C 10.984375 32.816406 10.980469 32.820313 10.984375 32.820313 C 10.960938 32.9375 10.960938 33.054688 10.984375 33.171875 C 10.894531 34.203125 10.058594 35 9 35 C 7.949219 35 7.113281 34.210938 7.019531 33.183594 C 7.039063 33.0625 7.039063 32.941406 7.015625 32.824219 C 7.105469 31.792969 7.945313 31 9 31 Z M 42 31 C 43.117188 31 44 31.882813 44 33 C 44 34.117188 43.117188 35 42 35 C 40.882813 35 40 34.117188 40 33 C 40 31.882813 40.882813 31 42 31 Z "/>
</g>
</svg>