<?xml version="1.0" encoding="UTF-8" standalone="no"?>
<svg width="49px" height="49px" viewBox="0 0 49 49" version="1.1" xmlns="http://www.w3.org/2000/svg" xmlns:xlink="http://www.w3.org/1999/xlink" xmlns:sketch="http://www.bohemiancoding.com/sketch/ns">
    <!-- Generator: Sketch 3.2.2 (9983) - http://www.bohemiancoding.com/sketch -->
    <title>IconTwitter</title>
    <desc>Created with Sketch.</desc>
    <defs></defs>
    <g id="Contents" stroke="none" stroke-width="1" fill="none" fill-rule="evenodd" sketch:type="MSPage">
        <g id="StyleGuide" sketch:type="MSArtboardGroup" transform="translate(-706.000000, -5408.000000)" fill="#FFFFFF">
            <path d="M730.331081,5456.28984 C743.541136,5456.28984 754.25,5445.54467 754.25,5432.28984 C754.25,5419.035 743.541136,5408.28984 730.331081,5408.28984 C717.121026,5408.28984 706.412162,5419.035 706.412162,5432.28984 C706.412162,5445.54467 717.121026,5456.28984 730.331081,5456.28984 Z M730.331081,5453.40984 C741.955929,5453.40984 751.37973,5443.95409 751.37973,5432.28984 C751.37973,5420.62558 741.955929,5411.16984 730.331081,5411.16984 C718.706233,5411.16984 709.282432,5420.62558 709.282432,5432.28984 C709.282432,5443.95409 718.706233,5453.40984 730.331081,5453.40984 Z M730.027077,5428.02196 L730.072703,5428.81089 L729.312263,5428.71429 C726.544259,5428.34397 724.126059,5427.08812 722.072869,5424.97894 L721.069088,5423.9324 L720.810538,5424.70523 C720.263021,5426.428 720.612824,5428.24737 721.753484,5429.47102 C722.361837,5430.14725 722.224957,5430.24385 721.17555,5429.84133 C720.810538,5429.71253 720.491153,5429.61592 720.460736,5429.66423 C720.354274,5429.77693 720.719285,5431.24209 721.008253,5431.82171 C721.403682,5432.62674 722.209749,5433.41568 723.09186,5433.88259 L723.837091,5434.25291 L722.95498,5434.26901 C722.103287,5434.26901 722.072869,5434.28511 722.164122,5434.62322 C722.468298,5435.66977 723.669794,5436.78071 725.00817,5437.26373 L725.951116,5437.60184 L725.12984,5438.11706 C723.913135,5438.85769 722.483507,5439.27631 721.053879,5439.30851 C720.369483,5439.32461 719.806757,5439.38901 719.806757,5439.43732 C719.806757,5439.59832 721.662231,5440.49996 722.742057,5440.85417 C725.981533,5441.90071 729.829362,5441.4499 732.719036,5439.66273 C734.772225,5438.39077 736.825415,5435.86297 737.78357,5433.41568 C738.300669,5432.11152 738.817769,5429.72863 738.817769,5428.58548 C738.817769,5427.84485 738.863395,5427.74825 739.715088,5426.86272 C740.216979,5426.34749 740.688452,5425.78397 740.779705,5425.62297 C740.931793,5425.31705 740.916584,5425.31705 740.140935,5425.59076 C738.848186,5426.07378 738.665681,5426.00938 739.304451,5425.28485 C739.775924,5424.76963 740.33865,5423.83579 740.33865,5423.56208 C740.33865,5423.51378 740.110517,5423.59428 739.851968,5423.73919 C739.578209,5423.9002 738.969857,5424.14171 738.513592,5424.28661 L737.692317,5424.56032 L736.947085,5424.029 C736.536447,5423.73919 735.958512,5423.41718 735.654336,5423.32057 C734.878687,5423.09516 733.6924,5423.12737 732.992795,5423.38498 C731.091693,5424.10951 729.890197,5425.97718 730.027077,5428.02196 C730.027077,5428.02196 729.890197,5425.97718 730.027077,5428.02196 Z" id="IconTwitter" sketch:type="MSShapeGroup"></path>
        </g>
    </g>
</svg>