<?xml version="1.0" encoding="utf-8"?>
<!-- Generator: Adobe Illustrator 16.0.3, SVG Export Plug-In . SVG Version: 6.00 Build 0)  -->
<!DOCTYPE svg PUBLIC "-//W3C//DTD SVG 1.1//EN" "http://www.w3.org/Graphics/SVG/1.1/DTD/svg11.dtd">
<svg version="1.1" id="Ebene_1" xmlns="http://www.w3.org/2000/svg" xmlns:xlink="http://www.w3.org/1999/xlink" x="0px" y="0px"
	 width="70px" height="70px" viewBox="0 0 70 70" enable-background="new 0 0 70 70" xml:space="preserve">
<title>Location Off</title>
<desc>Created with Sketch.</desc>
<path fill="#FFFFFF" d="M29.565,22.5c-1.778,0-3.116,1.316-4.007,2.784c-0.895,1.472-1.428,3.214-1.428,4.826
	c0,2.806,1.937,4.854,4.347,5.331V47.5h2.176V35.44C33.063,34.963,35,32.916,35,30.109c0-1.611-0.533-3.354-1.428-4.826
	C32.681,23.816,31.343,22.5,29.565,22.5z M37.176,22.5v7.609c0,2.014,1.39,3.691,3.26,4.176V47.5h2.176V34.286
	c1.868-0.485,3.259-2.163,3.259-4.176V22.5h-2.176v7.609c0,1.212-0.956,2.173-2.17,2.173c-1.216,0-2.179-0.96-2.179-2.173V22.5
	H37.176z M40.436,22.5v7.609c0,0.598,0.486,1.085,1.089,1.085c0.599,0,1.087-0.487,1.087-1.085V22.5H40.436z M29.565,24.674
	c0.623,0,1.459,0.617,2.139,1.732c0.679,1.115,1.123,2.611,1.123,3.703c0,2.178-1.357,3.261-3.262,3.261
	c-1.906,0-3.262-1.083-3.262-3.261c0-1.091,0.444-2.588,1.123-3.703C28.105,25.291,28.942,24.674,29.565,24.674z"/>
</svg>
