<?xml version="1.0" encoding="utf-8"?>
<!-- Generator: Adobe Illustrator 15.0.2, SVG Export Plug-In . SVG Version: 6.00 Build 0)  -->
<!DOCTYPE svg PUBLIC "-//W3C//DTD SVG 1.1//EN" "http://www.w3.org/Graphics/SVG/1.1/DTD/svg11.dtd">
<svg version="1.1" id="Ebene_1" xmlns:sketch="http://www.bohemiancoding.com/sketch/ns"
	 xmlns="http://www.w3.org/2000/svg" xmlns:xlink="http://www.w3.org/1999/xlink" x="0px" y="0px" width="30px" height="30px"
	 viewBox="0 0 30 30" enable-background="new 0 0 30 30" xml:space="preserve">
<title>iconInfo</title>
<desc>Created with Sketch.</desc>
<g id="Contents" sketch:type="MSPage">
	<g id="StyleGuide" transform="translate(-526.000000, -5798.000000)" sketch:type="MSArtboardGroup">
		<g id="iconInfo" transform="translate(526.000000, 5798.000000)" sketch:type="MSLayerGroup">
			<g id="Oval-39" sketch:type="MSShapeGroup">
				<path fill="#FFFFFF" d="M15,29C7.28,29,1,22.72,1,15S7.28,1,15,1s14,6.28,14,14S22.72,29,15,29z"/>
				<path fill="#FA5A60" d="M15,2c7.168,0,13,5.832,13,13s-5.832,13-13,13S2,22.168,2,15S7.832,2,15,2 M15,0C6.716,0,0,6.716,0,15
					s6.716,15,15,15s15-6.716,15-15S23.284,0,15,0L15,0z"/>
			</g>
			<g id="IconTwitter-Copy-_x2B_-Fill-1-_x2B_-Fill-2" transform="translate(10.588235, 6.176471)" sketch:type="MSShapeGroup">
				<path id="Fill-1" fill="#FA5A60" d="M4.28,13.44c0.415-1.017,3.88-6.142,1.485-7.552C4.428,5.1,2.567,5.608,1.143,6.536
					L1.047,7.421c0.841-0.28,1.702-0.28,1.96,0.387c0.629,1.622-1.524,4.461-2.112,5.949c-1.597,4.033,2.236,4.5,4.97,2.838
					l0.104-0.958C4.482,16.033,3.421,15.547,4.28,13.44"/>
				<path id="Fill-2" fill="#FA5A60" d="M5.857,0.449c1.061,0,1.92,0.843,1.92,1.882s-0.859,1.883-1.92,1.883
					s-1.92-0.843-1.92-1.883S4.797,0.449,5.857,0.449"/>
			</g>
		</g>
	</g>
</g>
</svg>
