<?xml version="1.0" encoding="UTF-8" standalone="no"?>
<svg width="30px" height="33px" viewBox="0 0 30 33" version="1.1" xmlns="http://www.w3.org/2000/svg" xmlns:xlink="http://www.w3.org/1999/xlink" xmlns:sketch="http://www.bohemiancoding.com/sketch/ns">
    <!-- Generator: Sketch 3.2.2 (9983) - http://www.bohemiancoding.com/sketch -->
    <title>IconWatch</title>
    <desc>Created with Sketch.</desc>
    <defs></defs>
    <g id="Contents" stroke="none" stroke-width="1" fill="none" fill-rule="evenodd" sketch:type="MSPage">
        <g id="StyleGuide" sketch:type="MSArtboardGroup" transform="translate(-720.000000, -5838.000000)" fill="#FFFFFF">
            <g id="IconWatch" sketch:type="MSLayerGroup" transform="translate(720.000000, 5838.000000)">
                <path d="M7.69981132,11.3318644 C7.2345283,11.7916271 7.2345283,12.5344068 7.70037736,12.9947288 C8.16622642,13.4550508 8.92018868,13.4572881 9.3854717,12.9975254 C9.85132075,12.5372034 9.85018868,11.7910678 9.38433962,11.3307458 C8.9190566,10.8704237 8.16622642,10.8715424 7.69981132,11.3318644" id="Fill-1" sketch:type="MSShapeGroup"></path>
                <path d="M5.85,17.4072203 C5.19339623,17.4072203 4.65792453,17.9329831 4.65792453,18.5851525 C4.65679245,19.2345254 5.19169811,19.7630847 5.84943396,19.7630847 C6.50773585,19.7614068 7.04037736,19.2328475 7.04207547,18.5851525 C7.04207547,17.9329831 6.50886792,17.4061017 5.85,17.4072203" id="Fill-2" sketch:type="MSShapeGroup"></path>
                <path d="M7.69754717,24.1744576 C7.23396226,24.633661 7.23396226,25.378678 7.70037736,25.839 C8.16396226,26.2970847 8.91792453,26.2970847 9.38150943,25.8384407 C9.84849057,25.3775593 9.84735849,24.633661 9.38603774,24.173339 C8.92018868,23.7130169 8.1645283,23.7130169 7.69754717,24.1744576" id="Fill-3" sketch:type="MSShapeGroup"></path>
                <path d="M15.0413208,26.4894915 C14.3830189,26.4878136 13.8492453,27.0152542 13.8492453,27.6674237 C13.8481132,28.3167966 14.3813208,28.8442373 15.0407547,28.8453559 C15.6990566,28.843678 16.2328302,28.3162373 16.2328302,27.6668644 C16.2328302,27.0146949 15.6973585,26.4894915 15.0413208,26.4894915" id="Fill-4" sketch:type="MSShapeGroup"></path>
                <path d="M24.2298113,17.4049831 C23.5720755,17.4072203 23.04,17.9324237 23.0377358,18.5829153 C23.0388679,19.2350847 23.5726415,19.7619661 24.2298113,19.7608475 C24.8903774,19.7608475 25.4201887,19.2339661 25.4218868,18.5829153 C25.4218868,17.9341017 24.8886792,17.4072203 24.2298113,17.4049831" id="Fill-5" sketch:type="MSShapeGroup"></path>
                <path d="M15.0407547,10.6813729 C15.6967925,10.6813729 16.230566,10.1539322 16.2328302,9.50288136 C16.2316981,8.85350847 15.6979245,8.3260678 15.0401887,8.32438983 C14.3813208,8.32662712 13.8498113,8.85183051 13.8475472,9.50232203 C13.8486792,10.1539322 14.3807547,10.6830508 15.0407547,10.6813729" id="Fill-6" sketch:type="MSShapeGroup"></path>
                <path d="M20.6960377,24.173339 C20.2307547,24.633661 20.2318868,25.3781186 20.699434,25.8395593 C21.1624528,26.2970847 21.9158491,26.2987627 22.3811321,25.8384407 C22.8469811,25.378678 22.8464151,24.6331017 22.3833962,24.1750169 C21.9164151,23.7141356 21.1618868,23.7130169 20.6960377,24.173339" id="Fill-7" sketch:type="MSShapeGroup"></path>
                <path d="M12.0939623,3.57127119 L18.1154717,3.56847458 C18.5309434,3.57071186 18.8671698,3.23791525 18.8688679,2.82513559 L18.8671698,1.155 C18.8688679,0.742220339 18.5332075,0.408864407 18.1154717,0.408864407 L12.0939623,0.408864407 C11.6790566,0.408864407 11.3416981,0.742220339 11.3416981,1.155 L11.3416981,2.82513559 C11.3416981,3.23791525 11.6790566,3.56847458 12.0939623,3.57127119" id="Fill-8" sketch:type="MSShapeGroup"></path>
                <path d="M1.68962264,9.32110169 C1.92566038,9.55433898 2.30603774,9.55210169 2.54150943,9.32110169 L5.35075472,6.5440678 C5.58679245,6.31250847 5.58679245,5.93720339 5.35075472,5.70228814 L4.38,4.74305085 C4.1445283,4.50757627 3.76301887,4.50757627 3.52867925,4.74305085 L0.717735849,7.5189661 C0.482830189,7.75220339 0.482830189,8.12918644 0.717735849,8.36186441 L1.68962264,9.32110169" id="Fill-9" sketch:type="MSShapeGroup"></path>
                <path d="M15.0396226,4.25476271 C7.04320755,4.25476271 0.537735849,10.6847288 0.537735849,18.5851525 C0.537735849,26.4850169 7.04320755,32.9149831 15.0396226,32.9149831 C23.0366038,32.9149831 29.5420755,26.4850169 29.5420755,18.5851525 C29.5420755,10.6847288 23.0366038,4.25476271 15.0396226,4.25476271 L15.0396226,4.25476271 Z M15.0396226,30.2906441 C8.50754717,30.2906441 3.19358491,25.0397288 3.19358491,18.5851525 C3.19358491,12.1294576 8.50698113,6.87854237 15.0396226,6.87854237 C21.5728302,6.87854237 26.8867925,12.1294576 26.8867925,18.5851525 C26.8867925,25.0397288 21.5728302,30.2906441 15.0396226,30.2906441 L15.0396226,30.2906441 Z" id="Fill-10" sketch:type="MSShapeGroup"></path>
                <path d="M22.3590566,12.7161864 C22.740566,12.3392034 22.74,11.7301017 22.3590566,11.353678 C21.9775472,10.9766949 21.3616981,10.9761356 20.9796226,11.353678 L15.4958491,16.7723898 C14.895283,16.6353559 14.2398113,16.795322 13.7728302,17.2567627 C13.0562264,17.969339 13.0539623,19.1254576 13.7745283,19.8374746 C14.4922642,20.5466949 15.6639623,20.5466949 16.3833962,19.8363559 C16.8503774,19.3743559 17.0116981,18.7277797 16.8741509,18.1360169 L22.3590566,12.7161864" id="Fill-11" sketch:type="MSShapeGroup"></path>
            </g>
        </g>
    </g>
</svg>