<?xml version="1.0" encoding="UTF-8"?>
<svg width="96px" height="96px" viewBox="0 0 96 96" version="1.1" xmlns="http://www.w3.org/2000/svg" xmlns:xlink="http://www.w3.org/1999/xlink">
    <!-- Generator: Sketch 47.1 (45422) - http://www.bohemiancoding.com/sketch -->
    <title>Fill 1</title>
    <desc>Created with Sketch.</desc>
    <defs></defs>
    <g id="Page-1" stroke="none" stroke-width="1" fill="none" fill-rule="evenodd">
        <g id="9---Verkauf_Ebene-2---Werbeformate" transform="translate(-306.000000, -312.000000)" fill="#00C7C7">
            <g id="Anbieter-des-Monats" transform="translate(176.000000, 244.000000)">
                <g id="page-rank" transform="translate(130.000000, 68.000000)">
                    <path d="M63.9999938,54.3999938 C63.1167937,54.3999938 62.4,55.1168063 62.4,56.0000063 C62.4,56.8832063 63.1167937,57.6 63.9999938,57.6 L76.8,57.6 C77.6832,57.6 78.3999937,56.8832063 78.3999937,56.0000063 C78.3999937,55.1168063 77.6832,54.3999938 76.8,54.3999938 L63.9999938,54.3999938 Z M33.6,56.0000063 C33.6,55.1168063 32.8832063,54.3999938 32.0000063,54.3999938 L19.2,54.3999938 C18.3168,54.3999938 17.6000006,55.1168063 17.6000006,56.0000063 C17.6000006,56.8832063 18.3168,57.6 19.2,57.6 L32.0000063,57.6 C32.8832063,57.6 33.6,56.8832063 33.6,56.0000063 L33.6,56.0000063 Z M41.6000063,54.3999938 C40.7168063,54.3999938 39.9999938,55.1168063 39.9999938,56.0000063 C39.9999938,56.8832063 40.7168063,57.6 41.6000063,57.6 L54.3999938,57.6 C55.2831938,57.6 56.0000063,56.8832063 56.0000063,56.0000063 C56.0000063,55.1168063 55.2831938,54.3999938 54.3999938,54.3999938 L41.6000063,54.3999938 Z M63.9999938,48 L76.8,48 L76.8,41.6000062 L63.9999938,41.6000062 L63.9999938,48 Z M62.4,38.4 L78.3999937,38.4 C79.2831937,38.4 80.0000062,39.1167938 80.0000062,39.9999938 L80.0000062,49.5999938 C80.0000062,50.4831938 79.2831937,51.2000063 78.3999937,51.2000063 L62.4,51.2000063 C61.5168,51.2000063 60.8000063,50.4831938 60.8000063,49.5999938 L60.8000063,39.9999938 C60.8000063,39.1167938 61.5168,38.4 62.4,38.4 L62.4,38.4 Z M41.6000063,48 L54.3999938,48 L54.3999938,41.6000062 L41.6000063,41.6000062 L41.6000063,48 Z M39.9999938,38.4 L56.0000063,38.4 C56.8832063,38.4 57.6,39.1167938 57.6,39.9999938 L57.6,49.5999938 C57.6,50.4831938 56.8832063,51.2000063 56.0000063,51.2000063 L39.9999938,51.2000063 C39.1167938,51.2000063 38.4,50.4831938 38.4,49.5999938 L38.4,39.9999938 C38.4,39.1167938 39.1167938,38.4 39.9999938,38.4 L39.9999938,38.4 Z M32.0000063,41.6000062 L19.2,41.6000062 L19.2,48 L32.0000063,48 L32.0000063,41.6000062 Z M35.1999937,39.9999938 L35.1999937,49.5999938 C35.1999937,50.4831938 34.4832,51.2000063 33.6,51.2000063 L17.6000006,51.2000063 C16.7168006,51.2000063 15.9999994,50.4831938 15.9999994,49.5999938 L15.9999994,39.9999938 C15.9999994,39.1167938 16.7168006,38.4 17.6000006,38.4 L33.6,38.4 C34.4832,38.4 35.1999937,39.1167938 35.1999937,39.9999938 L35.1999937,39.9999938 Z M59.1999938,25.5999937 L52.8,25.5999937 C51.9168,25.5999937 51.2000063,26.3168062 51.2000063,27.2000062 C51.2000063,28.0832062 51.9168,28.8 52.8,28.8 L59.1999938,28.8 C60.0831938,28.8 60.8000063,28.0832062 60.8000063,27.2000062 C60.8000063,26.3168062 60.0831938,25.5999937 59.1999938,25.5999937 L59.1999938,25.5999937 Z M72,28.8 C72.8832,28.8 73.5999938,28.0832062 73.5999938,27.2000062 C73.5999938,26.3168062 72.8832,25.5999937 72,25.5999937 L65.6000063,25.5999937 C64.7168063,25.5999937 63.9999938,26.3168062 63.9999938,27.2000062 C63.9999938,28.0832062 64.7168063,28.8 65.6000063,28.8 L72,28.8 Z M84.8000063,28.8 C85.6832062,28.8 86.4,28.0832062 86.4,27.2000062 C86.4,26.3168062 85.6832062,25.5999937 84.8000063,25.5999937 L78.3999938,25.5999937 C77.5167938,25.5999937 76.8,26.3168062 76.8,27.2000062 C76.8,28.0832062 77.5167938,28.8 78.3999938,28.8 L84.8000063,28.8 Z M24,25.5999937 L11.1999994,25.5999937 C10.3167994,25.5999937 9.6,26.3168062 9.6,27.2000062 C9.6,28.0832062 10.3167994,28.8 11.1999994,28.8 L24,28.8 C24.8832,28.8 25.5999937,28.0832062 25.5999937,27.2000062 C25.5999937,26.3168062 24.8832,25.5999937 24,25.5999937 L24,25.5999937 Z M64.7631938,82.9632 C64.5135938,82.8096 64.3056,82.5888 64.1679938,82.3152 L63.9999938,81.9776006 L63.8319938,82.3152 C63.7248,82.5279994 63.5744063,82.7088 63.3968063,82.8528 C63.5744063,83.1696 63.6399938,83.544 63.576,83.9103994 C63.7344,83.8592006 63.9008063,83.8335994 64.0656,83.8335994 C64.2384,83.8335994 64.4112,83.8623994 64.5759938,83.9168006 C64.5375938,83.5856006 64.6047938,83.2527994 64.7631938,82.9632 L64.7631938,82.9632 Z M69.8064,82.8432 L68.0415938,84.2736 L68.7488063,86.3439994 C68.9552062,86.9472 68.7824063,87.6144 68.3120062,88.0448006 C67.8399938,88.4720006 67.1600062,88.5824006 66.5775938,88.32 L64.0608,87.1856006 L61.4928,88.3232006 C61.2831937,88.416 61.0640062,88.4607994 60.8432062,88.4607994 C60.4479937,88.4607994 60.0560062,88.3136006 59.7552,88.0335994 C59.2863937,87.5967994 59.1216,86.9247994 59.3376,86.3216006 L60.0896063,84.2240006 L58.2591938,82.8944006 C57.6992062,82.488 57.4640062,81.7647994 57.6783937,81.1056 C57.8928,80.4464006 58.5072,80.0000006 59.1999938,80.0000006 L61.4112,80.0000006 L62.568,77.6847994 C63.1104,76.5999937 64.8896062,76.5999937 65.4320063,77.6847994 L66.5888063,80.0000006 L68.7999937,80.0000006 C69.4784063,80.0000006 70.0815937,80.4272006 70.3088062,81.0656006 C70.5344063,81.7040006 70.3328063,82.4175994 69.8064,82.8432 L69.8064,82.8432 Z M32.7632063,82.9632 C32.5136063,82.8096 32.3055938,82.5888 32.1680063,82.3152 L32.0000063,81.9776006 L31.8320063,82.3152 C31.7247938,82.5279994 31.5744,82.7088 31.3968,82.8528 C31.5744,83.1696 31.6400063,83.544 31.5759938,83.9103994 C31.7343938,83.8592006 31.9008,83.8335994 32.0655938,83.8335994 C32.2383938,83.8335994 32.4111938,83.8623994 32.5760063,83.9168006 C32.5376063,83.5856006 32.6048063,83.2527994 32.7632063,82.9632 L32.7632063,82.9632 Z M37.8063938,82.8432 L36.0416063,84.2736 L36.7488,86.3439994 C36.9552,86.9472 36.7824,87.6144 36.312,88.0448006 C35.8383938,88.4720006 35.1584063,88.5824006 34.5776063,88.32 L32.0607938,87.1856006 L29.4927938,88.3232006 C29.2832063,88.416 29.064,88.4607994 28.8432,88.4607994 C28.4480063,88.4607994 28.056,88.3136006 27.7551938,88.0335994 C27.2864063,87.5967994 27.1215938,86.9247994 27.3375938,86.3216006 L28.0896,84.2240006 L26.2592063,82.8944006 C25.6992,82.488 25.464,81.7647994 25.6784063,81.1056 C25.8927938,80.4464006 26.5071938,80.0000006 27.2000063,80.0000006 L29.4111938,80.0000006 L30.5679938,77.6847994 C31.1103938,76.5999937 32.8896,76.5999937 33.432,77.6847994 L34.5888,80.0000006 L36.8000063,80.0000006 C37.4784,80.0000006 38.0816063,80.4272006 38.3088,81.0656006 C38.5344,81.7040006 38.3328,82.4175994 37.8063938,82.8432 L37.8063938,82.8432 Z M48.7632,82.9632 C48.5136,82.8096 48.3056063,82.5888 48.168,82.3152 L48,81.9776006 L47.832,82.3152 C47.7248063,82.5279994 47.5743938,82.7088 47.3967938,82.8528 C47.5743938,83.1696 47.64,83.544 47.5760063,83.9103994 C47.7344063,83.8592006 47.9007938,83.8335994 48.0656063,83.8335994 C48.2384063,83.8335994 48.4112063,83.8623994 48.576,83.9168006 C48.5376,83.5856006 48.6048,83.2527994 48.7632,82.9632 L48.7632,82.9632 Z M53.8064063,82.8432 L52.0416,84.2736 L52.7487938,86.3439994 C52.9551938,86.9472 52.7823938,87.6144 52.3119938,88.0448006 C51.84,88.4720006 51.1584,88.5824006 50.5776,88.32 L48.0608063,87.1856006 L45.4928063,88.3232006 C45.2832,88.416 45.0639938,88.4607994 44.8431938,88.4607994 C44.448,88.4607994 44.0559938,88.3136006 43.7552063,88.0335994 C43.2864,87.5967994 43.1216063,86.9247994 43.3376063,86.3216006 L44.0895938,84.2240006 L42.2592,82.8944006 C41.6991938,82.488 41.4639938,81.7647994 41.6784,81.1056 C41.8928063,80.4464006 42.5072063,80.0000006 43.2,80.0000006 L45.4112063,80.0000006 L46.5680063,77.6847994 C47.1104063,76.5999937 48.8895938,76.5999937 49.4319938,77.6847994 L50.5887938,80.0000006 L52.8,80.0000006 C53.4783938,80.0000006 54.0816,80.4272006 54.3087938,81.0656006 C54.5343938,81.7040006 54.3327938,82.4175994 53.8064063,82.8432 L53.8064063,82.8432 Z M22.4000063,72 C22.4000063,72.8832 23.1168,73.5999937 24,73.5999937 L72,73.5999937 C72.8832,73.5999937 73.5999938,72.8832 73.5999938,72 C73.5999938,71.1168 72.8832,70.4000063 72,70.4000063 L24,70.4000063 C23.1168,70.4000063 22.4000063,71.1168 22.4000063,72 L22.4000063,72 Z M95.784,67.9968 C95.4975938,67.5039937 94.9695938,67.2 94.4000063,67.2 L78.3999938,67.2 C77.5167938,67.2 76.8,67.9167937 76.8,68.7999937 L76.8,92.7999994 L19.2,92.7999994 L19.2,68.7999937 C19.2,67.9167937 18.4832006,67.2 17.6000006,67.2 L1.59999994,67.2 C1.03040006,67.2 0.502400063,67.5039937 0.216,67.9968 C-0.0704000063,68.4896062 -0.072,69.0992062 0.2112,69.5936062 L6.15680063,80.0000006 L0.2112,90.4064006 C-0.072,90.9008006 -0.0704000063,91.5104006 0.216,92.0031994 C0.502400063,92.496 1.03040006,92.7999994 1.59999994,92.7999994 L11.1999994,92.7999994 C12.0831994,92.7999994 12.8000006,92.0832 12.8000006,91.2 C12.8000006,90.3168 12.0831994,89.6000006 11.1999994,89.6000006 L4.35680063,89.6000006 L9.3888,80.7936 C9.67040063,80.3007994 9.67040063,79.6992 9.3888,79.2063994 L4.35680063,70.4000062 L15.9999994,70.4000062 L15.9999994,94.4000001 C15.9999994,95.2832001 16.7168006,96 17.6000006,96 L78.3999938,96 C79.2831938,96 80.0000063,95.2832001 80.0000063,94.4000001 L80.0000063,70.4000062 L91.6431938,70.4000062 L86.6112,79.2063994 C86.3295938,79.6992 86.3295938,80.3007994 86.6112,80.7936 L91.6431938,89.6000006 L84.8000063,89.6000006 C83.9168063,89.6000006 83.1999938,90.3168 83.1999938,91.2 C83.1999938,92.0832 83.9168063,92.7999994 84.8000063,92.7999994 L94.4000063,92.7999994 C94.9695938,92.7999994 95.4975938,92.496 95.784,92.0031994 C96.0704063,91.5104006 96.072,90.9008006 95.7888,90.4064006 L89.8431938,80.0000006 L95.7888,69.5936062 C96.072,69.0992062 96.0704063,68.4896062 95.784,67.9968 L95.784,67.9968 Z M28.8,9.6 C28.8,11.3648063 30.2352,12.8000062 32.0000063,12.8000062 C33.7647938,12.8000062 35.1999938,11.3648063 35.1999938,9.6 C35.1999938,7.83519375 33.7647938,6.39999375 32.0000063,6.39999375 C30.2352,6.39999375 28.8,7.83519375 28.8,9.6 L28.8,9.6 Z M19.2,9.6 C19.2,11.3648063 20.6352,12.8000062 22.4000063,12.8000062 C24.1647938,12.8000062 25.5999938,11.3648063 25.5999938,9.6 C25.5999938,7.83519375 24.1647938,6.39999375 22.4000063,6.39999375 C20.6352,6.39999375 19.2,7.83519375 19.2,9.6 L19.2,9.6 Z M9.6,9.6 C9.6,11.3648063 11.0352,12.8000062 12.8000006,12.8000062 C14.5647994,12.8000062 15.9999994,11.3648063 15.9999994,9.6 C15.9999994,7.83519375 14.5647994,6.39999375 12.8000006,6.39999375 C11.0352,6.39999375 9.6,7.83519375 9.6,9.6 L9.6,9.6 Z M87.9999938,0 L8.00000063,0 C3.58880062,0 -2.56739074e-15,3.58880625 -2.56739074e-15,8.00000625 L-2.56739074e-15,17.6000062 C-2.56739074e-15,18.4832062 0.716799937,19.2 1.59999994,19.2 L87.9999938,19.2 C88.8831938,19.2 89.6000063,18.4832062 89.6000063,17.6000062 C89.6000063,16.7168062 88.8831938,15.9999937 87.9999938,15.9999937 L3.20000062,15.9999937 L3.20000062,8.00000625 C3.20000062,5.35359375 5.35359937,3.20000625 8.00000063,3.20000625 L87.9999938,3.20000625 C90.6464063,3.20000625 92.7999938,5.35359375 92.7999938,8.00000625 L92.7999938,62.4 C92.7999938,63.2832 93.5168063,63.9999938 94.4000063,63.9999938 C95.2832063,63.9999938 96,63.2832 96,62.4 L96,8.00000625 C96,3.58880625 92.4111938,0 87.9999938,0 L87.9999938,0 Z M9.71445147e-17,62.4 L9.71445147e-17,24 C9.71445147e-17,23.1168 0.716799937,22.4000062 1.59999994,22.4000062 C2.48319937,22.4000062 3.20000062,23.1168 3.20000062,24 L3.20000062,62.4 C3.20000062,63.2832 2.48319937,63.9999937 1.59999994,63.9999937 C0.716799937,63.9999937 9.71445147e-17,63.2832 9.71445147e-17,62.4 L9.71445147e-17,62.4 Z" id="Fill-1"></path>
                </g>
            </g>
        </g>
    </g>
</svg>