<svg xmlns="http://www.w3.org/2000/svg" xmlns:xlink="http://www.w3.org/1999/xlink" viewBox="0 0 32 32" version="1.1" width="64" height="64" style="fill: rgb(77, 77, 77);">
<g id="surface1">
<path style=" " d="M 5.46875 4.0625 L 4 8.46875 L 5.71875 11.15625 L 6.53125 8.65625 L 9.625 9.75 L 9.53125 11.96875 C 9.496094 12.796875 9.820313 13.59375 10.40625 14.1875 L 12.78125 16.625 C 12.859375 16.703125 12.976563 16.742188 13.0625 16.8125 C 12.367188 21.527344 12.007813 23.84375 11.84375 25 L 13.875 25 C 14.121094 23.289063 14.5625 20.214844 14.9375 17.65625 L 18.3125 18.65625 C 18.378906 18.675781 18.4375 18.714844 18.5 18.75 L 17.71875 25 L 19.71875 25 L 20.21875 21.09375 L 22.875 25 L 25.28125 25 L 20.5 17.9375 C 20.113281 17.367188 19.5625 16.949219 18.90625 16.75 L 14.625 15.46875 C 14.464844 15.421875 14.335938 15.335938 14.21875 15.21875 L 11.8125 12.78125 C 11.617188 12.582031 11.519531 12.308594 11.53125 12.03125 L 11.75 7.1875 L 9.75 7.09375 L 9.71875 7.65625 L 7.1875 6.75 L 7.8125 4.8125 Z M 18.25 6.90625 C 16.121094 6.90625 14.375 8.652344 14.375 10.78125 C 14.375 12.910156 16.121094 14.65625 18.25 14.65625 C 20.378906 14.65625 22.125 12.910156 22.125 10.78125 C 22.125 8.652344 20.378906 6.90625 18.25 6.90625 Z M 18.25 8.90625 C 19.296875 8.90625 20.125 9.734375 20.125 10.78125 C 20.125 11.828125 19.296875 12.65625 18.25 12.65625 C 17.203125 12.65625 16.375 11.828125 16.375 10.78125 C 16.375 9.734375 17.203125 8.90625 18.25 8.90625 Z M 10 26 L 10 28 L 28 28 L 28 26 Z "/>
</g>
</svg>