<svg xmlns="http://www.w3.org/2000/svg" xmlns:xlink="http://www.w3.org/1999/xlink" viewBox="0 0 32 32" version="1.1" width="64" height="64" style="fill: rgb(77, 77, 77);">
<g id="surface1">
<path style=" " d="M 13.96875 2.9375 C 12.867188 2.9375 11.9375 3.835938 11.90625 4.9375 L 11.75 10.9375 C 11.488281 11.148438 11.199219 11.386719 10.625 12.03125 C 9.847656 12.90625 8.9375 14.082031 8.9375 15.59375 C 8.9375 17.769531 9.34375 19.308594 9.34375 21 C 9.34375 22.472656 9.230469 24.347656 9.125 25.78125 C 8.992188 27.53125 10.398438 29.0625 12.15625 29.0625 L 19.84375 29.0625 C 21.601563 29.0625 23.007813 27.53125 22.875 25.78125 C 22.769531 24.347656 22.65625 22.472656 22.65625 21 C 22.65625 19.308594 23.0625 17.769531 23.0625 15.59375 C 23.0625 14.082031 22.152344 12.90625 21.375 12.03125 C 20.800781 11.386719 20.511719 11.148438 20.25 10.9375 L 20.09375 4.9375 C 20.066406 3.835938 19.132813 2.9375 18.03125 2.9375 Z M 14.03125 5.0625 L 17.96875 5.0625 L 18 5.9375 L 14 5.9375 Z M 13.9375 8.0625 L 18.0625 8.0625 L 18.15625 11.4375 L 18.15625 11.9375 L 18.5625 12.25 C 18.5625 12.25 19.1875 12.703125 19.8125 13.40625 C 20.4375 14.109375 20.9375 15.03125 20.9375 15.59375 C 20.9375 16.058594 20.910156 16.507813 20.875 16.9375 L 18.90625 16.9375 C 18.792969 16.691406 18.683594 16.453125 18.53125 16.25 C 17.894531 15.386719 16.894531 15.03125 16 15.03125 C 15.105469 15.03125 14.105469 15.386719 13.46875 16.25 C 13.316406 16.453125 13.207031 16.691406 13.09375 16.9375 L 11.125 16.9375 C 11.089844 16.507813 11.0625 16.058594 11.0625 15.59375 C 11.0625 15.03125 11.5625 14.109375 12.1875 13.40625 C 12.8125 12.703125 13.4375 12.25 13.4375 12.25 L 13.84375 11.9375 L 13.84375 11.4375 Z M 16 16.96875 C 16.484375 16.96875 16.734375 17.046875 17 17.40625 C 17.265625 17.765625 17.53125 18.558594 17.53125 20 C 17.53125 21.441406 17.265625 22.234375 17 22.59375 C 16.734375 22.953125 16.484375 23.03125 16 23.03125 C 15.515625 23.03125 15.265625 22.953125 15 22.59375 C 14.734375 22.234375 14.46875 21.441406 14.46875 20 C 14.46875 18.558594 14.734375 17.765625 15 17.40625 C 15.265625 17.046875 15.515625 16.96875 16 16.96875 Z M 11.34375 19.0625 L 12.59375 19.0625 C 12.570313 19.363281 12.53125 19.660156 12.53125 20 C 12.53125 20.339844 12.570313 20.636719 12.59375 20.9375 L 11.46875 20.9375 C 11.464844 20.265625 11.40625 19.660156 11.34375 19.0625 Z M 19.40625 19.0625 L 20.65625 19.0625 C 20.59375 19.660156 20.535156 20.265625 20.53125 20.9375 L 19.40625 20.9375 C 19.429688 20.636719 19.46875 20.339844 19.46875 20 C 19.46875 19.660156 19.429688 19.363281 19.40625 19.0625 Z M 11.40625 23.0625 L 13.09375 23.0625 C 13.207031 23.308594 13.316406 23.546875 13.46875 23.75 C 14.105469 24.613281 15.105469 24.96875 16 24.96875 C 16.894531 24.96875 17.894531 24.613281 18.53125 23.75 C 18.683594 23.546875 18.792969 23.308594 18.90625 23.0625 L 20.59375 23.0625 C 20.644531 24.070313 20.71875 25.082031 20.78125 25.9375 C 20.824219 26.507813 20.414063 26.9375 19.84375 26.9375 L 12.15625 26.9375 C 11.585938 26.9375 11.175781 26.511719 11.21875 25.9375 C 11.28125 25.082031 11.355469 24.070313 11.40625 23.0625 Z "/>
</g>
</svg>