<svg xmlns="http://www.w3.org/2000/svg" xmlns:xlink="http://www.w3.org/1999/xlink" viewBox="0 0 32 32" version="1.1" width="64" height="64" style="fill: rgb(77, 77, 77);">
<g id="surface1">
<path style=" " d="M 13.9375 3 C 12.714844 3.015625 11.464844 3.726563 10.875 5 C 9.4375 5.234375 8.449219 6.316406 8.125 7.5625 C 7.8125 7.566406 7.5625 7.59375 7.5625 7.59375 L 6.4375 7.71875 L 6.6875 8.84375 L 9.03125 18.53125 L 3 24.5625 L 6.71875 28.28125 L 7.4375 28.96875 L 12 24.40625 L 12 29 L 14 29 L 14 24.1875 C 14.984375 25.199219 16 26.6875 16 29 L 18 29 C 18 26.722656 17.125 24.921875 16.15625 23.625 L 23.15625 25.3125 L 24.15625 25.5625 L 24.375 24.59375 C 24.375 24.59375 24.429688 24.339844 24.46875 24 C 25.257813 24.011719 26.027344 23.738281 26.625 23.28125 C 27.597656 22.539063 28.191406 21.257813 27.9375 19.875 C 29.808594 17.953125 28.769531 14.671875 26.25 14.0625 C 27.117188 12.902344 27.285156 11.238281 26.3125 9.9375 C 26.316406 9.925781 26.308594 9.917969 26.3125 9.90625 C 26.738281 8.589844 26.335938 7.21875 25.46875 6.375 C 24.597656 5.523438 23.21875 5.144531 21.90625 5.625 L 21.875 5.625 C 21.324219 5.246094 20.726563 5.050781 20.125 5.03125 C 19.527344 5.011719 18.941406 5.167969 18.40625 5.4375 C 18.007813 5.191406 17.53125 5.011719 17.03125 4.9375 C 17.027344 4.9375 17.035156 4.90625 17.03125 4.90625 C 16.402344 3.652344 15.160156 2.984375 13.9375 3 Z M 13.9375 5 C 14.449219 4.992188 14.957031 5.230469 15.25 5.8125 L 15.46875 6.28125 L 15.71875 6.75 L 16.25 6.8125 L 16.75 6.875 C 16.796875 6.882813 16.832031 6.894531 16.875 6.90625 C 16.605469 7.394531 16.429688 7.945313 16.4375 8.5625 C 15.972656 8.902344 15.617188 9.335938 15.375 9.8125 C 15.171875 9.738281 14.953125 9.703125 14.75 9.65625 C 14.902344 9.480469 15 9.25 15 9 C 15 8.449219 14.550781 8 14 8 C 13.449219 8 13 8.449219 13 9 C 13 9.203125 13.085938 9.375 13.1875 9.53125 C 13.070313 9.539063 12.957031 9.546875 12.84375 9.5625 C 12.09375 8.597656 11.066406 8.054688 10.125 7.8125 C 10.304688 7.382813 10.675781 7.058594 11.21875 6.96875 L 11.71875 6.875 L 12.25 6.78125 L 12.6875 5.84375 C 12.960938 5.253906 13.425781 5.007813 13.9375 5 Z M 19.96875 7 C 20.234375 7.015625 20.5 7.101563 20.75 7.28125 L 21.1875 7.5625 L 21.59375 7.875 L 22.09375 7.6875 L 22.59375 7.53125 C 23.199219 7.3125 23.699219 7.457031 24.0625 7.8125 C 24.425781 8.167969 24.609375 8.667969 24.40625 9.28125 L 24.09375 10.28125 L 24.40625 10.71875 L 24.71875 11.125 C 25.460938 12.101563 24.761719 13.453125 23.5 13.46875 L 23 13.46875 L 22.46875 13.5 L 21.90625 14.3125 C 21.890625 14.328125 21.871094 14.324219 21.84375 14.34375 C 21.757813 14.40625 21.609375 14.5 21.46875 14.5625 C 21.191406 14.6875 20.902344 14.6875 20.90625 14.6875 L 20.875 14.78125 C 20.171875 14.125 19.332031 13.679688 18.40625 13.53125 C 18.179688 12.492188 17.714844 11.597656 17.09375 10.9375 C 17.179688 10.65625 17.332031 10.402344 17.625 10.1875 L 18.03125 9.875 L 18.46875 9.5625 L 18.4375 9.0625 L 18.4375 8.53125 C 18.421875 7.582031 19.175781 6.953125 19.96875 7 Z M 8.96875 9.65625 C 9.195313 9.671875 9.203125 9.640625 9.46875 9.6875 C 10.363281 9.851563 11.183594 10.222656 11.5625 11 L 11.9375 11.78125 L 12.75 11.5 C 13.167969 11.367188 14.285156 11.4375 15.125 11.90625 C 15.964844 12.375 16.597656 13.101563 16.65625 14.40625 L 16.71875 15.5 L 17.78125 15.34375 C 18.113281 15.300781 19.207031 15.777344 19.875 16.625 C 20.542969 17.472656 20.753906 18.375 20.375 19.03125 L 19.875 19.9375 L 20.78125 20.4375 C 21.964844 21.058594 22.304688 21.894531 22.4375 22.6875 C 22.476563 22.917969 22.4375 22.90625 22.4375 23.09375 L 13.34375 20.875 L 11.125 18.625 Z M 21 10 C 20.449219 10 20 10.449219 20 11 C 20 11.550781 20.449219 12 21 12 C 21.550781 12 22 11.550781 22 11 C 22 10.449219 21.550781 10 21 10 Z M 24.40625 15.34375 L 24.5625 15.78125 L 25.15625 15.875 L 25.65625 15.9375 C 26.878906 16.101563 27.386719 17.558594 26.5 18.46875 L 26.125 18.84375 L 25.78125 19.21875 L 25.96875 20.21875 C 26.085938 20.863281 25.820313 21.402344 25.40625 21.71875 C 25.101563 21.949219 24.734375 22.070313 24.34375 22 C 24.085938 21.085938 23.429688 20.09375 22.40625 19.28125 C 22.445313 19.136719 22.476563 18.988281 22.5 18.84375 C 22.648438 18.933594 22.8125 19 23 19 C 23.550781 19 24 18.550781 24 18 C 24 17.449219 23.550781 17 23 17 C 22.761719 17 22.546875 17.082031 22.375 17.21875 C 22.300781 16.949219 22.210938 16.6875 22.09375 16.4375 C 22.15625 16.414063 22.222656 16.402344 22.28125 16.375 C 22.535156 16.261719 22.769531 16.136719 22.96875 16 C 23.167969 15.863281 23.335938 15.75 23.53125 15.46875 C 23.835938 15.464844 24.132813 15.417969 24.40625 15.34375 Z M 10 20.40625 L 11.59375 22 L 7.4375 26.15625 L 5.84375 24.5625 Z "/>
</g>
</svg>