<?xml version="1.0" encoding="utf-8"?>
<!-- Generator: Adobe Illustrator 16.0.3, SVG Export Plug-In . SVG Version: 6.00 Build 0)  -->
<!DOCTYPE svg PUBLIC "-//W3C//DTD SVG 1.1//EN" "http://www.w3.org/Graphics/SVG/1.1/DTD/svg11.dtd">
<svg version="1.1" id="Ebene_1" xmlns="http://www.w3.org/2000/svg" xmlns:xlink="http://www.w3.org/1999/xlink" x="0px" y="0px"
	 width="60px" height="120px" viewBox="0 0 60 120" enable-background="new 0 0 60 120" xml:space="preserve">
<title>Location Off</title>
<desc>Created with Sketch.</desc>
<path fill="#FF526E" d="M24.782,78c-1.707,0-2.99,1.264-3.847,2.675c-0.859,1.408-1.371,3.081-1.371,4.628
	c0,2.696,1.859,4.663,4.174,5.12V102h2.088V90.423C28.142,89.966,30,87.999,30,85.303c0-1.547-0.511-3.22-1.37-4.628
	C27.772,79.264,26.489,78,24.782,78z M32.088,78v7.303c0,1.936,1.335,3.546,3.13,4.014V102h2.088V89.316
	c1.795-0.468,3.13-2.078,3.13-4.014V78h-2.089v7.303c0,1.166-0.919,2.089-2.085,2.089s-2.088-0.923-2.088-2.089V78H32.088z
	 M35.218,78v7.303c0,0.577,0.467,1.044,1.044,1.044c0.576,0,1.044-0.467,1.044-1.044V78H35.218z M24.782,80.085
	c0.599,0,1.402,0.592,2.054,1.665c0.652,1.07,1.077,2.51,1.077,3.553c0,2.094-1.302,3.133-3.131,3.133
	c-1.828,0-3.131-1.039-3.131-3.133c0-1.043,0.425-2.482,1.077-3.553C23.381,80.677,24.184,80.085,24.782,80.085z"/>
<path fill="#606060" d="M25.652,20c-1.422,0-2.493,1.053-3.206,2.227c-0.716,1.178-1.142,2.572-1.142,3.861
	c0,2.245,1.55,3.883,3.478,4.265V40h1.741v-9.647C28.45,29.97,30,28.332,30,26.087c0-1.289-0.427-2.683-1.142-3.861
	C28.145,21.053,27.074,20,25.652,20z M31.741,20v6.087c0,1.611,1.111,2.953,2.607,3.341V40h1.74V29.428
	c1.495-0.388,2.607-1.73,2.607-3.341V20h-1.741v6.087c0,0.97-0.764,1.738-1.735,1.738c-0.973,0-1.743-0.769-1.743-1.738V20H31.741z
	 M34.349,20v6.087c0,0.478,0.389,0.868,0.871,0.868c0.479,0,0.869-0.39,0.869-0.868V20H34.349z M25.652,21.739
	c0.498,0,1.167,0.493,1.711,1.386c0.543,0.892,0.898,2.089,0.898,2.962c0,1.743-1.085,2.609-2.61,2.609s-2.61-0.866-2.61-2.609
	c0-0.873,0.355-2.07,0.898-2.962C24.484,22.232,25.154,21.739,25.652,21.739z"/>
</svg>
