<svg xmlns="http://www.w3.org/2000/svg" xmlns:xlink="http://www.w3.org/1999/xlink" viewBox="0 0 32 32" version="1.1" width="64" height="64" style="fill: rgb(77, 77, 77);">
<g id="surface1">
<path style=" " d="M 9.5 4 C 7.027344 4 5 6.027344 5 8.5 C 5 10.972656 7.027344 13 9.5 13 C 11.972656 13 14 10.972656 14 8.5 C 14 6.027344 11.972656 4 9.5 4 Z M 9.5 6 C 10.890625 6 12 7.109375 12 8.5 C 12 9.890625 10.890625 11 9.5 11 C 8.109375 11 7 9.890625 7 8.5 C 7 7.109375 8.109375 6 9.5 6 Z M 23 8 L 23 9.09375 C 21.050781 9.496094 19.496094 11.050781 19.09375 13 L 18 13 L 18 15 L 30 15 L 30 13 L 28.90625 13 C 28.503906 11.050781 26.949219 9.496094 25 9.09375 L 25 8 Z M 24 11 C 25.320313 11 26.4375 11.828125 26.84375 13 L 21.15625 13 C 21.5625 11.828125 22.679688 11 24 11 Z M 4 14 L 4 16 L 6.25 16 L 8.4375 23.28125 L 8.65625 24 L 10.34375 24 L 10.5625 23.28125 L 12.75 16 L 14.53125 16 L 17.40625 20.65625 L 18.0625 21.75 L 18.9375 20.875 L 21.90625 18 L 26 18 L 26 16 L 21.09375 16 L 20.8125 16.28125 L 18.4375 18.5625 L 15.9375 14.46875 L 15.65625 14 L 11.25 14 L 11.03125 14.71875 L 9.5 19.875 L 7.96875 14.71875 L 7.75 14 Z M 14 18.25 L 14 26 L 4 26 L 4 28 L 16 28 L 16 21.625 Z "/>
</g>
</svg>