<svg xmlns="http://www.w3.org/2000/svg" xmlns:xlink="http://www.w3.org/1999/xlink" viewBox="0 0 32 32" version="1.1" width="64" height="64" style="fill: rgb(77, 77, 77);">
<g id="surface1">
<path style=" " d="M 19.28125 6.15625 L 14.78125 10.65625 L 16.21875 12.09375 L 17.9375 10.375 L 20.46875 12.90625 L 17.65625 15 L 12.4375 15 L 9.84375 12.40625 L 9 9 L 7 9 L 7.75 12 L 7 12 C 3.699219 12 1 14.699219 1 18 L 1 20 L 0 20 L 0 22 L 4.28125 22 C 4.726563 23.71875 6.273438 25 8.125 25 C 9.976563 25 11.523438 23.71875 11.96875 22 L 20.15625 22 C 20.601563 23.71875 22.148438 25 24 25 C 25.851563 25 27.398438 23.71875 27.84375 22 L 32 22 L 32 20 L 31 20 L 31 19.40625 C 31 16.371094 28.914063 13.703125 25.96875 12.96875 L 22.53125 12.09375 L 19.375 8.9375 L 20.71875 7.59375 Z M 7 14 L 8.5625 14 L 11.28125 16.71875 L 11.59375 17 L 18.34375 17 L 22.21875 14.09375 L 25.5 14.90625 C 27.566406 15.421875 29 17.277344 29 19.40625 L 29 20 L 27.84375 20 C 27.398438 18.28125 25.851563 17 24 17 C 22.148438 17 20.601563 18.28125 20.15625 20 L 11.96875 20 C 11.523438 18.28125 9.976563 17 8.125 17 C 6.273438 17 4.726563 18.28125 4.28125 20 L 3 20 L 3 18 C 3 15.78125 4.78125 14 7 14 Z M 8.125 19 C 9.242188 19 10.125 19.882813 10.125 21 C 10.125 22.117188 9.242188 23 8.125 23 C 7.007813 23 6.125 22.117188 6.125 21 C 6.125 19.882813 7.007813 19 8.125 19 Z M 24 19 C 25.117188 19 26 19.882813 26 21 C 26 22.117188 25.117188 23 24 23 C 22.882813 23 22 22.117188 22 21 C 22 19.882813 22.882813 19 24 19 Z "/>
</g>
</svg>