<svg xmlns="http://www.w3.org/2000/svg" xmlns:xlink="http://www.w3.org/1999/xlink" viewBox="0 0 32 32" version="1.1" width="64" height="64" style="fill: rgb(77, 77, 77);">
<g id="surface1">
<path style=" " d="M 10 4 L 10 11.09375 C 10.328125 11.046875 10.660156 11 11 11 C 11.339844 11 11.671875 11.046875 12 11.09375 L 12 6 L 26 6 L 26 24 L 19.03125 24 C 19.347656 24.628906 19.621094 25.296875 19.78125 26 L 28 26 L 28 4 Z M 14 8 L 14 10 L 16 10 L 16 8 Z M 18 8 L 18 10 L 20 10 L 20 8 Z M 22 8 L 22 10 L 24 10 L 24 8 Z M 14.59375 12 C 15.109375 12.3125 15.578125 12.695313 16 13.125 L 16 12 Z M 18 12 L 18 14 L 20 14 L 20 12 Z M 22 12 L 22 14 L 24 14 L 24 12 Z M 11 13 C 8.25 13 6 15.25 6 18 C 6 19.515625 6.707031 20.863281 7.78125 21.78125 C 5.535156 22.949219 4 25.300781 4 28 L 6 28 C 6 25.226563 8.226563 23 11 23 C 13.773438 23 16 25.226563 16 28 L 18 28 C 18 25.300781 16.46875 22.949219 14.21875 21.78125 C 15.292969 20.863281 16 19.515625 16 18 C 16 15.25 13.75 13 11 13 Z M 11 15 C 12.667969 15 14 16.332031 14 18 C 14 19.667969 12.667969 21 11 21 C 9.332031 21 8 19.667969 8 18 C 8 16.332031 9.332031 15 11 15 Z M 18 16 L 18 18 L 20 18 L 20 16 Z M 22 16 L 22 18 L 24 18 L 24 16 Z M 18 20 L 18 22 L 20 22 L 20 20 Z M 22 20 L 22 22 L 24 22 L 24 20 Z "/>
</g>
</svg>