<svg xmlns="http://www.w3.org/2000/svg" xmlns:xlink="http://www.w3.org/1999/xlink" viewBox="0 0 32 32" version="1.1" width="64" height="64" style="fill: rgb(77, 77, 77);">
<g id="surface1">
<path style=" " d="M 16 2 C 15.449219 2 15 2.449219 15 3 C 15 3.011719 15 3.019531 15 3.03125 C 11.6875 3.234375 9.566406 4.449219 8.40625 6.21875 C 7.132813 8.160156 7 10.523438 7 12.625 C 6.996094 12.667969 6.996094 12.707031 7 12.75 C 6.988281 12.832031 6.988281 12.917969 7 13 L 7 15.90625 C 6.425781 16.449219 6 17.148438 6 18 C 6 19.257813 6.890625 20.15625 8 20.59375 C 8.371094 21.761719 8.773438 22.988281 9.21875 24.03125 C 9.707031 25.171875 10.144531 26.078125 10.75 26.71875 C 13.621094 29.753906 18.378906 29.753906 21.25 26.71875 C 21.855469 26.078125 22.261719 25.171875 22.75 24.03125 C 23.195313 22.988281 23.628906 21.761719 24 20.59375 C 25.109375 20.15625 26 19.257813 26 18 C 26 17.152344 25.570313 16.453125 25 15.90625 L 25 13 C 24.996094 12.9375 24.984375 12.875 24.96875 12.8125 C 24.984375 12.75 24.996094 12.6875 25 12.625 C 25 10.523438 24.867188 8.160156 23.59375 6.21875 C 22.433594 4.449219 20.3125 3.234375 17 3.03125 C 17 3.019531 17 3.011719 17 3 C 17 2.449219 16.550781 2 16 2 Z M 15.875 5 L 15.875 5.03125 C 15.402344 5.058594 14.917969 5.207031 14.5625 5.5625 C 14.175781 5.949219 14 6.488281 14 7 L 14 8 C 14 8.511719 14.175781 9.050781 14.5625 9.4375 C 14.933594 9.808594 15.449219 9.953125 15.9375 9.96875 C 15.941406 9.96875 15.933594 10 15.9375 10 C 12.804688 10.007813 10.507813 10.6875 9.09375 11.1875 C 9.1875 9.722656 9.398438 8.324219 10.0625 7.3125 C 10.933594 5.984375 12.484375 5.023438 15.875 5 Z M 16 5 C 16.089844 5 16.164063 5 16.25 5 C 16.140625 5 16.039063 5.027344 16 5.03125 Z M 16.34375 5 C 19.574219 5.066406 21.085938 6.015625 21.9375 7.3125 C 22.601563 8.324219 22.8125 9.722656 22.90625 11.1875 C 21.53125 10.703125 19.316406 10.042969 16.3125 10 C 16.480469 9.980469 16.695313 9.925781 16.9375 9.8125 C 17.449219 9.570313 18 8.84375 18 8 L 16.0625 8 C 16.050781 8.007813 16 8.21875 16 8 L 16 7 C 16.03125 7 16.0625 7 16.09375 7 L 18 7 C 18 6.140625 17.445313 5.390625 16.90625 5.15625 C 16.683594 5.058594 16.496094 5.007813 16.34375 5 Z M 16 12 C 19.054688 12 21.835938 12.855469 23 13.28125 C 22.960938 14.234375 22.746094 14.6875 22.625 14.8125 C 22.492188 14.949219 22.292969 14.996094 21.6875 14.9375 C 20.476563 14.816406 18.351563 14 16 14 C 13.636719 14 11.519531 14.863281 10.3125 15 C 9.710938 15.070313 9.507813 15.015625 9.375 14.875 C 9.253906 14.75 9.035156 14.28125 9 13.28125 C 10.164063 12.855469 12.945313 12 16 12 Z M 16 16 C 17.847656 16 19.726563 16.761719 21.46875 16.9375 C 21.964844 16.988281 22.492188 16.96875 23 16.8125 L 23 16.84375 L 23.5 17.125 C 23.804688 17.300781 24 17.621094 24 18 C 24 18.535156 23.617188 18.957031 23.09375 19 L 22.40625 19.03125 L 22.21875 19.6875 C 21.847656 20.890625 21.386719 22.160156 20.9375 23.21875 C 20.488281 24.277344 19.972656 25.175781 19.8125 25.34375 C 17.683594 27.59375 14.316406 27.59375 12.1875 25.34375 C 12.027344 25.175781 11.511719 24.277344 11.0625 23.21875 C 10.613281 22.160156 10.152344 20.890625 9.78125 19.6875 L 9.59375 19.03125 L 8.90625 19 C 8.382813 18.957031 8 18.535156 8 18 C 8 17.625 8.191406 17.300781 8.5 17.125 L 8.9375 16.875 C 9.460938 17.042969 10.011719 17.058594 10.53125 17 C 12.277344 16.800781 14.167969 16 16 16 Z M 13 17 C 12.449219 17 12 17.449219 12 18 C 12 18.550781 12.449219 19 13 19 C 13.550781 19 14 18.550781 14 18 C 14 17.449219 13.550781 17 13 17 Z M 19 17 C 18.449219 17 18 17.449219 18 18 C 18 18.550781 18.449219 19 19 19 C 19.550781 19 20 18.550781 20 18 C 20 17.449219 19.550781 17 19 17 Z M 14 22 L 14 24 L 15 24 L 15 26 L 17 26 L 17 24 L 18 24 L 18 22 Z "/>
</g>
</svg>