<?xml version="1.0" encoding="UTF-8" standalone="no"?>
<svg width="40px" height="56px" viewBox="0 0 40 56" version="1.1" xmlns="http://www.w3.org/2000/svg" xmlns:xlink="http://www.w3.org/1999/xlink" xmlns:sketch="http://www.bohemiancoding.com/sketch/ns">
    <!-- Generator: Sketch 3.2.2 (9983) - http://www.bohemiancoding.com/sketch -->
    <title>IconLeader</title>
    <desc>Created with Sketch.</desc>
    <defs>
        <path id="path-1" d="M0,-0.000554577528 L39.376229,-0.000554577528 L39.376229,55.4577529 L0,55.4577529"></path>
    </defs>
    <g id="Contents" stroke="none" stroke-width="1" fill="none" fill-rule="evenodd" sketch:type="MSPage">
        <g id="StyleGuide" sketch:type="MSArtboardGroup" transform="translate(-711.000000, -5540.000000)">
            <g id="IconLeader" sketch:type="MSLayerGroup" transform="translate(711.500000, 5540.000000)">
                <mask id="mask-2" sketch:name="Clip 2" fill="white">
                    <use xlink:href="#path-1"></use>
                </mask>
                <g id="Clip-2"></g>
                <path d="M19.4907756,6.54334934 C26.2799178,6.54334934 31.7900535,11.995401 31.7900535,18.6930338 C31.7900535,25.3135804 26.2799178,30.7656321 19.4907756,30.7656321 C12.6208779,30.7656321 6.94980007,25.3135804 6.94980007,18.6930338 C6.94980007,11.995401 12.6203092,6.54334934 19.4907756,6.54334934 M6.70923991,21.1858598 C5.91305971,21.5757278 1.51757633,22.9782544 1.43966441,23.8350767 C1.35947769,24.4573127 1.43966441,25.0806578 1.75813648,25.8592847 C2.55772888,27.5729292 3.59617534,27.9627972 4.47311096,27.9627972 C4.79385784,27.9627972 8.3061499,25.9374801 8.46652334,25.7821984 L8.78783892,25.704003 L8.54727876,25.7821984 C8.06900195,26.2491527 4.6340531,29.3636601 4.87176975,30.1439506 C4.95252517,30.7656321 5.35345877,31.3118909 5.91305971,31.8575952 C6.70980861,32.6362221 7.50940101,33.0244263 8.22937539,33.0244263 C8.7087896,33.0244263 11.5835688,29.6753326 12.0624143,29.2083784 L12.3814551,29.1301829 L12.2233565,29.3636601 C11.9020409,29.9870052 9.9064721,34.1152803 10.4655043,34.7386255 C10.8647318,35.2050252 11.34244,35.6736432 12.0624143,35.9065657 C12.7016333,36.1405975 13.2606655,36.2953246 13.6593243,36.2953246 C14.7773888,36.2953246 16.5346722,31.9335723 16.8531443,31.1549455 L16.933331,30.9996638 L16.933331,31.1549455 C16.933331,31.9335723 16.6956144,36.4517155 17.4923633,36.8404743 C17.9712088,37.2303423 18.6104278,37.3850694 19.4907756,37.3850694 C20.2073377,37.3850694 20.9267434,37.2303423 21.4055889,36.8404743 C22.20575,36.4517155 21.9646212,31.9335723 21.9646212,31.1549455 C22.4468789,31.9335723 24.1205634,36.2953246 25.1612847,36.2953246 C25.6401302,36.2953246 26.1997311,36.1405975 26.7587634,35.9065657 C27.556081,35.6736432 28.0372013,35.2055797 28.4358601,34.7386255 C28.9147056,34.1152803 26.9162933,29.9870052 26.5983899,29.3636601 L26.5983899,29.1301829 L26.6785766,29.2083784 C27.1574222,29.6747781 30.1140942,33.0244263 30.592371,33.0244263 C31.4693066,33.0244263 32.189281,32.6362221 32.9894421,31.8575952 C33.5484743,31.3118909 33.8663777,30.7661866 34.0278886,30.1439506 C34.3452232,29.3636601 30.6731264,26.2491527 30.1937122,25.7821984 L30.1140942,25.704003 L30.3518109,25.7821984 C30.512753,25.9374801 34.0278886,27.9627972 34.5061654,27.9627972 C35.2255711,27.9627972 36.424391,27.5729292 37.0607664,25.8592847 C37.3815133,25.0806578 37.5418867,24.4573127 37.3815133,23.8350767 C37.3007579,22.9776998 32.9888734,21.5757278 32.1887123,21.1858598 C33.0684914,21.1858598 37.6994167,21.4187824 38.1014877,20.5619601 C38.4188224,20.0950058 38.5797645,19.4716607 38.5797645,18.6930338 C38.5797645,17.914407 38.4188224,17.2139756 38.1014877,16.7453576 C37.6994167,16.0449261 33.0696288,16.2784033 32.1887123,16.2784033 L32.0323198,16.2784033 L32.1887123,16.2002078 C32.9888734,15.8896444 37.3007579,14.409477 37.3815133,13.4739047 C37.5424554,12.928755 37.3815133,12.2288782 37.0607664,11.526783 C36.424391,9.81424761 35.2267085,9.50257504 34.5061654,9.50257504 C34.0278886,9.50257504 30.5116156,11.526783 30.3518109,11.6831739 L30.1140942,11.7602602 L30.1937122,11.526783 C30.6731264,11.0598287 34.3452232,8.02185303 34.0278886,7.16503075 C33.8663777,6.61988104 33.5484743,6.07528591 32.9894421,5.45138619 C32.189281,4.75095477 31.4693066,4.4392822 30.592371,4.4392822 C30.1140942,4.4392822 27.1574222,7.55545333 26.6785766,8.10060304 L26.5983899,8.33408018 L26.5983899,8.02240761 C26.9162933,7.39906247 28.9147056,3.34898278 28.4358601,2.57035593 C28.0372013,2.10340165 27.556081,1.79172908 26.7587634,1.48005651 C26.1997311,1.24713395 25.6401302,1.16838394 25.1612847,1.16838394 C24.1205634,1.16838394 22.4468789,5.45194077 21.9646212,6.30876305 C21.9646212,5.45138619 22.20575,0.934906798 21.4055889,0.467952519 C20.9267434,0.156279948 20.2073377,-0.000665493033 19.4907756,-0.000665493033 C18.6104278,-0.000665493033 17.9712088,0.156279948 17.4923633,0.467952519 C16.6956144,0.934906798 16.933331,5.45194077 16.933331,6.30876305 L16.933331,6.46570849 L16.8531443,6.30931763 C16.5352409,5.45249534 14.7773888,1.16893851 13.6593243,1.16893851 C13.2606655,1.16893851 12.702202,1.24713395 12.0624143,1.48061109 C11.34244,1.79228366 10.8647318,2.10395623 10.4655043,2.57091051 C9.9064721,3.34953736 11.9020409,7.39906247 12.2233565,8.02296219 L12.3814551,8.33463476 L12.0624143,8.10115762 C11.5835688,7.55600791 8.7087896,4.43983678 8.22937539,4.43983678 C7.50940101,4.43983678 6.70923991,4.75150935 5.91305971,5.45194077 C5.35345877,6.07528591 4.95252517,6.62043562 4.87176975,7.16558533 C4.6334844,8.02296219 8.06900195,11.0603833 8.54727876,11.5273376 L8.78783892,11.7608147 L8.46652334,11.6837285 C8.3061499,11.5273376 4.79442654,9.50312961 4.47311096,9.50312961 C3.59617534,9.50312961 2.55829758,9.81480218 1.75813648,11.5273376 C1.43966441,12.2288782 1.35947769,12.9293096 1.43966441,13.4744593 C1.51757633,14.4100316 5.91305971,15.890199 6.70923991,16.2007624 L6.87018205,16.2789579 L6.70923991,16.2789579 C5.91305971,16.2789579 1.27985967,16.0454807 0.800445448,16.7459121 C0.398943149,17.2139756 0.318756429,17.914407 0.318756429,18.6930338 C0.318756429,19.4716607 0.398943149,20.0950058 0.800445448,20.5619601 C1.27985967,21.419337 5.91305971,21.1858598 6.70923991,21.1858598" id="Fill-1" fill="#FFFFFF" sketch:type="MSShapeGroup" mask="url(#mask-2)"></path>
                <path d="M19.4907756,27.9625754 C24.7603511,27.9625754 28.9147056,23.8343003 28.9147056,18.692812 C28.9147056,13.4742375 24.7603511,9.34596234 19.4907756,9.34596234 C14.1376011,9.34596234 9.82571668,13.4736829 9.82571668,18.692812 C9.82571668,23.8343003 14.1376011,27.9625754 19.4907756,27.9625754 Z M18.0748805,17.6631365 L18.0748805,24.0546032 L20.7628805,24.0546032 L20.7628805,13.6460699 L18.6572805,13.6460699 C18.5527472,15.2887365 17.0444805,15.8263365 15.5810139,15.7964699 L15.5810139,17.6631365 L18.0748805,17.6631365 Z" id="Fill-4" fill="#FFFFFF" sketch:type="MSShapeGroup" mask="url(#mask-2)"></path>
                <path d="M31.8710933,35.1284935 L31.7101511,35.1284935 C31.549209,35.1284935 31.4724345,35.1284935 31.3911104,35.0497435 C31.2313056,35.5948932 30.9122648,35.9847612 30.5920867,36.4517155 C30.0330544,37.2303423 29.3130801,37.6972966 28.1148289,38.2418917 C27.2378932,38.5546734 26.5184876,38.7110643 25.8019254,38.7110643 C25.0017643,38.7110643 24.2823586,38.5541189 23.5623842,38.2418917 C23.2439121,38.5546734 22.9260088,38.9445414 22.447732,39.1780186 C21.5673841,39.646082 20.6091244,39.9566454 19.4916286,39.9566454 C18.29224,39.9566454 17.2554997,39.6466366 16.4553386,39.1780186 C15.9764931,38.9445414 15.5778343,38.5541189 15.176332,38.2418917 C14.6974864,38.5546734 13.9007375,38.7110643 13.1005764,38.7110643 C12.3806021,38.7110643 11.5838532,38.5541189 10.7035053,38.2418917 C9.66505889,37.6972966 8.78812327,37.2303423 8.22909104,36.4517155 C7.90777546,35.9853158 7.6700588,35.5948932 7.58930338,35.0497435 L7.50911666,35.1284935 L0,49.0689088 L7.75024552,49.6168314 L13.1000077,55.4565328 L19.7282079,45.25397 L26.3569767,55.4576419 L31.3888356,49.6955814 L39.376229,49.0689088 L31.8710933,35.1284935 Z" id="Fill-6" fill="#FFFFFF" sketch:type="MSShapeGroup" mask="url(#mask-2)"></path>
            </g>
        </g>
    </g>
</svg>