<?xml version="1.0" encoding="utf-8"?>
<!-- Generator: Adobe Illustrator 16.0.3, SVG Export Plug-In . SVG Version: 6.00 Build 0)  -->
<!DOCTYPE svg PUBLIC "-//W3C//DTD SVG 1.1//EN" "http://www.w3.org/Graphics/SVG/1.1/DTD/svg11.dtd">
<svg version="1.1" id="Ebene_1" xmlns="http://www.w3.org/2000/svg" xmlns:xlink="http://www.w3.org/1999/xlink" x="0px" y="0px"
	 width="85px" height="85px" viewBox="-33 -31 85 85" enable-background="new -33 -31 85 85" xml:space="preserve">
<title>Slice 1</title>
<desc>Created with Sketch.</desc>
<g id="Page-1">
	<g>
		<polygon id="Clip-2" fill="none" points="19.413,-0.5 -0.413,-0.5 -0.413,23.5 19.413,23.5 		"/>
		<path id="Fill-1" fill="#FFFFFF" d="M4.904,23.5c0.633-1.006,1.579-2.655,1.929-3.97c0.19-0.71,0.967-3.602,0.967-3.602
			c0.506,0.941,1.985,1.739,3.557,1.739c4.684,0,8.057-4.201,8.057-9.421c0-5.002-4.186-8.747-9.57-8.747
			C3.144-0.5-0.413,3.888-0.413,8.666c0,2.221,1.211,4.988,3.15,5.867c0.294,0.134,0.451,0.076,0.52-0.201
			c0.052-0.212,0.313-1.239,0.431-1.72c0.037-0.151,0.02-0.282-0.108-0.433c-0.641-0.759-1.155-2.156-1.155-3.457
			c0-3.34,2.593-6.573,7.009-6.573c3.814,0,6.484,2.535,6.484,6.162c0,4.098-2.12,6.935-4.879,6.935
			c-1.524,0-2.666-1.229-2.299-2.736c0.438-1.8,1.285-3.743,1.285-5.043c0-1.164-0.639-2.133-1.963-2.133
			c-1.558,0-2.809,1.572-2.809,3.678c0,1.342,0.463,2.249,0.463,2.249s-1.538,6.347-1.82,7.529
			c-0.312,1.309-0.189,3.146-0.054,4.344L4.904,23.5z"/>
	</g>
</g>
</svg>
