<svg xmlns="http://www.w3.org/2000/svg" xmlns:xlink="http://www.w3.org/1999/xlink" viewBox="0 0 32 32" version="1.1" width="64" height="64" style="fill: rgb(77, 77, 77);">
<g id="surface1">
<path style=" " d="M 12.5 3 C 10.578125 3 9 4.578125 9 6.5 C 9 8.421875 10.578125 10 12.5 10 C 14.421875 10 16 8.421875 16 6.5 C 16 4.578125 14.421875 3 12.5 3 Z M 12.5 5 C 13.339844 5 14 5.660156 14 6.5 C 14 7.339844 13.339844 8 12.5 8 C 11.660156 8 11 7.339844 11 6.5 C 11 5.660156 11.660156 5 12.5 5 Z M 16.1875 10.0625 L 15.6875 10.15625 L 11.40625 11.1875 L 10.9375 11.3125 L 10.75 11.78125 L 8.84375 16.09375 L 5.71875 15.3125 L 5.25 17.25 L 8.34375 18.03125 C 9.285156 18.269531 10.296875 17.796875 10.6875 16.90625 L 11.28125 15.53125 L 11.84375 18.96875 L 10.25 21.78125 C 10.078125 22.082031 10 22.433594 10 22.78125 L 10 28 L 12 28 L 12 22.75 L 13.78125 19.65625 L 13.9375 19.34375 L 13.875 19 L 12.875 12.90625 L 14.75 12.46875 L 15.6875 18.5 L 14.15625 21.53125 C 13.773438 22.285156 13.917969 23.203125 14.5 23.8125 L 17.3125 26.75 L 18.75 25.375 L 15.9375 22.4375 L 17.625 19.125 L 17.78125 18.8125 L 17.71875 18.5 L 16.90625 13.3125 L 18.09375 14.3125 C 18.792969 14.910156 19.816406 14.953125 20.5625 14.40625 L 23.15625 12.5 L 22 10.875 L 19.375 12.78125 L 16.5625 10.375 Z M 24 15.4375 L 24 19 C 22.894531 19 22 19.894531 22 21 C 22 22.105469 22.894531 23 24 23 C 25.105469 23 26 22.105469 26 21 L 26 17.4375 L 27 17.4375 L 27 15.4375 Z "/>
</g>
</svg>