<?xml version="1.0" encoding="UTF-8"?>
<svg width="96px" height="96px" viewBox="0 0 96 96" version="1.1" xmlns="http://www.w3.org/2000/svg" xmlns:xlink="http://www.w3.org/1999/xlink">
    <!-- Generator: Sketch 47.1 (45422) - http://www.bohemiancoding.com/sketch -->
    <title>target arrow</title>
    <desc>Created with Sketch.</desc>
    <defs></defs>
    <g id="Page-1" stroke="none" stroke-width="1" fill="none" fill-rule="evenodd">
        <g id="9---Verkauf_Ebene-2---Werbeformate" transform="translate(-702.000000, -312.000000)" fill="#00C7C7">
            <g id="Interregio-Boost" transform="translate(572.000000, 244.000000)">
                <path d="M134.8,122.399994 L131.6,122.399994 C130.7168,122.399994 130,123.116806 130,124.000006 C130,124.883206 130.7168,125.6 131.6,125.6 L134.8,125.6 C135.6832,125.6 136.399999,124.883206 136.399999,124.000006 C136.399999,123.116806 135.6832,122.399994 134.8,122.399994 L134.8,122.399994 Z M131.6,109.600006 L134.8,109.600006 C135.6832,109.600006 136.399999,108.883194 136.399999,107.999994 C136.399999,107.116794 135.6832,106.4 134.8,106.4 L131.6,106.4 C130.7168,106.4 130,107.116794 130,107.999994 C130,108.883194 130.7168,109.600006 131.6,109.600006 L131.6,109.600006 Z M146.9056,114.400006 L154,114.400006 C154.8832,114.400006 155.599994,115.1168 155.599994,116 C155.599994,116.8832 154.8832,117.599994 154,117.599994 L146.9056,117.599994 L144.0256,122.399994 L154.831994,122.399994 L159.950406,116 L154.831994,109.600006 L144.0256,109.600006 L146.9056,114.400006 Z M134.8,114.400006 L143.174401,114.400006 L139.828801,108.824 C139.531201,108.3296 139.5232,107.713606 139.807999,107.2112 C140.091199,106.710406 140.623999,106.4 141.199999,106.4 L147.348799,106.4 C148.9792,100.641594 152.047994,95.3728062 156.310394,91.1104062 C162.958394,84.4624062 171.7984,80.8000062 181.200006,80.8000062 C190.601594,80.8000062 199.4416,84.4624062 206.0896,91.1104062 C219.814394,104.833606 219.814394,127.166394 206.091194,140.891206 C199.443194,147.537599 190.603206,151.199999 181.2016,151.199999 C171.799994,151.199999 162.960006,147.537599 156.310394,140.889594 C153.425594,138.004794 151.0864,134.6864 149.359994,131.0288 C148.982406,130.228794 149.3248,129.275206 150.124806,128.899194 C150.9232,128.5232 151.876806,128.864 152.254394,129.662394 C153.8224,132.9872 155.9488,136.003194 158.572806,138.6272 C164.6176,144.6704 172.654394,148.000001 181.2016,148.000001 C189.748806,148.000001 197.784006,144.671994 203.8288,138.628794 C216.304,126.150406 216.302406,105.849594 203.827206,93.3728 C197.782394,87.3296 189.747194,83.9999937 181.200006,83.9999937 C172.6528,83.9999937 164.6176,87.3296 158.572806,93.3728 C154.912,97.0336062 152.208006,101.504 150.670394,106.4 L155.599994,106.4 C156.086406,106.4 156.545594,106.6208 156.849606,107 L157.118406,107.336 C158.3872,103.806406 160.414394,100.583994 163.099206,97.8992 C167.932806,93.0640062 174.3616,90.4000062 181.200006,90.4000062 L181.200006,90.4000062 C188.038394,90.4000062 194.467206,93.0640062 199.300806,97.8992 C209.283194,107.879994 209.283194,124.1216 199.300806,134.102394 C194.467206,138.937606 188.038394,141.599994 181.200006,141.599994 L181.200006,141.599994 C174.3616,141.599994 167.932806,138.935994 163.099206,134.1008 C161.44,132.443206 160.022406,130.576006 158.8816,128.553594 C158.4496,127.784 158.721606,126.808006 159.4912,126.374394 C160.264,125.9408 161.236806,126.2144 161.6704,126.983994 C162.667206,128.7536 163.908794,130.387194 165.3616,131.838406 C169.591994,136.0688 175.216,138.400006 181.200006,138.400006 C187.183994,138.400006 192.808,136.070394 197.038394,131.84 C205.7728,123.105594 205.7728,108.896 197.038394,100.161594 C192.808,95.9312 187.183994,93.5999937 181.200006,93.5999937 C175.216,93.5999937 169.591994,95.9312 165.3616,100.161594 C162.528006,102.993594 160.5328,106.508806 159.532806,110.356794 L162.768006,114.400006 L165.281594,114.400006 C165.641594,110.732806 167.2432,107.3312 169.886406,104.6864 C176.124794,98.4496062 186.2752,98.4496062 192.513606,104.6864 C198.751994,110.9264 198.751994,121.076806 192.513606,127.3136 C189.3952,130.4336 185.297594,131.992006 181.200006,131.992006 C177.1024,131.992006 173.006406,130.4336 169.886406,127.3136 C168.593594,126.020806 167.542394,124.537606 166.7632,122.905606 C166.380794,122.108806 166.718406,121.153606 167.515206,120.7712 C168.3088,120.392 169.267206,120.728 169.649594,121.5248 C170.273594,122.8304 171.113594,124.016 172.1488,125.051206 C177.139206,130.041594 185.260806,130.041594 190.251194,125.051206 C195.2416,120.0608 195.2416,111.940794 190.251194,106.948794 C185.260806,101.96 177.1408,101.961594 172.1488,106.948794 C170.112006,108.9872 168.859206,111.5888 168.511994,114.400006 L175.0288,114.400006 C175.308794,113.305606 175.8544,112.295994 176.673606,111.475194 C177.883206,110.267206 179.491206,109.600006 181.200006,109.600006 L181.200006,109.600006 C182.9104,109.600006 184.516806,110.267206 185.724794,111.475194 C188.220794,113.9696 188.222406,118.031994 185.726406,120.5264 C184.5184,121.732794 182.9104,122.399994 181.200006,122.399994 L181.200006,122.399994 C180.316806,122.399994 179.599994,121.684794 179.599994,120.8 C179.599994,119.9168 180.315194,119.200006 181.200006,119.200006 C182.056,119.200006 182.860806,118.867194 183.463994,118.262394 C184.0672,117.659206 184.399994,116.855994 184.399994,116 C184.399994,115.1456 184.0672,114.342406 183.4624,113.737606 C182.8576,113.132806 182.054406,112.799994 181.200006,112.799994 L181.200006,112.799994 C180.345606,112.799994 179.542394,113.132806 178.937594,113.737606 C178.7392,113.936 178.5808,114.163194 178.443194,114.400006 L181.200006,114.400006 C182.083206,114.400006 182.8,115.1168 182.8,116 C182.8,116.8832 182.083206,117.599994 181.200006,117.599994 L176.404806,117.599994 L176.4016,117.599994 L176.398394,117.599994 L167.016006,117.599994 C166.944006,117.609594 166.881606,117.643194 166.8064,117.643194 L166.8016,117.643194 C166.726394,117.643194 166.660806,117.609594 166.588806,117.599994 L162.7696,117.599994 L156.849606,125 C156.545594,125.3792 156.086406,125.6 155.599994,125.6 L141.199999,125.6 C140.623999,125.6 140.091199,125.289594 139.807999,124.7888 C139.5232,124.286394 139.531201,123.6704 139.828801,123.176 L143.174401,117.599994 L134.8,117.599994 C133.9168,117.599994 133.200001,116.8832 133.200001,116 C133.200001,115.1168 133.9168,114.400006 134.8,114.400006 L134.8,114.400006 Z M212.880006,147.678401 C210.676806,149.881601 208.279994,151.820801 205.735994,153.494399 L209.832006,161.684801 C210.2272,162.4752 209.9056,163.4352 209.115194,163.832 C208.886406,163.9456 208.641606,164 208.401606,164 C207.814394,164 207.249606,163.6768 206.968,163.1152 L202.9888,155.155199 C196.399994,158.833601 188.9536,160.799999 181.200006,160.799999 L181.200006,160.799999 C173.446394,160.799999 166,158.833601 159.412806,155.1536 L155.431994,163.1152 C155.150406,163.6768 154.5856,164 153.998406,164 C153.758406,164 153.513606,163.9456 153.2848,163.832 C152.494394,163.4352 152.172794,162.4752 152.568006,161.684801 L156.665594,153.4928 C154.12,151.820801 151.7248,149.881601 149.5216,147.678401 C144.739201,142.895994 141.180799,137.260794 138.948799,130.928 C138.6544,130.094394 139.0912,129.1808 139.924801,128.886406 C140.758399,128.591994 141.672001,129.030406 141.9664,129.863994 C144.038401,135.740806 147.3424,140.9744 151.783994,145.415999 C154.032006,147.664001 156.499206,149.611199 159.124806,151.264001 C159.256,151.291199 159.3904,151.305599 159.5152,151.367999 C159.744006,151.483199 159.919994,151.652801 160.063994,151.844801 C166.399994,155.5952 173.644806,157.600001 181.200006,157.600001 C188.755206,157.600001 196,155.596799 202.334406,151.8464 C202.478406,151.6544 202.654394,151.483199 202.884794,151.367999 C203.011206,151.305599 203.145606,151.2896 203.278394,151.262399 C205.903994,149.611199 208.3696,147.664001 210.617594,145.415999 C226.8352,129.196794 226.8352,102.8048 210.616,86.5840062 C202.7584,78.728 192.312006,74.3999937 181.200006,74.3999937 C170.088006,74.3999937 159.641594,78.728 151.783994,86.5840062 C147.345601,91.0240062 144.043201,96.2543937 141.969601,102.1328 C141.676801,102.966406 140.760001,103.4048 139.929601,103.108794 C139.096,102.8144 138.657601,101.900806 138.952,101.0672 C141.185599,94.736 144.7408,89.1023937 149.5216,84.3215938 C157.6048,76.2383938 168.233594,71.6351937 179.599994,71.2384062 L179.599994,69.5999937 C179.599994,68.7167937 180.316806,68 181.200006,68 C182.083206,68 182.8,68.7167937 182.8,69.5999937 L182.8,71.2384062 C194.1664,71.6351937 204.795194,76.2383938 212.878394,84.3215938 C230.345594,101.790406 230.345594,130.211206 212.880006,147.678401 L212.880006,147.678401 Z" id="target-arrow"></path>
            </g>
        </g>
    </g>
</svg>