<?xml version="1.0" encoding="UTF-8" standalone="no"?>
<svg width="49px" height="46px" viewBox="0 0 49 46" version="1.1" xmlns="http://www.w3.org/2000/svg" xmlns:xlink="http://www.w3.org/1999/xlink" xmlns:sketch="http://www.bohemiancoding.com/sketch/ns">
    <!-- Generator: Sketch 3.2.2 (9983) - http://www.bohemiancoding.com/sketch -->
    <title>IconTraumjob</title>
    <desc>Created with Sketch.</desc>
    <defs></defs>
    <g id="Contents" stroke="none" stroke-width="1" fill="none" fill-rule="evenodd" sketch:type="MSPage">
        <g id="StyleGuide" sketch:type="MSArtboardGroup" transform="translate(-576.000000, -5623.000000)" fill="#FFFFFF">
            <g id="IconTraumjob" sketch:type="MSLayerGroup" transform="translate(576.000000, 5623.000000)">
                <path d="M33.4288889,23.5952941 C34.4088889,23.3247059 35.6611111,22.9458824 37.24,22.4588235 C50.0888889,18.3458824 48.51,2.48941176 48.51,2.48941176 L41.7588889,2.48941176 L38.5466667,2.48941176 L38.5466667,0.487058824 L10.4533333,0.487058824 L10.4533333,2.48941176 L7.24111111,2.48941176 L0.49,2.48941176 C0.49,2.48941176 -1.14333333,18.4 11.7055556,22.4047059 C13.2844444,22.8917647 14.5366667,23.2705882 15.5166667,23.5411765 C17.4766667,25.8682353 19.8722222,27.5458824 22.4855556,28.1411765 L26.5144444,28.1411765 C29.1277778,27.6 31.5233333,25.9223529 33.4288889,23.5952941 L33.4288889,23.5952941 Z M38.5466667,9.09176471 L38.5466667,4.49176471 L41.7588889,4.49176471 L46.55,4.49176471 C46.4955556,8.44235294 45.4611111,17.7505882 36.6411111,20.5647059 C36.1511111,20.7270588 35.6611111,20.8894118 35.28,20.9976471 C37.2944444,17.5341176 38.5466667,13.2588235 38.5466667,9.09176471 L38.5466667,9.09176471 L38.5466667,9.09176471 Z M12.3044444,20.5105882 C3.48444444,17.7505882 2.45,8.44235294 2.39555556,4.49176471 L7.18666667,4.49176471 L10.3988889,4.49176471 L10.3988889,9.09176471 C10.3988889,13.2588235 11.5966667,17.5341176 13.6655556,20.9435294 C13.2844444,20.8352941 12.7944444,20.6729412 12.3044444,20.5105882 L12.3044444,20.5105882 Z M24.5,16.762611 L19.9347595,19.9072532 L21.5365983,14.6131088 L17.0914957,11.2694386 L22.6578854,11.1500218 L24.5,5.97529412 L26.3421146,11.1898274 L31.9085043,11.3092442 L27.4634017,14.6529144 L29.0652405,19.9470588 L24.5,16.762611 L24.5,16.762611 Z" id="Shape" sketch:type="MSShapeGroup"></path>
                <path d="M22.4855556,30.4682353 L22.4855556,40.0470588 C15.68,40.48 10.4533333,42.9694118 10.4533333,45.9458824 L38.5466667,45.9458824 C38.5466667,42.9152941 33.32,40.4258824 26.5144444,40.0470588 L26.5144444,30.4682353 L22.4855556,30.4682353 L22.4855556,30.4682353 Z" id="Shape" sketch:type="MSShapeGroup"></path>
            </g>
        </g>
    </g>
</svg>