<svg xmlns="http://www.w3.org/2000/svg" xmlns:xlink="http://www.w3.org/1999/xlink" viewBox="0 0 32 32" version="1.1" width="64" height="64" style="fill: rgb(77, 77, 77);">
<g id="surface1">
<path style=" " d="M 16 5 C 14.894531 5 14 5.894531 14 7 C 14 7.738281 14.402344 8.371094 15 8.71875 L 15 12 L 13.8125 12 C 13.320313 12 12.664063 12.085938 12.03125 12.4375 C 12 12.453125 11.96875 12.480469 11.9375 12.5 C 11.398438 12.238281 10.710938 12 9.90625 12 C 9.234375 12 8.472656 12.210938 7.75 12.6875 C 7.027344 13.164063 6.347656 13.953125 6.03125 15.03125 L 7.96875 15.59375 C 8.152344 14.972656 8.46875 14.59375 8.84375 14.34375 C 9.21875 14.09375 9.679688 14 9.90625 14 C 10.117188 14 10.371094 14.066406 10.625 14.15625 C 10.597656 14.230469 10.554688 14.296875 10.53125 14.375 C 10.117188 15.773438 9.03125 19.75 9.03125 19.75 L 9 19.875 L 9 22 L 14 22 L 14 20 C 14 18.882813 14.882813 18 16 18 C 17.117188 18 18 18.882813 18 20 L 18 22 L 23 22 L 23 19.875 L 22.96875 19.78125 C 22.96875 19.78125 22.109375 16.125 21.96875 15.40625 C 21.890625 15.015625 21.953125 14.726563 22 14.59375 C 22.042969 14.476563 22.042969 14.511719 22.09375 14.5 C 22.195313 14.527344 22.578125 14.554688 22.90625 14.6875 C 23.34375 14.863281 23.71875 15.0625 23.71875 15.0625 L 24.375 15.4375 L 24.9375 14.875 L 25.875 13.90625 L 26.28125 13.4375 L 26.09375 12.875 C 26.09375 12.875 25.328125 10.9375 23.78125 9.5625 L 23.96875 7.125 L 22.75 7.25 C 22.75 7.25 19.980469 7.480469 18.46875 9.75 L 18.4375 9.78125 C 18.0625 10.382813 17.898438 10.972656 17.625 11.40625 C 17.402344 11.757813 17.257813 11.917969 17 11.96875 L 17 8.71875 C 17.597656 8.371094 18 7.738281 18 7 C 18 5.894531 17.105469 5 16 5 Z M 21.75 9.65625 L 21.75 9.75 L 21.6875 10.34375 L 22.1875 10.65625 C 23.046875 11.214844 23.644531 12.34375 23.9375 12.96875 C 23.804688 12.90625 23.8125 12.90625 23.65625 12.84375 C 23.082031 12.613281 22.429688 12.253906 21.5 12.53125 C 20.828125 12.734375 20.308594 13.304688 20.09375 13.90625 C 19.878906 14.507813 19.90625 15.136719 20.03125 15.78125 C 20.203125 16.671875 20.894531 19.683594 20.96875 20 L 20 20 C 20 17.800781 18.199219 16 16 16 C 13.800781 16 12 17.800781 12 20 L 11.03125 20 C 11.117188 19.691406 11.847656 16.949219 12.28125 15.4375 L 12.4375 14.9375 C 12.566406 14.503906 12.753906 14.324219 13 14.1875 C 13.246094 14.050781 13.597656 14 13.8125 14 L 16.8125 14 C 18.007813 14 18.859375 13.183594 19.3125 12.46875 C 19.765625 11.753906 20.03125 11.042969 20.15625 10.84375 C 20.566406 10.238281 21.1875 9.894531 21.75 9.65625 Z M 16 19 C 15.449219 19 15 19.449219 15 20 L 15 25 L 6 25 L 6 27 L 26 27 L 26 25 L 17 25 L 17 20 C 17 19.449219 16.550781 19 16 19 Z "/>
</g>
</svg>