<svg xmlns="http://www.w3.org/2000/svg" xmlns:xlink="http://www.w3.org/1999/xlink" viewBox="0 0 32 32" version="1.1" width="64" height="64" style="fill: rgb(77, 77, 77);">
<g id="surface1">
<path style=" " d="M 16 3 C 12.851563 3 10 3.523438 7.84375 4.40625 C 6.765625 4.847656 5.84375 5.367188 5.15625 6.03125 C 4.46875 6.695313 4 7.546875 4 8.5 C 4 9.453125 4.46875 10.304688 5.15625 10.96875 C 5.824219 11.613281 6.710938 12.128906 7.75 12.5625 L 7 24.9375 L 7 25 C 7 25.773438 7.429688 26.425781 7.96875 26.90625 C 8.507813 27.386719 9.199219 27.761719 10 28.0625 C 11.605469 28.664063 13.691406 29 16 29 C 18.308594 29 20.394531 28.664063 22 28.0625 C 22.800781 27.761719 23.492188 27.386719 24.03125 26.90625 C 24.570313 26.425781 25 25.773438 25 25 L 25 24.9375 L 24.25 12.5625 C 25.289063 12.128906 26.175781 11.613281 26.84375 10.96875 C 27.53125 10.304688 28 9.453125 28 8.5 C 28 7.546875 27.53125 6.695313 26.84375 6.03125 C 26.15625 5.367188 25.234375 4.847656 24.15625 4.40625 C 22 3.523438 19.148438 3 16 3 Z M 16 5 C 18.925781 5 21.582031 5.503906 23.40625 6.25 C 24.320313 6.625 25.011719 7.058594 25.4375 7.46875 C 25.863281 7.878906 26 8.207031 26 8.5 C 26 8.792969 25.863281 9.121094 25.4375 9.53125 C 25.011719 9.941406 24.320313 10.375 23.40625 10.75 C 21.582031 11.496094 18.925781 12 16 12 C 13.074219 12 10.417969 11.496094 8.59375 10.75 C 7.679688 10.375 6.988281 9.941406 6.5625 9.53125 C 6.136719 9.121094 6 8.792969 6 8.5 C 6 8.207031 6.136719 7.878906 6.5625 7.46875 C 6.988281 7.058594 7.679688 6.625 8.59375 6.25 C 10.417969 5.503906 13.074219 5 16 5 Z M 16 7 C 12.824219 7 9 7.75 9 8.5 C 9 9.25 12.824219 10 16 10 C 19.175781 10 23 9.292969 23 8.5 C 23 7.707031 19.175781 7 16 7 Z M 9.6875 13.21875 C 11.527344 13.722656 13.675781 14 16 14 C 18.324219 14 20.472656 13.722656 22.3125 13.21875 L 22.4375 15.21875 C 20.765625 15.679688 18 16 16 16 C 13.710938 16 11.171875 15.636719 9.5625 15.1875 Z M 22.5625 17.25 L 23 25 C 23 25.054688 22.988281 25.167969 22.71875 25.40625 C 22.449219 25.644531 21.957031 25.945313 21.3125 26.1875 C 20.019531 26.671875 18.109375 27 16 27 C 13.890625 27 11.980469 26.671875 10.6875 26.1875 C 10.042969 25.945313 9.550781 25.644531 9.28125 25.40625 C 9.011719 25.167969 9 25.054688 9 25 L 9.4375 17.28125 C 11.308594 17.753906 13.722656 18 16 18 C 18.027344 18 20.566406 17.761719 22.5625 17.25 Z "/>
</g>
</svg>