<svg xmlns="http://www.w3.org/2000/svg" xmlns:xlink="http://www.w3.org/1999/xlink" viewBox="0 0 32 32" version="1.1" width="64" height="64" style="fill: rgb(77, 77, 77);">
<g id="surface1">
<path style=" " d="M 16 4 C 11.042969 4 7 8.042969 7 13 L 7 14 C 7 15.644531 8.355469 17 10 17 L 11.53125 17 C 11.789063 17.285156 12.070313 17.546875 12.375 17.78125 C 9.214844 19.179688 7 22.332031 7 26 L 9 26 C 9 22.121094 12.121094 19 16 19 C 19.878906 19 23 22.121094 23 26 L 25 26 C 25 22.332031 22.785156 19.179688 19.625 17.78125 C 19.929688 17.546875 20.210938 17.285156 20.46875 17 L 22 17 C 23.644531 17 25 15.644531 25 14 L 25 13 C 25 8.042969 20.957031 4 16 4 Z M 16 6 C 19.183594 6 21.863281 8.097656 22.71875 11 L 21.65625 11 C 20.832031 8.671875 18.605469 7 16 7 C 13.394531 7 11.167969 8.671875 10.34375 11 L 9.28125 11 C 10.136719 8.097656 12.816406 6 16 6 Z M 16 9 C 18.222656 9 20 10.777344 20 13 C 20 15.222656 18.222656 17 16 17 C 13.777344 17 12 15.222656 12 13 C 12 10.777344 13.777344 9 16 9 Z M 9 13 L 10 13 L 10 15 C 9.433594 15 9 14.566406 9 14 Z M 22 13 L 23 13 L 23 14 C 23 14.566406 22.566406 15 22 15 Z "/>
</g>
</svg>