<svg xmlns="http://www.w3.org/2000/svg" xmlns:xlink="http://www.w3.org/1999/xlink" viewBox="0 0 32 32" version="1.1" width="64" height="64" style="fill: rgb(77, 77, 77);">
<g id="surface1">
<path style=" " d="M 22 4 L 22 18 L 21.6875 18 C 20.152344 18 18.871094 19.148438 18.71875 20.6875 L 18 26.875 L 17.875 28 L 28.125 28 L 28 26.875 L 27.1875 20.6875 C 27.035156 19.148438 25.722656 18 24.1875 18 L 24 18 L 24 4 Z M 11 9 C 9.351563 9 7.925781 9.984375 7.3125 11.40625 L 5.8125 9.40625 L 4.1875 10.59375 L 6.75 14 L 3.8125 14 L 6.1875 28 L 15.8125 28 L 18.1875 14 L 10.8125 14 L 12.1875 16 L 15.8125 16 L 14.1875 26 L 7.8125 26 L 6.1875 16 L 8.25 16 L 10.1875 18.59375 L 10.21875 18.59375 C 10.402344 18.835938 10.675781 19 11 19 C 11.550781 19 12 18.550781 12 18 C 12 17.773438 11.910156 17.574219 11.78125 17.40625 L 11.8125 17.40625 L 11.71875 17.28125 L 8.5 13 L 9 13 C 9 11.808594 9.808594 11 11 11 C 12.191406 11 13 11.808594 13 13 L 15 13 C 15 12.785156 15.285156 12.5 15.5 12.5 C 15.714844 12.5 16 12.785156 16 13 L 18 13 C 18 11.617188 16.882813 10.5 15.5 10.5 C 15.078125 10.5 14.691406 10.628906 14.34375 10.8125 C 13.628906 9.714844 12.40625 9 11 9 Z M 21.6875 20 L 24.1875 20 C 24.652344 20 25.171875 20.445313 25.21875 20.90625 L 25.21875 21 L 20.6875 21 L 20.6875 20.90625 C 20.734375 20.445313 21.222656 20 21.6875 20 Z M 20.46875 23 L 25.46875 23 L 25.84375 26 L 20.125 26 Z "/>
</g>
</svg>