<svg xmlns="http://www.w3.org/2000/svg" xmlns:xlink="http://www.w3.org/1999/xlink" viewBox="0 0 32 32" version="1.1" width="64" height="64" style="fill: rgb(77, 77, 77);">
<g id="surface1">
<path style=" " d="M 11.5 5 C 10.601563 5 9.710938 5.351563 9.03125 6.03125 C 7.671875 7.390625 7.671875 9.609375 9.03125 10.96875 C 9.488281 11.425781 10.015625 11.679688 10.6875 12 L 5 12 L 5 28 L 27 28 L 27 12 L 21.3125 12 C 21.984375 11.679688 22.511719 11.425781 22.96875 10.96875 C 24.328125 9.609375 24.328125 7.390625 22.96875 6.03125 C 22.289063 5.351563 21.398438 5 20.5 5 C 19.601563 5 18.710938 5.351563 18.03125 6.03125 C 17.574219 6.488281 17.320313 7.015625 17 7.6875 C 16.679688 8.359375 16.347656 9.136719 16.0625 9.875 C 16.039063 9.933594 16.023438 9.972656 16 10.03125 C 15.976563 9.972656 15.960938 9.933594 15.9375 9.875 C 15.652344 9.136719 15.320313 8.359375 15 7.6875 C 14.679688 7.015625 14.425781 6.488281 13.96875 6.03125 C 13.289063 5.351563 12.398438 5 11.5 5 Z M 11.5 7 C 11.882813 7 12.265625 7.140625 12.5625 7.4375 C 12.59375 7.46875 12.933594 7.964844 13.21875 8.5625 C 13.503906 9.160156 13.789063 9.886719 14.0625 10.59375 C 14.214844 10.984375 14.214844 10.996094 14.34375 11.34375 C 13.996094 11.214844 13.984375 11.214844 13.59375 11.0625 C 12.886719 10.789063 12.160156 10.503906 11.5625 10.21875 C 10.964844 9.933594 10.46875 9.59375 10.4375 9.5625 C 9.84375 8.96875 9.84375 8.03125 10.4375 7.4375 C 10.734375 7.140625 11.117188 7 11.5 7 Z M 20.5 7 C 20.882813 7 21.265625 7.140625 21.5625 7.4375 C 22.15625 8.03125 22.15625 8.96875 21.5625 9.5625 C 21.53125 9.59375 21.035156 9.933594 20.4375 10.21875 C 19.839844 10.503906 19.113281 10.789063 18.40625 11.0625 C 18.015625 11.214844 18.003906 11.214844 17.65625 11.34375 C 17.785156 10.996094 17.785156 10.984375 17.9375 10.59375 C 18.210938 9.886719 18.496094 9.160156 18.78125 8.5625 C 19.066406 7.964844 19.40625 7.46875 19.4375 7.4375 C 19.734375 7.140625 20.117188 7 20.5 7 Z M 7 14 L 15 14 L 15 19 L 7 19 Z M 17 14 L 25 14 L 25 19 L 17 19 Z M 7 21 L 15 21 L 15 26 L 7 26 Z M 17 21 L 25 21 L 25 26 L 17 26 Z "/>
</g>
</svg>