<svg xmlns="http://www.w3.org/2000/svg" xmlns:xlink="http://www.w3.org/1999/xlink" viewBox="0 0 32 32" version="1.1" width="64" height="64" style="fill: rgb(77, 77, 77);">
<g id="surface1">
<path style=" " d="M 9 3 C 7.894531 3 7 3.894531 7 5 C 7 6.105469 7.894531 7 9 7 C 9.03125 7 9.0625 7 9.09375 7 L 10.34375 9 C 8.550781 10.453125 7.335938 12.59375 7.0625 15 L 5.71875 15 C 5.371094 14.402344 4.738281 14 4 14 C 2.894531 14 2 14.894531 2 16 C 2 17.105469 2.894531 18 4 18 C 4.738281 18 5.371094 17.597656 5.71875 17 L 7.0625 17 C 7.359375 19.625 8.78125 21.929688 10.84375 23.375 L 9.96875 25 C 8.878906 25.015625 8 25.90625 8 27 C 8 28.105469 8.894531 29 10 29 C 11.105469 29 12 28.105469 12 27 C 12 26.625 11.898438 26.269531 11.71875 25.96875 L 12.59375 24.3125 C 13.644531 24.746094 14.796875 25 16 25 C 17.613281 25 19.125 24.5625 20.4375 23.8125 L 22.15625 26.1875 C 22.046875 26.433594 22 26.714844 22 27 C 22 28.105469 22.894531 29 24 29 C 25.105469 29 26 28.105469 26 27 C 26 25.894531 25.105469 25 24 25 C 23.9375 25 23.875 24.996094 23.8125 25 L 22.0625 22.625 C 23.625 21.191406 24.6875 19.214844 24.9375 17 L 26.28125 17 C 26.628906 17.597656 27.261719 18 28 18 C 29.105469 18 30 17.105469 30 16 C 30 14.894531 29.105469 14 28 14 C 27.261719 14 26.628906 14.402344 26.28125 15 L 24.9375 15 C 24.761719 13.433594 24.191406 11.96875 23.3125 10.75 L 25.375 8.90625 C 25.570313 8.96875 25.78125 9 26 9 C 27.105469 9 28 8.105469 28 7 C 28 5.894531 27.105469 5 26 5 C 24.894531 5 24 5.894531 24 7 C 24 7.148438 24 7.296875 24.03125 7.4375 L 22 9.28125 C 20.40625 7.855469 18.296875 7 16 7 C 14.574219 7 13.230469 7.34375 12.03125 7.9375 L 10.78125 5.9375 C 10.925781 5.660156 11 5.335938 11 5 C 11 3.894531 10.105469 3 9 3 Z M 16 9 C 19.878906 9 23 12.121094 23 16 C 23 19.878906 19.878906 23 16 23 C 12.121094 23 9 19.878906 9 16 C 9 12.121094 12.121094 9 16 9 Z M 15 11 L 15 12.0625 C 13.875 12.25 13 13.203125 13 14.375 C 13 15.128906 13.417969 15.820313 14.09375 16.15625 L 17 17.625 C 17 17.847656 16.847656 18 16.625 18 L 15.375 18 C 15.152344 18 15 17.847656 15 17.625 L 15 17 L 13 17 L 13 17.625 C 13 18.796875 13.875 19.75 15 19.9375 L 15 21 L 17 21 L 17 19.9375 C 18.125 19.75 19 18.796875 19 17.625 C 19 16.871094 18.582031 16.183594 17.90625 15.84375 L 15 14.375 C 15 14.152344 15.152344 14 15.375 14 L 16.625 14 C 16.847656 14 17 14.152344 17 14.375 L 17 15 L 19 15 L 19 14.375 C 19 13.203125 18.125 12.25 17 12.0625 L 17 11 Z "/>
</g>
</svg>