<svg xmlns="http://www.w3.org/2000/svg" xmlns:xlink="http://www.w3.org/1999/xlink" viewBox="0 0 32 32" version="1.1" width="64" height="64" style="fill: rgb(77, 77, 77);">
<g id="surface1">
<path style=" " d="M 25 5 C 23.894531 5 23 5.894531 23 7 C 23 7.738281 23.402344 8.371094 24 8.71875 L 24 11 L 26 11 L 26 8.71875 C 26.597656 8.371094 27 7.738281 27 7 C 27 5.894531 26.105469 5 25 5 Z M 4 12 L 4 14 L 6.40625 14 L 8 18 L 24 18 L 25.59375 14 L 28 14 L 28 12 Z M 8.40625 14 L 23.59375 14 L 22.8125 16 L 9.1875 16 Z M 6 19 C 3.800781 19 2 20.800781 2 23 C 2 25.199219 3.800781 27 6 27 C 8.199219 27 10 25.199219 10 23 C 10 20.800781 8.199219 19 6 19 Z M 16 19 C 13.800781 19 12 20.800781 12 23 C 12 25.199219 13.800781 27 16 27 C 18.199219 27 20 25.199219 20 23 C 20 20.800781 18.199219 19 16 19 Z M 26 19 C 23.800781 19 22 20.800781 22 23 C 22 25.199219 23.800781 27 26 27 C 28.199219 27 30 25.199219 30 23 C 30 20.800781 28.199219 19 26 19 Z M 6 21 C 7.117188 21 8 21.882813 8 23 C 8 24.117188 7.117188 25 6 25 C 4.882813 25 4 24.117188 4 23 C 4 21.882813 4.882813 21 6 21 Z M 16 21 C 17.117188 21 18 21.882813 18 23 C 18 24.117188 17.117188 25 16 25 C 14.882813 25 14 24.117188 14 23 C 14 21.882813 14.882813 21 16 21 Z M 26 21 C 27.117188 21 28 21.882813 28 23 C 28 24.117188 27.117188 25 26 25 C 24.882813 25 24 24.117188 24 23 C 24 21.882813 24.882813 21 26 21 Z "/>
</g>
</svg>