<?xml version="1.0" encoding="utf-8"?>
<!-- Generator: Adobe Illustrator 16.0.3, SVG Export Plug-In . SVG Version: 6.00 Build 0)  -->
<!DOCTYPE svg PUBLIC "-//W3C//DTD SVG 1.1//EN" "http://www.w3.org/Graphics/SVG/1.1/DTD/svg11.dtd">
<svg version="1.1" id="Ebene_1" xmlns="http://www.w3.org/2000/svg" xmlns:xlink="http://www.w3.org/1999/xlink" x="0px" y="0px"
	 width="85px" height="85px" viewBox="-33 -31 85 85" enable-background="new -33 -31 85 85" xml:space="preserve">
<g id="Eventmagazin">
	<g id="Magazin-Post" transform="translate(-497.000000, -1017.000000)">
		<g id="Group-8" transform="translate(490.000000, 1010.000000)">
			<g id="Link_ffffff" transform="translate(7.000000, 7.000000)">
				<path id="Shape" fill="#FFFFFF" d="M15.246-0.5c-1.668,0-3.256,0.659-4.434,1.842L9.34,2.814
					C8.162,3.992,7.499,5.58,7.499,7.249c0,0.795,0.152,1.567,0.439,2.283l1.628-1.626c-0.207-1.292,0.188-2.688,1.18-3.685
					l1.473-1.472c0.801-0.802,1.896-1.247,3.027-1.247c1.143,0,2.199,0.445,3,1.247c1.662,1.661,1.662,4.371,0,6.033l-1.461,1.467
					c-0.813,0.806-1.896,1.251-3.039,1.251c-0.218,0-0.433-0.024-0.656-0.061l-1.621,1.626c0.721,0.284,1.483,0.431,2.277,0.431
					c1.679,0,3.258-0.658,4.445-1.841l1.461-1.467C20.84,9.005,21.5,7.421,21.5,5.749c0-1.668-0.66-3.224-1.848-4.406
					C18.476,0.159,16.925-0.5,15.246-0.5z M12.781,6.78L4.78,14.781l1.439,1.434l7.996-7.996L12.781,6.78z M5.249,9.499
					c-1.668,0-3.257,0.664-4.435,1.847l-1.472,1.467C-1.835,13.99-2.5,15.578-2.5,17.246c0,1.679,0.665,3.229,1.842,4.406
					C0.524,22.842,2.08,23.5,3.749,23.5c1.673,0,3.257-0.658,4.439-1.848l1.473-1.461c1.178-1.188,1.836-2.767,1.836-4.445
					c0-0.795-0.146-1.557-0.43-2.277L9.434,15.09c0.207,1.303-0.188,2.693-1.18,3.695l-1.473,1.461
					c-0.806,0.813-1.896,1.258-3.033,1.258s-2.194-0.445-3-1.258c-1.657-1.65-1.657-4.365,0-6.027l1.472-1.47
					C3.022,11.945,4.111,11.5,5.249,11.5c0.223,0,0.443,0.024,0.656,0.061l1.626-1.622C6.816,9.651,6.043,9.499,5.249,9.499z"/>
			</g>
		</g>
	</g>
</g>
</svg>
