<svg xmlns="http://www.w3.org/2000/svg" xmlns:xlink="http://www.w3.org/1999/xlink" viewBox="0 0 32 32" version="1.1" width="64" height="64" style="fill: rgb(77, 77, 77);">
<g id="surface1">
<path style=" " d="M 16 5 C 10.035156 5 4 6.71875 4 10 C 4 10.75 4.316406 11.414063 4.875 12 C 4.175781 12.738281 4 13.46875 4 14 C 4 14.75 4.316406 15.414063 4.875 16 C 4.175781 16.738281 4 17.46875 4 18 C 4 18.746094 4.320313 19.417969 4.875 20 C 4.34375 20.554688 4 21.21875 4 22 C 4 22.925781 4.527344 23.714844 5.21875 24.3125 C 5.910156 24.910156 6.804688 25.390625 7.875 25.78125 C 10.019531 26.5625 12.863281 27 16 27 C 19.136719 27 21.980469 26.5625 24.125 25.78125 C 25.195313 25.390625 26.089844 24.910156 26.78125 24.3125 C 27.472656 23.714844 28 22.925781 28 22 C 28 21.21875 27.65625 20.554688 27.125 20 C 27.679688 19.417969 28 18.746094 28 18 C 28 17.46875 27.824219 16.738281 27.125 16 C 27.679688 15.417969 28 14.746094 28 14 C 28 13.46875 27.824219 12.738281 27.125 12 C 27.679688 11.417969 28 10.746094 28 10 C 28 6.71875 21.964844 5 16 5 Z M 16 7 C 22.011719 7 26 8.804688 26 10 C 26 10.933594 23.582031 12.222656 19.65625 12.75 C 19.292969 12.800781 19 13.101563 19 13.46875 L 19 14.84375 C 21.496094 14.597656 23.808594 14.046875 25.46875 13.1875 C 25.808594 13.476563 26 13.769531 26 14 C 26 14.980469 23.300781 16.378906 19 16.84375 L 19 18.84375 C 21.496094 18.597656 23.808594 18.046875 25.46875 17.1875 C 25.808594 17.476563 26 17.769531 26 18 C 26 18.980469 23.300781 20.378906 19 20.84375 L 19 22.84375 C 21.496094 22.597656 23.808594 22.046875 25.46875 21.1875 C 25.871094 21.527344 26 21.828125 26 22 C 26 22.179688 25.890625 22.453125 25.46875 22.8125 C 25.046875 23.171875 24.355469 23.539063 23.4375 23.875 C 21.601563 24.542969 18.9375 25 16 25 C 13.0625 25 10.398438 24.542969 8.5625 23.875 C 7.644531 23.539063 6.953125 23.171875 6.53125 22.8125 C 6.109375 22.453125 6 22.179688 6 22 C 6 21.828125 6.128906 21.527344 6.53125 21.1875 C 8.625 22.269531 11.773438 22.863281 15 22.96875 L 15 20.96875 C 9.550781 20.785156 6 19.128906 6 18 C 6 17.765625 6.210938 17.480469 6.5625 17.1875 C 7.996094 17.921875 9.902344 18.433594 12 18.71875 L 12 16.71875 C 8.285156 16.164063 6 14.902344 6 14 C 6 13.765625 6.210938 13.480469 6.5625 13.1875 C 7.996094 13.921875 9.902344 14.433594 12 14.71875 L 12 13.34375 C 12 12.988281 11.726563 12.6875 11.375 12.625 C 8.023438 12.027344 6 10.851563 6 10 C 6 8.804688 9.988281 7 16 7 Z M 16 8 C 12.6875 8 10 8.894531 10 10 C 10 10.527344 10.617188 11.019531 11.625 11.375 C 12.4375 11.664063 13 12.386719 13 13.25 L 13 17 C 13 17.550781 13.449219 18 14 18 C 14.550781 18 15 17.550781 15 17 L 15 12.5 C 15 12.5 14.996094 12 15.5 12 C 16.003906 12 16 12.5 16 12.5 L 16 22 C 16 22.550781 16.449219 23 17 23 C 17.550781 23 18 22.550781 18 22 L 18 13.5625 C 18 12.644531 18.640625 11.839844 19.53125 11.625 C 21.035156 11.261719 22 10.664063 22 10 C 22 8.894531 19.3125 8 16 8 Z "/>
</g>
</svg>