<?xml version="1.0" encoding="utf-8"?>
<!-- Generator: Adobe Illustrator 15.0.2, SVG Export Plug-In . SVG Version: 6.00 Build 0)  -->
<!DOCTYPE svg PUBLIC "-//W3C//DTD SVG 1.1//EN" "http://www.w3.org/Graphics/SVG/1.1/DTD/svg11.dtd">
<svg version="1.1" id="Ebene_1" xmlns:sketch="http://www.bohemiancoding.com/sketch/ns"
	 xmlns="http://www.w3.org/2000/svg" xmlns:xlink="http://www.w3.org/1999/xlink" x="0px" y="0px" width="297.014px"
	 height="47.99px" viewBox="18.993 -0.495 297.014 47.99" enable-background="new 18.993 -0.495 297.014 47.99"
	 xml:space="preserve">
<title>Logo-COM</title>
<desc>Created with Sketch.</desc>
<g id="Contents" sketch:type="MSPage">
	<g id="StyleGuide" transform="translate(-1090.000000, -5956.000000)" sketch:type="MSArtboardGroup">
		<g id="Logo-COM" transform="translate(1089.000000, 5956.000000)" sketch:type="MSLayerGroup">
			<path id="Fill-1" sketch:type="MSShapeGroup" fill="#FFFFFF" d="M30.891,6.728c-5.59,0-10.14,4.795-10.14,10.69
				c0,5.913,4.551,10.543,10.36,10.543c4.69,0,8.058-2.416,9.481-6.802l0.299-0.924h-2.896l-0.168,0.463
				c-1.096,2.981-3.354,4.494-6.716,4.494c-4.063,0-7.203-3.024-7.556-7.141H41.02l0.012-0.695c0.042-2.748-1.134-5.609-3.146-7.651
				C35.995,7.785,33.511,6.728,30.891,6.728L30.891,6.728z M23.826,15.281c0.862-3.375,3.72-5.746,7.064-5.746
				c3.333,0,6.202,2.371,7.095,5.746H23.826L23.826,15.281z"/>
			<path id="Fill-2" sketch:type="MSShapeGroup" fill="#FFFFFF" d="M50.932,22.971L44.885,7.205h-2.981l7.81,20.314h2.438
				l7.812-20.314H56.98L50.932,22.971"/>
			<path id="Fill-3" sketch:type="MSShapeGroup" fill="#FFFFFF" d="M71.045,6.728c-5.591,0-10.14,4.795-10.14,10.69
				c0,5.913,4.551,10.543,10.36,10.543c4.69,0,8.058-2.416,9.48-6.802l0.301-0.924h-2.897l-0.169,0.463
				c-1.096,2.981-3.354,4.494-6.715,4.494c-4.063,0-7.204-3.024-7.556-7.141h17.465l0.009-0.695
				c0.043-2.748-1.133-5.609-3.146-7.651C76.148,7.785,73.664,6.728,71.045,6.728L71.045,6.728z M63.979,15.281
				c0.864-3.375,3.722-5.746,7.066-5.746c3.333,0,6.202,2.371,7.096,5.746H63.979L63.979,15.281z"/>
			<path id="Fill-4" sketch:type="MSShapeGroup" fill="#FFFFFF" d="M94.096,6.728c-2.411,0-4.554,0.843-6.121,2.364V7.205h-2.77
				V27.52h2.77v-12.12c0-3.386,2.616-5.938,6.084-5.938c3.664,0,5.682,2.108,5.682,5.938v12.12h2.769v-12.12
				C102.509,10.05,99.286,6.728,94.096,6.728"/>
			<path id="Fill-5" sketch:type="MSShapeGroup" fill="#FFFFFF" d="M121.579,16.639v3.018c0,3.258-2.275,5.535-5.534,5.535
				c-3.208,0-5.533-2.328-5.533-5.535V9.974h13.176V7.205h-13.176V3.167h-2.771v16.489c0,4.813,3.492,8.305,8.304,8.305
				c4.811,0,8.303-3.492,8.303-8.305v-3.018H121.579"/>
			<path id="Fill-6" sketch:type="MSShapeGroup" fill="#FFFFFF" d="M129.882-0.495h1.358v27.31h-1.358V-0.495z"/>
			<path id="Fill-7" sketch:type="MSShapeGroup" fill="#FFFFFF" d="M155.758,17.417c0,5.432-4.257,9.838-9.47,9.838
				c-5.176,0-9.435-4.407-9.435-9.838c0-5.506,4.259-9.983,9.435-9.983C151.501,7.434,155.758,11.911,155.758,17.417L155.758,17.417
				z M154.363,17.417c0-4.808-3.598-8.699-8.075-8.699c-4.441,0-8.075,3.891-8.075,8.699c0,4.699,3.634,8.553,8.075,8.553
				C150.766,25.971,154.363,22.117,154.363,17.417L154.363,17.417z"/>
			<path id="Fill-8" sketch:type="MSShapeGroup" fill="#FFFFFF" d="M162.549,20.5v6.315h-1.358v-27.31h1.358v19.124l11.085-10.718
				h1.945l-7.157,6.902l8.074,12.002h-1.651l-7.415-11.012L162.549,20.5"/>
			<path id="Fill-9" sketch:type="MSShapeGroup" fill="#FFFFFF" d="M197.603,26.814h-1.357v-4.552
				c-1.543,2.974-4.552,4.994-8.075,4.994c-5.213,0-9.435-4.407-9.435-9.838c0-5.506,4.222-9.983,9.435-9.983
				c3.523,0,6.532,2.055,8.075,5.065V7.911h1.357V26.814L197.603,26.814z M188.17,8.829c-4.443,0-8.076,3.854-8.076,8.588
				c0,4.661,3.633,8.479,8.076,8.479c4.44,0,8.075-3.818,8.075-8.479C196.245,12.683,192.61,8.829,188.17,8.829L188.17,8.829z"/>
			<path id="Fill-10" sketch:type="MSShapeGroup" fill="#FFFFFF" d="M204.868-0.495h1.358v27.31h-1.358V-0.495z"/>
			<path id="Fill-11" sketch:type="MSShapeGroup" fill="#FFFFFF" d="M213.2,17.344c0.036,4.918,3.709,8.552,8.296,8.552
				c4.441,0,6.461-2.46,7.378-4.956h1.432c-1.321,4.075-4.368,6.315-8.81,6.315c-5.396,0-9.653-4.333-9.653-9.838
				c0-5.506,4.22-9.983,9.433-9.983c5.652,0,9.508,5.139,9.435,9.91H213.2L213.2,17.344z M229.241,15.987
				c-0.661-4.076-4-7.158-7.966-7.158c-3.999,0-7.303,3.082-7.929,7.158H229.241L229.241,15.987z"/>
			<path id="Fill-12" sketch:type="MSShapeGroup" fill="#FFFFFF" d="M235.296,23.401h1.358v3.414h-1.358V23.401z"/>
			<path id="Fill-13" sketch:type="MSShapeGroup" fill="#FFFFFF" d="M250.346,27.256c-5.213,0-9.434-4.407-9.434-9.838
				c0-5.506,4.221-9.983,9.434-9.983c4.185,0,7.451,2.496,8.735,6.314h-1.468c-1.212-3.012-3.89-4.919-7.268-4.919
				c-4.442,0-8.075,3.854-8.075,8.588c0,4.661,3.633,8.479,8.075,8.479c3.488,0,6.166-1.909,7.304-4.956h1.432
				C257.833,24.76,254.53,27.256,250.346,27.256"/>
			<path id="Fill-14" sketch:type="MSShapeGroup" fill="#FFFFFF" d="M24.856,30.486c1.433,0,2.534,0.365,3.308,1.094
				c0.771,0.729,1.157,1.842,1.157,3.332c0,0.781-0.087,1.475-0.26,2.076c-0.174,0.604-0.442,1.111-0.807,1.523
				c-0.365,0.412-0.829,0.729-1.394,0.943c-0.564,0.219-1.232,0.326-2.005,0.326h-3.189v-9.295H24.856L24.856,30.486z M24.961,38.74
				c0.139,0,0.313-0.01,0.521-0.033c0.208-0.021,0.43-0.072,0.663-0.156c0.235-0.082,0.467-0.201,0.697-0.355
				c0.229-0.158,0.437-0.369,0.619-0.641c0.181-0.268,0.331-0.604,0.447-1.008c0.117-0.404,0.177-0.891,0.177-1.465
				c0-0.557-0.055-1.053-0.163-1.49c-0.108-0.439-0.286-0.813-0.533-1.119c-0.248-0.309-0.566-0.543-0.957-0.705
				c-0.391-0.16-0.873-0.24-1.445-0.24h-2.082v7.213H24.961L24.961,38.74z"/>
			<path id="Fill-15" sketch:type="MSShapeGroup" fill="#FFFFFF" d="M35.688,30.486l3.631,9.295h-1.366l-1.016-2.799h-3.932
				l-1.041,2.799h-1.263l3.618-9.295H35.688L35.688,30.486z M36.548,35.941l-1.55-4.336h-0.026l-1.575,4.336H36.548L36.548,35.941z"
				/>
			<path id="Fill-16" sketch:type="MSShapeGroup" fill="#FFFFFF" d="M46.076,31.756c-0.412-0.299-0.938-0.449-1.581-0.449
				c-0.26,0-0.517,0.027-0.769,0.078c-0.251,0.051-0.475,0.139-0.67,0.26c-0.194,0.123-0.352,0.285-0.469,0.488
				c-0.117,0.205-0.176,0.459-0.176,0.762c0,0.287,0.086,0.52,0.254,0.697c0.169,0.178,0.395,0.322,0.678,0.436
				c0.281,0.113,0.6,0.205,0.957,0.279c0.355,0.074,0.718,0.154,1.087,0.242c0.368,0.086,0.73,0.189,1.086,0.307
				c0.356,0.115,0.675,0.273,0.957,0.473c0.282,0.201,0.509,0.453,0.677,0.756c0.17,0.305,0.255,0.686,0.255,1.146
				c0,0.494-0.11,0.918-0.332,1.27s-0.506,0.637-0.854,0.859c-0.347,0.221-0.735,0.381-1.165,0.48s-0.857,0.15-1.281,0.15
				c-0.521,0-1.014-0.066-1.479-0.195c-0.464-0.131-0.872-0.328-1.224-0.592c-0.351-0.266-0.629-0.604-0.833-1.016
				c-0.203-0.412-0.306-0.9-0.306-1.465h1.172c0,0.391,0.075,0.727,0.228,1.008c0.151,0.283,0.352,0.516,0.599,0.697
				s0.536,0.318,0.865,0.402c0.33,0.088,0.668,0.131,1.016,0.131c0.277,0,0.559-0.025,0.841-0.078
				c0.281-0.053,0.534-0.141,0.76-0.266c0.227-0.127,0.408-0.297,0.547-0.516c0.14-0.217,0.209-0.492,0.209-0.832
				c0-0.32-0.084-0.582-0.253-0.781c-0.17-0.199-0.396-0.363-0.678-0.49c-0.282-0.123-0.602-0.225-0.957-0.305
				c-0.355-0.078-0.718-0.158-1.087-0.24c-0.369-0.084-0.73-0.178-1.087-0.287c-0.355-0.107-0.674-0.25-0.958-0.428
				c-0.281-0.178-0.507-0.408-0.675-0.691c-0.171-0.281-0.255-0.635-0.255-1.063c0-0.467,0.096-0.873,0.287-1.217
				c0.19-0.34,0.445-0.623,0.761-0.846c0.316-0.221,0.678-0.385,1.08-0.494c0.404-0.107,0.818-0.162,1.244-0.162
				c0.477,0,0.92,0.057,1.327,0.168c0.409,0.115,0.767,0.293,1.075,0.535c0.307,0.242,0.551,0.549,0.729,0.918
				s0.274,0.809,0.293,1.32H46.8C46.73,32.539,46.489,32.057,46.076,31.756"/>
			<path id="Fill-17" sketch:type="MSShapeGroup" fill="#FFFFFF" d="M55.842,33.305c0.186-0.586,0.465-1.104,0.839-1.555
				c0.373-0.451,0.837-0.813,1.393-1.082c0.555-0.268,1.202-0.402,1.939-0.402c0.738,0,1.385,0.135,1.939,0.402
				c0.556,0.27,1.021,0.631,1.395,1.082c0.372,0.451,0.652,0.969,0.839,1.555s0.279,1.195,0.279,1.83
				c0,0.633-0.093,1.242-0.279,1.828s-0.467,1.105-0.839,1.555c-0.373,0.453-0.839,0.811-1.395,1.076
				c-0.555,0.264-1.201,0.396-1.939,0.396c-0.737,0-1.385-0.133-1.939-0.396c-0.556-0.266-1.02-0.623-1.393-1.076
				c-0.374-0.449-0.653-0.969-0.839-1.555c-0.188-0.586-0.281-1.195-0.281-1.828C55.561,34.5,55.654,33.891,55.842,33.305
				L55.842,33.305z M56.98,36.52c0.121,0.457,0.312,0.867,0.571,1.232c0.262,0.363,0.595,0.656,1.003,0.877
				c0.408,0.223,0.895,0.332,1.458,0.332c0.564,0,1.051-0.109,1.459-0.332c0.406-0.221,0.74-0.514,1.001-0.877
				c0.262-0.365,0.452-0.775,0.573-1.232c0.121-0.453,0.183-0.916,0.183-1.385s-0.062-0.932-0.183-1.387
				c-0.121-0.457-0.312-0.865-0.573-1.23c-0.261-0.365-0.595-0.658-1.001-0.879c-0.408-0.221-0.895-0.332-1.459-0.332
				c-0.563,0-1.05,0.111-1.458,0.332s-0.741,0.514-1.003,0.879c-0.26,0.365-0.45,0.773-0.571,1.23
				c-0.122,0.455-0.183,0.918-0.183,1.387S56.858,36.066,56.98,36.52L56.98,36.52z"/>
			<path id="Fill-18" sketch:type="MSShapeGroup" fill="#FFFFFF" d="M68.553,30.486l4.895,7.537h0.026v-7.537h1.172v9.295h-1.354
				l-4.856-7.459H68.41v7.459h-1.172v-9.295H68.553"/>
			<path id="Fill-19" sketch:type="MSShapeGroup" fill="#FFFFFF" d="M79.137,30.486v8.254h4.921v1.041H77.9v-9.295H79.137"/>
			<path id="Fill-20" sketch:type="MSShapeGroup" fill="#FFFFFF" d="M86.401,30.486h1.236v9.295h-1.236V30.486z"/>
			<path id="Fill-21" sketch:type="MSShapeGroup" fill="#FFFFFF" d="M92.235,30.486l4.896,7.537h0.025v-7.537h1.172v9.295h-1.354
				l-4.855-7.459h-0.025v7.459h-1.172v-9.295H92.235"/>
			<path id="Fill-22" sketch:type="MSShapeGroup" fill="#FFFFFF" d="M108,30.486v1.041h-5.182v2.957h4.829v1.041h-4.829v3.215h5.221
				v1.041h-6.457v-9.295H108"/>
			<path id="Fill-23" sketch:type="MSShapeGroup" fill="#FFFFFF" d="M114.769,30.486c0.938,0,1.646,0.24,2.128,0.725
				c0.482,0.48,0.723,1.154,0.723,2.021c0,0.869-0.24,1.547-0.723,2.031c-0.481,0.486-1.19,0.725-2.128,0.717h-2.837v3.801h-1.237
				v-9.295H114.769L114.769,30.486z M114.353,34.939c0.703,0.008,1.217-0.135,1.542-0.43s0.489-0.723,0.489-1.277
				s-0.164-0.977-0.489-1.268s-0.839-0.438-1.542-0.438h-2.421v3.412H114.353L114.353,34.939z"/>
			<path id="Fill-24" sketch:type="MSShapeGroup" fill="#FFFFFF" d="M120.114,33.305c0.186-0.586,0.466-1.104,0.84-1.555
				c0.373-0.451,0.837-0.813,1.394-1.082c0.555-0.268,1.201-0.402,1.938-0.402c0.738,0,1.384,0.135,1.939,0.402
				c0.556,0.27,1.021,0.631,1.394,1.082s0.652,0.969,0.839,1.555s0.28,1.195,0.28,1.83c0,0.633-0.094,1.242-0.28,1.828
				s-0.466,1.105-0.839,1.555c-0.373,0.453-0.838,0.811-1.394,1.076c-0.556,0.264-1.201,0.396-1.939,0.396
				c-0.737,0-1.384-0.133-1.938-0.396c-0.557-0.266-1.021-0.623-1.394-1.076c-0.374-0.449-0.654-0.969-0.84-1.555
				c-0.188-0.586-0.28-1.195-0.28-1.828C119.834,34.5,119.927,33.891,120.114,33.305L120.114,33.305z M121.253,36.52
				c0.122,0.457,0.313,0.867,0.572,1.232c0.262,0.363,0.596,0.656,1.004,0.877c0.406,0.223,0.893,0.332,1.457,0.332
				c0.565,0,1.05-0.109,1.458-0.332c0.407-0.221,0.742-0.514,1.002-0.877c0.262-0.365,0.452-0.775,0.573-1.232
				c0.121-0.453,0.183-0.916,0.183-1.385s-0.062-0.932-0.183-1.387c-0.121-0.457-0.312-0.865-0.573-1.23
				c-0.26-0.365-0.595-0.658-1.002-0.879c-0.408-0.221-0.893-0.332-1.458-0.332c-0.564,0-1.051,0.111-1.457,0.332
				c-0.408,0.221-0.742,0.514-1.004,0.879c-0.26,0.365-0.45,0.773-0.572,1.23c-0.121,0.455-0.183,0.918-0.183,1.387
				S121.132,36.066,121.253,36.52L121.253,36.52z"/>
			<path id="Fill-25" sketch:type="MSShapeGroup" fill="#FFFFFF" d="M135.892,30.486c0.886,0,1.577,0.217,2.077,0.65
				c0.498,0.436,0.748,1.029,0.748,1.785c0,0.564-0.128,1.059-0.384,1.482c-0.256,0.426-0.666,0.717-1.231,0.873v0.025
				c0.27,0.053,0.489,0.139,0.658,0.262c0.17,0.121,0.305,0.266,0.403,0.434c0.1,0.172,0.174,0.359,0.221,0.568
				c0.049,0.209,0.086,0.426,0.112,0.65c0.017,0.227,0.03,0.455,0.038,0.689c0.009,0.234,0.031,0.465,0.066,0.691
				c0.034,0.227,0.083,0.439,0.148,0.645c0.065,0.203,0.163,0.385,0.293,0.539h-1.38c-0.087-0.096-0.146-0.225-0.176-0.391
				c-0.029-0.164-0.05-0.348-0.059-0.553c-0.008-0.203-0.017-0.424-0.025-0.656c-0.009-0.234-0.035-0.465-0.079-0.691
				c-0.034-0.225-0.078-0.439-0.13-0.645c-0.052-0.203-0.135-0.381-0.246-0.533c-0.113-0.152-0.261-0.273-0.443-0.363
				c-0.182-0.092-0.425-0.139-0.729-0.139h-3.02v3.971h-1.237v-9.295H135.892L135.892,30.486z M136.152,34.705
				c0.26-0.045,0.488-0.129,0.685-0.256c0.193-0.125,0.35-0.293,0.467-0.506c0.118-0.213,0.176-0.488,0.176-0.828
				c0-0.469-0.129-0.85-0.39-1.145s-0.682-0.443-1.263-0.443h-3.072v3.242h2.577C135.619,34.77,135.892,34.748,136.152,34.705
				L136.152,34.705z"/>
			<path id="Fill-26" sketch:type="MSShapeGroup" fill="#FFFFFF" d="M140.723,31.527v-1.041h7.435v1.041h-3.1v8.254h-1.235v-8.254
				H140.723"/>
			<path id="Fill-27" sketch:type="MSShapeGroup" fill="#FFFFFF" d="M153.334,30.486l3.633,9.295h-1.366l-1.018-2.799h-3.931
				l-1.041,2.799h-1.263l3.619-9.295H153.334L153.334,30.486z M154.193,35.941l-1.548-4.336h-0.027l-1.574,4.336H154.193
				L154.193,35.941z"/>
			<path id="Fill-28" sketch:type="MSShapeGroup" fill="#FFFFFF" d="M160.438,30.486v8.254h4.921v1.041h-6.159v-9.295H160.438"/>
			<path id="Fill-29" sketch:type="MSShapeGroup" fill="#FFFFFF" d="M178.767,30.486v1.041h-4.869v2.957h4.271v1.041h-4.271v4.256
				h-1.236v-9.295H178.767"/>
			<path id="Fill-30" sketch:type="MSShapeGroup" fill="#FFFFFF" d="M187.729,39.098c-0.633,0.596-1.534,0.893-2.706,0.893
				c-1.199,0-2.134-0.285-2.806-0.854c-0.673-0.568-1.009-1.473-1.009-2.713v-5.938h1.236v5.938c0,0.832,0.221,1.465,0.664,1.893
				c0.442,0.432,1.08,0.645,1.914,0.645c0.788,0,1.391-0.213,1.802-0.645c0.413-0.428,0.619-1.061,0.619-1.893v-5.938h1.236v5.938
				C188.68,37.611,188.362,38.504,187.729,39.098L187.729,39.098z M183.134,28.416h1.172v1.355h-1.172V28.416z M185.581,28.416
				h1.172v1.355h-1.172V28.416z"/>
			<path id="Fill-31" sketch:type="MSShapeGroup" fill="#FFFFFF" d="M196.279,30.486c0.886,0,1.577,0.217,2.076,0.65
				c0.5,0.436,0.748,1.029,0.748,1.785c0,0.564-0.127,1.059-0.384,1.482c-0.255,0.426-0.665,0.717-1.229,0.873v0.025
				c0.268,0.053,0.488,0.139,0.657,0.262c0.169,0.121,0.304,0.266,0.403,0.434c0.1,0.172,0.174,0.359,0.222,0.568
				c0.047,0.209,0.085,0.426,0.11,0.65c0.018,0.227,0.03,0.455,0.039,0.689c0.01,0.234,0.03,0.465,0.064,0.691
				c0.036,0.227,0.087,0.439,0.15,0.645c0.065,0.203,0.162,0.385,0.293,0.539h-1.379c-0.088-0.096-0.146-0.225-0.178-0.391
				c-0.029-0.164-0.048-0.348-0.058-0.553c-0.009-0.203-0.018-0.424-0.026-0.656c-0.009-0.234-0.034-0.465-0.077-0.691
				c-0.035-0.225-0.079-0.439-0.132-0.645c-0.052-0.203-0.134-0.381-0.246-0.533c-0.113-0.152-0.26-0.273-0.442-0.363
				c-0.183-0.092-0.426-0.139-0.729-0.139h-3.02v3.971h-1.237v-9.295H196.279L196.279,30.486z M196.54,34.705
				c0.26-0.045,0.487-0.129,0.683-0.256c0.196-0.125,0.353-0.293,0.468-0.506c0.118-0.213,0.176-0.488,0.176-0.828
				c0-0.469-0.129-0.85-0.389-1.145c-0.261-0.295-0.681-0.443-1.264-0.443h-3.071v3.242h2.577
				C196.006,34.77,196.279,34.748,196.54,34.705L196.54,34.705z"/>
			<path id="Fill-32" sketch:type="MSShapeGroup" fill="#FFFFFF" d="M209.297,39.781l-3.268-9.295h1.327l2.656,8.059h0.025
				l2.684-8.059h1.287l-3.306,9.295H209.297"/>
			<path id="Fill-33" sketch:type="MSShapeGroup" fill="#FFFFFF" d="M222.708,30.486v1.041h-5.181v2.957h4.829v1.041h-4.829v3.215
				h5.219v1.041h-6.458v-9.295H222.708"/>
			<path id="Fill-34" sketch:type="MSShapeGroup" fill="#FFFFFF" d="M229.776,30.486c0.886,0,1.577,0.217,2.077,0.65
				c0.498,0.436,0.748,1.029,0.748,1.785c0,0.564-0.128,1.059-0.384,1.482c-0.256,0.426-0.666,0.717-1.229,0.873v0.025
				c0.267,0.053,0.487,0.139,0.656,0.262c0.169,0.121,0.304,0.266,0.403,0.434c0.1,0.172,0.174,0.359,0.223,0.568
				c0.046,0.209,0.082,0.426,0.11,0.65c0.017,0.227,0.029,0.455,0.039,0.689c0.007,0.234,0.029,0.465,0.064,0.691
				s0.086,0.439,0.149,0.645c0.065,0.203,0.162,0.385,0.293,0.539h-1.38c-0.087-0.096-0.146-0.225-0.176-0.391
				c-0.03-0.164-0.051-0.348-0.058-0.553c-0.009-0.203-0.019-0.424-0.027-0.656c-0.009-0.234-0.034-0.465-0.077-0.691
				c-0.036-0.225-0.078-0.439-0.131-0.645c-0.052-0.203-0.135-0.381-0.247-0.533s-0.26-0.273-0.442-0.363
				c-0.183-0.092-0.426-0.139-0.729-0.139h-3.02v3.971h-1.238v-9.295H229.776L229.776,30.486z M230.037,34.705
				c0.26-0.045,0.488-0.129,0.683-0.256c0.196-0.125,0.351-0.293,0.469-0.506c0.117-0.213,0.175-0.488,0.175-0.828
				c0-0.469-0.129-0.85-0.389-1.145c-0.261-0.295-0.683-0.443-1.264-0.443h-3.071v3.242h2.577
				C229.504,34.77,229.776,34.748,230.037,34.705L230.037,34.705z"/>
			<path id="Fill-35" sketch:type="MSShapeGroup" fill="#FFFFFF" d="M239.843,30.486l3.632,9.295h-1.367l-1.016-2.799h-3.931
				l-1.042,2.799h-1.264l3.62-9.295H239.843L239.843,30.486z M240.7,35.941l-1.549-4.336h-0.025l-1.575,4.336H240.7L240.7,35.941z"
				/>
			<path id="Fill-36" sketch:type="MSShapeGroup" fill="#FFFFFF" d="M247.017,30.486l4.894,7.537h0.026v-7.537h1.172v9.295h-1.353
				l-4.857-7.459h-0.026v7.459H245.7v-9.295H247.017"/>
			<path id="Fill-37" sketch:type="MSShapeGroup" fill="#FFFFFF" d="M261.05,31.756c-0.413-0.299-0.94-0.449-1.582-0.449
				c-0.26,0-0.516,0.027-0.768,0.078s-0.476,0.139-0.67,0.26c-0.197,0.123-0.352,0.285-0.469,0.488
				c-0.117,0.205-0.176,0.459-0.176,0.762c0,0.287,0.084,0.52,0.253,0.697c0.17,0.178,0.396,0.322,0.678,0.436
				s0.6,0.205,0.956,0.279c0.354,0.074,0.719,0.154,1.087,0.242c0.369,0.086,0.731,0.189,1.088,0.307
				c0.354,0.115,0.676,0.273,0.956,0.473c0.281,0.201,0.508,0.453,0.678,0.756c0.169,0.305,0.253,0.686,0.253,1.146
				c0,0.494-0.11,0.918-0.332,1.27c-0.221,0.352-0.505,0.637-0.853,0.859c-0.348,0.221-0.735,0.381-1.164,0.48
				c-0.431,0.1-0.858,0.15-1.282,0.15c-0.521,0-1.014-0.066-1.479-0.195c-0.465-0.131-0.872-0.328-1.224-0.592
				c-0.352-0.266-0.629-0.604-0.832-1.016c-0.205-0.412-0.307-0.9-0.307-1.465h1.172c0,0.391,0.075,0.727,0.228,1.008
				c0.151,0.283,0.352,0.516,0.6,0.697c0.246,0.182,0.535,0.318,0.865,0.402c0.329,0.088,0.667,0.131,1.015,0.131
				c0.278,0,0.557-0.025,0.841-0.078c0.281-0.053,0.535-0.141,0.761-0.266c0.225-0.127,0.407-0.297,0.546-0.516
				c0.14-0.217,0.208-0.492,0.208-0.832c0-0.32-0.083-0.582-0.253-0.781c-0.169-0.199-0.395-0.363-0.676-0.49
				c-0.284-0.123-0.603-0.225-0.958-0.305c-0.356-0.078-0.718-0.158-1.088-0.24c-0.368-0.084-0.73-0.178-1.086-0.287
				c-0.356-0.107-0.675-0.25-0.957-0.428c-0.281-0.178-0.507-0.408-0.678-0.691c-0.168-0.281-0.253-0.635-0.253-1.063
				c0-0.467,0.096-0.873,0.286-1.217c0.19-0.34,0.444-0.623,0.763-0.846c0.315-0.221,0.676-0.385,1.079-0.494
				c0.403-0.107,0.818-0.162,1.242-0.162c0.479,0,0.922,0.057,1.329,0.168c0.408,0.115,0.765,0.293,1.074,0.535
				c0.308,0.242,0.552,0.549,0.729,0.918s0.276,0.809,0.293,1.32h-1.172C261.703,32.539,261.463,32.057,261.05,31.756"/>
			<path id="Fill-38" sketch:type="MSShapeGroup" fill="#FFFFFF" d="M264.981,31.527v-1.041h7.435v1.041h-3.1v8.254h-1.236v-8.254
				H264.981"/>
			<path id="Fill-39" sketch:type="MSShapeGroup" fill="#FFFFFF" d="M277.594,30.486l3.632,9.295h-1.367l-1.016-2.799h-3.931
				l-1.042,2.799h-1.263l3.619-9.295H277.594L277.594,30.486z M278.452,35.941l-1.549-4.336h-0.026l-1.574,4.336H278.452
				L278.452,35.941z"/>
			<path id="Fill-40" sketch:type="MSShapeGroup" fill="#FFFFFF" d="M284.697,30.486v8.254h4.92v1.041h-6.158v-9.295H284.697"/>
			<path id="Fill-41" sketch:type="MSShapeGroup" fill="#FFFFFF" d="M289.887,31.527v-1.041h7.433v1.041h-3.097v8.254h-1.237v-8.254
				H289.887"/>
			<path id="Fill-42" sketch:type="MSShapeGroup" fill="#FFFFFF" d="M306.03,30.486v1.041h-5.182v2.957h4.83v1.041h-4.83v3.215h5.22
				v1.041h-6.456v-9.295H306.03"/>
			<path id="Fill-43" sketch:type="MSShapeGroup" fill="#FFFFFF" d="M313.1,30.486c0.885,0,1.576,0.217,2.076,0.65
				c0.499,0.436,0.748,1.029,0.748,1.785c0,0.564-0.128,1.059-0.383,1.482c-0.257,0.426-0.667,0.717-1.231,0.873v0.025
				c0.269,0.053,0.488,0.139,0.657,0.262c0.169,0.121,0.304,0.266,0.403,0.434c0.101,0.172,0.175,0.359,0.221,0.568
				c0.049,0.209,0.086,0.426,0.112,0.65c0.018,0.227,0.029,0.455,0.039,0.689c0.008,0.234,0.029,0.465,0.064,0.691
				c0.034,0.227,0.085,0.439,0.149,0.645c0.065,0.203,0.163,0.385,0.293,0.539h-1.379c-0.087-0.096-0.146-0.225-0.175-0.391
				c-0.033-0.164-0.051-0.348-0.061-0.553c-0.007-0.203-0.018-0.424-0.026-0.656c-0.008-0.234-0.034-0.465-0.077-0.691
				c-0.035-0.225-0.078-0.439-0.129-0.645c-0.054-0.203-0.137-0.381-0.248-0.533c-0.112-0.152-0.261-0.273-0.443-0.363
				c-0.183-0.092-0.426-0.139-0.729-0.139h-3.021v3.971h-1.236v-9.295H313.1L313.1,30.486z M313.359,34.705
				c0.26-0.045,0.489-0.129,0.683-0.256c0.196-0.125,0.353-0.293,0.471-0.506c0.115-0.213,0.175-0.488,0.175-0.828
				c0-0.469-0.131-0.85-0.391-1.145s-0.682-0.443-1.264-0.443h-3.072v3.242h2.578C312.827,34.77,313.1,34.748,313.359,34.705
				L313.359,34.705z"/>
			<path id="Fill-44" sketch:type="MSShapeGroup" fill="#FFFFFF" d="M282.242,17.413c0,5.432-4.258,9.837-9.472,9.837
				c-5.175,0-9.433-4.406-9.433-9.837c0-5.506,4.258-9.984,9.433-9.984C277.984,7.428,282.242,11.906,282.242,17.413L282.242,17.413
				z M280.848,17.413c0-4.81-3.598-8.7-8.077-8.7c-4.439,0-8.073,3.89-8.073,8.7c0,4.698,3.634,8.554,8.073,8.554
				C277.25,25.967,280.848,22.111,280.848,17.413L280.848,17.413z"/>
			<path id="Fill-45" sketch:type="MSShapeGroup" fill="#FFFFFF" d="M315.019,26.809h-1.357V14.622c0-3.375-2.459-5.798-5.835-5.798
				c-3.34,0-5.801,2.424-5.801,5.798v12.187h-1.357V14.622c0-3.375-2.46-5.798-5.837-5.798c-3.339,0-5.8,2.424-5.8,5.798v12.187
				h-1.357V7.906h1.357v2.569c1.175-1.873,3.23-3.047,5.8-3.047c3.083,0,5.542,1.652,6.608,4.186
				c0.991-2.534,3.34-4.186,6.387-4.186c4.184,0,7.192,3.047,7.192,7.193V26.809"/>
		</g>
	</g>
</g>
</svg>
