<?xml version="1.0" encoding="utf-8"?>
<!-- Generator: Adobe Illustrator 15.0.2, SVG Export Plug-In . SVG Version: 6.00 Build 0)  -->
<!DOCTYPE svg PUBLIC "-//W3C//DTD SVG 1.1//EN" "http://www.w3.org/Graphics/SVG/1.1/DTD/svg11.dtd">
<svg version="1.1" id="Ebene_1" xmlns:sketch="http://www.bohemiancoding.com/sketch/ns"
	 xmlns="http://www.w3.org/2000/svg" xmlns:xlink="http://www.w3.org/1999/xlink" x="0px" y="0px" width="297.014px"
	 height="47.99px" viewBox="-1.007 -0.995 297.014 47.99" enable-background="new -1.007 -0.995 297.014 47.99"
	 xml:space="preserve">
<title>Logo-AT</title>
<desc>Created with Sketch.</desc>
<g id="Contents" sketch:type="MSPage">
	<g id="StyleGuide" transform="translate(-1090.000000, -6069.000000)" sketch:type="MSArtboardGroup">
		<g id="Logo-AT" transform="translate(1090.000000, 6069.000000)" sketch:type="MSLayerGroup">
			<path id="Fill-1" sketch:type="MSShapeGroup" fill="#FFFFFF" d="M11.306,7.235c-6.37,0-11.555,5.464-11.555,12.181
				c0,6.738,5.187,12.015,11.806,12.015c5.345,0,9.182-2.752,10.804-7.752l0.341-1.052h-3.301l-0.192,0.526
				c-1.249,3.399-3.823,5.12-7.652,5.12c-4.63,0-8.208-3.443-8.61-8.136h19.901l0.013-0.792c0.048-3.132-1.292-6.391-3.586-8.719
				C17.122,8.439,14.291,7.235,11.306,7.235L11.306,7.235z M3.255,16.981c0.982-3.845,4.239-6.547,8.051-6.547
				c3.797,0,7.067,2.702,8.084,6.547H3.255L3.255,16.981z"/>
			<path id="Fill-2" sketch:type="MSShapeGroup" fill="#FFFFFF" d="M34.142,25.744L27.251,7.779h-3.397l8.9,23.148h2.777
				l8.901-23.148h-3.397L34.142,25.744"/>
			<path id="Fill-3" sketch:type="MSShapeGroup" fill="#FFFFFF" d="M57.061,7.235c-6.37,0-11.555,5.464-11.555,12.181
				c0,6.738,5.187,12.015,11.806,12.015c5.346,0,9.183-2.752,10.805-7.752l0.341-1.052h-3.3l-0.193,0.526
				c-1.249,3.399-3.822,5.12-7.652,5.12c-4.63,0-8.208-3.443-8.609-8.136h19.901l0.011-0.792c0.048-3.132-1.292-6.391-3.585-8.719
				C62.877,8.439,60.046,7.235,57.061,7.235L57.061,7.235z M49.009,16.981c0.984-3.845,4.241-6.547,8.051-6.547
				c3.798,0,7.068,2.702,8.085,6.547H49.009L49.009,16.981z"/>
			<path id="Fill-4" sketch:type="MSShapeGroup" fill="#FFFFFF" d="M83.327,7.235c-2.747,0-5.188,0.96-6.975,2.693V7.779h-3.156
				v23.148h3.156V17.117c0-3.858,2.981-6.767,6.933-6.767c4.175,0,6.475,2.403,6.475,6.767v13.811h3.155V17.117
				C92.915,11.021,89.241,7.235,83.327,7.235"/>
			<path id="Fill-5" sketch:type="MSShapeGroup" fill="#FFFFFF" d="M114.644,18.529v3.439c0,3.711-2.591,6.305-6.306,6.305
				c-3.655,0-6.305-2.65-6.305-6.305V10.934h15.014V7.779h-15.014V3.178h-3.157v18.79c0,5.485,3.979,9.463,9.462,9.463
				c5.482,0,9.462-3.979,9.462-9.463v-3.439H114.644"/>
			<path id="Fill-6" sketch:type="MSShapeGroup" fill="#FFFFFF" d="M124.106-0.995h1.547v31.118h-1.547V-0.995z"/>
			<path id="Fill-7" sketch:type="MSShapeGroup" fill="#FFFFFF" d="M153.592,19.417c0,6.191-4.851,11.208-10.791,11.208
				c-5.898,0-10.751-5.018-10.751-11.208c0-6.274,4.853-11.376,10.751-11.376C148.741,8.041,153.592,13.142,153.592,19.417
				L153.592,19.417z M152.003,19.417c0-5.479-4.1-9.912-9.202-9.912c-5.061,0-9.202,4.433-9.202,9.912
				c0,5.353,4.141,9.746,9.202,9.746C147.903,29.162,152.003,24.77,152.003,19.417L152.003,19.417z"/>
			<path id="Fill-8" sketch:type="MSShapeGroup" fill="#FFFFFF" d="M161.329,22.928v7.195h-1.547V-0.995h1.547v21.792l12.632-12.213
				h2.217l-8.155,7.864l9.2,13.675h-1.882l-8.448-12.547L161.329,22.928"/>
			<path id="Fill-9" sketch:type="MSShapeGroup" fill="#FFFFFF" d="M201.273,30.123h-1.547v-5.186
				c-1.758,3.387-5.187,5.688-9.202,5.688c-5.94,0-10.749-5.018-10.749-11.208c0-6.274,4.809-11.376,10.749-11.376
				c4.016,0,7.444,2.342,9.202,5.771V8.583h1.547V30.123L201.273,30.123z M190.524,9.63c-5.063,0-9.202,4.391-9.202,9.787
				c0,5.31,4.14,9.662,9.202,9.662c5.061,0,9.202-4.352,9.202-9.662C199.727,14.021,195.585,9.63,190.524,9.63L190.524,9.63z"/>
			<path id="Fill-10" sketch:type="MSShapeGroup" fill="#FFFFFF" d="M271.119,30.123h-1.548v-5.186
				c-1.756,3.387-5.186,5.688-9.201,5.688c-5.939,0-10.751-5.018-10.751-11.208c0-6.274,4.812-11.376,10.751-11.376
				c4.016,0,7.445,2.342,9.201,5.771V8.583h1.548V30.123L271.119,30.123z M260.37,9.63c-5.062,0-9.203,4.391-9.203,9.787
				c0,5.31,4.142,9.662,9.203,9.662c5.061,0,9.201-4.352,9.201-9.662C269.571,14.021,265.431,9.63,260.37,9.63L260.37,9.63z"/>
			<path id="Fill-11" sketch:type="MSShapeGroup" fill="#FFFFFF" d="M209.553-0.995h1.547v31.118h-1.547V-0.995z"/>
			<path id="Fill-12" sketch:type="MSShapeGroup" fill="#FFFFFF" d="M219.048,19.333c0.04,5.604,4.225,9.745,9.452,9.745
				c5.063,0,7.362-2.805,8.407-5.647h1.631c-1.506,4.641-4.976,7.194-10.038,7.194c-6.148,0-10.999-4.934-10.999-11.208
				c0-6.274,4.808-11.376,10.748-11.376c6.44,0,10.833,5.855,10.75,11.292H219.048L219.048,19.333z M237.326,17.786
				c-0.754-4.644-4.559-8.156-9.077-8.156c-4.558,0-8.322,3.512-9.035,8.156H237.326L237.326,17.786z"/>
			<path id="Fill-13" sketch:type="MSShapeGroup" fill="#FFFFFF" d="M244.226,26.234h1.547v3.889h-1.547V26.234z"/>
			<path id="Fill-14" sketch:type="MSShapeGroup" fill="#FFFFFF" d="M3.949,34.232c1.469,0,2.598,0.373,3.39,1.121
				s1.188,1.887,1.188,3.418c0,0.801-0.089,1.51-0.268,2.129c-0.178,0.617-0.453,1.139-0.827,1.563
				c-0.373,0.422-0.85,0.744-1.428,0.967s-1.264,0.334-2.056,0.334h-3.27v-9.531H3.949L3.949,34.232z M4.056,42.695
				c0.142,0,0.32-0.012,0.535-0.033c0.212-0.023,0.439-0.076,0.68-0.16c0.241-0.086,0.478-0.207,0.714-0.367
				c0.236-0.16,0.448-0.379,0.634-0.654c0.187-0.275,0.341-0.621,0.46-1.035s0.181-0.914,0.181-1.502
				c0-0.568-0.056-1.078-0.167-1.527c-0.113-0.449-0.293-0.83-0.548-1.148c-0.253-0.314-0.58-0.557-0.981-0.721
				c-0.4-0.164-0.894-0.246-1.481-0.246H1.947v7.395H4.056L4.056,42.695z"/>
			<path id="Fill-15" sketch:type="MSShapeGroup" fill="#FFFFFF" d="M14.793,34.232l3.724,9.531h-1.4l-1.043-2.869h-4.029
				l-1.069,2.869H9.682l3.71-9.531H14.793L14.793,34.232z M15.675,39.826l-1.589-4.445h-0.027l-1.615,4.445H15.675L15.675,39.826z"
				/>
			<path id="Fill-16" sketch:type="MSShapeGroup" fill="#FFFFFF" d="M25.185,35.535c-0.423-0.309-0.964-0.461-1.622-0.461
				c-0.268,0-0.53,0.025-0.789,0.08c-0.257,0.053-0.486,0.143-0.687,0.268c-0.2,0.123-0.361,0.289-0.481,0.498
				c-0.119,0.211-0.18,0.471-0.18,0.783c0,0.293,0.087,0.531,0.26,0.713c0.174,0.184,0.406,0.332,0.695,0.447
				c0.289,0.115,0.615,0.211,0.98,0.287c0.365,0.074,0.737,0.158,1.115,0.246c0.378,0.09,0.749,0.193,1.114,0.314
				c0.365,0.121,0.693,0.281,0.981,0.488c0.289,0.203,0.521,0.461,0.694,0.773s0.26,0.703,0.26,1.174
				c0,0.508-0.112,0.941-0.339,1.303c-0.227,0.359-0.519,0.652-0.875,0.879c-0.356,0.229-0.754,0.393-1.194,0.494
				s-0.88,0.154-1.314,0.154c-0.534,0-1.039-0.066-1.515-0.199c-0.477-0.135-0.895-0.336-1.255-0.609
				c-0.361-0.27-0.646-0.617-0.855-1.039c-0.209-0.424-0.313-0.924-0.313-1.504h1.202c0,0.402,0.077,0.746,0.234,1.035
				c0.155,0.291,0.36,0.527,0.613,0.715c0.253,0.188,0.549,0.326,0.888,0.414c0.338,0.088,0.685,0.133,1.041,0.133
				c0.285,0,0.572-0.027,0.86-0.08c0.29-0.053,0.55-0.143,0.782-0.273c0.231-0.129,0.418-0.305,0.56-0.527
				c0.143-0.223,0.214-0.508,0.214-0.855c0-0.326-0.087-0.596-0.26-0.799c-0.173-0.205-0.405-0.373-0.694-0.5
				c-0.29-0.129-0.616-0.236-0.981-0.314c-0.365-0.08-0.736-0.162-1.114-0.248c-0.379-0.084-0.75-0.182-1.115-0.293
				c-0.365-0.111-0.692-0.258-0.981-0.441c-0.289-0.182-0.52-0.418-0.694-0.707c-0.173-0.289-0.261-0.65-0.261-1.088
				c0-0.48,0.099-0.896,0.293-1.248c0.197-0.35,0.457-0.641,0.782-0.867c0.324-0.227,0.695-0.396,1.108-0.508
				s0.839-0.166,1.273-0.166c0.491,0,0.944,0.059,1.362,0.174c0.418,0.115,0.786,0.299,1.1,0.547
				c0.317,0.248,0.566,0.563,0.75,0.939c0.181,0.379,0.281,0.832,0.299,1.357h-1.201C25.854,36.336,25.607,35.842,25.185,35.535"/>
			<path id="Fill-17" sketch:type="MSShapeGroup" fill="#FFFFFF" d="M34.662,37.123c0.19-0.602,0.478-1.133,0.859-1.596
				c0.383-0.463,0.86-0.83,1.429-1.107c0.569-0.275,1.233-0.414,1.99-0.414c0.755,0,1.419,0.139,1.988,0.414
				c0.569,0.277,1.046,0.645,1.429,1.107c0.382,0.463,0.669,0.994,0.86,1.596c0.191,0.6,0.288,1.225,0.288,1.875
				c0,0.648-0.097,1.275-0.288,1.875c-0.191,0.602-0.479,1.133-0.86,1.596c-0.383,0.463-0.86,0.83-1.429,1.102
				c-0.569,0.27-1.233,0.406-1.988,0.406c-0.757,0-1.421-0.137-1.99-0.406c-0.569-0.271-1.045-0.639-1.429-1.102
				c-0.382-0.463-0.669-0.994-0.859-1.596c-0.192-0.6-0.288-1.227-0.288-1.875C34.375,38.348,34.47,37.723,34.662,37.123
				L34.662,37.123z M35.829,40.42c0.125,0.467,0.32,0.887,0.587,1.26c0.266,0.375,0.609,0.676,1.028,0.9
				c0.418,0.229,0.916,0.342,1.496,0.342c0.578,0,1.076-0.113,1.494-0.342c0.418-0.225,0.761-0.525,1.027-0.9
				c0.268-0.373,0.462-0.793,0.587-1.26c0.125-0.467,0.187-0.941,0.187-1.422c0-0.482-0.062-0.953-0.187-1.422
				c-0.125-0.467-0.319-0.887-0.587-1.262c-0.266-0.373-0.609-0.674-1.027-0.9c-0.418-0.227-0.916-0.34-1.494-0.34
				c-0.58,0-1.078,0.113-1.496,0.34c-0.418,0.227-0.762,0.527-1.028,0.9c-0.268,0.375-0.463,0.795-0.587,1.262
				c-0.125,0.469-0.187,0.939-0.187,1.422C35.643,39.479,35.705,39.953,35.829,40.42L35.829,40.42z"/>
			<path id="Fill-18" sketch:type="MSShapeGroup" fill="#FFFFFF" d="M47.434,34.232l5.018,7.729h0.027v-7.729h1.202v9.531h-1.389
				l-4.978-7.648h-0.028v7.648h-1.2v-9.531H47.434"/>
			<path id="Fill-19" sketch:type="MSShapeGroup" fill="#FFFFFF" d="M58.024,34.232v8.463h5.045v1.068h-6.314v-9.531H58.024"/>
			<path id="Fill-20" sketch:type="MSShapeGroup" fill="#FFFFFF" d="M65.212,34.232h1.269v9.531h-1.269V34.232z"/>
			<path id="Fill-21" sketch:type="MSShapeGroup" fill="#FFFFFF" d="M70.934,34.232l5.018,7.729h0.027v-7.729h1.202v9.531h-1.389
				l-4.978-7.648h-0.028v7.648h-1.2v-9.531H70.934"/>
			<path id="Fill-22" sketch:type="MSShapeGroup" fill="#FFFFFF" d="M86.837,34.232v1.068h-5.312v3.029h4.952v1.068h-4.952v3.297
				h5.352v1.068h-6.621v-9.531H86.837"/>
			<path id="Fill-23" sketch:type="MSShapeGroup" fill="#FFFFFF" d="M93.518,34.232c0.961,0,1.688,0.248,2.183,0.74
				c0.494,0.494,0.74,1.188,0.74,2.076c0,0.891-0.247,1.584-0.74,2.084c-0.495,0.496-1.221,0.742-2.183,0.732h-2.91v3.898h-1.269
				v-9.531H93.518L93.518,34.232z M93.09,38.799c0.721,0.008,1.248-0.139,1.582-0.441s0.501-0.738,0.501-1.309
				c0-0.568-0.167-1.004-0.501-1.299c-0.334-0.299-0.86-0.449-1.582-0.449h-2.482v3.498H93.09L93.09,38.799z"/>
			<path id="Fill-24" sketch:type="MSShapeGroup" fill="#FFFFFF" d="M98.738,37.123c0.19-0.602,0.479-1.133,0.86-1.596
				c0.382-0.463,0.859-0.83,1.428-1.107c0.57-0.275,1.233-0.414,1.99-0.414c0.756,0,1.419,0.139,1.989,0.414
				c0.569,0.277,1.045,0.645,1.428,1.107c0.382,0.463,0.669,0.994,0.861,1.596c0.19,0.6,0.287,1.225,0.287,1.875
				c0,0.648-0.097,1.275-0.287,1.875c-0.192,0.602-0.479,1.133-0.861,1.596c-0.382,0.463-0.859,0.83-1.428,1.102
				c-0.57,0.27-1.233,0.406-1.989,0.406c-0.757,0-1.42-0.137-1.99-0.406c-0.569-0.271-1.045-0.639-1.428-1.102
				c-0.382-0.463-0.67-0.994-0.86-1.596c-0.191-0.6-0.288-1.227-0.288-1.875C98.45,38.348,98.547,37.723,98.738,37.123
				L98.738,37.123z M99.905,40.42c0.125,0.467,0.32,0.887,0.587,1.26c0.267,0.375,0.61,0.676,1.028,0.9
				c0.418,0.229,0.916,0.342,1.495,0.342c0.578,0,1.076-0.113,1.494-0.342c0.418-0.225,0.762-0.525,1.029-0.9
				c0.266-0.373,0.462-0.793,0.587-1.26s0.186-0.941,0.186-1.422c0-0.482-0.061-0.953-0.186-1.422
				c-0.125-0.467-0.321-0.887-0.587-1.262c-0.268-0.373-0.611-0.674-1.029-0.9c-0.418-0.227-0.916-0.34-1.494-0.34
				c-0.579,0-1.077,0.113-1.495,0.34c-0.418,0.227-0.761,0.527-1.028,0.9c-0.267,0.375-0.462,0.795-0.587,1.262
				c-0.125,0.469-0.186,0.939-0.186,1.422C99.719,39.479,99.78,39.953,99.905,40.42L99.905,40.42z"/>
			<path id="Fill-25" sketch:type="MSShapeGroup" fill="#FFFFFF" d="M114.653,34.232c0.908,0,1.618,0.223,2.128,0.668
				c0.512,0.445,0.768,1.055,0.768,1.828c0,0.578-0.131,1.086-0.394,1.521c-0.262,0.438-0.683,0.734-1.262,0.895v0.027
				c0.276,0.053,0.501,0.141,0.674,0.266s0.312,0.273,0.415,0.449c0.102,0.172,0.177,0.365,0.226,0.58
				c0.049,0.213,0.086,0.436,0.114,0.666c0.018,0.232,0.031,0.469,0.039,0.707c0.009,0.24,0.032,0.479,0.067,0.709
				c0.036,0.232,0.087,0.449,0.154,0.66c0.067,0.209,0.167,0.395,0.301,0.555h-1.415c-0.089-0.1-0.149-0.232-0.181-0.402
				c-0.031-0.168-0.051-0.357-0.059-0.566c-0.01-0.209-0.019-0.432-0.027-0.674c-0.009-0.24-0.036-0.475-0.081-0.707
				c-0.035-0.232-0.08-0.451-0.134-0.662c-0.052-0.207-0.137-0.391-0.253-0.547c-0.115-0.154-0.266-0.279-0.453-0.373
				s-0.436-0.141-0.748-0.141h-3.096v4.072h-1.269v-9.531H114.653L114.653,34.232z M114.92,38.557c0.267-0.043,0.5-0.131,0.7-0.258
				c0.2-0.131,0.361-0.305,0.481-0.521c0.12-0.219,0.179-0.502,0.179-0.848c0-0.482-0.133-0.873-0.4-1.176
				c-0.266-0.301-0.698-0.453-1.294-0.453h-3.15v3.322h2.642C114.373,38.623,114.653,38.602,114.92,38.557L114.92,38.557z"/>
			<path id="Fill-26" sketch:type="MSShapeGroup" fill="#FFFFFF" d="M119.346,35.301v-1.068h7.622v1.068h-3.177v8.463h-1.268v-8.463
				H119.346"/>
			<path id="Fill-27" sketch:type="MSShapeGroup" fill="#FFFFFF" d="M132.019,34.232l3.724,9.531h-1.402l-1.041-2.869h-4.032
				l-1.067,2.869h-1.294l3.71-9.531H132.019L132.019,34.232z M132.899,39.826l-1.588-4.445h-0.027l-1.614,4.445H132.899
				L132.899,39.826z"/>
			<path id="Fill-28" sketch:type="MSShapeGroup" fill="#FFFFFF" d="M139.041,34.232v8.463h5.045v1.068h-6.314v-9.531H139.041"/>
			<path id="Fill-29" sketch:type="MSShapeGroup" fill="#FFFFFF" d="M157.3,34.232v1.068h-4.993v3.029h4.38v1.068h-4.38v4.365
				h-1.266v-9.531H157.3"/>
			<path id="Fill-30" sketch:type="MSShapeGroup" fill="#FFFFFF" d="M166.229,43.063c-0.648,0.607-1.574,0.914-2.777,0.914
				c-1.228,0-2.186-0.291-2.875-0.875c-0.691-0.582-1.035-1.51-1.035-2.783v-6.086h1.267v6.086c0,0.855,0.229,1.502,0.683,1.943
				s1.108,0.66,1.961,0.66c0.811,0,1.426-0.219,1.85-0.66c0.422-0.441,0.635-1.088,0.635-1.943v-6.086h1.268v6.086
				C167.203,41.537,166.878,42.453,166.229,43.063L166.229,43.063z M161.517,32.109h1.201v1.389h-1.201V32.109z M164.026,32.109
				h1.201v1.389h-1.201V32.109z"/>
			<path id="Fill-31" sketch:type="MSShapeGroup" fill="#FFFFFF" d="M174.735,34.232c0.906,0,1.617,0.223,2.129,0.668
				s0.768,1.055,0.768,1.828c0,0.578-0.132,1.086-0.394,1.521c-0.262,0.438-0.684,0.734-1.263,0.895v0.027
				c0.276,0.053,0.501,0.141,0.676,0.266c0.174,0.125,0.311,0.273,0.412,0.449c0.103,0.172,0.179,0.365,0.228,0.58
				c0.049,0.213,0.088,0.436,0.114,0.666c0.018,0.232,0.031,0.469,0.039,0.707c0.01,0.24,0.031,0.479,0.068,0.709
				c0.034,0.232,0.087,0.449,0.152,0.66c0.065,0.209,0.167,0.395,0.301,0.555h-1.415c-0.088-0.1-0.149-0.232-0.181-0.402
				c-0.031-0.168-0.051-0.357-0.061-0.566c-0.008-0.209-0.017-0.432-0.025-0.674c-0.01-0.24-0.036-0.475-0.081-0.707
				c-0.035-0.232-0.079-0.451-0.134-0.662c-0.053-0.207-0.137-0.391-0.253-0.547c-0.116-0.154-0.268-0.279-0.454-0.373
				s-0.436-0.141-0.747-0.141h-3.096v4.072h-1.27v-9.531H174.735L174.735,34.232z M175.003,38.557
				c0.267-0.043,0.501-0.131,0.7-0.258c0.2-0.131,0.36-0.305,0.48-0.521c0.12-0.219,0.181-0.502,0.181-0.848
				c0-0.482-0.134-0.873-0.4-1.176c-0.268-0.301-0.699-0.453-1.294-0.453h-3.15v3.322h2.642
				C174.455,38.623,174.735,38.602,175.003,38.557L175.003,38.557z"/>
			<path id="Fill-32" sketch:type="MSShapeGroup" fill="#FFFFFF" d="M187.549,43.764l-3.351-9.531h1.362l2.724,8.262h0.025
				l2.749-8.262h1.321l-3.389,9.531H187.549"/>
			<path id="Fill-33" sketch:type="MSShapeGroup" fill="#FFFFFF" d="M201.037,34.232v1.068h-5.312v3.029h4.951v1.068h-4.951v3.297
				h5.352v1.068h-6.62v-9.531H201.037"/>
			<path id="Fill-34" sketch:type="MSShapeGroup" fill="#FFFFFF" d="M208.024,34.232c0.907,0,1.618,0.223,2.129,0.668
				s0.768,1.055,0.768,1.828c0,0.578-0.131,1.086-0.393,1.521c-0.263,0.438-0.685,0.734-1.263,0.895v0.027
				c0.276,0.053,0.501,0.141,0.676,0.266c0.173,0.125,0.311,0.273,0.412,0.449c0.103,0.172,0.179,0.365,0.226,0.58
				c0.051,0.213,0.089,0.436,0.116,0.666c0.017,0.232,0.03,0.469,0.039,0.707c0.008,0.24,0.03,0.479,0.067,0.709
				c0.035,0.232,0.086,0.449,0.153,0.66c0.066,0.209,0.166,0.395,0.3,0.555h-1.415c-0.089-0.1-0.147-0.232-0.182-0.402
				c-0.03-0.168-0.049-0.357-0.059-0.566c-0.009-0.209-0.018-0.432-0.027-0.674c-0.008-0.24-0.034-0.475-0.081-0.707
				c-0.034-0.232-0.078-0.451-0.133-0.662c-0.052-0.207-0.136-0.391-0.254-0.547c-0.115-0.154-0.266-0.279-0.453-0.373
				c-0.186-0.094-0.435-0.141-0.746-0.141h-3.097v4.072h-1.269v-9.531H208.024L208.024,34.232z M208.292,38.557
				c0.267-0.043,0.501-0.131,0.701-0.258c0.2-0.131,0.361-0.305,0.48-0.521c0.119-0.219,0.179-0.502,0.179-0.848
				c0-0.482-0.131-0.873-0.399-1.176c-0.268-0.301-0.698-0.453-1.295-0.453h-3.149v3.322h2.642
				C207.745,38.623,208.024,38.602,208.292,38.557L208.292,38.557z"/>
			<path id="Fill-35" sketch:type="MSShapeGroup" fill="#FFFFFF" d="M218.083,34.232l3.723,9.531h-1.4l-1.04-2.869h-4.031
				l-1.068,2.869h-1.295l3.712-9.531H218.083L218.083,34.232z M218.964,39.826l-1.588-4.445h-0.027l-1.616,4.445H218.964
				L218.964,39.826z"/>
			<path id="Fill-36" sketch:type="MSShapeGroup" fill="#FFFFFF" d="M225.179,34.232l5.018,7.729h0.026v-7.729h1.203v9.531h-1.389
				l-4.979-7.648h-0.027v7.648h-1.2v-9.531H225.179"/>
			<path id="Fill-37" sketch:type="MSShapeGroup" fill="#FFFFFF" d="M239.307,35.535c-0.423-0.309-0.965-0.461-1.622-0.461
				c-0.268,0-0.53,0.025-0.788,0.08c-0.259,0.053-0.486,0.143-0.687,0.268c-0.2,0.123-0.361,0.289-0.481,0.498
				c-0.12,0.211-0.181,0.471-0.181,0.783c0,0.293,0.087,0.531,0.261,0.713c0.173,0.184,0.405,0.332,0.695,0.447
				c0.289,0.115,0.615,0.211,0.98,0.287c0.363,0.074,0.736,0.158,1.115,0.246c0.377,0.09,0.748,0.193,1.113,0.314
				c0.364,0.121,0.691,0.281,0.981,0.488c0.289,0.203,0.52,0.461,0.693,0.773c0.175,0.313,0.262,0.703,0.262,1.174
				c0,0.508-0.114,0.941-0.342,1.303c-0.228,0.359-0.519,0.652-0.874,0.879c-0.356,0.229-0.754,0.393-1.195,0.494
				c-0.438,0.102-0.879,0.154-1.314,0.154c-0.534,0-1.039-0.066-1.514-0.199c-0.478-0.135-0.895-0.336-1.255-0.609
				c-0.361-0.27-0.646-0.617-0.855-1.039c-0.209-0.424-0.313-0.924-0.313-1.504h1.201c0,0.402,0.078,0.746,0.232,1.035
				c0.157,0.291,0.361,0.527,0.617,0.715c0.253,0.188,0.548,0.326,0.888,0.414c0.335,0.088,0.684,0.133,1.04,0.133
				c0.284,0,0.57-0.027,0.86-0.08c0.289-0.053,0.549-0.143,0.779-0.273c0.233-0.129,0.419-0.305,0.562-0.527
				c0.144-0.223,0.215-0.508,0.215-0.855c0-0.326-0.088-0.596-0.261-0.799c-0.174-0.205-0.405-0.373-0.694-0.5
				c-0.288-0.129-0.616-0.236-0.981-0.314c-0.364-0.08-0.736-0.162-1.114-0.248c-0.378-0.084-0.749-0.182-1.114-0.293
				c-0.364-0.111-0.692-0.258-0.981-0.441c-0.289-0.182-0.521-0.418-0.694-0.707c-0.175-0.289-0.259-0.65-0.259-1.088
				c0-0.48,0.098-0.896,0.293-1.248c0.195-0.35,0.455-0.641,0.78-0.867s0.694-0.396,1.108-0.508s0.839-0.166,1.274-0.166
				c0.489,0,0.944,0.059,1.363,0.174c0.416,0.115,0.783,0.299,1.1,0.547c0.315,0.248,0.565,0.563,0.746,0.939
				c0.184,0.379,0.284,0.832,0.301,1.357h-1.2C239.976,36.336,239.729,35.842,239.307,35.535"/>
			<path id="Fill-38" sketch:type="MSShapeGroup" fill="#FFFFFF" d="M243.076,35.301v-1.068h7.621v1.068h-3.177v8.463h-1.268v-8.463
				H243.076"/>
			<path id="Fill-39" sketch:type="MSShapeGroup" fill="#FFFFFF" d="M255.748,34.232l3.725,9.531h-1.401l-1.041-2.869h-4.031
				l-1.068,2.869h-1.295l3.71-9.531H255.748L255.748,34.232z M256.629,39.826l-1.588-4.445h-0.027l-1.615,4.445H256.629
				L256.629,39.826z"/>
			<path id="Fill-40" sketch:type="MSShapeGroup" fill="#FFFFFF" d="M262.771,34.232v8.463h5.045v1.068h-6.313v-9.531H262.771"/>
			<path id="Fill-41" sketch:type="MSShapeGroup" fill="#FFFFFF" d="M267.833,35.301v-1.068h7.623v1.068h-3.178v8.463h-1.269v-8.463
				H267.833"/>
			<path id="Fill-42" sketch:type="MSShapeGroup" fill="#FFFFFF" d="M284.126,34.232v1.068h-5.313v3.029h4.951v1.068h-4.951v3.297
				h5.352v1.068h-6.621v-9.531H284.126"/>
			<path id="Fill-43" sketch:type="MSShapeGroup" fill="#FFFFFF" d="M291.112,34.232c0.907,0,1.616,0.223,2.129,0.668
				c0.512,0.445,0.768,1.055,0.768,1.828c0,0.578-0.132,1.086-0.394,1.521c-0.263,0.438-0.683,0.734-1.262,0.895v0.027
				c0.276,0.053,0.501,0.141,0.675,0.266c0.173,0.125,0.311,0.273,0.413,0.449c0.102,0.172,0.178,0.365,0.227,0.58
				c0.049,0.213,0.088,0.436,0.114,0.666c0.018,0.232,0.03,0.469,0.04,0.707c0.009,0.24,0.031,0.479,0.066,0.709
				c0.035,0.232,0.087,0.449,0.153,0.66c0.067,0.209,0.167,0.395,0.301,0.555h-1.414c-0.091-0.1-0.15-0.232-0.182-0.402
				c-0.03-0.168-0.051-0.357-0.06-0.566c-0.01-0.209-0.018-0.432-0.026-0.674c-0.01-0.24-0.036-0.475-0.081-0.707
				c-0.034-0.232-0.079-0.451-0.134-0.662c-0.054-0.207-0.138-0.391-0.253-0.547c-0.116-0.154-0.269-0.279-0.454-0.373
				c-0.188-0.094-0.437-0.141-0.747-0.141h-3.097v4.072h-1.269v-9.531H291.112L291.112,34.232z M291.379,38.557
				c0.268-0.043,0.501-0.131,0.701-0.258c0.2-0.131,0.36-0.305,0.479-0.521c0.12-0.219,0.182-0.502,0.182-0.848
				c0-0.482-0.134-0.873-0.399-1.176c-0.269-0.301-0.701-0.453-1.296-0.453h-3.15v3.322h2.644
				C290.833,38.623,291.112,38.602,291.379,38.557L291.379,38.557z"/>
			<path id="Fill-44" sketch:type="MSShapeGroup" fill="#FFFFFF" d="M295.249,21.951c0,1.257-0.217,2.417-0.649,3.479
				c-0.435,1.061-1.035,1.979-1.803,2.744c-0.77,0.77-1.684,1.369-2.746,1.803c-1.062,0.432-2.222,0.648-3.479,0.648
				s-2.417-0.217-3.479-0.648c-1.061-0.434-1.976-1.033-2.744-1.803c-0.77-0.766-1.37-1.684-1.802-2.744
				c-0.435-1.063-0.65-2.222-0.65-3.479V3.928h1.55v4.61h15.048v1.55h-15.048v11.862c0,1.033,0.183,1.991,0.546,2.87
				c0.363,0.881,0.858,1.635,1.488,2.264c0.628,0.627,1.376,1.119,2.242,1.467c0.866,0.35,1.815,0.525,2.85,0.525
				c1.035,0,1.991-0.176,2.871-0.525c0.881-0.348,1.635-0.84,2.263-1.467c0.63-0.629,1.117-1.383,1.468-2.264
				c0.348-0.879,0.523-1.836,0.523-2.87V19.31h1.552V21.951"/>
		</g>
	</g>
</g>
</svg>
