<?xml version="1.0" encoding="utf-8"?>
<!-- Generator: Adobe Illustrator 16.0.3, SVG Export Plug-In . SVG Version: 6.00 Build 0)  -->
<!DOCTYPE svg PUBLIC "-//W3C//DTD SVG 1.1//EN" "http://www.w3.org/Graphics/SVG/1.1/DTD/svg11.dtd">
<svg version="1.1" id="Ebene_1" xmlns="http://www.w3.org/2000/svg" xmlns:xlink="http://www.w3.org/1999/xlink" x="0px" y="0px"
	 width="30px" height="30px" viewBox="-1 -3.5 30 30" enable-background="new -1 -3.5 30 30" xml:space="preserve">
<title>Meeting</title>
<desc>Created with Sketch.</desc>
<g id="Page-1">
	<g id="Eventlokale-Styleguide" transform="translate(-993.000000, -8762.000000)">
		<g id="Meeting" transform="translate(994.000000, 8763.000000)">
			<g id="handshake">
				<g id="Layer_1">
					<path id="Shape" fill="none" stroke="#7F7F7F" stroke-width="2" d="M15,14.003l2.209,2.964"/>
					<path id="Shape_1_" fill="none" stroke="#7F7F7F" stroke-width="2" d="M12,16.003l2.209,2.964"/>
					<path id="Shape_2_" fill="none" stroke="#7F7F7F" stroke-width="2" d="M19,14.003l4-2l3-1v-8c-4.623,0-6.756-1.976-8-2
						c-2.537-0.048-3.619-0.425-6.454,2.385L6,8.003c0,0,2.5,2.625,4.958,0.917l2.729-2.229L18,12.003
						c1.055,1.045,1.055,2.755,0,3.8c0,0-4.088,2.836-5.452,3.661c-0.987,0.598-2.906,0.92-3.835,0L2,12.003l-2-1v-8l0,0
						c4.623,0,6.756-1.933,8-1.957c1.98-0.038,3.073-0.275,4.805,0.957"/>
				</g>
			</g>
		</g>
	</g>
</g>
</svg>
