<svg xmlns="http://www.w3.org/2000/svg" viewBox="0 0 32 32" width="64" height="64">
    <path style="text-indent:0;text-align:start;line-height:normal;text-transform:none;block-progression:tb;-inkscape-font-specification:Sans" d="M 16 4 C 14.907275 4 14 4.9072754 14 6 C 14 6.5783904 14.254913 7.1013183 14.65625 7.46875 L 8.71875 19.96875 C 8.6524102 20.115615 8.5818752 20.259972 8.53125 20.40625 L 5.59375 26.5625 L 4.90625 28 L 6.5 28 L 25.5 28 L 27.09375 28 L 26.40625 26.5625 L 17.34375 7.46875 C 17.745087 7.1013183 18 6.5783904 18 6 C 18 4.9072754 17.092725 4 16 4 z M 16 9.34375 L 18.28125 14.125 C 17.863959 13.911342 17.437549 13.709882 17.0625 13.53125 C 16.134543 13.089274 15.395795 12.676136 15.09375 12.375 C 14.942727 12.224432 14.889838 12.144195 14.875 12.0625 C 14.860162 11.980805 14.867203 11.820274 15 11.53125 L 14.96875 11.53125 L 16 9.34375 z M 13.8125 13.9375 C 14.49423 14.545525 15.355813 14.901492 16.21875 15.3125 C 18.084836 16.201298 19.938348 17.140307 20.5625 19.03125 L 20.59375 19.03125 L 21.59375 21.15625 C 20.159877 20.39477 18.576996 19.775319 17.125 19.1875 C 15.568406 18.557336 14.153519 17.940555 13.375 17.375 C 12.985741 17.092223 12.786979 16.842089 12.71875 16.6875 C 12.650521 16.532911 12.628392 16.4844 12.75 16.21875 L 13.8125 13.9375 z M 11.625 18.53125 C 11.808238 18.701956 12.013618 18.850982 12.21875 19 C 13.328137 19.805914 14.803469 20.395039 16.375 21.03125 C 17.946531 21.667461 19.598587 22.317945 20.9375 23.0625 C 22.276413 23.807055 23.243738 24.659092 23.625 25.5 L 23.65625 25.46875 L 23.90625 26 L 20 26 C 17.54717 23.9909 14.650399 23.25145 12.65625 22.625 C 11.582939 22.287826 10.790409 21.959799 10.53125 21.71875 C 10.40167 21.598226 10.387377 21.562871 10.375 21.46875 C 10.36881 21.42169 10.354996 21.33323 10.375 21.21875 C 10.383508 21.170057 10.419582 21.09222 10.4375 21.03125 L 11.625 18.53125 z M 9.34375 23.34375 C 10.090279 23.94975 11.028072 24.23754 12.0625 24.5625 C 13.338567 24.963369 14.788174 25.366592 16.1875 26 L 8.09375 26 L 9.34375 23.34375 z" fill="#606060" overflow="visible" font-family="Sans"/>
</svg>