<?xml version="1.0" encoding="utf-8"?>
<!-- Generator: Adobe Illustrator 16.0.3, SVG Export Plug-In . SVG Version: 6.00 Build 0)  -->
<!DOCTYPE svg PUBLIC "-//W3C//DTD SVG 1.1//EN" "http://www.w3.org/Graphics/SVG/1.1/DTD/svg11.dtd">
<svg version="1.1" id="Ebene_1" xmlns="http://www.w3.org/2000/svg" xmlns:xlink="http://www.w3.org/1999/xlink" x="0px" y="0px"
	 width="30px" height="30px" viewBox="-3 -2.5 30 30" enable-background="new -3 -2.5 30 30" xml:space="preserve">
<title>Phone</title>
<desc>Created with Sketch.</desc>
<g id="Page-1">
	<g id="Eventlokale-Styleguide" transform="translate(-935.000000, -8836.000000)">
		<g id="Telefon" transform="translate(936.000000, 8837.000000)">
			<g id="Layer_1">
				<polyline id="Shape" fill="none" stroke="#FF526E" stroke-width="2" points="8,5 4,5 4,19 22,19 22,5 18,5 				"/>
				<rect id="Rectangle-path" x="8" fill="none" stroke="#FF526E" stroke-width="2" width="10" height="7"/>
				<rect id="Rectangle-path_1_" y="3" fill="none" stroke="#FF526E" stroke-width="2" width="4" height="16"/>
				<rect id="Rectangle-path_2_" x="8" y="10" fill="#FF526E" width="2" height="2"/>
				<rect id="Rectangle-path_3_" x="12" y="10" fill="#FF526E" width="2" height="2"/>
				<rect id="Rectangle-path_4_" x="16" y="10" fill="#FF526E" width="2" height="2"/>
				<rect id="Rectangle-path_5_" x="8" y="14" fill="#FF526E" width="2" height="2"/>
				<rect id="Rectangle-path_6_" x="12" y="14" fill="#FF526E" width="2" height="2"/>
				<rect id="Rectangle-path_7_" x="16" y="14" fill="#FF526E" width="2" height="2"/>
				<path id="Shape_1_" fill="none" stroke="#FF526E" stroke-width="2" d="M6,19v2c0,1.1-0.9,2-2,2l0,0c-1.1,0-2-0.9-2-2v-2"/>
			</g>
		</g>
	</g>
</g>
</svg>
