<?xml version="1.0" encoding="utf-8"?>
<!-- Generator: Adobe Illustrator 16.2.0, SVG Export Plug-In . SVG Version: 6.00 Build 0)  -->
<!DOCTYPE svg PUBLIC "-//W3C//DTD SVG 1.1//EN" "http://www.w3.org/Graphics/SVG/1.1/DTD/svg11.dtd">
<svg version="1.1" id="Ebene_1" xmlns="http://www.w3.org/2000/svg" xmlns:xlink="http://www.w3.org/1999/xlink" x="0px" y="0px"
	 width="30px" height="30px" viewBox="0 0 30 30" enable-background="new 0 0 30 30" xml:space="preserve">
<title>Kamera</title>
<desc>Created with Sketch.</desc>
<g id="surface1">
	<path fill="#7F7F7F" d="M4,6.357v17.285h22V6.357H4z M5.571,7.929h18.857v10.926l-4.149-4.174l-0.565-0.564l-3.56,3.561
		l-4.519-4.567l-0.564-0.564l-5.5,5.5V7.929z M21.286,9.5c-0.869,0-1.572,0.703-1.572,1.571c0,0.869,0.703,1.572,1.572,1.572
		c0.868,0,1.571-0.703,1.571-1.572C22.857,10.203,22.154,9.5,21.286,9.5z M11.071,14.779l7.219,7.292H5.571v-1.792L11.071,14.779z
		 M19.714,16.351l4.715,4.714v1.007h-3.904l-3.266-3.29L19.714,16.351z"/>
</g>
</svg>
