<?xml version="1.0" encoding="UTF-8"?>
<svg width="29px" height="30px" viewBox="0 0 29 30" version="1.1" xmlns="http://www.w3.org/2000/svg" xmlns:xlink="http://www.w3.org/1999/xlink">
    <!-- Generator: Sketch 40.3 (33839) - http://www.bohemiancoding.com/sketch -->
    <title>Print Blau</title>
    <desc>Created with Sketch.</desc>
    <defs></defs>
    <g id="Page-1" stroke="none" stroke-width="1" fill="none" fill-rule="evenodd">
        <g id="Eventlokale-Styleguide" transform="translate(-379.000000, -8491.000000)">
            <g id="Print-Blau" transform="translate(380.000000, 8492.000000)">
                <g id="Group-37">
                    <path d="M26.8297273,13.8938864 C26.8297273,21.5673182 20.8237712,27.7877727 13.4149404,27.7877727 C6.00610972,27.7877727 0,21.5673182 0,13.8938864 C0,6.22045455 6.00610972,0 13.4149404,0 C20.8237712,0 26.8297273,6.22045455 26.8297273,13.8938864 L26.8297273,13.8938864 Z" id="Stroke-3-Copy-3" stroke="#2A5571" stroke-width="2"></path>
                    <path d="M8.54166667,5 L8.54166667,5.75 L8.54166667,10.25 L7.125,10.25 C5.95981306,10.25 5,11.2662725 5,12.5 L5,19.25 L5,20 L5.70833333,20 L8.54166667,20 L8.54166667,22.25 L8.54166667,23 L9.25,23 L17.75,23 L18.4583333,23 L18.4583333,22.25 L18.4583333,20 L21.2916667,20 L22,20 L22,19.25 L22,12.5 C22,11.2662725 21.0401871,10.25 19.875,10.25 L18.4583333,10.25 L18.4583333,5.75 L18.4583333,5 L17.75,5 L9.25,5 L8.54166667,5 L8.54166667,5 Z M9.95833333,6.5 L17.0416667,6.5 L17.0416667,10.25 L9.95833333,10.25 L9.95833333,6.5 L9.95833333,6.5 Z M7.125,11.75 L19.875,11.75 C20.2752296,11.75 20.5833333,12.0762275 20.5833333,12.5 L20.5833333,18.5 L18.4583333,18.5 L18.4583333,16.25 L18.4583333,15.5 L17.75,15.5 L9.25,15.5 L8.54166667,15.5 L8.54166667,16.25 L8.54166667,18.5 L6.41666667,18.5 L6.41666667,12.5 C6.41666667,12.0762275 6.72477027,11.75 7.125,11.75 L7.125,11.75 Z M7.83333333,12.5 C7.44213167,12.5 7.125,12.8357862 7.125,13.25 C7.125,13.6642137 7.44213167,14 7.83333333,14 C8.224535,14 8.54166667,13.6642137 8.54166667,13.25 C8.54166667,12.8357862 8.224535,12.5 7.83333333,12.5 L7.83333333,12.5 Z M9.95833333,17 L17.0416667,17 L17.0416667,21.5 L9.95833333,21.5 L9.95833333,17 L9.95833333,17 Z" id="Shape-Copy" fill="#2A5571"></path>
                </g>
            </g>
        </g>
    </g>
</svg>