<?xml version="1.0" encoding="utf-8"?>
<!-- Generator: Adobe Illustrator 16.2.0, SVG Export Plug-In . SVG Version: 6.00 Build 0)  -->
<!DOCTYPE svg PUBLIC "-//W3C//DTD SVG 1.1//EN" "http://www.w3.org/Graphics/SVG/1.1/DTD/svg11.dtd">
<svg version="1.1" id="Ebene_1" xmlns="http://www.w3.org/2000/svg" xmlns:xlink="http://www.w3.org/1999/xlink" x="0px" y="0px"
	 width="18px" height="36px" viewBox="0 0 18 36" enable-background="new 0 0 18 36" xml:space="preserve">
<title>FormRadio</title>
<desc>Created with Sketch.</desc>
<path fill="#9B9B9B" d="M9,0C4.05,0,0,4.05,0,9s4.05,9,9,9c4.949,0,9-4.05,9-9S13.949,0,9,0z M9,16.2c-3.959,0-7.2-3.24-7.2-7.2
	c0-3.959,3.241-7.2,7.2-7.2c3.961,0,7.199,3.241,7.199,7.2C16.199,12.96,12.961,16.2,9,16.2z"/>
<path fill="#9B9B9B" d="M9,18c-4.95,0-9,4.051-9,9s4.05,9,9,9c4.949,0,9-4.051,9-9S13.949,18,9,18z M9,34.199
	c-3.959,0-7.2-3.238-7.2-7.199c0-3.96,3.241-7.199,7.2-7.199c3.961,0,7.199,3.239,7.199,7.199C16.199,30.961,12.961,34.199,9,34.199
	z"/>
<path id="Path_4_" fill="#9B9B9B" d="M9,22.5c-2.52,0-4.5,1.979-4.5,4.5s1.98,4.5,4.5,4.5c2.521,0,4.5-1.979,4.5-4.5
	S11.521,22.5,9,22.5L9,22.5z"/>
</svg>
