<svg xmlns="http://www.w3.org/2000/svg" viewBox="0 0 32 32" width="64" height="64">
    <path style="text-indent:0;text-align:start;line-height:normal;text-transform:none;block-progression:tb;-inkscape-font-specification:Sans" d="M 5 5 L 5 6 L 5 14 C 5 17.514189 7.6171572 20.417342 11 20.90625 L 11 25 L 7 25 L 7 27 L 17 27 L 17 25 L 13 25 L 13 20.90625 C 16.382843 20.417342 19 17.514189 19 14 L 19 6 L 19 5 L 18 5 L 6 5 L 5 5 z M 21 5 L 21 12 L 22 12 C 22.552 12 23 11.552 23 11 L 23 5 L 21 5 z M 25 5 L 25 12 C 25 13.668484 23.668484 15 22 15 L 21 15 L 21 16 L 21 27 L 23 27 L 23 16.78125 C 25.25627 16.300117 27 14.394093 27 12 L 27 5 L 25 5 z M 7 7 L 17 7 L 17 14 C 17 16.773666 14.773666 19 12 19 C 9.2263339 19 7 16.773666 7 14 L 7 7 z" fill="#606060" overflow="visible" font-family="Sans"/>
</svg>