<svg xmlns="http://www.w3.org/2000/svg" viewBox="0 0 32 32" width="64" height="64">
    <path style="text-indent:0;text-align:start;line-height:normal;text-transform:none;block-progression:tb;-inkscape-font-specification:Bitstream Vera Sans" d="M 6 7 L 6 8 L 6 11.75 L 4.375 15 L 3 15 L 2 15 L 2 16 C 2 19.372665 2.5887903 21.694293 3.21875 23.1875 C 3.3455652 23.488093 3.4646243 23.728009 3.59375 23.96875 C 3.1244201 23.909583 2.7180195 23.757982 2.4375 23.5625 C 2.0793226 23.312901 2 23.042136 2 23 L 0 23 C 0 23.941864 0.58867738 24.683099 1.3125 25.1875 C 2.0363226 25.691901 2.9614482 26 4 26 C 5.035362 26 5.9618851 25.690468 6.6875 25.1875 C 6.8001837 25.109392 6.895686 25.026988 7 24.9375 C 7.1012319 25.023981 7.2036063 25.111617 7.3125 25.1875 C 8.0363226 25.691901 8.9614482 26 10 26 C 11.035362 26 11.961885 25.690468 12.6875 25.1875 C 12.800184 25.109392 12.895686 25.026988 13 24.9375 C 13.101232 25.023981 13.203606 25.111617 13.3125 25.1875 C 14.036323 25.691901 14.961448 26 16 26 C 17.035362 26 17.961885 25.690468 18.6875 25.1875 C 18.800184 25.109392 18.895686 25.026988 19 24.9375 C 19.101232 25.023981 19.203606 25.111617 19.3125 25.1875 C 20.036323 25.691901 20.961448 26 22 26 C 23.035362 26 23.961885 25.690468 24.6875 25.1875 C 24.800184 25.109392 24.895686 25.026988 25 24.9375 C 25.101232 25.023981 25.203606 25.111617 25.3125 25.1875 C 26.036323 25.691901 26.961448 26 28 26 C 29.035362 26 29.961885 25.690468 30.6875 25.1875 C 31.413115 24.684532 32 23.942667 32 23 L 30 23 C 30 23.05733 29.91888 23.315468 29.5625 23.5625 C 29.206115 23.809532 28.636638 24 28 24 C 27.655563 24 27.345801 23.934572 27.0625 23.84375 C 27.428805 23.537042 27.799537 23.194452 28.15625 22.71875 C 29.1812 21.351909 30 19.231102 30 16 L 30 15 L 29 15 L 27.5 15 L 24.8125 11.40625 L 24.5 11 L 24 11 L 22.5 11 L 19.8125 7.40625 L 19.5 7 L 19 7 L 13 7 L 12.21875 7 L 12.03125 7.75 L 11.34375 10.46875 L 9.90625 7.5625 L 9.625 7 L 9 7 L 7 7 L 6 7 z M 8 9 L 8.375 9 L 9.375 11 L 8 11 L 8 9 z M 13.78125 9 L 18.5 9 L 20 11 L 13.28125 11 L 13.78125 9 z M 7.625 13 L 11 13 L 22 13 L 23.5 13 L 25 15 L 6.625 15 L 7.625 13 z M 4.09375 17 L 27.875 17 C 27.712086 19.18114 27.198459 20.683155 26.5625 21.53125 C 25.906441 22.40615 25.226962 22.770319 24.75 23 L 24 23 C 24 23.05733 23.91888 23.315468 23.5625 23.5625 C 23.206115 23.809532 22.636638 24 22 24 C 21.366552 24 20.795677 23.812099 20.4375 23.5625 C 20.079323 23.312901 20 23.042136 20 23 L 18 23 C 18 23.05733 17.91888 23.315468 17.5625 23.5625 C 17.206115 23.809532 16.636638 24 16 24 C 15.366552 24 14.795677 23.812099 14.4375 23.5625 C 14.079323 23.312901 14 23.042136 14 23 L 12 23 C 12 23.05733 11.91888 23.315468 11.5625 23.5625 C 11.206115 23.809532 10.636638 24 10 24 C 9.3665518 24 8.7956774 23.812099 8.4375 23.5625 C 8.0793226 23.312901 8 23.042136 8 23 L 6 23 C 6 23.052946 5.9162999 23.271434 5.625 23.5 C 5.4659259 23.258184 5.2808204 22.92374 5.0625 22.40625 C 4.6099302 21.333514 4.2085296 19.493807 4.09375 17 z M 8 19 C 7.4477153 19 7 19.447715 7 20 C 7 20.552285 7.4477153 21 8 21 C 8.5522847 21 9 20.552285 9 20 C 9 19.447715 8.5522847 19 8 19 z M 12 19 C 11.447715 19 11 19.447715 11 20 C 11 20.552285 11.447715 21 12 21 C 12.552285 21 13 20.552285 13 20 C 13 19.447715 12.552285 19 12 19 z M 16 19 C 15.447715 19 15 19.447715 15 20 C 15 20.552285 15.447715 21 16 21 C 16.552285 21 17 20.552285 17 20 C 17 19.447715 16.552285 19 16 19 z M 20 19 C 19.447715 19 19 19.447715 19 20 C 19 20.552285 19.447715 21 20 21 C 20.552285 21 21 20.552285 21 20 C 21 19.447715 20.552285 19 20 19 z M 24 19 C 23.447715 19 23 19.447715 23 20 C 23 20.552285 23.447715 21 24 21 C 24.552285 21 25 20.552285 25 20 C 25 19.447715 24.552285 19 24 19 z" fill="#606060"/>
</svg>