<svg xmlns="http://www.w3.org/2000/svg" viewBox="0 0 32 32" width="64" height="64">
    <path style="text-indent:0;text-align:start;line-height:normal;text-transform:none;block-progression:tb;-inkscape-font-specification:Sans" d="M 15 4 L 15 5.5 C 14.561899 5.8162773 13.799983 6.3893904 12.84375 7.25 C 12.191373 7.8371396 11.529192 8.4995501 11 9.1875 C 10.470808 9.8754499 10 10.583333 10 11.5 C 10 12.666667 10.292465 13.516823 10.65625 14.0625 C 10.76716 14.228865 10.876309 14.381095 11 14.5 L 11 16 L 9.96875 16 C 9.9768049 15.907898 10 15.816392 10 15.71875 C 10 15.046545 9.6975888 14.656676 9.40625 14.28125 C 9.1149112 13.905824 8.7734361 13.554023 8.4375 13.25 C 7.7656277 12.641954 7.09375 12.1875 7.09375 12.1875 L 6.53125 11.78125 L 5.96875 12.1875 C 5.96875 12.1875 5.2793454 12.645447 4.59375 13.25 C 4.2509523 13.552277 3.8917272 13.869993 3.59375 14.25 C 3.2957728 14.630007 3 15.047195 3 15.71875 C 3 16.395194 3.1924197 16.922986 3.4375 17.28125 C 3.6511173 17.593521 3.9223706 17.792669 4 17.84375 L 4 27 L 4 28 L 5 28 L 13 28 L 14 28 L 14 27 L 14 22 C 14 21.563148 14.432859 21.022221 15.0625 20.59375 C 15.520933 20.281786 15.779491 20.216909 16 20.125 C 16.220818 20.21971 16.474647 20.306788 16.9375 20.625 C 17.570925 21.060479 18 21.595833 18 22 L 18 27 L 18 28 L 19 28 L 27 28 L 28 28 L 28 27 L 28 17.875 L 28.0625 17.84375 C 28.0625 17.84375 28.377841 17.600852 28.59375 17.25 C 28.809659 16.899148 29 16.367785 29 15.71875 C 29 15.046545 28.697589 14.656676 28.40625 14.28125 C 28.114911 13.905824 27.773436 13.554023 27.4375 13.25 C 26.765628 12.641954 26.09375 12.1875 26.09375 12.1875 L 25.53125 11.78125 L 24.96875 12.1875 C 24.96875 12.1875 24.279273 12.645374 23.59375 13.25 C 23.250988 13.552313 22.891683 13.870109 22.59375 14.25 C 22.295817 14.629891 22 15.047017 22 15.71875 C 22 15.820468 22.023007 15.905051 22.03125 16 L 21 16 L 21 14.4375 C 21.115653 14.314414 21.235888 14.16627 21.34375 14 C 21.696754 13.455844 22 12.632383 22 11.5 C 22 10.586043 21.527386 9.8999742 21 9.21875 C 20.472614 8.5375258 19.838418 7.8724789 19.1875 7.28125 C 18.217086 6.3998229 17.428396 5.814945 17 5.5 L 17 4 L 15 4 z M 15.96875 7.28125 C 16.353185 7.5669497 16.896506 7.949253 17.8125 8.78125 C 18.411582 9.3253961 19.027386 9.9077555 19.4375 10.4375 C 19.847614 10.967245 20 11.455457 20 11.5 C 20 12.284617 19.803246 12.710906 19.65625 12.9375 C 19.603235 13.019222 19.61696 12.973097 19.59375 13 L 12.375 13 C 12.3628 12.978878 12.39583 13.015622 12.34375 12.9375 C 12.207535 12.733177 12 12.333333 12 11.5 C 12 11.41667 12.154192 10.93705 12.5625 10.40625 C 12.970808 9.8754499 13.558627 9.2878604 14.15625 8.75 C 15.05883 7.9376783 15.576945 7.5668572 15.96875 7.28125 z M 6.5 14.28125 C 6.7174864 14.450185 6.8053081 14.488959 7.09375 14.75 C 7.3775639 15.006852 7.6390263 15.276457 7.8125 15.5 C 7.9426053 15.667657 7.9879235 15.831031 8 15.8125 C 7.9887887 15.901493 7.95757 15.943581 7.9375 16 L 5.0625 16 C 5.039835 15.946486 5.0086664 15.905391 5 15.78125 C 5.0117866 15.796634 5.0564673 15.667105 5.1875 15.5 C 5.3622103 15.277194 5.6500477 15.003473 5.9375 14.75 C 6.2202649 14.50066 6.2820849 14.445358 6.5 14.28125 z M 25.5 14.28125 C 25.717486 14.450185 25.805308 14.488959 26.09375 14.75 C 26.377564 15.006852 26.639026 15.276457 26.8125 15.5 C 26.942605 15.667657 26.987924 15.831031 27 15.8125 C 26.988789 15.901493 26.95757 15.943581 26.9375 16 L 24.0625 16 C 24.0398 15.946405 24.008658 15.905212 24 15.78125 C 24.011775 15.79674 24.05643 15.667137 24.1875 15.5 C 24.362255 15.277172 24.650012 15.003562 24.9375 14.75 C 25.2203 14.500573 25.282059 14.445448 25.5 14.28125 z M 13 15 L 19 15 L 19 17 L 19 18 L 20 18 L 26 18 L 26 26 L 24 26 L 24 25.59375 C 24 24.46875 23 24 23 24 C 23 24 22 24.51075 22 25.59375 L 22 26 L 20 26 L 20 22 C 20 20.529167 18.929075 19.564521 18.0625 18.96875 C 17.195925 18.372979 16.34375 18.0625 16.34375 18.0625 L 16 17.9375 L 15.65625 18.0625 C 15.65625 18.0625 14.807859 18.376471 13.9375 18.96875 C 13.067141 19.561029 12 20.519852 12 22 L 12 26 L 10 26 L 10 25.59375 C 10 24.46875 9 24 9 24 C 9 24 8 24.51075 8 25.59375 L 8 26 L 6 26 L 6 18 L 8.5 18 L 12 18 L 13 18 L 13 17 L 13 15 z M 9 19 C 9 19 8 19.51075 8 20.59375 L 8 22 L 10 22 L 10 20.59375 C 10 19.46875 9 19 9 19 z M 23 19 C 23 19 22 19.51075 22 20.59375 L 22 22 L 24 22 L 24 20.59375 C 24 19.46875 23 19 23 19 z" fill="#606060" overflow="visible" font-family="Sans"/>
</svg>