<?xml version="1.0" encoding="utf-8"?>
<!-- Generator: Adobe Illustrator 16.0.3, SVG Export Plug-In . SVG Version: 6.00 Build 0)  -->
<!DOCTYPE svg PUBLIC "-//W3C//DTD SVG 1.1//EN" "http://www.w3.org/Graphics/SVG/1.1/DTD/svg11.dtd">
<svg version="1.1" id="Ebene_1" xmlns="http://www.w3.org/2000/svg" xmlns:xlink="http://www.w3.org/1999/xlink" x="0px" y="0px"
	 width="30px" height="30px" viewBox="-3 -4 30 30" enable-background="new -3 -4 30 30" xml:space="preserve">
<title>See</title>
<desc>Created with Sketch.</desc>
<g id="Page-1">
	<g id="Eventlokale-Styleguide" transform="translate(-706.000000, -8763.000000)">
		<g id="See" transform="translate(706.000000, 8764.000000)">
			<g id="water_element">
				<g id="Layer_1">
					<path id="Shape" fill="none" stroke="#7F7F7F" stroke-width="2" d="M0,14c2.4,0,3.6-3,6-3s3.6,3,6,3c2.4,0,3.6-3,6-3s3.6,3,6,3
						"/>
					<path id="Shape_1_" fill="none" stroke="#7F7F7F" stroke-width="2" d="M0,20c2.4,0,3.6-3,6-3s3.6,3,6,3c2.4,0,3.6-3,6-3
						s3.6,3,6,3"/>
					<path id="Shape_2_" fill="none" stroke="#7F7F7F" stroke-width="2" d="M13,4c3.917,0,4.363-3.012,7.003-3.012
						c1.681,0,3,1.344,3,3.056s-1.319,2.957-3,2.957c-0.84,0-1.681-0.367-2.28-0.978"/>
					<path id="Shape_3_" fill="none" stroke="#7F7F7F" stroke-width="2" d="M6.999,5.949C7.635,6.597,8.52,7,9.5,7
						C11.433,7,13,5.433,13,3.5S11.433,0,9.5,0C4.94,0,4.44,6,0,6"/>
				</g>
			</g>
		</g>
	</g>
</g>
</svg>
