<?xml version="1.0" encoding="UTF-8"?>
<svg width="30px" height="30px" viewBox="0 0 30 30" version="1.1" xmlns="http://www.w3.org/2000/svg" xmlns:xlink="http://www.w3.org/1999/xlink">
    <!-- Generator: Sketch 40.3 (33839) - http://www.bohemiancoding.com/sketch -->
    <title>Share Blau</title>
    <desc>Created with Sketch.</desc>
    <defs></defs>
    <g id="Page-1" stroke="none" stroke-width="1" fill="none" fill-rule="evenodd">
        <g id="Eventlokale-Styleguide" transform="translate(-377.000000, -8539.000000)">
            <g id="Share-Blau" transform="translate(378.000000, 8540.000000)">
                <g id="Group-32">
                    <path d="M27.8224454,13.8938864 C27.8224454,21.5673182 21.6019908,27.7877727 13.928559,27.7877727 C6.25512718,27.7877727 0.0345135415,21.5673182 0.0345135415,13.8938864 C0.0345135415,6.22045455 6.25512718,0 13.928559,0 C21.6019908,0 27.8224454,6.22045455 27.8224454,13.8938864 L27.8224454,13.8938864 Z" id="Stroke-3-Copy-2" stroke="#2A5571" stroke-width="2"></path>
                    <path d="M18.3333333,5 C16.8605742,5 15.6666667,6.20883122 15.6666667,7.7 C15.6666667,7.87669331 15.6902178,8.03902649 15.7222222,8.20625 L9.38888889,11.946875 C8.92370249,11.5464592 8.32507671,11.3 7.66666667,11.3 C6.19390738,11.3 5,12.5088314 5,14 C5,15.4911686 6.19390738,16.7 7.66666667,16.7 C8.32507671,16.7 8.92370249,16.4535404 9.38888889,16.053125 L15.7222222,19.79375 C15.6902178,19.9609736 15.6666667,20.1233066 15.6666667,20.3 C15.6666667,21.7911686 16.8605742,23 18.3333333,23 C19.8060924,23 21,21.7911686 21,20.3 C21,18.8088314 19.8060924,17.6 18.3333333,17.6 C17.6749236,17.6 17.0762978,17.8464596 16.6111111,18.246875 L10.2777778,14.50625 C10.3097818,14.3390264 10.3333333,14.1766934 10.3333333,14 C10.3333333,13.8233066 10.3097818,13.6609736 10.2777778,13.49375 L16.6111111,9.753125 C17.0762978,10.1535408 17.6749236,10.4 18.3333333,10.4 C19.8060924,10.4 21,9.19116878 21,7.7 C21,6.20883122 19.8060924,5 18.3333333,5 L18.3333333,5 Z" id="Shape" fill="#2A5571"></path>
                </g>
            </g>
        </g>
    </g>
</svg>