<?xml version="1.0" encoding="UTF-8" standalone="no"?>
<svg width="110px" height="145px" viewBox="0 0 110 145" version="1.1" xmlns="http://www.w3.org/2000/svg" xmlns:xlink="http://www.w3.org/1999/xlink">
    <!-- Generator: Sketch 3.6.1 (26313) - http://www.bohemiancoding.com/sketch -->
    <title>SLA-LogoOnly</title>
    <desc>Created with Sketch.</desc>
    <defs></defs>
    <g id="Parallax-Werbung" stroke="none" stroke-width="1" fill="none" fill-rule="evenodd">
        <g id="Elements" transform="translate(-60.000000, -60.000000)" fill="#ffffff">
            <g id="SLA-LogoHorizontal" transform="translate(60.000000, 60.000000)">
                <path d="M79.6043716,44.8090226 L68.8956718,57.1574068 C68.4282,57.6965254 68.2547959,58.4313955 68.4313964,59.1237458 L72.4924077,74.9812147 C72.9391029,76.7245254 71.2010668,78.2247514 69.5509314,77.5203672 L54.5446876,71.1103107 C53.889428,70.8311243 53.1390758,70.8928983 52.5381549,71.2755763 L38.7713106,80.0531017 C37.2578208,81.0182203 35.2992339,79.8220508 35.4574551,78.029 L36.8918343,61.7198588 C36.9541639,61.0082542 36.6640916,60.3102881 36.115112,59.8554068 L23.5461142,49.4228192 C22.1644754,48.2763898 22.6918795,46.0364802 24.4395047,45.6329435 L40.3327463,41.9626045 C41.0263625,41.8021525 41.5969178,41.309565 41.8590217,40.6452938 L47.8578433,25.4200056 C48.5170984,23.7464915 50.8017169,23.5579605 51.7238749,25.1015085 L60.1119968,39.142661 C60.4779833,39.7555876 61.1212564,40.1486949 61.8316537,40.1928192 L78.1084619,41.2157006 C79.8976402,41.3280169 80.7814415,43.4515989 79.6043716,44.8090226 M103.188922,47.6241525 L76.487893,4.30853672 C74.6835318,1.48939548 71.5183084,-0.148819209 68.1836763,0.0108305085 L23.4110668,7.18784746 C20.0772339,7.34749718 17.081419,9.2809435 15.5519472,12.2589322 L1.03874628,49.5728418 C-0.492323702,52.5540395 -0.32131693,56.1281073 1.48703973,58.9480508 L50.6634731,139.019203 C53.0256041,142.702379 58.4714506,142.441644 60.4731887,138.549079 L103.630823,56.9985593 C105.162692,54.0189661 104.994083,50.4448983 103.188922,47.6241525" id="Fill-37"></path>
            </g>
        </g>
    </g>
</svg>