<?xml version="1.0" encoding="UTF-8" standalone="no"?>
<svg width="354px" height="142px" viewBox="0 0 354 142" version="1.1" xmlns="http://www.w3.org/2000/svg" xmlns:xlink="http://www.w3.org/1999/xlink">
    <!-- Generator: Sketch 3.6.1 (26313) - http://www.bohemiancoding.com/sketch -->
    <title>SLA-LogoHorizontal</title>
    <desc>Created with Sketch.</desc>
    <defs></defs>
    <g id="Parallax-Werbung" stroke="none" stroke-width="1" fill="none" fill-rule="evenodd">
        <g id="Elements" transform="translate(-51.000000, -171.000000)" fill="#FFFFFF">
            <g id="SLA-LogoHorizontal" transform="translate(51.000000, 171.000000)">
                <path d="M142.833886,12.1653887 C149.817994,12.1653887 153.669642,14.5890158 156.340224,20.1053548 C156.648676,20.6725525 156.443308,21.137061 155.775263,21.4459311 L154.183461,22.167965 C153.516215,22.4254904 153.258906,22.3741458 152.84817,21.7042588 C150.793692,17.5790384 147.91854,15.722609 142.833886,15.722609 C136.722391,15.722609 133.384563,18.1462362 133.384563,22.5289819 C133.589931,25.7251853 135.028306,27.2719424 138.00654,28.1488124 C140.061019,28.8186994 141.344369,29.0248802 144.014951,29.2832079 C147.045127,29.6442249 148.636929,29.8504056 151.153285,30.7786203 C152.437434,31.2423266 153.413132,31.8095243 154.183461,32.4802136 C155.672978,33.8199876 156.905186,36.2436147 156.905186,39.3884734 C156.905186,46.1940441 151.975556,50.2157729 142.936969,50.2157729 C135.592468,50.2157729 131.433168,47.3797842 129.019096,41.3475921 C128.813728,40.6777051 129.019096,40.2131966 129.635999,39.9556712 L131.2278,39.3884734 C131.792762,39.1822927 132.25464,39.3884734 132.563091,40.0070158 C134.463344,44.4924508 137.903457,46.7098972 142.936969,46.7098972 C149.766852,46.7098972 153.156622,44.2862701 153.156622,39.491965 C152.950455,36.2949593 151.615963,34.7995469 148.893439,33.9234791 C146.942044,33.3041345 145.658694,33.1501006 143.142337,32.8925751 C141.549737,32.737739 140.214446,32.5315582 139.238748,32.376722 C138.263051,32.2218859 137.081985,31.8608689 135.695552,31.3971627 C134.309118,30.9334565 133.230337,30.3654565 132.460008,29.6955695 C130.868206,28.3549932 129.584057,25.983513 129.584057,22.7351627 C129.584057,16.2898068 134.463344,12.1653887 142.833886,12.1653887" id="Fill-1"></path>
                <path d="M201.587338,12.8875028 C202.255383,12.8875028 202.460751,13.1963729 202.255383,13.8670621 L193.113712,48.6177514 C192.959487,49.1849492 192.497609,49.4938192 191.778421,49.4938192 L190.18662,49.4938192 C189.41629,49.4938192 189.005554,49.2362938 188.851329,48.669096 L182.021446,23.7148023 C181.661852,22.2707345 181.302259,20.5699435 180.993807,18.6621695 L180.788439,18.6621695 C180.634214,20.0540904 180.27462,21.7556836 179.7616,23.6634576 L172.828633,48.6177514 C172.674408,49.1849492 172.21173,49.4938192 171.544484,49.4938192 L169.900742,49.4938192 C169.182353,49.4938192 168.771618,49.2362938 168.617392,48.669096 L159.424579,13.8670621 C159.270353,13.1963729 159.527663,12.8875028 160.092624,12.8875028 L162.146304,12.8875028 C163.019717,12.8875028 163.327369,13.0415367 163.532737,13.8157175 L169.798457,38.7178644 C169.952683,39.337209 170.106909,40.368113 170.363419,41.8113785 C170.568787,43.2554463 170.671071,44.0801695 170.723013,44.2350056 L170.928381,44.2350056 C171.390259,41.3990169 171.749852,39.5433898 172.006363,38.7178644 L178.837044,14.382113 C178.99127,13.7643729 179.453148,13.4547006 180.223478,13.4547006 L181.815279,13.4547006 C182.585609,13.4547006 183.048286,13.7643729 183.202512,14.382113 L189.93011,38.7700113 C190.18662,39.5947345 190.546214,41.3990169 191.059234,44.2350056 L191.264602,44.2350056 C191.624995,41.7600339 191.932647,39.9557514 192.189157,38.8213559 L198.454877,13.8157175 C198.609103,13.0415367 198.916755,12.8875028 199.790168,12.8875028 L201.587338,12.8875028 Z" id="Fill-3"></path>
                <path d="M206.740555,13.9184068 C206.740555,13.1450282 206.997065,12.8875028 207.767395,12.8875028 L209.462279,12.8875028 C210.232609,12.8875028 210.437977,13.1450282 210.437977,13.9184068 L210.437977,48.4629153 C210.437977,49.2362938 210.232609,49.4938192 209.462279,49.4938192 L207.767395,49.4938192 C206.997065,49.4938192 206.740555,49.2362938 206.740555,48.4629153 L206.740555,13.9184068 Z" id="Fill-5"></path>
                <path d="M229.248722,12.1653887 C236.23283,12.1653887 240.084478,14.5890158 242.75506,20.1053548 C243.063512,20.6725525 242.858144,21.137061 242.190099,21.4459311 L240.598298,22.167965 C239.931051,22.4254904 239.673742,22.3741458 239.263006,21.7042588 C237.208528,17.5790384 234.333377,15.722609 229.248722,15.722609 C223.137228,15.722609 219.799399,18.1462362 219.799399,22.5289819 C220.004767,25.7251853 221.443142,27.2719424 224.421377,28.1488124 C226.475855,28.8186994 227.759205,29.0248802 230.429787,29.2832079 C233.459963,29.6442249 235.051765,29.8504056 237.568121,30.7786203 C238.85227,31.2423266 239.827968,31.8095243 240.598298,32.4802136 C242.087814,33.8199876 243.320022,36.2436147 243.320022,39.3884734 C243.320022,46.1940441 238.390392,50.2157729 229.351805,50.2157729 C222.007304,50.2157729 217.848004,47.3797842 215.433932,41.3475921 C215.228564,40.6777051 215.433932,40.2131966 216.050835,39.9556712 L217.642636,39.3884734 C218.207598,39.1822927 218.669476,39.3884734 218.977927,40.0070158 C220.87818,44.4924508 224.318293,46.7098972 229.351805,46.7098972 C236.181688,46.7098972 239.571458,44.2862701 239.571458,39.491965 C239.365291,36.2949593 238.030799,34.7995469 235.308275,33.9234791 C233.35688,33.3041345 232.07353,33.1501006 229.557173,32.8925751 C227.964573,32.737739 226.629282,32.5315582 225.653584,32.376722 C224.677887,32.2218859 223.496821,31.8608689 222.110388,31.3971627 C220.723954,30.9334565 219.645173,30.3654565 218.874844,29.6955695 C217.283042,28.3549932 215.998893,25.983513 215.998893,22.7351627 C215.998893,16.2898068 220.87818,12.1653887 229.248722,12.1653887" id="Fill-7"></path>
                <path d="M261.240813,12.1653887 C268.224921,12.1653887 272.076569,14.5890158 274.747151,20.1053548 C275.055603,20.6725525 274.850235,21.137061 274.18219,21.4459311 L272.590388,22.167965 C271.923142,22.4254904 271.665833,22.3741458 271.255097,21.7042588 C269.200619,17.5790384 266.325467,15.722609 261.240813,15.722609 C255.129318,15.722609 251.79149,18.1462362 251.79149,22.5289819 C251.996858,25.7251853 253.435233,27.2719424 256.413467,28.1488124 C258.467946,28.8186994 259.751296,29.0248802 262.421878,29.2832079 C265.452054,29.6442249 267.043856,29.8504056 269.560212,30.7786203 C270.844361,31.2423266 271.820059,31.8095243 272.590388,32.4802136 C274.079905,33.8199876 275.312113,36.2436147 275.312113,39.3884734 C275.312113,46.1940441 270.382483,50.2157729 261.343896,50.2157729 C253.999395,50.2157729 249.840095,47.3797842 247.426023,41.3475921 C247.220655,40.6777051 247.426023,40.2131966 248.042926,39.9556712 L249.634727,39.3884734 C250.199688,39.1822927 250.661567,39.3884734 250.970018,40.0070158 C252.870271,44.4924508 256.310384,46.7098972 261.343896,46.7098972 C268.173779,46.7098972 271.563549,44.2862701 271.563549,39.491965 C271.357381,36.2949593 270.022889,34.7995469 267.300366,33.9234791 C265.348971,33.3041345 264.065621,33.1501006 261.549264,32.8925751 C259.956664,32.737739 258.621372,32.5315582 257.645675,32.376722 C256.669977,32.2218859 255.488912,31.8608689 254.102479,31.3971627 C252.716045,30.9334565 251.637264,30.3654565 250.866935,29.6955695 C249.275133,28.3549932 247.990984,25.983513 247.990984,22.7351627 C247.990984,16.2898068 252.870271,12.1653887 261.240813,12.1653887" id="Fill-9"></path>
                <path d="M134.87376,57.2169345 C136.157909,57.2169345 136.619787,57.6806407 136.619787,58.9698723 L136.619787,87.7910588 L151.359133,87.7910588 C152.643282,87.7910588 153.10516,88.2555672 153.10516,89.5439966 L153.10516,92.070313 C153.10516,93.3595446 152.643282,93.8232508 151.359133,93.8232508 L131.946668,93.8232508 C130.662519,93.8232508 130.148699,93.3595446 130.148699,92.070313 L130.148699,58.9698723 C130.148699,57.6806407 130.662519,57.2169345 131.946668,57.2169345 L134.87376,57.2169345 Z" id="Fill-11"></path>
                <path d="M178.339367,69.8485966 C178.339367,65.1048339 175.412274,62.4758282 170.122251,62.4758282 C164.833028,62.4758282 161.905935,65.0534893 161.905935,69.8485966 L161.905935,81.1917492 C161.905935,85.9860542 164.833028,88.5645175 170.122251,88.5645175 C175.412274,88.5645175 178.339367,85.9347096 178.339367,81.1917492 L178.339367,69.8485966 Z M155.434847,69.8999412 C155.434847,61.4962689 160.724071,56.4436362 170.122251,56.4436362 C179.418148,56.4436362 184.758513,61.4962689 184.758513,69.8999412 L184.758513,81.1396023 C184.758513,89.5440768 179.418148,94.5967096 170.122251,94.5967096 C160.724071,94.5967096 155.434847,89.5440768 155.434847,81.1396023 L155.434847,69.8999412 Z" id="Fill-13"></path>
                <path d="M188.787721,69.8485966 C188.787721,61.5476136 194.076944,56.4436362 203.475125,56.4436362 C210.767684,56.4436362 215.440804,59.3301672 217.44414,65.0534893 C217.854876,66.1365401 217.495283,66.9099186 216.365359,67.3222802 L213.54135,68.3018395 C212.308344,68.7142011 211.795323,68.4566757 211.332646,67.2187887 C210.202723,64.0739299 207.584082,62.4758282 203.475125,62.4758282 C198.185901,62.4758282 195.258809,65.0534893 195.258809,69.797252 L195.258809,81.1917492 C195.258809,85.9347096 198.185901,88.5645175 203.475125,88.5645175 C207.53214,88.5645175 210.151581,86.9664158 211.332646,83.7694102 C211.897608,82.4801785 212.359486,82.2226531 213.592493,82.6863593 L216.365359,83.6667209 C217.495283,84.0790825 217.854876,84.852461 217.495283,85.9347096 C215.492745,91.7093763 210.818827,94.5967096 203.475125,94.5967096 C194.076944,94.5967096 188.787721,89.5440768 188.787721,81.1396023 L188.787721,69.8485966 Z" id="Fill-15"></path>
                <path d="M237.049507,69.4360746 C236.433404,67.5804475 236.022668,65.208165 235.868442,64.0224249 L235.8173,63.1463571 L235.457706,63.1463571 C235.457706,65.1046734 235.098112,67.1672836 234.327783,69.3847299 L230.373051,80.3155209 L240.952298,80.3155209 L237.049507,69.4360746 Z M252.148447,92.1215774 C252.559182,93.2559729 252.148447,93.8231706 250.966582,93.8231706 L248.296799,93.8231706 C246.191178,93.8231706 245.523133,93.5143006 245.112397,92.2764136 L242.750266,85.6256791 L228.575882,85.6256791 L226.162609,92.2764136 C225.751074,93.5143006 225.083828,93.8231706 222.978207,93.8231706 L220.616076,93.8231706 C219.434212,93.8231706 219.023476,93.2559729 219.434212,92.1215774 L232.273304,58.6087751 C232.735981,57.423035 233.19786,57.1647073 234.430067,57.1647073 L237.152591,57.1647073 C238.384799,57.1647073 238.898618,57.4743797 239.309354,58.5574305 L252.148447,92.1215774 Z" id="Fill-17"></path>
                <path d="M274.331381,57.2169345 C275.61553,57.2169345 276.077408,57.6806407 276.077408,58.9698723 L276.077408,61.4961887 C276.077408,62.7854203 275.61553,63.2491266 274.331381,63.2491266 L265.498162,63.2491266 L265.498162,92.070313 C265.498162,93.3595446 265.036284,93.8232508 263.752135,93.8232508 L260.773101,93.8232508 C259.489751,93.8232508 259.027074,93.3595446 259.027074,92.070313 L259.027074,63.2491266 L250.193855,63.2491266 C248.910505,63.2491266 248.448627,62.7854203 248.448627,61.4961887 L248.448627,58.9698723 C248.448627,57.6806407 248.910505,57.2169345 250.193855,57.2169345 L274.331381,57.2169345 Z" id="Fill-19"></path>
                <path d="M279.731919,58.9698723 C279.731919,57.6806407 280.245738,57.2169345 281.529887,57.2169345 L284.45698,57.2169345 C285.74033,57.2169345 286.203007,57.6806407 286.203007,58.9698723 L286.203007,92.070313 C286.203007,93.3595446 285.74033,93.8232508 284.45698,93.8232508 L281.529887,93.8232508 C280.245738,93.8232508 279.731919,93.3595446 279.731919,92.070313 L279.731919,58.9698723 Z" id="Fill-21"></path>
                <path d="M313.805098,69.8485966 C313.805098,65.1048339 310.878005,62.4758282 305.587983,62.4758282 C300.298759,62.4758282 297.371667,65.0534893 297.371667,69.8485966 L297.371667,81.1917492 C297.371667,85.9860542 300.298759,88.5645175 305.587983,88.5645175 C310.878005,88.5645175 313.805098,85.9347096 313.805098,81.1917492 L313.805098,69.8485966 Z M290.900579,69.8999412 C290.900579,61.4962689 296.189802,56.4436362 305.587983,56.4436362 C314.883879,56.4436362 320.224245,61.4962689 320.224245,69.8999412 L320.224245,81.1396023 C320.224245,89.5440768 314.883879,94.5967096 305.587983,94.5967096 C296.189802,94.5967096 290.900579,89.5440768 290.900579,81.1396023 L290.900579,69.8999412 Z" id="Fill-23"></path>
                <path d="M351.86713,57.2169345 C353.151279,57.2169345 353.613157,57.6806407 353.613157,58.9698723 L353.613157,92.070313 C353.613157,93.3595446 353.151279,93.8232508 351.86713,93.8232508 L348.940037,93.8232508 C348.169708,93.8232508 347.604746,93.5143808 347.245153,92.9471831 L334.663369,74.2826068 C332.506606,71.137748 330.349044,65.4657706 330.452128,65.6206068 L330.143676,65.6206068 C330.143676,65.4657706 331.2736,71.5501096 331.2736,75.8807085 L331.2736,92.070313 C331.2736,93.3595446 330.811721,93.8232508 329.527572,93.8232508 L326.805848,93.8232508 C325.521699,93.8232508 325.007879,93.3595446 325.007879,92.070313 L325.007879,58.9698723 C325.007879,57.6806407 325.521699,57.2169345 326.805848,57.2169345 L329.73294,57.2169345 C330.50327,57.2169345 331.068232,57.4744599 331.427825,58.0416576 L343.907324,76.6027424 C346.269455,80.0572734 348.272791,85.4195785 348.22085,85.3682339 L348.529302,85.3682339 C348.529302,85.4195785 347.399378,79.592765 347.399378,74.9524938 L347.399378,58.9698723 C347.399378,57.6806407 347.861256,57.2169345 349.145405,57.2169345 L351.86713,57.2169345 Z" id="Fill-25"></path>
                <path d="M144.220559,107.238159 C143.758681,105.846238 143.501372,104.660498 143.501372,103.680939 L143.244861,103.680939 C143.244861,104.763188 143.039493,105.948928 142.628758,107.238159 L136.414979,123.066747 L150.383195,123.066747 L144.220559,107.238159 Z M159.319498,135.905312 C159.576008,136.575199 159.37064,136.884871 158.600311,136.884871 L157.110794,136.884871 C156.032013,136.884871 155.415909,136.575199 155.261683,135.956656 L151.410035,126.160261 L135.336198,126.160261 L131.48455,135.956656 C131.279182,136.730035 130.919588,136.884871 129.686581,136.884871 L128.300148,136.884871 C127.580961,136.884871 127.375593,136.575199 127.632902,135.905312 L141.395751,100.999786 C141.601119,100.432589 142.012654,100.122916 142.6799,100.122916 L144.220559,100.122916 C144.887805,100.122916 145.350482,100.381244 145.55585,100.948442 L159.319498,135.905312 Z" id="Fill-27"></path>
                <path d="M199.415312,100.277993 C200.082558,100.277993 200.287926,100.586863 200.082558,101.257553 L190.941687,136.008242 C190.787461,136.57544 190.325583,136.88431 189.606395,136.88431 L188.013795,136.88431 C187.243465,136.88431 186.833529,136.626784 186.679303,136.059586 L179.848621,111.105293 C179.489028,109.661225 179.129434,107.960434 178.821781,106.05266 L178.616414,106.05266 C178.462188,107.444581 178.102594,109.146174 177.588775,111.053948 L170.655809,136.008242 C170.502382,136.57544 170.039705,136.88431 169.372459,136.88431 L167.728716,136.88431 C167.010328,136.88431 166.598793,136.626784 166.445366,136.059586 L157.252553,101.257553 C157.098328,100.586863 157.354838,100.277993 157.9198,100.277993 L159.974278,100.277993 C160.846892,100.277993 161.155344,100.432027 161.360712,101.206208 L167.626432,126.108355 C167.780657,126.727699 167.934084,127.758603 168.190594,129.201869 C168.396761,130.645937 168.499046,131.47066 168.550987,131.625496 L168.756355,131.625496 C169.218233,128.789507 169.577827,126.93388 169.834337,126.108355 L176.665019,101.772603 C176.818445,101.154863 177.281122,100.845191 178.051452,100.845191 L179.643253,100.845191 C180.413583,100.845191 180.875461,101.154863 181.029687,101.772603 L187.757285,126.160502 C188.013795,126.985225 188.374188,128.789507 188.887208,131.625496 L189.092576,131.625496 C189.45217,129.150524 189.760621,127.346242 190.017131,126.211846 L196.282851,101.206208 C196.436278,100.432027 196.74473,100.277993 197.617344,100.277993 L199.415312,100.277993 Z" id="Fill-29"></path>
                <path d="M214.870409,107.238159 C214.40853,105.846238 214.151221,104.660498 214.151221,103.680939 L213.894711,103.680939 C213.894711,104.763188 213.689343,105.948928 213.278607,107.238159 L207.064828,123.066747 L221.033045,123.066747 L214.870409,107.238159 Z M229.969348,135.905312 C230.225858,136.575199 230.02049,136.884871 229.25016,136.884871 L227.760643,136.884871 C226.681862,136.884871 226.065758,136.575199 225.911533,135.956656 L222.059885,126.160261 L205.986047,126.160261 L202.1344,135.956656 C201.929032,136.730035 201.569438,136.884871 200.336431,136.884871 L198.949998,136.884871 C198.231609,136.884871 198.025442,136.575199 198.282752,135.905312 L212.0456,100.999786 C212.250968,100.432589 212.662503,100.122916 213.329749,100.122916 L214.870409,100.122916 C215.537655,100.122916 216.000332,100.381244 216.2057,100.948442 L229.969348,135.905312 Z" id="Fill-31"></path>
                <path d="M249.255555,103.784029 L237.751754,103.784029 L237.751754,118.013713 L249.255555,118.013713 C253.826391,118.013713 256.548115,115.487397 256.548115,110.950617 C256.548115,106.36169 253.928675,103.784029 249.255555,103.784029 L249.255555,103.784029 Z M249.615149,100.278154 C256.393889,100.278154 260.399763,104.196391 260.399763,110.950617 C260.399763,116.570447 257.318445,120.231159 252.131506,121.055882 C253.466797,121.674425 254.59672,122.860165 255.469334,124.613103 L261.221235,135.853566 C261.683912,136.523453 261.478544,136.88447 260.708214,136.88447 L259.01333,136.88447 C257.934549,136.88447 257.267302,136.5756 257.009993,135.956255 L252.029221,126.005826 C250.385479,122.706131 248.639451,121.519589 244.68472,121.519589 L237.751754,121.519589 L237.751754,135.853566 C237.751754,136.626945 237.546386,136.88447 236.776056,136.88447 L235.081172,136.88447 C234.310842,136.88447 234.054332,136.626945 234.054332,135.853566 L234.054332,101.309058 C234.054332,100.535679 234.310842,100.278154 235.081172,100.278154 L249.615149,100.278154 Z" id="Fill-33"></path>
                <path d="M289.161744,113.889134 C289.161744,107.444581 285.207012,103.783869 278.017536,103.783869 L269.851563,103.783869 L269.851563,133.378434 L278.017536,133.378434 C285.207012,133.378434 289.161744,129.717722 289.161744,123.273168 L289.161744,113.889134 Z M278.017536,100.277993 C287.466859,100.277993 292.910308,105.433315 292.910308,113.889134 L292.910308,123.273168 C292.910308,131.728988 287.466859,136.88431 278.017536,136.88431 L267.18178,136.88431 C266.41145,136.88431 266.154141,136.626784 266.154141,135.853406 L266.154141,101.308897 C266.154141,100.535519 266.41145,100.277993 267.18178,100.277993 L278.017536,100.277993 Z" id="Fill-35"></path>
                <path d="M79.6043716,44.8090226 L68.8956718,57.1574068 C68.4282,57.6965254 68.2547959,58.4313955 68.4313964,59.1237458 L72.4924077,74.9812147 C72.9391029,76.7245254 71.2010668,78.2247514 69.5509314,77.5203672 L54.5446876,71.1103107 C53.889428,70.8311243 53.1390758,70.8928983 52.5381549,71.2755763 L38.7713106,80.0531017 C37.2578208,81.0182203 35.2992339,79.8220508 35.4574551,78.029 L36.8918343,61.7198588 C36.9541639,61.0082542 36.6640916,60.3102881 36.115112,59.8554068 L23.5461142,49.4228192 C22.1644754,48.2763898 22.6918795,46.0364802 24.4395047,45.6329435 L40.3327463,41.9626045 C41.0263625,41.8021525 41.5969178,41.309565 41.8590217,40.6452938 L47.8578433,25.4200056 C48.5170984,23.7464915 50.8017169,23.5579605 51.7238749,25.1015085 L60.1119968,39.142661 C60.4779833,39.7555876 61.1212564,40.1486949 61.8316537,40.1928192 L78.1084619,41.2157006 C79.8976402,41.3280169 80.7814415,43.4515989 79.6043716,44.8090226 M103.188922,47.6241525 L76.487893,4.30853672 C74.6835318,1.48939548 71.5183084,-0.148819209 68.1836763,0.0108305085 L23.4110668,7.18784746 C20.0772339,7.34749718 17.081419,9.2809435 15.5519472,12.2589322 L1.03874628,49.5728418 C-0.492323702,52.5540395 -0.32131693,56.1281073 1.48703973,58.9480508 L50.6634731,139.019203 C53.0256041,142.702379 58.4714506,142.441644 60.4731887,138.549079 L103.630823,56.9985593 C105.162692,54.0189661 104.994083,50.4448983 103.188922,47.6241525" id="Fill-37"></path>
            </g>
        </g>
    </g>
</svg>