<?xml version="1.0" encoding="UTF-8"?>
<svg width="317px" height="454px" viewBox="0 0 317 454" version="1.1" xmlns="http://www.w3.org/2000/svg" xmlns:xlink="http://www.w3.org/1999/xlink">
    <!-- Generator: Sketch 42 (36781) - http://www.bohemiancoding.com/sketch -->
    <title>Group 2</title>
    <desc>Created with Sketch.</desc>
    <defs></defs>
    <g id="Page-1" stroke="none" stroke-width="1" fill="none" fill-rule="evenodd">
        <g id="9---404-Seite" transform="translate(0.000000, -249.000000)">
            <g id="Group-2" transform="translate(-8.000000, 251.000000)">
                <path d="M214.3448,307.7905 L233.6628,288.4725 C235.0188,287.1165 237.0518,287.1165 238.4078,288.4725 L243.1528,293.2175 C244.5088,294.5725 244.5088,296.6065 243.1528,297.9615 L223.8348,317.2805" id="Stroke-7" stroke="#FFFFFF" stroke-width="4" stroke-linecap="round" stroke-linejoin="round"></path>
                <path d="M208.34082,451.279 C173.358985,451.279 145,448.377952 145,444.7995 C145,441.221048 173.358985,438.32 208.34082,438.32 C243.322656,438.32 271.6809,441.221048 271.6809,444.7995 C271.6809,448.377952 243.322656,451.279 208.34082,451.279 Z" id="Fill-37" fill="#09A2A2" opacity="0.598278986"></path>
                <path d="M252.6424,346.0881 L271.9604,326.7701 C273.3164,325.4141 275.3494,325.4141 276.7054,326.7701 L281.4504,331.5151 C282.8064,332.8701 282.8064,334.9041 281.4504,336.2591 L262.1324,355.5781" id="Stroke-9" stroke="#FFFFFF" stroke-width="4" stroke-linecap="round" stroke-linejoin="round"></path>
                <path d="M176.0473,379.6408 L168.5913,387.0968 C167.2353,388.4528 167.2353,390.4858 168.5913,391.8418 L178.0813,401.3318 C179.4363,402.6868 181.4703,402.6868 182.8253,401.3318 L190.2813,393.8748 C211.6333,411.8378 235.3573,411.1598 276.7053,369.8118 L200.1103,293.2168 C158.7623,334.5648 155.7123,356.5948 176.0473,379.6408 L176.0473,379.6408 Z" id="Stroke-11" stroke="#FFFFFF" stroke-width="4" stroke-linecap="round" stroke-linejoin="round"></path>
                <path d="M173.336,396.5866 L151.984,417.9386 C151.984,417.9386 140.122,429.8006 123.176,413.1936 C106.569,396.5866 93.013,395.2306 72,416.5826 C72,416.5826 48.4140625,455.484375 0.78515625,446.421875" id="Stroke-13" stroke="#FFFFFF" stroke-width="4" stroke-linecap="round" stroke-linejoin="round"></path>
                <path d="M240.7803,362.695 L207.2273,329.142" id="Stroke-15" stroke="#FFFFFF" stroke-width="2" stroke-linecap="round" stroke-linejoin="round"></path>
                <path d="M231.2906,372.1846 L197.7376,338.6316" id="Stroke-17" stroke="#FFFFFF" stroke-width="2" stroke-linecap="round" stroke-linejoin="round"></path>
                <path d="M221.7906,381.6846 L188.2376,348.1316" id="Stroke-19" stroke="#FFFFFF" stroke-width="2" stroke-linecap="round" stroke-linejoin="round"></path>
                <path d="M149.0141,167.9999 C140.8981,167.9999 134.3191,161.4209 134.3191,153.3049 L134.3191,14.6949 C134.3191,6.5789 140.8981,-0.0001 149.0141,-0.0001 L307.6241,-0.0001 C315.7401,-0.0001 322.3191,6.5789 322.3191,14.6949 L322.3191,153.3049 C322.3191,161.4209 315.7401,167.9999 307.6241,167.9999 L149.0141,167.9999 Z" id="Stroke-21" stroke="#FFFFFF" stroke-width="4" stroke-linecap="round" stroke-linejoin="round"></path>
                <path d="M205,64.8349 L205,90.7519" id="Stroke-1" stroke="#FFFFFF" stroke-width="5" stroke-linecap="round" stroke-linejoin="round"></path>
                <path d="M251,64.8349 L251,90.7519" id="Stroke-2" stroke="#FFFFFF" stroke-width="5" stroke-linecap="round" stroke-linejoin="round"></path>
                <path d="M215.4523,111.4857 C215.4523,104.2287 221.1543,98.5267 228.4113,98.5267 C235.6673,98.5267 241.3693,104.2287 241.3693,111.4857 L215.4523,111.4857 L215.4523,111.4857 Z" id="Stroke-3" stroke="#FFFFFF" stroke-width="3" stroke-linecap="round" stroke-linejoin="round"></path>
                <path d="M186.9435,129.6277 C163.3585,106.8207 162.8405,68.9817 185.6475,45.3967 C186.9435,44.1007 188.2395,42.8057 189.7945,41.5097 L267.0275,41.5097 C292.1675,62.7617 295.0175,100.6007 273.7655,125.4807 C272.4705,127.0357 271.1745,128.3317 269.8785,129.6277 L186.9435,129.6277 L186.9435,129.6277 Z" id="Stroke-5" stroke="#FFFFFF" stroke-width="4" stroke-linecap="round" stroke-linejoin="round"></path>
                <path d="M310.1128,17.1191 C310.1128,20.0141 307.7658,22.3611 304.8708,22.3611 C301.9758,22.3611 299.6288,20.0141 299.6288,17.1191 C299.6288,14.2241 301.9758,11.8771 304.8708,11.8771 C307.7658,11.8771 310.1128,14.2241 310.1128,17.1191 L310.1128,17.1191 Z" id="Stroke-23" stroke="#FFFFFF" stroke-width="2" stroke-linecap="round" stroke-linejoin="round"></path>
                <path d="M155.5217,17.1191 C155.5217,20.0141 153.1747,22.3611 150.2797,22.3611 C147.3847,22.3611 145.0377,20.0141 145.0377,17.1191 C145.0377,14.2241 147.3847,11.8771 150.2797,11.8771 C153.1747,11.8771 155.5217,14.2241 155.5217,17.1191 L155.5217,17.1191 Z" id="Stroke-25" stroke="#FFFFFF" stroke-width="2" stroke-linecap="round" stroke-linejoin="round"></path>
                <path d="M310.1128,150.9997 C310.1128,153.8947 307.7658,156.2417 304.8708,156.2417 C301.9758,156.2417 299.6288,153.8947 299.6288,150.9997 C299.6288,148.1047 301.9758,145.7577 304.8708,145.7577 C307.7658,145.7577 310.1128,148.1047 310.1128,150.9997 L310.1128,150.9997 Z" id="Stroke-27" stroke="#FFFFFF" stroke-width="2" stroke-linecap="round" stroke-linejoin="round"></path>
                <path d="M155.5217,150.9997 C155.5217,153.8947 153.1747,156.2417 150.2797,156.2417 C147.3847,156.2417 145.0377,153.8947 145.0377,150.9997 C145.0377,148.1047 147.3847,145.7577 150.2797,145.7577 C153.1747,145.7577 155.5217,148.1047 155.5217,150.9997 L155.5217,150.9997 Z" id="Stroke-29" stroke="#FFFFFF" stroke-width="2" stroke-linecap="round" stroke-linejoin="round"></path>
                <path d="M232.3193,202.2339 L232.3193,260.2339" id="Stroke-31" stroke="#FFFFFF" stroke-width="4" stroke-linecap="round" stroke-linejoin="round"></path>
                <path d="M257.8427,222.0151 L257.8427,280.0151" id="Stroke-33" stroke="#FFFFFF" stroke-width="4" stroke-linecap="round" stroke-linejoin="round"></path>
                <path d="M204.1708,221.0802 L204.1708,279.0802" id="Stroke-35" stroke="#FFFFFF" stroke-width="4" stroke-linecap="round" stroke-linejoin="round"></path>
            </g>
        </g>
    </g>
</svg>