<svg xmlns="http://www.w3.org/2000/svg" viewBox="0 0 32 32" width="64" height="64">
    <path style="text-indent:0;text-align:start;line-height:normal;text-transform:none;block-progression:tb;-inkscape-font-specification:Bitstream Vera Sans" d="M 14.25 4 L 14 4.59375 C 14 4.59375 12.915609 6.9670114 11.53125 9.5625 C 10.83907 10.860244 10.084342 12.188861 9.34375 13.3125 C 8.6031577 14.436139 7.8373966 15.337402 7.40625 15.65625 L 6.125 16.59375 L 7.53125 17.34375 C 11.175045 19.28932 14.808135 19.008192 14.90625 19 C 14.90755 18.999889 14.96875 19 14.96875 19 L 15 19 L 16 19 L 16 18 L 16 5 L 16 4 L 15 4 L 14.90625 4 L 14.25 4 z M 16.875 4 L 17 5.125 C 17 5.125 17.257087 7.0713545 17.375 9.40625 C 17.492913 11.741146 17.43504 14.518218 17.0625 15.6875 L 16.75 16.65625 L 17.6875 16.9375 C 21.283807 18.119315 23.5625 18.9375 23.5625 18.9375 L 23.71875 19 L 23.90625 19 L 24 19 L 25 19 L 25 18 C 25 14.518326 23.735497 11.315319 22.34375 8.875 C 21.647876 7.6548406 20.920541 6.6364282 20.28125 5.84375 C 19.641959 5.0510718 19.146306 4.5200326 18.6875 4.1875 L 18.4375 4 L 18.09375 4 L 18 4 L 16.875 4 z M 19.21875 7.84375 C 19.670218 8.4543021 20.127288 9.0570959 20.59375 9.875 C 21.65812 11.741288 22.462626 14.106385 22.75 16.5625 C 22.071116 16.325106 21.101768 15.980996 19.09375 15.3125 C 19.435173 13.546679 19.446987 11.35678 19.34375 9.3125 C 19.3034 8.513492 19.27255 8.4986047 19.21875 7.84375 z M 14 9.09375 L 14 16.96875 C 13.21123 16.97677 11.699855 16.879122 9.625 16.0625 C 10.079457 15.534773 10.545696 15.126778 11 14.4375 C 11.795033 13.231264 12.60218 11.831756 13.3125 10.5 C 13.704405 9.7652299 13.674266 9.7453183 14 9.09375 z M 5 20 L 5 21 C 5 22.362339 5.3253294 23.453441 5.8125 24.3125 C 5.7475767 24.389851 5.6820194 24.479654 5.5625 24.5625 C 5.2061149 24.809532 4.636638 25 4 25 C 3.3665518 25 2.7956774 24.812099 2.4375 24.5625 C 2.0793226 24.312901 2 24.042136 2 24 L 0 24 C 0 24.941864 0.58867738 25.683099 1.3125 26.1875 C 2.0363226 26.691901 2.9614482 27 4 27 C 5.035362 27 5.9618851 26.690468 6.6875 26.1875 C 6.8001837 26.109392 6.895686 26.026988 7 25.9375 C 7.1012319 26.023981 7.2036063 26.111617 7.3125 26.1875 C 8.0363226 26.691901 8.9614482 27 10 27 C 11.035362 27 11.961885 26.690468 12.6875 26.1875 C 12.800184 26.109392 12.895686 26.026988 13 25.9375 C 13.101232 26.023981 13.203606 26.111617 13.3125 26.1875 C 14.036323 26.691901 14.961448 27 16 27 C 17.035362 27 17.961885 26.690468 18.6875 26.1875 C 18.800184 26.109392 18.895686 26.026988 19 25.9375 C 19.101232 26.023981 19.203606 26.111617 19.3125 26.1875 C 20.036323 26.691901 20.961448 27 22 27 C 23.035362 27 23.961885 26.690468 24.6875 26.1875 C 24.800184 26.109392 24.895686 26.026988 25 25.9375 C 25.101232 26.023981 25.203606 26.111617 25.3125 26.1875 C 26.036323 26.691901 26.961448 27 28 27 C 29.035362 27 29.961885 26.690468 30.6875 26.1875 C 31.413115 25.684532 32 24.942667 32 24 L 30 24 C 30 24.05733 29.91888 24.315468 29.5625 24.5625 C 29.206115 24.809532 28.636638 25 28 25 C 27.494639 25 27.036979 24.893856 26.6875 24.71875 C 27.332485 23.926502 28 22.716269 28 21 L 28 20 L 27 20 L 6 20 L 5 20 z M 7.21875 22 L 25.75 22 C 25.506655 22.945284 25.057501 23.542912 24.59375 24 L 24 24 C 24 24.05733 23.91888 24.315468 23.5625 24.5625 C 23.206115 24.809532 22.636638 25 22 25 C 21.366552 25 20.795677 24.812099 20.4375 24.5625 C 20.079323 24.312901 20 24.042136 20 24 L 18 24 C 18 24.05733 17.91888 24.315468 17.5625 24.5625 C 17.206115 24.809532 16.636638 25 16 25 C 15.366552 25 14.795677 24.812099 14.4375 24.5625 C 14.079323 24.312901 14 24.042136 14 24 L 12 24 C 12 24.05733 11.91888 24.315468 11.5625 24.5625 C 11.223855 24.797235 10.692 24.982297 10.09375 25 C 10.09375 25 9.3383707 24.92337 8.5625 24.40625 C 7.9566679 24.002463 7.4559631 23.222536 7.21875 22 z" fill="#606060" overflow="visible" font-family="Bitstream Vera Sans"/>
</svg>