<svg xmlns="http://www.w3.org/2000/svg" viewBox="0 0 32 32" width="64" height="64">
    <path style="text-indent:0;text-align:start;line-height:normal;text-transform:none;block-progression:tb;-inkscape-font-specification:Bitstream Vera Sans" d="M 4 4 L 4 6 L 28 6 L 28 4 L 4 4 z M 4 7 L 4 7.5 L 4 27 L 4 28 L 5 28 L 11 28 L 12 28 L 12 27 C 12 24.307419 11.483086 22.494682 10.90625 21.34375 C 10.617832 20.768284 10.304344 20.369714 10.0625 20.09375 C 10.03025 20.05695 10.03167 20.0645 10 20.03125 L 10 19.9375 C 10.250264 19.701655 10.489327 19.501237 10.84375 19.0625 C 11.378567 18.400455 12.008247 17.509029 12.625 16.375 C 13.77472 14.260999 14.828725 11.332962 14.96875 7.78125 C 14.979585 7.6878076 15 7.5960977 15 7.5 L 15 7 L 13 7 C 13 7.2035583 13.006643 7.3946563 13 7.59375 C 12.993611 7.6280153 12.98131 7.6565222 12.96875 7.6875 C 12.895376 7.8684755 12.715203 8 12.5 8 C 12.213063 8 12 7.7869372 12 7.5 L 12 7 L 10 7 L 10 7.5 C 10 7.7869372 9.7869372 8 9.5 8 C 9.2130628 8 9 7.7869372 9 7.5 L 9 7 L 7 7 L 7 7.5 C 7 7.7869372 6.7869372 8 6.5 8 C 6.2130628 8 6 7.7869372 6 7.5 L 6 7 L 4 7 z M 17 7 L 17 7.5 C 17 7.5960977 17.020415 7.6878076 17.03125 7.78125 C 17.171275 11.332962 18.22528 14.260999 19.375 16.375 C 19.991753 17.509029 20.621433 18.400455 21.15625 19.0625 C 21.510673 19.501237 21.749736 19.701655 22 19.9375 L 22 20.03125 C 21.96833 20.0645 21.96975 20.05695 21.9375 20.09375 C 21.695656 20.369714 21.382168 20.768284 21.09375 21.34375 C 20.516914 22.494682 20 24.307419 20 27 L 20 28 L 21 28 L 27 28 L 28 28 L 28 27 L 28 7 L 26 7 L 26 7.5 C 26 7.7869372 25.786937 8 25.5 8 C 25.213063 8 25 7.7869372 25 7.5 L 25 7 L 23 7 L 23 7.5 C 23 7.7869372 22.786937 8 22.5 8 C 22.213063 8 22 7.7869372 22 7.5 L 22 7 L 20 7 L 20 7.5 C 20 7.7869372 19.786937 8 19.5 8 C 19.213063 8 19 7.7869372 19 7.5 L 19 7 L 17 7 z M 8 9.46875 C 8.4200585 9.7883278 8.937817 10 9.5 10 C 10.062183 10 10.579942 9.7883278 11 9.46875 C 11.420058 9.7883278 11.937817 10 12.5 10 C 12.585566 10 12.666512 9.9773675 12.75 9.96875 C 12.38074 12.140469 11.649404 13.982346 10.875 15.40625 C 10.321503 16.423971 9.7437452 17.239982 9.28125 17.8125 C 8.8187548 18.385018 8.3729466 18.764484 8.4375 18.71875 L 8.03125 19 L 7 19 L 7 21 L 8.03125 21 L 8.40625 21.25 C 8.40625 21.25 8.429344 21.2543 8.5625 21.40625 C 8.695656 21.558192 8.882168 21.827841 9.09375 22.25 C 9.4456509 22.95213 9.7866019 24.238004 9.90625 26 L 6 26 L 6 9.9375 C 6.1619477 9.971098 6.3288671 10 6.5 10 C 7.062183 10 7.5799415 9.7883278 8 9.46875 z M 21 9.46875 C 21.420058 9.7883278 21.937817 10 22.5 10 C 23.062183 10 23.579942 9.7883278 24 9.46875 C 24.420058 9.7883278 24.937817 10 25.5 10 C 25.671133 10 25.838052 9.971098 26 9.9375 L 26 26 L 22.09375 26 C 22.213398 24.238004 22.554349 22.95213 22.90625 22.25 C 23.117832 21.827841 23.304344 21.558192 23.4375 21.40625 C 23.570656 21.254308 23.59375 21.25 23.59375 21.25 L 23.96875 21 L 25 21 L 25 19 L 23.96875 19 L 23.5625 18.71875 C 23.62705 18.76448 23.181245 18.385018 22.71875 17.8125 C 22.256255 17.239982 21.678497 16.423971 21.125 15.40625 C 20.350596 13.982346 19.61926 12.140469 19.25 9.96875 C 19.333488 9.9773675 19.414434 10 19.5 10 C 20.062183 10 20.579942 9.7883278 21 9.46875 z" fill="#606060"/>
</svg>