<svg xmlns="http://www.w3.org/2000/svg" viewBox="0 0 32 32" width="64" height="64">
    <path style="text-indent:0;text-align:start;line-height:normal;text-transform:none;block-progression:tb;-inkscape-font-specification:Bitstream Vera Sans" d="M 10.75 2 L 10.5625 2.09375 L 8.5625 3.09375 L 9.4375 4.90625 L 11.25 4 L 20.75 4 L 22.5625 4.90625 L 23.4375 3.09375 L 21.4375 2.09375 L 21.25 2 L 21 2 L 11 2 L 10.75 2 z M 15 5 L 15 6 L 12 6 C 8.6983746 6 6 8.6983746 6 12 L 6 24 C 6 25.64497 7.3550302 27 9 27 L 7 29 L 9.34375 29 L 11.34375 27 L 20.65625 27 L 22.65625 29 L 25 29 L 23 27 C 24.64497 27 26 25.64497 26 24 L 26 12 C 26 8.6983746 23.301625 6 20 6 L 17 6 L 17 5 L 15 5 z M 12 8 L 20 8 C 22.220375 8 24 9.7796254 24 12 L 24 16 L 8 16 L 8 12 C 8 9.7796254 9.7796254 8 12 8 z M 8 18 L 24 18 L 24 24 C 24 24.56503 23.56503 25 23 25 L 9 25 C 8.4349698 25 8 24.56503 8 24 L 8 18 z M 11.5 20 C 10.671573 20 10 20.671573 10 21.5 C 10 22.328427 10.671573 23 11.5 23 C 12.328427 23 13 22.328427 13 21.5 C 13 20.671573 12.328427 20 11.5 20 z M 20.5 20 C 19.671573 20 19 20.671573 19 21.5 C 19 22.328427 19.671573 23 20.5 23 C 21.328427 23 22 22.328427 22 21.5 C 22 20.671573 21.328427 20 20.5 20 z" fill="#606060"/>
</svg>