<svg xmlns="http://www.w3.org/2000/svg" viewBox="0 0 50 50" width="50" height="50">
    <path style="line-height:normal;text-indent:0;text-align:start;text-decoration-line:none;text-decoration-style:solid;text-decoration-color:#000;text-transform:none;block-progression:tb;isolation:auto;mix-blend-mode:normal" d="M 14.984375 16.986328 A 1.0001 1.0001 0 0 0 14.839844 17 L 11.160156 17 C 10.084682 17 9.0899413 17.578443 8.5566406 18.511719 L 5.9550781 23.0625 L 2.7089844 23.378906 C 1.1807441 23.528003 -1.1842379e-15 24.829733 0 26.365234 L 0 31 C 0 32.64497 1.3550302 34 3 34 L 5.1445312 34 C 5.5944085 35.715786 7.1496983 37 9 37 C 10.850301 37 12.405591 35.715786 12.855469 34 L 38.144531 34 C 38.594409 35.715786 40.149699 37 42 37 C 43.850301 37 45.405591 35.715786 45.855469 34 L 47 34 C 48.64497 34 50 32.64497 50 31 L 50 27.683594 C 50 26.26603 48.993037 25.029515 47.603516 24.744141 L 39.705078 23.121094 L 35.957031 18.746094 C 35.007522 17.637916 33.618502 17 32.160156 17 L 29.154297 17 A 1.0001 1.0001 0 0 0 28.984375 16.986328 A 1.0001 1.0001 0 0 0 28.839844 17 L 15.154297 17 A 1.0001 1.0001 0 0 0 14.984375 16.986328 z M 11.160156 19 L 14 19 L 14 23 L 8.2949219 23 L 10.292969 19.503906 C 10.471668 19.191182 10.799631 19 11.160156 19 z M 16 19 L 28 19 L 28 23 L 16 23 L 16 19 z M 30 19 L 32.160156 19 C 33.035811 19 33.86701 19.381053 34.4375 20.046875 L 36.96875 23 L 30 23 L 30 19 z M 6.6953125 25 L 14.832031 25 A 1.0001 1.0001 0 0 0 15.158203 25 L 28.832031 25 A 1.0001 1.0001 0 0 0 29.158203 25 L 38.917969 25 L 47.201172 26.703125 C 47.671651 26.79975 48 27.203157 48 27.683594 L 48 28 L 47 28 L 47 30 L 48 30 L 48 31 C 48 31.56503 47.56503 32 47 32 L 45.855469 32 C 45.405591 30.284214 43.850301 29 42 29 C 40.149699 29 38.594409 30.284214 38.144531 32 L 12.855469 32 C 12.405591 30.284214 10.850301 29 9 29 C 7.1496983 29 5.5944085 30.284214 5.1445312 32 L 3 32 C 2.4349698 32 2 31.56503 2 31 L 2 29 L 3 29 L 3 27 L 2 27 L 2 26.365234 C 2 25.840736 2.380584 25.420044 2.9023438 25.369141 L 6.6953125 25 z M 9 31 C 10.05338 31 10.890237 31.78979 10.982422 32.816406 C 10.982538 32.817701 10.982308 32.819018 10.982422 32.820312 A 1.0001 1.0001 0 0 0 10.982422 33.171875 C 10.895621 34.204189 10.057365 35 9 35 C 7.9473509 35 7.1126983 34.209164 7.0195312 33.183594 A 1.0001 1.0001 0 0 0 7.0175781 32.822266 C 7.1070784 31.7928 7.9446272 31 9 31 z M 42 31 C 43.116414 31 44 31.883586 44 33 C 44 34.116414 43.116414 35 42 35 C 40.883586 35 40 34.116414 40 33 C 40 31.883586 40.883586 31 42 31 z" fill="#606060"/>
</svg>