<svg xmlns="http://www.w3.org/2000/svg" viewBox="0 0 32 32" width="64" height="64">
    <path style="text-indent:0;text-align:start;line-height:normal;text-transform:none;block-progression:tb;-inkscape-font-specification:Bitstream Vera Sans" d="M 7.5 6 C 5.9692308 6 4.5866904 6.5493977 3.4375 7.46875 L 4.6875 9.03125 C 5.5383096 8.3506023 6.4307692 8 7.5 8 C 9.199939 8 10.728839 9.0607281 11.65625 10.71875 C 11.483656 10.876099 11.314797 11.044031 11.15625 11.21875 C 10.822393 10.848702 9.905686 10 8.5 10 L 8.5 12 C 9.2166667 12 9.6875 12.59375 9.6875 12.59375 L 10.53125 11.96875 C 10.118416 12.555697 9.7876629 13.237217 9.53125 13.9375 C 9.0799129 13.373431 8.3389484 13 7.5 13 C 6.1 13 5 14.15 5 15.25 C 5 16.4 6.1 17 7.5 17 C 8.0716667 17 8.5828421 16.884179 9 16.6875 C 8.9965001 16.79036 9 16.896366 9 17 C 9 17.682338 9.0746877 18.355327 9.21875 19 C 7.5545601 18.415112 5.7601066 18 4 18 L 3 18 L 3 19 L 3 25 L 5 25 L 5 20.1875 C 7.2157573 20.415509 9.6355304 21.216308 11.59375 22.1875 C 13.842654 23.302859 15.4375 24.40625 15.4375 24.40625 L 16 24.8125 L 16.59375 24.40625 C 16.59375 24.40625 18.116341 23.301204 20.34375 22.1875 C 22.287695 21.215527 24.727209 20.412754 27 20.1875 L 27 25 L 29 25 L 29 19 L 29 18 L 28 18 C 26.22341 18 24.434375 18.395726 22.78125 18.96875 C 22.918311 18.33511 23 17.672407 23 17 C 23 16.896366 23.0035 16.79036 23 16.6875 C 23.417158 16.884179 23.928333 17 24.5 17 C 25.9 17 27 16.35 27 15.25 C 27 14.15 25.9 13 24.5 13 C 23.661052 13 22.920087 13.373431 22.46875 13.9375 C 22.212337 13.237217 21.881584 12.555697 21.46875 11.96875 L 22.3125 12.59375 C 22.3125 12.59375 22.783333 12 23.5 12 L 23.5 10 C 22.094314 10 21.177607 10.848702 20.84375 11.21875 C 20.685203 11.044031 20.516344 10.876099 20.34375 10.71875 C 21.264537 9.0545319 22.746755 8 24.5 8 C 25.569231 8 26.46169 8.3506023 27.3125 9.03125 L 28.5625 7.46875 C 27.41331 6.5493977 26.030769 6 24.5 6 C 21.996889 6 19.864055 7.4729615 18.625 9.59375 C 17.817133 9.2182886 16.936018 9 16 9 C 15.063982 9 14.182867 9.2182886 13.375 9.59375 C 12.126515 7.4674215 9.9674329 6 7.5 6 z M 6.5 10 C 4.7166667 10 3.6875 11.40625 3.6875 11.40625 L 5.3125 12.59375 C 5.3125 12.59375 5.7833333 12 6.5 12 L 6.5 10 z M 25.5 10 L 25.5 12 C 26.216667 12 26.6875 12.59375 26.6875 12.59375 L 28.3125 11.40625 C 28.3125 11.40625 27.283333 10 25.5 10 z M 16 11 C 18.663636 11 21 13.617532 21 17 C 21 18.136296 20.732451 19.149756 20.28125 20 C 19.999046 20.131485 19.702277 20.273861 19.4375 20.40625 C 17.399148 21.425426 16.355211 22.168531 15.96875 22.4375 C 15.5641 22.162192 14.540356 21.418178 12.5 20.40625 C 12.25332 20.283907 11.979815 20.152995 11.71875 20.03125 C 11.276861 19.15432 11 18.110166 11 17 C 11 13.617532 13.336364 11 16 11 z M 15 13 C 13.216667 13 12.1875 14.40625 12.1875 14.40625 L 13.8125 15.59375 C 13.8125 15.59375 14.283333 15 15 15 L 15 13 z M 17 13 L 17 15 C 17.716667 15 18.1875 15.59375 18.1875 15.59375 L 19.8125 14.40625 C 19.8125 14.40625 18.783333 13 17 13 z M 16 16 C 14.6 16 13.5 17.1 13.5 18.25 C 13.5 19.4 14.6 20 16 20 C 17.4 20 18.5 19.35 18.5 18.25 C 18.5 17.15 17.4 16 16 16 z" fill="#606060" overflow="visible" font-family="Bitstream Vera Sans"/>
</svg>