<svg xmlns="http://www.w3.org/2000/svg" viewBox="0 0 32 32" width="64" height="64">
    <path style="text-indent:0;text-align:start;line-height:normal;text-transform:none;block-progression:tb;-inkscape-font-specification:Bitstream Vera Sans" d="M 4 4 L 4 5 L 4 15 L 4 16 L 5 16 L 5 27 L 5 28 L 6 28 L 14 28 L 15 28 L 15 27 L 15 21 L 17 21 L 17 27 L 17 28 L 18 28 L 26 28 L 27 28 L 27 27 L 27 16 L 28 16 L 28 15 L 28 5 L 28 4 L 27 4 L 5 4 L 4 4 z M 6 6 L 26 6 L 26 14 L 21.4375 14 L 16.71875 9.28125 L 16 8.59375 L 15.28125 9.28125 L 10.5625 14 L 7 14 L 6 14 L 6 6 z M 16 11.4375 L 20.28125 15.71875 L 20.59375 16 L 21 16 L 25 16 L 25 26 L 19 26 L 19 20 L 19 19 L 18 19 L 14 19 L 13 19 L 13 20 L 13 26 L 7 26 L 7 16 L 11 16 L 11.40625 16 L 11.71875 15.71875 L 16 11.4375 z M 9 19 L 9 23 L 11 23 L 11 19 L 9 19 z M 21 19 L 21 23 L 23 23 L 23 19 L 21 19 z" fill="#606060" overflow="visible" font-family="Bitstream Vera Sans"/>
</svg>