<?xml version="1.0" encoding="utf-8"?>
<!-- Generator: Adobe Illustrator 16.0.3, SVG Export Plug-In . SVG Version: 6.00 Build 0)  -->
<!DOCTYPE svg PUBLIC "-//W3C//DTD SVG 1.1//EN" "http://www.w3.org/Graphics/SVG/1.1/DTD/svg11.dtd">
<svg version="1.1" id="Ebene_1" xmlns="http://www.w3.org/2000/svg" xmlns:xlink="http://www.w3.org/1999/xlink" x="0px" y="0px"
	 width="17px" height="17px" viewBox="0 0 17 17" enable-background="new 0 0 17 17" xml:space="preserve">
<title>plus</title>
<desc>Created with Sketch.</desc>
<path fill="#FFFFFF" d="M4.047,9.778c-1.323-1.243-0.52-2.815,1.843-3.55c0.97-0.3,2.056-0.414,3.095-0.362L9.344,5
	c-1.445-0.094-2.968,0.052-4.32,0.472c-3.169,0.984-4.237,3.1-2.435,4.758l-1.753,0.545l4.36,0.699l1.17-2.415L4.047,9.778z
	 M11.799,5.524L10.63,7.941l2.322-0.722c1.321,1.246,0.517,2.819-1.849,3.552c-0.968,0.302-2.051,0.415-3.094,0.362L7.653,12
	c1.443,0.095,2.963-0.051,4.318-0.472c3.17-0.982,4.236-3.098,2.436-4.761l1.757-0.542L11.799,5.524z"/>
</svg>
