<svg xmlns="http://www.w3.org/2000/svg" viewBox="0 0 32 32" width="64" height="64">
    <path style="text-indent:0;text-align:start;line-height:normal;text-transform:none;block-progression:tb;-inkscape-font-specification:Bitstream Vera Sans" d="M 16 4.03125 L 15.46875 4.34375 L 3.96875 11.5625 L 5 13.1875 L 5 27 L 5 28 L 6 28 L 14 28 L 15 28 L 15 27 L 15 19 L 17 19 L 17 27 L 17 28 L 18 28 L 26 28 L 27 28 L 27 27 L 27 13.1875 L 28.03125 11.5625 L 16.53125 4.34375 L 16 4.03125 z M 16 6.40625 L 18.5625 8 L 15.1875 8 L 12 10 L 21.75 10 L 23.34375 11 L 10.40625 11 L 8 12.5 L 8 13 L 25 13 L 25 14 L 8 14 L 8 16 L 25 16 L 25 17 L 20 17 L 20 19 L 25 19 L 25 20 L 20 20 L 20 22 L 25 22 L 25 23 L 20 23 L 20 25 L 25 25 L 25 26 L 19 26 L 19 18 L 19 17 L 18 17 L 14 17 L 8 17 L 8 19 L 13 19 L 13 20 L 8 20 L 8 22 L 13 22 L 13 23 L 8 23 L 8 25 L 13 25 L 13 26 L 7 26 L 7 12.03125 L 16 6.40625 z" fill="#606060"/>
</svg>