<?xml version="1.0" encoding="utf-8"?>
<!-- Generator: Adobe Illustrator 16.0.3, SVG Export Plug-In . SVG Version: 6.00 Build 0)  -->
<!DOCTYPE svg PUBLIC "-//W3C//DTD SVG 1.1//EN" "http://www.w3.org/Graphics/SVG/1.1/DTD/svg11.dtd">
<svg version="1.1" id="Ebene_1" xmlns="http://www.w3.org/2000/svg" xmlns:xlink="http://www.w3.org/1999/xlink" x="0px" y="0px"
	 width="30px" height="30px" viewBox="-3 -3 30 30" enable-background="new -3 -3 30 30" xml:space="preserve">
<title>Website</title>
<desc>Created with Sketch.</desc>
<g id="Page-1">
	<g id="Eventlokale-Styleguide" transform="translate(-995.000000, -8836.000000)">
		<g id="Website" transform="translate(995.000000, 8836.000000)">
			<g id="domain">
				<path id="Shape" fill="#FF526E" d="M3.345,7c1.077-1.855,2.731-3.335,4.717-4.189C7.398,3.938,6.871,5.365,6.514,7h2.072
					C9.345,3.961,10.723,2,12,2c1.277,0,2.654,1.961,3.414,5h2.072c-0.357-1.635-0.885-3.062-1.549-4.189
					C17.924,3.665,19.578,5.145,20.654,7h2.24C20.994,2.876,16.831,0,12,0S3.006,2.876,1.105,7H3.345L3.345,7z"/>
				<path id="Shape_1_" fill="#FF526E" d="M20.654,17c-1.076,1.855-2.73,3.335-4.717,4.189c0.664-1.127,1.191-2.555,1.549-4.189
					h-2.072c-0.76,3.039-2.137,5-3.414,5c-1.278,0-2.655-1.961-3.414-5H6.514c0.357,1.635,0.884,3.063,1.548,4.189
					C6.076,20.335,4.422,18.855,3.345,17h-2.24C3.006,21.124,7.169,24,12,24s8.994-2.876,10.895-7H20.654L20.654,17z"/>
				<path id="Shape_2_" fill="#FF526E" d="M16,9l-1.5,6h-1.416c0,0-1.022-3.658-1.033-3.906h-0.016
					C12.012,11.367,10.967,15,10.967,15H9.491L8,9h1.397c0,0,0.859,3.545,0.874,3.832h0.024C10.305,12.617,11.438,9,11.438,9h1.369
					c0,0,0.994,3.542,1.021,3.824h0.016C13.854,12.604,14.71,9,14.71,9H16L16,9z"/>
				<path id="Shape_3_" fill="#FF526E" d="M24,9l-1.5,6h-1.416c0,0-1.021-3.658-1.033-3.906h-0.016
					C20.012,11.367,18.967,15,18.967,15h-1.476L16,9h1.396c0,0,0.859,3.545,0.875,3.832h0.023C18.305,12.617,19.438,9,19.438,9
					h1.369c0,0,0.994,3.542,1.021,3.824h0.016C21.854,12.604,22.71,9,22.71,9H24L24,9z"/>
				<path id="Shape_4_" fill="#FF526E" d="M8,9l-1.5,6H5.084c0,0-1.022-3.658-1.033-3.906H4.036C4.012,11.367,2.967,15,2.967,15
					H1.492L0,9h1.397c0,0,0.859,3.545,0.874,3.832h0.024C2.305,12.617,3.438,9,3.438,9h1.369c0,0,0.994,3.542,1.021,3.824h0.016
					C5.854,12.604,6.71,9,6.71,9H8L8,9z"/>
			</g>
		</g>
	</g>
</g>
</svg>
