<svg xmlns="http://www.w3.org/2000/svg" viewBox="0 0 32 32" width="64" height="64">
    <path d="M 16 2 L 16 5 L 21 3.53125 L 16 2 z M 16 5 L 3 14.5 L 3 17.21875 C 3 17.866836 3.382696 18.611606 3.96875 19.15625 L 3 27.875 L 2.875 29 L 4 29 L 13 29 L 13.8125 29 L 13.96875 28.1875 L 14.8125 24 L 17.1875 24 L 18.03125 28.1875 L 18.1875 29 L 19 29 L 28 29 L 29.125 29 L 29 27.875 L 28.03125 19.15625 C 28.617304 18.611606 29 17.866836 29 17.21875 L 29 14.5 L 16 5 z M 16 7.5 L 27 15.5 L 27 17.21875 C 27 17.54575 26.516 18 26 18 C 25.56 18 25 17.484 25 17 L 22.96875 17 C 22.83375 17.302 22.2115 18 21.4375 18 C 20.6395 18 20.046 17.221 20 17 L 18 17 L 17.9375 17 C 17.6895 17.341 16.893 18 16 18 C 15.107 18 14.3095 17.341 14.0625 17 L 12 17 C 11.914 17.286 11.3285 18 10.5625 18 C 9.7325 18 9.06 17.193 9 17 L 7 17 C 7 17.469 6.432 18 6 18 C 5.484 18 5 17.59775 5 17.21875 L 5 15.5 L 16 7.5 z M 13.09375 18.875 C 13.84775 19.515 14.909 20 16 20 C 17.091 20 18.15325 19.515 18.90625 18.875 C 19.51925 19.507 20.4055 20 21.4375 20 C 22.3975 20 23.26425 19.579 23.90625 19 C 24.43825 19.578 25.167 20 26 20 C 26.031526 20 26.062408 20.001147 26.09375 20 L 26.875 27 L 19.8125 27 L 18.96875 22.8125 L 18.8125 22 L 18 22 L 14 22 L 13.1875 22 L 13.03125 22.8125 L 12.1875 27 L 5.125 27 L 5.90625 20 C 5.9375918 20.001147 5.9684743 20 6 20 C 6.833 20 7.56075 19.578 8.09375 19 C 8.73475 19.579 9.6025 20 10.5625 20 C 11.5935 20 12.48175 19.507 13.09375 18.875 z" fill="#606060"/>
</svg>